M48
;DRILL file {KiCad 5.0.2-bee76a0~70~ubuntu18.04.1} date Wed 02 Jan 2019 07:48:36 PM CST
;FORMAT={-:-/ absolute / metric / decimal}
FMAT,2
METRIC,TZ
T1C0.500
T2C0.800
T3C0.900
T4C1.000
T5C2.500
%
G90
G05
T1
X125.514Y-105.004
X127.546Y-94.463
X130.721Y-113.513
X130.975Y-106.02
X130.975Y-107.29
X131.483Y-100.813
X132.334Y-97.282
X132.372Y-109.195
X132.372Y-110.719
X132.626Y-104.496
X132.753Y-105.893
X136.398Y-102.108
X136.944Y-110.846
X137.038Y-100.951
X137.565Y-98.033
X138.722Y-102.464
X139.484Y-106.782
X141.262Y-98.019
X142.024Y-109.322
X142.151Y-103.734
X142.151Y-108.179
X142.659Y-104.877
X143.167Y-99.162
X143.167Y-101.956
X143.294Y-110.592
X144.183Y-100.432
X144.31Y-102.21
X145.326Y-113.005
X145.453Y-106.782
X146.05Y-100.188
X146.088Y-111.735
X146.469Y-108.56
X146.812Y-101.346
X147.231Y-105.004
X147.358Y-97.13
X148.247Y-99.035
X149.009Y-106.909
X149.39Y-97.765
X149.39Y-100.178
X149.771Y-101.575
X150.533Y-111.227
X151.93Y-104.496
X152.057Y-101.194
X152.121Y-103.289
X152.565Y-108.052
X152.565Y-111.608
X155.74Y-108.941
X155.867Y-98.527
X155.867Y-107.036
X156.502Y-102.083
X156.629Y-110.973
X156.883Y-109.449
X158.788Y-100.813
X159.296Y-97.511
X160.566Y-102.337
X160.82Y-98.273
X160.82Y-100.432
X161.836Y-103.861
X162.09Y-109.449
X162.217Y-107.29
X162.217Y-111.481
X163.106Y-102.083
X163.995Y-105.512
X164.249Y-108.687
X164.249Y-111.608
X164.63Y-97.765
X165.519Y-104.242
X165.9Y-100.305
X166.154Y-106.528
X166.154Y-110.973
X166.281Y-108.941
X166.281Y-112.497
X167.17Y-103.099
X168.313Y-98.654
X168.567Y-114.021
X168.694Y-101.956
X168.694Y-105.131
X168.694Y-108.433
X168.821Y-103.099
X169.202Y-96.241
T2
X128.446Y-101.704
X128.446Y-108.304
T3
X125.646Y-101.404
X125.646Y-108.604
T4
X172.631Y-111.354
X172.631Y-98.654
X172.631Y-101.194
X172.631Y-103.734
X129.451Y-115.164
X131.991Y-115.164
X134.531Y-115.164
X137.071Y-115.164
X139.611Y-115.164
X142.151Y-115.164
X144.691Y-115.164
X147.231Y-115.164
X149.771Y-115.164
X152.311Y-115.164
X154.851Y-115.164
X157.391Y-115.164
X159.931Y-115.164
X162.471Y-115.164
X165.011Y-115.164
X167.551Y-115.164
X139.611Y-94.844
X142.151Y-94.844
X144.691Y-94.844
X147.231Y-94.844
X149.771Y-94.844
X152.311Y-94.844
X154.851Y-94.844
X157.391Y-94.844
X159.931Y-94.844
X162.471Y-94.844
X165.011Y-94.844
X167.551Y-94.844
T5
X125.641Y-113.894
X125.641Y-96.114
T0
M30
