M48
;DRILL file {KiCad 5.0.2-bee76a0~70~ubuntu18.04.1} date Sun 13 Jan 2019 07:20:42 PM CST
;FORMAT={-:-/ absolute / metric / decimal}
FMAT,2
METRIC,TZ
T1C0.400
T2C0.500
T3C0.800
T4C0.900
T5C1.000
T6C2.500
%
G90
G05
T1
X137.033Y-102.362
X138.43Y-113.859
X138.769Y-107.067
X140.081Y-106.782
X141.986Y-105.537
X142.494Y-106.426
X142.748Y-104.775
X145.478Y-105.029
X149.733Y-113.03
X152.004Y-106.769
X152.146Y-112.649
X152.54Y-108.714
X152.597Y-104.314
X152.608Y-105.356
X153.739Y-108.133
X153.797Y-101.727
X154.178Y-99.568
X154.686Y-100.711
X155.035Y-104.416
X155.321Y-109.601
X155.576Y-105.918
X155.829Y-107.479
X156.21Y-100.838
X156.591Y-104.775
X156.718Y-111.887
X157.353Y-107.315
X157.607Y-98.806
X157.607Y-99.949
X158.182Y-111.487
X158.623Y-107.696
X159.258Y-106.172
X159.375Y-112.392
X160.359Y-112.574
X161.096Y-107.502
X162.56Y-107.569
X162.941Y-104.521
X164.48Y-111.125
X165.227Y-107.569
X166.116Y-109.982
X166.899Y-107.9
X167.132Y-102.362
X168.275Y-101.727
T2
X125.514Y-105.004
X127.546Y-94.463
X130.683Y-98.806
X130.721Y-113.513
X130.975Y-106.02
X130.975Y-107.29
X131.483Y-100.813
X132.372Y-109.195
X132.372Y-110.719
X132.626Y-104.496
X132.753Y-105.893
X136.049Y-101.473
X136.944Y-110.846
X137.565Y-98.033
X138.762Y-102.464
X141.262Y-98.019
X141.933Y-108.553
X142.113Y-109.855
X143.167Y-99.162
X143.264Y-101.933
X143.62Y-110.823
X144.183Y-100.432
X144.334Y-102.216
X145.326Y-113.005
X145.453Y-106.782
X146.05Y-100.188
X146.088Y-111.735
X146.469Y-108.442
X146.803Y-101.346
X147.231Y-105.004
X147.358Y-97.13
X148.247Y-99.035
X149.009Y-106.909
X149.271Y-101.343
X149.39Y-97.765
X149.39Y-100.178
X150.479Y-111.106
X152.102Y-100.885
X154.305Y-109.021
X155.315Y-111.125
X155.818Y-98.331
X156.933Y-97.997
X160.909Y-104.775
X161.417Y-97.536
X163.449Y-105.512
X166.164Y-111.034
X166.281Y-112.497
X166.485Y-108.869
X168.402Y-107.823
X168.567Y-114.021
X168.783Y-98.298
X169.202Y-96.241
T3
X128.446Y-101.704
X128.446Y-108.304
T4
X125.646Y-101.404
X125.646Y-108.604
T5
X172.212Y-106.68
X172.212Y-109.22
X129.451Y-115.164
X131.991Y-115.164
X134.531Y-115.164
X137.071Y-115.164
X139.611Y-115.164
X142.151Y-115.164
X144.691Y-115.164
X147.231Y-115.164
X149.771Y-115.164
X152.311Y-115.164
X154.851Y-115.164
X157.391Y-115.164
X159.931Y-115.164
X162.471Y-115.164
X165.011Y-115.164
X167.551Y-115.164
X169.672Y-104.14
X169.672Y-106.68
X172.212Y-101.6
X172.212Y-104.14
X139.611Y-94.844
X142.151Y-94.844
X144.691Y-94.844
X147.231Y-94.844
X149.771Y-94.844
X152.311Y-94.844
X154.851Y-94.844
X157.391Y-94.844
X159.931Y-94.844
X162.471Y-94.844
X165.011Y-94.844
X167.551Y-94.844
T6
X125.641Y-96.114
X125.641Y-113.894
T0
M30
