G04 #@! TF.GenerationSoftware,KiCad,Pcbnew,5.0.2-bee76a0~70~ubuntu18.04.1*
G04 #@! TF.CreationDate,2019-01-13T20:45:53-06:00*
G04 #@! TF.ProjectId,Adafruit Feather M0 RFMxx,41646166-7275-4697-9420-466561746865,rev?*
G04 #@! TF.SameCoordinates,Original*
G04 #@! TF.FileFunction,Soldermask,Bot*
G04 #@! TF.FilePolarity,Negative*
%FSLAX46Y46*%
G04 Gerber Fmt 4.6, Leading zero omitted, Abs format (unit mm)*
G04 Created by KiCad (PCBNEW 5.0.2-bee76a0~70~ubuntu18.04.1) date Sun 13 Jan 2019 08:45:53 PM CST*
%MOMM*%
%LPD*%
G01*
G04 APERTURE LIST*
%ADD10C,0.100000*%
G04 APERTURE END LIST*
D10*
G36*
X139870412Y-114308764D02*
X140032198Y-114375778D01*
X140177807Y-114473071D01*
X140301629Y-114596893D01*
X140398922Y-114742502D01*
X140465936Y-114904288D01*
X140500100Y-115076041D01*
X140500100Y-115251159D01*
X140465936Y-115422912D01*
X140398922Y-115584698D01*
X140301629Y-115730307D01*
X140177807Y-115854129D01*
X140032198Y-115951422D01*
X139870412Y-116018436D01*
X139698659Y-116052600D01*
X139523541Y-116052600D01*
X139351788Y-116018436D01*
X139190002Y-115951422D01*
X139044393Y-115854129D01*
X138920571Y-115730307D01*
X138823278Y-115584698D01*
X138756264Y-115422912D01*
X138722100Y-115251159D01*
X138722100Y-115076041D01*
X138756264Y-114904288D01*
X138823278Y-114742502D01*
X138920571Y-114596893D01*
X139044393Y-114473071D01*
X139190002Y-114375778D01*
X139351788Y-114308764D01*
X139523541Y-114274600D01*
X139698659Y-114274600D01*
X139870412Y-114308764D01*
X139870412Y-114308764D01*
G37*
G36*
X150030412Y-114308764D02*
X150192198Y-114375778D01*
X150337807Y-114473071D01*
X150461629Y-114596893D01*
X150558922Y-114742502D01*
X150625936Y-114904288D01*
X150660100Y-115076041D01*
X150660100Y-115251159D01*
X150625936Y-115422912D01*
X150558922Y-115584698D01*
X150461629Y-115730307D01*
X150337807Y-115854129D01*
X150192198Y-115951422D01*
X150030412Y-116018436D01*
X149858659Y-116052600D01*
X149683541Y-116052600D01*
X149511788Y-116018436D01*
X149350002Y-115951422D01*
X149204393Y-115854129D01*
X149080571Y-115730307D01*
X148983278Y-115584698D01*
X148916264Y-115422912D01*
X148882100Y-115251159D01*
X148882100Y-115076041D01*
X148916264Y-114904288D01*
X148983278Y-114742502D01*
X149080571Y-114596893D01*
X149204393Y-114473071D01*
X149350002Y-114375778D01*
X149511788Y-114308764D01*
X149683541Y-114274600D01*
X149858659Y-114274600D01*
X150030412Y-114308764D01*
X150030412Y-114308764D01*
G37*
G36*
X137330412Y-114308764D02*
X137492198Y-114375778D01*
X137637807Y-114473071D01*
X137761629Y-114596893D01*
X137858922Y-114742502D01*
X137925936Y-114904288D01*
X137960100Y-115076041D01*
X137960100Y-115251159D01*
X137925936Y-115422912D01*
X137858922Y-115584698D01*
X137761629Y-115730307D01*
X137637807Y-115854129D01*
X137492198Y-115951422D01*
X137330412Y-116018436D01*
X137158659Y-116052600D01*
X136983541Y-116052600D01*
X136811788Y-116018436D01*
X136650002Y-115951422D01*
X136504393Y-115854129D01*
X136380571Y-115730307D01*
X136283278Y-115584698D01*
X136216264Y-115422912D01*
X136182100Y-115251159D01*
X136182100Y-115076041D01*
X136216264Y-114904288D01*
X136283278Y-114742502D01*
X136380571Y-114596893D01*
X136504393Y-114473071D01*
X136650002Y-114375778D01*
X136811788Y-114308764D01*
X136983541Y-114274600D01*
X137158659Y-114274600D01*
X137330412Y-114308764D01*
X137330412Y-114308764D01*
G37*
G36*
X134790412Y-114308764D02*
X134952198Y-114375778D01*
X135097807Y-114473071D01*
X135221629Y-114596893D01*
X135318922Y-114742502D01*
X135385936Y-114904288D01*
X135420100Y-115076041D01*
X135420100Y-115251159D01*
X135385936Y-115422912D01*
X135318922Y-115584698D01*
X135221629Y-115730307D01*
X135097807Y-115854129D01*
X134952198Y-115951422D01*
X134790412Y-116018436D01*
X134618659Y-116052600D01*
X134443541Y-116052600D01*
X134271788Y-116018436D01*
X134110002Y-115951422D01*
X133964393Y-115854129D01*
X133840571Y-115730307D01*
X133743278Y-115584698D01*
X133676264Y-115422912D01*
X133642100Y-115251159D01*
X133642100Y-115076041D01*
X133676264Y-114904288D01*
X133743278Y-114742502D01*
X133840571Y-114596893D01*
X133964393Y-114473071D01*
X134110002Y-114375778D01*
X134271788Y-114308764D01*
X134443541Y-114274600D01*
X134618659Y-114274600D01*
X134790412Y-114308764D01*
X134790412Y-114308764D01*
G37*
G36*
X132250412Y-114308764D02*
X132412198Y-114375778D01*
X132557807Y-114473071D01*
X132681629Y-114596893D01*
X132778922Y-114742502D01*
X132845936Y-114904288D01*
X132880100Y-115076041D01*
X132880100Y-115251159D01*
X132845936Y-115422912D01*
X132778922Y-115584698D01*
X132681629Y-115730307D01*
X132557807Y-115854129D01*
X132412198Y-115951422D01*
X132250412Y-116018436D01*
X132078659Y-116052600D01*
X131903541Y-116052600D01*
X131731788Y-116018436D01*
X131570002Y-115951422D01*
X131424393Y-115854129D01*
X131300571Y-115730307D01*
X131203278Y-115584698D01*
X131136264Y-115422912D01*
X131102100Y-115251159D01*
X131102100Y-115076041D01*
X131136264Y-114904288D01*
X131203278Y-114742502D01*
X131300571Y-114596893D01*
X131424393Y-114473071D01*
X131570002Y-114375778D01*
X131731788Y-114308764D01*
X131903541Y-114274600D01*
X132078659Y-114274600D01*
X132250412Y-114308764D01*
X132250412Y-114308764D01*
G37*
G36*
X129710412Y-114308764D02*
X129872198Y-114375778D01*
X130017807Y-114473071D01*
X130141629Y-114596893D01*
X130238922Y-114742502D01*
X130305936Y-114904288D01*
X130340100Y-115076041D01*
X130340100Y-115251159D01*
X130305936Y-115422912D01*
X130238922Y-115584698D01*
X130141629Y-115730307D01*
X130017807Y-115854129D01*
X129872198Y-115951422D01*
X129710412Y-116018436D01*
X129538659Y-116052600D01*
X129363541Y-116052600D01*
X129191788Y-116018436D01*
X129030002Y-115951422D01*
X128884393Y-115854129D01*
X128760571Y-115730307D01*
X128663278Y-115584698D01*
X128596264Y-115422912D01*
X128562100Y-115251159D01*
X128562100Y-115076041D01*
X128596264Y-114904288D01*
X128663278Y-114742502D01*
X128760571Y-114596893D01*
X128884393Y-114473071D01*
X129030002Y-114375778D01*
X129191788Y-114308764D01*
X129363541Y-114274600D01*
X129538659Y-114274600D01*
X129710412Y-114308764D01*
X129710412Y-114308764D01*
G37*
G36*
X142410412Y-114308764D02*
X142572198Y-114375778D01*
X142717807Y-114473071D01*
X142841629Y-114596893D01*
X142938922Y-114742502D01*
X143005936Y-114904288D01*
X143040100Y-115076041D01*
X143040100Y-115251159D01*
X143005936Y-115422912D01*
X142938922Y-115584698D01*
X142841629Y-115730307D01*
X142717807Y-115854129D01*
X142572198Y-115951422D01*
X142410412Y-116018436D01*
X142238659Y-116052600D01*
X142063541Y-116052600D01*
X141891788Y-116018436D01*
X141730002Y-115951422D01*
X141584393Y-115854129D01*
X141460571Y-115730307D01*
X141363278Y-115584698D01*
X141296264Y-115422912D01*
X141262100Y-115251159D01*
X141262100Y-115076041D01*
X141296264Y-114904288D01*
X141363278Y-114742502D01*
X141460571Y-114596893D01*
X141584393Y-114473071D01*
X141730002Y-114375778D01*
X141891788Y-114308764D01*
X142063541Y-114274600D01*
X142238659Y-114274600D01*
X142410412Y-114308764D01*
X142410412Y-114308764D01*
G37*
G36*
X144950412Y-114308764D02*
X145112198Y-114375778D01*
X145257807Y-114473071D01*
X145381629Y-114596893D01*
X145478922Y-114742502D01*
X145545936Y-114904288D01*
X145580100Y-115076041D01*
X145580100Y-115251159D01*
X145545936Y-115422912D01*
X145478922Y-115584698D01*
X145381629Y-115730307D01*
X145257807Y-115854129D01*
X145112198Y-115951422D01*
X144950412Y-116018436D01*
X144778659Y-116052600D01*
X144603541Y-116052600D01*
X144431788Y-116018436D01*
X144270002Y-115951422D01*
X144124393Y-115854129D01*
X144000571Y-115730307D01*
X143903278Y-115584698D01*
X143836264Y-115422912D01*
X143802100Y-115251159D01*
X143802100Y-115076041D01*
X143836264Y-114904288D01*
X143903278Y-114742502D01*
X144000571Y-114596893D01*
X144124393Y-114473071D01*
X144270002Y-114375778D01*
X144431788Y-114308764D01*
X144603541Y-114274600D01*
X144778659Y-114274600D01*
X144950412Y-114308764D01*
X144950412Y-114308764D01*
G37*
G36*
X152570412Y-114308764D02*
X152732198Y-114375778D01*
X152877807Y-114473071D01*
X153001629Y-114596893D01*
X153098922Y-114742502D01*
X153165936Y-114904288D01*
X153200100Y-115076041D01*
X153200100Y-115251159D01*
X153165936Y-115422912D01*
X153098922Y-115584698D01*
X153001629Y-115730307D01*
X152877807Y-115854129D01*
X152732198Y-115951422D01*
X152570412Y-116018436D01*
X152398659Y-116052600D01*
X152223541Y-116052600D01*
X152051788Y-116018436D01*
X151890002Y-115951422D01*
X151744393Y-115854129D01*
X151620571Y-115730307D01*
X151523278Y-115584698D01*
X151456264Y-115422912D01*
X151422100Y-115251159D01*
X151422100Y-115076041D01*
X151456264Y-114904288D01*
X151523278Y-114742502D01*
X151620571Y-114596893D01*
X151744393Y-114473071D01*
X151890002Y-114375778D01*
X152051788Y-114308764D01*
X152223541Y-114274600D01*
X152398659Y-114274600D01*
X152570412Y-114308764D01*
X152570412Y-114308764D01*
G37*
G36*
X167810412Y-114308764D02*
X167972198Y-114375778D01*
X168117807Y-114473071D01*
X168241629Y-114596893D01*
X168338922Y-114742502D01*
X168405936Y-114904288D01*
X168440100Y-115076041D01*
X168440100Y-115251159D01*
X168405936Y-115422912D01*
X168338922Y-115584698D01*
X168241629Y-115730307D01*
X168117807Y-115854129D01*
X167972198Y-115951422D01*
X167810412Y-116018436D01*
X167638659Y-116052600D01*
X167463541Y-116052600D01*
X167291788Y-116018436D01*
X167130002Y-115951422D01*
X166984393Y-115854129D01*
X166860571Y-115730307D01*
X166763278Y-115584698D01*
X166696264Y-115422912D01*
X166662100Y-115251159D01*
X166662100Y-115076041D01*
X166696264Y-114904288D01*
X166763278Y-114742502D01*
X166860571Y-114596893D01*
X166984393Y-114473071D01*
X167130002Y-114375778D01*
X167291788Y-114308764D01*
X167463541Y-114274600D01*
X167638659Y-114274600D01*
X167810412Y-114308764D01*
X167810412Y-114308764D01*
G37*
G36*
X165270412Y-114308764D02*
X165432198Y-114375778D01*
X165577807Y-114473071D01*
X165701629Y-114596893D01*
X165798922Y-114742502D01*
X165865936Y-114904288D01*
X165900100Y-115076041D01*
X165900100Y-115251159D01*
X165865936Y-115422912D01*
X165798922Y-115584698D01*
X165701629Y-115730307D01*
X165577807Y-115854129D01*
X165432198Y-115951422D01*
X165270412Y-116018436D01*
X165098659Y-116052600D01*
X164923541Y-116052600D01*
X164751788Y-116018436D01*
X164590002Y-115951422D01*
X164444393Y-115854129D01*
X164320571Y-115730307D01*
X164223278Y-115584698D01*
X164156264Y-115422912D01*
X164122100Y-115251159D01*
X164122100Y-115076041D01*
X164156264Y-114904288D01*
X164223278Y-114742502D01*
X164320571Y-114596893D01*
X164444393Y-114473071D01*
X164590002Y-114375778D01*
X164751788Y-114308764D01*
X164923541Y-114274600D01*
X165098659Y-114274600D01*
X165270412Y-114308764D01*
X165270412Y-114308764D01*
G37*
G36*
X162730412Y-114308764D02*
X162892198Y-114375778D01*
X163037807Y-114473071D01*
X163161629Y-114596893D01*
X163258922Y-114742502D01*
X163325936Y-114904288D01*
X163360100Y-115076041D01*
X163360100Y-115251159D01*
X163325936Y-115422912D01*
X163258922Y-115584698D01*
X163161629Y-115730307D01*
X163037807Y-115854129D01*
X162892198Y-115951422D01*
X162730412Y-116018436D01*
X162558659Y-116052600D01*
X162383541Y-116052600D01*
X162211788Y-116018436D01*
X162050002Y-115951422D01*
X161904393Y-115854129D01*
X161780571Y-115730307D01*
X161683278Y-115584698D01*
X161616264Y-115422912D01*
X161582100Y-115251159D01*
X161582100Y-115076041D01*
X161616264Y-114904288D01*
X161683278Y-114742502D01*
X161780571Y-114596893D01*
X161904393Y-114473071D01*
X162050002Y-114375778D01*
X162211788Y-114308764D01*
X162383541Y-114274600D01*
X162558659Y-114274600D01*
X162730412Y-114308764D01*
X162730412Y-114308764D01*
G37*
G36*
X157650412Y-114308764D02*
X157812198Y-114375778D01*
X157957807Y-114473071D01*
X158081629Y-114596893D01*
X158178922Y-114742502D01*
X158245936Y-114904288D01*
X158280100Y-115076041D01*
X158280100Y-115251159D01*
X158245936Y-115422912D01*
X158178922Y-115584698D01*
X158081629Y-115730307D01*
X157957807Y-115854129D01*
X157812198Y-115951422D01*
X157650412Y-116018436D01*
X157478659Y-116052600D01*
X157303541Y-116052600D01*
X157131788Y-116018436D01*
X156970002Y-115951422D01*
X156824393Y-115854129D01*
X156700571Y-115730307D01*
X156603278Y-115584698D01*
X156536264Y-115422912D01*
X156502100Y-115251159D01*
X156502100Y-115076041D01*
X156536264Y-114904288D01*
X156603278Y-114742502D01*
X156700571Y-114596893D01*
X156824393Y-114473071D01*
X156970002Y-114375778D01*
X157131788Y-114308764D01*
X157303541Y-114274600D01*
X157478659Y-114274600D01*
X157650412Y-114308764D01*
X157650412Y-114308764D01*
G37*
G36*
X147490412Y-114308764D02*
X147652198Y-114375778D01*
X147797807Y-114473071D01*
X147921629Y-114596893D01*
X148018922Y-114742502D01*
X148085936Y-114904288D01*
X148120100Y-115076041D01*
X148120100Y-115251159D01*
X148085936Y-115422912D01*
X148018922Y-115584698D01*
X147921629Y-115730307D01*
X147797807Y-115854129D01*
X147652198Y-115951422D01*
X147490412Y-116018436D01*
X147318659Y-116052600D01*
X147143541Y-116052600D01*
X146971788Y-116018436D01*
X146810002Y-115951422D01*
X146664393Y-115854129D01*
X146540571Y-115730307D01*
X146443278Y-115584698D01*
X146376264Y-115422912D01*
X146342100Y-115251159D01*
X146342100Y-115076041D01*
X146376264Y-114904288D01*
X146443278Y-114742502D01*
X146540571Y-114596893D01*
X146664393Y-114473071D01*
X146810002Y-114375778D01*
X146971788Y-114308764D01*
X147143541Y-114274600D01*
X147318659Y-114274600D01*
X147490412Y-114308764D01*
X147490412Y-114308764D01*
G37*
G36*
X160190412Y-114308764D02*
X160352198Y-114375778D01*
X160497807Y-114473071D01*
X160621629Y-114596893D01*
X160718922Y-114742502D01*
X160785936Y-114904288D01*
X160820100Y-115076041D01*
X160820100Y-115251159D01*
X160785936Y-115422912D01*
X160718922Y-115584698D01*
X160621629Y-115730307D01*
X160497807Y-115854129D01*
X160352198Y-115951422D01*
X160190412Y-116018436D01*
X160018659Y-116052600D01*
X159843541Y-116052600D01*
X159671788Y-116018436D01*
X159510002Y-115951422D01*
X159364393Y-115854129D01*
X159240571Y-115730307D01*
X159143278Y-115584698D01*
X159076264Y-115422912D01*
X159042100Y-115251159D01*
X159042100Y-115076041D01*
X159076264Y-114904288D01*
X159143278Y-114742502D01*
X159240571Y-114596893D01*
X159364393Y-114473071D01*
X159510002Y-114375778D01*
X159671788Y-114308764D01*
X159843541Y-114274600D01*
X160018659Y-114274600D01*
X160190412Y-114308764D01*
X160190412Y-114308764D01*
G37*
G36*
X155110412Y-114308764D02*
X155272198Y-114375778D01*
X155417807Y-114473071D01*
X155541629Y-114596893D01*
X155638922Y-114742502D01*
X155705936Y-114904288D01*
X155740100Y-115076041D01*
X155740100Y-115251159D01*
X155705936Y-115422912D01*
X155638922Y-115584698D01*
X155541629Y-115730307D01*
X155417807Y-115854129D01*
X155272198Y-115951422D01*
X155110412Y-116018436D01*
X154938659Y-116052600D01*
X154763541Y-116052600D01*
X154591788Y-116018436D01*
X154430002Y-115951422D01*
X154284393Y-115854129D01*
X154160571Y-115730307D01*
X154063278Y-115584698D01*
X153996264Y-115422912D01*
X153962100Y-115251159D01*
X153962100Y-115076041D01*
X153996264Y-114904288D01*
X154063278Y-114742502D01*
X154160571Y-114596893D01*
X154284393Y-114473071D01*
X154430002Y-114375778D01*
X154591788Y-114308764D01*
X154763541Y-114274600D01*
X154938659Y-114274600D01*
X155110412Y-114308764D01*
X155110412Y-114308764D01*
G37*
G36*
X125883423Y-112258660D02*
X126122621Y-112306239D01*
X126423047Y-112430680D01*
X126693424Y-112611340D01*
X126923360Y-112841276D01*
X127104020Y-113111653D01*
X127228461Y-113412079D01*
X127291900Y-113731010D01*
X127291900Y-114056190D01*
X127228461Y-114375121D01*
X127104020Y-114675547D01*
X126923360Y-114945924D01*
X126693424Y-115175860D01*
X126423047Y-115356520D01*
X126122621Y-115480961D01*
X125883423Y-115528540D01*
X125803691Y-115544400D01*
X125478509Y-115544400D01*
X125398777Y-115528540D01*
X125159579Y-115480961D01*
X124859153Y-115356520D01*
X124588776Y-115175860D01*
X124358840Y-114945924D01*
X124178180Y-114675547D01*
X124053739Y-114375121D01*
X123990300Y-114056190D01*
X123990300Y-113731010D01*
X124053739Y-113412079D01*
X124178180Y-113111653D01*
X124358840Y-112841276D01*
X124588776Y-112611340D01*
X124859153Y-112430680D01*
X125159579Y-112306239D01*
X125398777Y-112258660D01*
X125478509Y-112242800D01*
X125803691Y-112242800D01*
X125883423Y-112258660D01*
X125883423Y-112258660D01*
G37*
G36*
X171651629Y-112617389D02*
X171888359Y-112715445D01*
X172101415Y-112857805D01*
X172282595Y-113038985D01*
X172424955Y-113252041D01*
X172523011Y-113488771D01*
X172573000Y-113740081D01*
X172573000Y-113996319D01*
X172523011Y-114247629D01*
X172424955Y-114484359D01*
X172282595Y-114697415D01*
X172101415Y-114878595D01*
X171888359Y-115020955D01*
X171651629Y-115119011D01*
X171400319Y-115169000D01*
X171144081Y-115169000D01*
X170892771Y-115119011D01*
X170656041Y-115020955D01*
X170442985Y-114878595D01*
X170261805Y-114697415D01*
X170119445Y-114484359D01*
X170021389Y-114247629D01*
X169971400Y-113996319D01*
X169971400Y-113740081D01*
X170021389Y-113488768D01*
X170026167Y-113477234D01*
X170033280Y-113453785D01*
X170035682Y-113429399D01*
X170033280Y-113405013D01*
X170030304Y-113395202D01*
X170039346Y-113390369D01*
X170058288Y-113374823D01*
X170073834Y-113355881D01*
X170085385Y-113334270D01*
X170119445Y-113252040D01*
X170261805Y-113038985D01*
X170442985Y-112857805D01*
X170656041Y-112715445D01*
X170892771Y-112617389D01*
X171144081Y-112567400D01*
X171400319Y-112567400D01*
X171651629Y-112617389D01*
X171651629Y-112617389D01*
G37*
G36*
X169844900Y-110677800D02*
X169847302Y-110702186D01*
X169854415Y-110725635D01*
X169865966Y-110747246D01*
X169881512Y-110766188D01*
X169900454Y-110781734D01*
X169922065Y-110793285D01*
X169945514Y-110800398D01*
X169969900Y-110802800D01*
X170669900Y-110802800D01*
X170669900Y-111904400D01*
X169969900Y-111904400D01*
X169945514Y-111906802D01*
X169922065Y-111913915D01*
X169900454Y-111925466D01*
X169881512Y-111941012D01*
X169865966Y-111959954D01*
X169854415Y-111981565D01*
X169847302Y-112005014D01*
X169844900Y-112029400D01*
X169844900Y-113286435D01*
X169846670Y-113304400D01*
X167543300Y-113304400D01*
X167543300Y-112152800D01*
X169643300Y-112152800D01*
X169667686Y-112150398D01*
X169691135Y-112143285D01*
X169712746Y-112131734D01*
X169731688Y-112116188D01*
X169747234Y-112097246D01*
X169758785Y-112075635D01*
X169765898Y-112052186D01*
X169768300Y-112027800D01*
X169768300Y-110679400D01*
X169765898Y-110655014D01*
X169758785Y-110631565D01*
X169747234Y-110609954D01*
X169731688Y-110591012D01*
X169712746Y-110575466D01*
X169691135Y-110563915D01*
X169667686Y-110556802D01*
X169643300Y-110554400D01*
X167543300Y-110554400D01*
X167543300Y-109402800D01*
X169844900Y-109402800D01*
X169844900Y-110677800D01*
X169844900Y-110677800D01*
G37*
G36*
X172890412Y-110498764D02*
X173052198Y-110565778D01*
X173197807Y-110663071D01*
X173321629Y-110786893D01*
X173418922Y-110932502D01*
X173485936Y-111094288D01*
X173520100Y-111266041D01*
X173520100Y-111441159D01*
X173485936Y-111612912D01*
X173418922Y-111774698D01*
X173321629Y-111920307D01*
X173197807Y-112044129D01*
X173052198Y-112141422D01*
X172890412Y-112208436D01*
X172718659Y-112242600D01*
X172543541Y-112242600D01*
X172371788Y-112208436D01*
X172210002Y-112141422D01*
X172064393Y-112044129D01*
X171940571Y-111920307D01*
X171843278Y-111774698D01*
X171776264Y-111612912D01*
X171742100Y-111441159D01*
X171742100Y-111266041D01*
X171776264Y-111094288D01*
X171843278Y-110932502D01*
X171940571Y-110786893D01*
X172064393Y-110663071D01*
X172210002Y-110565778D01*
X172371788Y-110498764D01*
X172543541Y-110464600D01*
X172718659Y-110464600D01*
X172890412Y-110498764D01*
X172890412Y-110498764D01*
G37*
G36*
X138624329Y-110314186D02*
X138774554Y-110359756D01*
X138913002Y-110433758D01*
X139034352Y-110533348D01*
X139133942Y-110654698D01*
X139207944Y-110793146D01*
X139253514Y-110943371D01*
X139268901Y-111099599D01*
X139268901Y-111099601D01*
X139253514Y-111255829D01*
X139207944Y-111406054D01*
X139133942Y-111544502D01*
X139034352Y-111665852D01*
X138913002Y-111765442D01*
X138774554Y-111839444D01*
X138624329Y-111885014D01*
X138468101Y-111900401D01*
X138468099Y-111900401D01*
X138311871Y-111885014D01*
X138161646Y-111839444D01*
X138023198Y-111765442D01*
X137901848Y-111665852D01*
X137802258Y-111544502D01*
X137728256Y-111406054D01*
X137682686Y-111255829D01*
X137667299Y-111099601D01*
X137667299Y-111099599D01*
X137682686Y-110943371D01*
X137728256Y-110793146D01*
X137802258Y-110654698D01*
X137901848Y-110533348D01*
X138023198Y-110433758D01*
X138161646Y-110359756D01*
X138311871Y-110314186D01*
X138468099Y-110298799D01*
X138468101Y-110298799D01*
X138624329Y-110314186D01*
X138624329Y-110314186D01*
G37*
G36*
X141164329Y-110314186D02*
X141314554Y-110359756D01*
X141453002Y-110433758D01*
X141574352Y-110533348D01*
X141673942Y-110654698D01*
X141747944Y-110793146D01*
X141793514Y-110943371D01*
X141808901Y-111099599D01*
X141808901Y-111099601D01*
X141793514Y-111255829D01*
X141747944Y-111406054D01*
X141673942Y-111544502D01*
X141574352Y-111665852D01*
X141453002Y-111765442D01*
X141314554Y-111839444D01*
X141164329Y-111885014D01*
X141008101Y-111900401D01*
X141008099Y-111900401D01*
X140851871Y-111885014D01*
X140701646Y-111839444D01*
X140563198Y-111765442D01*
X140441848Y-111665852D01*
X140342258Y-111544502D01*
X140268256Y-111406054D01*
X140222686Y-111255829D01*
X140207299Y-111099601D01*
X140207299Y-111099599D01*
X140222686Y-110943371D01*
X140268256Y-110793146D01*
X140342258Y-110654698D01*
X140441848Y-110533348D01*
X140563198Y-110433758D01*
X140701646Y-110359756D01*
X140851871Y-110314186D01*
X141008099Y-110298799D01*
X141008101Y-110298799D01*
X141164329Y-110314186D01*
X141164329Y-110314186D01*
G37*
G36*
X126946900Y-109904400D02*
X124345300Y-109904400D01*
X124345300Y-107302800D01*
X126946900Y-107302800D01*
X126946900Y-109904400D01*
X126946900Y-109904400D01*
G37*
G36*
X128635929Y-107677809D02*
X128635932Y-107677810D01*
X128635931Y-107677810D01*
X128754369Y-107726868D01*
X128754370Y-107726869D01*
X128860964Y-107798093D01*
X128951607Y-107888736D01*
X128951609Y-107888739D01*
X129022832Y-107995331D01*
X129060776Y-108086938D01*
X129071891Y-108113771D01*
X129096900Y-108239500D01*
X129096900Y-108367700D01*
X129071891Y-108493429D01*
X129071890Y-108493431D01*
X129022832Y-108611869D01*
X129022831Y-108611870D01*
X128951607Y-108718464D01*
X128860964Y-108809107D01*
X128860961Y-108809109D01*
X128754369Y-108880332D01*
X128662762Y-108918276D01*
X128635929Y-108929391D01*
X128510200Y-108954400D01*
X128382000Y-108954400D01*
X128256271Y-108929391D01*
X128229438Y-108918276D01*
X128137831Y-108880332D01*
X128031239Y-108809109D01*
X128031236Y-108809107D01*
X127940593Y-108718464D01*
X127869369Y-108611870D01*
X127869368Y-108611869D01*
X127820310Y-108493431D01*
X127820309Y-108493429D01*
X127795300Y-108367700D01*
X127795300Y-108239500D01*
X127820309Y-108113771D01*
X127831424Y-108086938D01*
X127869368Y-107995331D01*
X127940591Y-107888739D01*
X127940593Y-107888736D01*
X128031236Y-107798093D01*
X128137830Y-107726869D01*
X128137831Y-107726868D01*
X128256269Y-107677810D01*
X128256268Y-107677810D01*
X128256271Y-107677809D01*
X128382000Y-107652800D01*
X128510200Y-107652800D01*
X128635929Y-107677809D01*
X128635929Y-107677809D01*
G37*
G36*
X127611419Y-106557737D02*
X127663067Y-106568010D01*
X127736045Y-106598239D01*
X127801725Y-106642125D01*
X127857575Y-106697975D01*
X127857577Y-106697978D01*
X127901461Y-106763655D01*
X127931690Y-106836633D01*
X127947100Y-106914105D01*
X127947100Y-106993095D01*
X127931690Y-107070567D01*
X127905903Y-107132822D01*
X127901461Y-107143545D01*
X127857575Y-107209225D01*
X127801725Y-107265075D01*
X127801722Y-107265077D01*
X127736045Y-107308961D01*
X127663067Y-107339190D01*
X127611419Y-107349463D01*
X127585596Y-107354600D01*
X127506604Y-107354600D01*
X127480781Y-107349463D01*
X127429133Y-107339190D01*
X127356155Y-107308961D01*
X127290478Y-107265077D01*
X127290475Y-107265075D01*
X127234625Y-107209225D01*
X127190737Y-107143542D01*
X127187384Y-107135447D01*
X127185981Y-107132822D01*
X127185115Y-107129969D01*
X127160510Y-107070567D01*
X127145100Y-106993095D01*
X127145100Y-106914105D01*
X127160510Y-106836633D01*
X127190739Y-106763655D01*
X127234623Y-106697978D01*
X127234625Y-106697975D01*
X127290475Y-106642125D01*
X127356155Y-106598239D01*
X127429133Y-106568010D01*
X127480781Y-106557737D01*
X127506604Y-106552600D01*
X127585596Y-106552600D01*
X127611419Y-106557737D01*
X127611419Y-106557737D01*
G37*
G36*
X159841978Y-105243211D02*
X157540378Y-105243211D01*
X157540378Y-104541611D01*
X159841978Y-104541611D01*
X159841978Y-105243211D01*
X159841978Y-105243211D01*
G37*
G36*
X166471978Y-105243211D02*
X164170378Y-105243211D01*
X164170378Y-104541611D01*
X166471978Y-104541611D01*
X166471978Y-105243211D01*
X166471978Y-105243211D01*
G37*
G36*
X172890412Y-102878764D02*
X173052198Y-102945778D01*
X173197807Y-103043071D01*
X173321629Y-103166893D01*
X173418922Y-103312502D01*
X173485936Y-103474288D01*
X173520100Y-103646041D01*
X173520100Y-103821159D01*
X173485936Y-103992912D01*
X173418922Y-104154698D01*
X173321629Y-104300307D01*
X173197807Y-104424129D01*
X173052198Y-104521422D01*
X172890412Y-104588436D01*
X172718659Y-104622600D01*
X172543541Y-104622600D01*
X172371788Y-104588436D01*
X172210002Y-104521422D01*
X172064393Y-104424129D01*
X171940571Y-104300307D01*
X171843278Y-104154698D01*
X171776264Y-103992912D01*
X171742100Y-103821159D01*
X171742100Y-103646041D01*
X171776264Y-103474288D01*
X171843278Y-103312502D01*
X171940571Y-103166893D01*
X172064393Y-103043071D01*
X172210002Y-102945778D01*
X172371788Y-102878764D01*
X172543541Y-102844600D01*
X172718659Y-102844600D01*
X172890412Y-102878764D01*
X172890412Y-102878764D01*
G37*
G36*
X159841978Y-103973211D02*
X157540378Y-103973211D01*
X157540378Y-103271611D01*
X159841978Y-103271611D01*
X159841978Y-103973211D01*
X159841978Y-103973211D01*
G37*
G36*
X166471978Y-103973211D02*
X164170378Y-103973211D01*
X164170378Y-103271611D01*
X166471978Y-103271611D01*
X166471978Y-103973211D01*
X166471978Y-103973211D01*
G37*
G36*
X127611419Y-102657737D02*
X127663067Y-102668010D01*
X127736045Y-102698239D01*
X127801725Y-102742125D01*
X127857575Y-102797975D01*
X127857577Y-102797978D01*
X127901461Y-102863655D01*
X127931690Y-102936633D01*
X127947100Y-103014105D01*
X127947100Y-103093095D01*
X127931690Y-103170567D01*
X127901461Y-103243545D01*
X127857575Y-103309225D01*
X127801725Y-103365075D01*
X127801722Y-103365077D01*
X127736045Y-103408961D01*
X127663067Y-103439190D01*
X127611419Y-103449463D01*
X127585596Y-103454600D01*
X127506604Y-103454600D01*
X127480781Y-103449463D01*
X127429133Y-103439190D01*
X127356155Y-103408961D01*
X127290478Y-103365077D01*
X127290475Y-103365075D01*
X127234625Y-103309225D01*
X127190739Y-103243545D01*
X127160510Y-103170567D01*
X127145100Y-103093095D01*
X127145100Y-103014105D01*
X127160510Y-102936633D01*
X127185115Y-102877231D01*
X127185981Y-102874378D01*
X127187384Y-102871753D01*
X127190737Y-102863658D01*
X127234625Y-102797975D01*
X127290475Y-102742125D01*
X127356155Y-102698239D01*
X127429133Y-102668010D01*
X127480781Y-102657737D01*
X127506604Y-102652600D01*
X127585596Y-102652600D01*
X127611419Y-102657737D01*
X127611419Y-102657737D01*
G37*
G36*
X126946900Y-102704400D02*
X124345300Y-102704400D01*
X124345300Y-100102800D01*
X126946900Y-100102800D01*
X126946900Y-102704400D01*
X126946900Y-102704400D01*
G37*
G36*
X166471978Y-102703211D02*
X164170378Y-102703211D01*
X164170378Y-102001611D01*
X166471978Y-102001611D01*
X166471978Y-102703211D01*
X166471978Y-102703211D01*
G37*
G36*
X159841978Y-102703211D02*
X157540378Y-102703211D01*
X157540378Y-102001611D01*
X159841978Y-102001611D01*
X159841978Y-102703211D01*
X159841978Y-102703211D01*
G37*
G36*
X128635929Y-101077809D02*
X128635932Y-101077810D01*
X128635931Y-101077810D01*
X128754369Y-101126868D01*
X128754370Y-101126869D01*
X128860964Y-101198093D01*
X128951607Y-101288736D01*
X128951609Y-101288739D01*
X129022832Y-101395331D01*
X129060776Y-101486938D01*
X129071891Y-101513771D01*
X129096900Y-101639500D01*
X129096900Y-101767700D01*
X129071891Y-101893429D01*
X129071890Y-101893431D01*
X129022832Y-102011869D01*
X128975571Y-102082600D01*
X128951607Y-102118464D01*
X128860964Y-102209107D01*
X128860961Y-102209109D01*
X128754369Y-102280332D01*
X128662762Y-102318276D01*
X128635929Y-102329391D01*
X128510200Y-102354400D01*
X128382000Y-102354400D01*
X128256271Y-102329391D01*
X128229438Y-102318276D01*
X128137831Y-102280332D01*
X128031239Y-102209109D01*
X128031236Y-102209107D01*
X127940593Y-102118464D01*
X127916629Y-102082600D01*
X127869368Y-102011869D01*
X127820310Y-101893431D01*
X127820309Y-101893429D01*
X127795300Y-101767700D01*
X127795300Y-101639500D01*
X127820309Y-101513771D01*
X127831424Y-101486938D01*
X127869368Y-101395331D01*
X127940591Y-101288739D01*
X127940593Y-101288736D01*
X128031236Y-101198093D01*
X128137830Y-101126869D01*
X128137831Y-101126868D01*
X128256269Y-101077810D01*
X128256268Y-101077810D01*
X128256271Y-101077809D01*
X128382000Y-101052800D01*
X128510200Y-101052800D01*
X128635929Y-101077809D01*
X128635929Y-101077809D01*
G37*
G36*
X172890412Y-100338764D02*
X173052198Y-100405778D01*
X173197807Y-100503071D01*
X173321629Y-100626893D01*
X173418922Y-100772502D01*
X173485936Y-100934288D01*
X173520100Y-101106041D01*
X173520100Y-101281159D01*
X173485936Y-101452912D01*
X173418922Y-101614698D01*
X173321629Y-101760307D01*
X173197807Y-101884129D01*
X173052198Y-101981422D01*
X172890412Y-102048436D01*
X172718659Y-102082600D01*
X172543541Y-102082600D01*
X172371788Y-102048436D01*
X172210002Y-101981422D01*
X172064393Y-101884129D01*
X171940571Y-101760307D01*
X171843278Y-101614698D01*
X171776264Y-101452912D01*
X171742100Y-101281159D01*
X171742100Y-101106041D01*
X171776264Y-100934288D01*
X171843278Y-100772502D01*
X171940571Y-100626893D01*
X172064393Y-100503071D01*
X172210002Y-100405778D01*
X172371788Y-100338764D01*
X172543541Y-100304600D01*
X172718659Y-100304600D01*
X172890412Y-100338764D01*
X172890412Y-100338764D01*
G37*
G36*
X159841978Y-101433211D02*
X157540378Y-101433211D01*
X157540378Y-100731611D01*
X159841978Y-100731611D01*
X159841978Y-101433211D01*
X159841978Y-101433211D01*
G37*
G36*
X166471978Y-101433211D02*
X164170378Y-101433211D01*
X164170378Y-100731611D01*
X166471978Y-100731611D01*
X166471978Y-101433211D01*
X166471978Y-101433211D01*
G37*
G36*
X163590800Y-99864800D02*
X162389200Y-99864800D01*
X162389200Y-98763200D01*
X163590800Y-98763200D01*
X163590800Y-99864800D01*
X163590800Y-99864800D01*
G37*
G36*
X161890800Y-99864800D02*
X160689200Y-99864800D01*
X160689200Y-98763200D01*
X161890800Y-98763200D01*
X161890800Y-99864800D01*
X161890800Y-99864800D01*
G37*
G36*
X132703000Y-99697000D02*
X132001000Y-99697000D01*
X132001000Y-98045000D01*
X132703000Y-98045000D01*
X132703000Y-99697000D01*
X132703000Y-99697000D01*
G37*
G36*
X135703000Y-99697000D02*
X135001000Y-99697000D01*
X135001000Y-98045000D01*
X135703000Y-98045000D01*
X135703000Y-99697000D01*
X135703000Y-99697000D01*
G37*
G36*
X134703000Y-99697000D02*
X134001000Y-99697000D01*
X134001000Y-98045000D01*
X134703000Y-98045000D01*
X134703000Y-99697000D01*
X134703000Y-99697000D01*
G37*
G36*
X133703000Y-99697000D02*
X133001000Y-99697000D01*
X133001000Y-98045000D01*
X133703000Y-98045000D01*
X133703000Y-99697000D01*
X133703000Y-99697000D01*
G37*
G36*
X172890412Y-97798764D02*
X173052198Y-97865778D01*
X173197807Y-97963071D01*
X173321629Y-98086893D01*
X173418922Y-98232502D01*
X173485936Y-98394288D01*
X173520100Y-98566041D01*
X173520100Y-98741159D01*
X173485936Y-98912912D01*
X173418922Y-99074698D01*
X173321629Y-99220307D01*
X173197807Y-99344129D01*
X173052198Y-99441422D01*
X172890412Y-99508436D01*
X172718659Y-99542600D01*
X172543541Y-99542600D01*
X172371788Y-99508436D01*
X172210002Y-99441422D01*
X172064393Y-99344129D01*
X171940571Y-99220307D01*
X171843278Y-99074698D01*
X171776264Y-98912912D01*
X171742100Y-98741159D01*
X171742100Y-98566041D01*
X171776264Y-98394288D01*
X171843278Y-98232502D01*
X171940571Y-98086893D01*
X172064393Y-97963071D01*
X172210002Y-97865778D01*
X172371788Y-97798764D01*
X172543541Y-97764600D01*
X172718659Y-97764600D01*
X172890412Y-97798764D01*
X172890412Y-97798764D01*
G37*
G36*
X125883423Y-94478660D02*
X126122621Y-94526239D01*
X126423047Y-94650680D01*
X126693424Y-94831340D01*
X126923360Y-95061276D01*
X127104020Y-95331653D01*
X127228461Y-95632079D01*
X127248768Y-95734171D01*
X127291103Y-95947000D01*
X127291900Y-95951010D01*
X127291900Y-96276190D01*
X127228461Y-96595121D01*
X127104020Y-96895547D01*
X126923360Y-97165924D01*
X126693424Y-97395860D01*
X126423047Y-97576520D01*
X126122621Y-97700961D01*
X125883423Y-97748540D01*
X125803691Y-97764400D01*
X125478509Y-97764400D01*
X125398777Y-97748540D01*
X125159579Y-97700961D01*
X124859153Y-97576520D01*
X124588776Y-97395860D01*
X124358840Y-97165924D01*
X124178180Y-96895547D01*
X124053739Y-96595121D01*
X123990300Y-96276190D01*
X123990300Y-95951010D01*
X123991098Y-95947000D01*
X124033432Y-95734171D01*
X124053739Y-95632079D01*
X124178180Y-95331653D01*
X124358840Y-95061276D01*
X124588776Y-94831340D01*
X124859153Y-94650680D01*
X125159579Y-94526239D01*
X125398777Y-94478660D01*
X125478509Y-94462800D01*
X125803691Y-94462800D01*
X125883423Y-94478660D01*
X125883423Y-94478660D01*
G37*
G36*
X171740529Y-94862789D02*
X171977259Y-94960845D01*
X172190315Y-95103205D01*
X172371495Y-95284385D01*
X172513855Y-95497441D01*
X172611911Y-95734171D01*
X172661900Y-95985481D01*
X172661900Y-96241719D01*
X172611911Y-96493029D01*
X172513855Y-96729759D01*
X172371495Y-96942815D01*
X172190315Y-97123995D01*
X171977259Y-97266355D01*
X171740529Y-97364411D01*
X171489219Y-97414400D01*
X171232981Y-97414400D01*
X170981671Y-97364411D01*
X170744941Y-97266355D01*
X170531885Y-97123995D01*
X170350705Y-96942815D01*
X170208345Y-96729759D01*
X170110289Y-96493029D01*
X170060300Y-96241719D01*
X170060300Y-95985481D01*
X170110289Y-95734171D01*
X170208345Y-95497441D01*
X170350705Y-95284385D01*
X170531885Y-95103205D01*
X170744941Y-94960845D01*
X170981671Y-94862789D01*
X171232981Y-94812800D01*
X171489219Y-94812800D01*
X171740529Y-94862789D01*
X171740529Y-94862789D01*
G37*
G36*
X131703000Y-95947000D02*
X130401000Y-95947000D01*
X130401000Y-94045000D01*
X131703000Y-94045000D01*
X131703000Y-95947000D01*
X131703000Y-95947000D01*
G37*
G36*
X137303000Y-95947000D02*
X136001000Y-95947000D01*
X136001000Y-94045000D01*
X137303000Y-94045000D01*
X137303000Y-95947000D01*
X137303000Y-95947000D01*
G37*
G36*
X162730412Y-93988764D02*
X162892198Y-94055778D01*
X163037807Y-94153071D01*
X163161629Y-94276893D01*
X163258922Y-94422502D01*
X163325936Y-94584288D01*
X163360100Y-94756041D01*
X163360100Y-94931159D01*
X163325936Y-95102912D01*
X163258922Y-95264698D01*
X163161629Y-95410307D01*
X163037807Y-95534129D01*
X162892198Y-95631422D01*
X162730412Y-95698436D01*
X162558659Y-95732600D01*
X162383541Y-95732600D01*
X162211788Y-95698436D01*
X162050002Y-95631422D01*
X161904393Y-95534129D01*
X161780571Y-95410307D01*
X161683278Y-95264698D01*
X161616264Y-95102912D01*
X161582100Y-94931159D01*
X161582100Y-94756041D01*
X161616264Y-94584288D01*
X161683278Y-94422502D01*
X161780571Y-94276893D01*
X161904393Y-94153071D01*
X162050002Y-94055778D01*
X162211788Y-93988764D01*
X162383541Y-93954600D01*
X162558659Y-93954600D01*
X162730412Y-93988764D01*
X162730412Y-93988764D01*
G37*
G36*
X139870412Y-93988764D02*
X140032198Y-94055778D01*
X140177807Y-94153071D01*
X140301629Y-94276893D01*
X140398922Y-94422502D01*
X140465936Y-94584288D01*
X140500100Y-94756041D01*
X140500100Y-94931159D01*
X140465936Y-95102912D01*
X140398922Y-95264698D01*
X140301629Y-95410307D01*
X140177807Y-95534129D01*
X140032198Y-95631422D01*
X139870412Y-95698436D01*
X139698659Y-95732600D01*
X139523541Y-95732600D01*
X139351788Y-95698436D01*
X139190002Y-95631422D01*
X139044393Y-95534129D01*
X138920571Y-95410307D01*
X138823278Y-95264698D01*
X138756264Y-95102912D01*
X138722100Y-94931159D01*
X138722100Y-94756041D01*
X138756264Y-94584288D01*
X138823278Y-94422502D01*
X138920571Y-94276893D01*
X139044393Y-94153071D01*
X139190002Y-94055778D01*
X139351788Y-93988764D01*
X139523541Y-93954600D01*
X139698659Y-93954600D01*
X139870412Y-93988764D01*
X139870412Y-93988764D01*
G37*
G36*
X142410412Y-93988764D02*
X142572198Y-94055778D01*
X142717807Y-94153071D01*
X142841629Y-94276893D01*
X142938922Y-94422502D01*
X143005936Y-94584288D01*
X143040100Y-94756041D01*
X143040100Y-94931159D01*
X143005936Y-95102912D01*
X142938922Y-95264698D01*
X142841629Y-95410307D01*
X142717807Y-95534129D01*
X142572198Y-95631422D01*
X142410412Y-95698436D01*
X142238659Y-95732600D01*
X142063541Y-95732600D01*
X141891788Y-95698436D01*
X141730002Y-95631422D01*
X141584393Y-95534129D01*
X141460571Y-95410307D01*
X141363278Y-95264698D01*
X141296264Y-95102912D01*
X141262100Y-94931159D01*
X141262100Y-94756041D01*
X141296264Y-94584288D01*
X141363278Y-94422502D01*
X141460571Y-94276893D01*
X141584393Y-94153071D01*
X141730002Y-94055778D01*
X141891788Y-93988764D01*
X142063541Y-93954600D01*
X142238659Y-93954600D01*
X142410412Y-93988764D01*
X142410412Y-93988764D01*
G37*
G36*
X144950412Y-93988764D02*
X145112198Y-94055778D01*
X145257807Y-94153071D01*
X145381629Y-94276893D01*
X145478922Y-94422502D01*
X145545936Y-94584288D01*
X145580100Y-94756041D01*
X145580100Y-94931159D01*
X145545936Y-95102912D01*
X145478922Y-95264698D01*
X145381629Y-95410307D01*
X145257807Y-95534129D01*
X145112198Y-95631422D01*
X144950412Y-95698436D01*
X144778659Y-95732600D01*
X144603541Y-95732600D01*
X144431788Y-95698436D01*
X144270002Y-95631422D01*
X144124393Y-95534129D01*
X144000571Y-95410307D01*
X143903278Y-95264698D01*
X143836264Y-95102912D01*
X143802100Y-94931159D01*
X143802100Y-94756041D01*
X143836264Y-94584288D01*
X143903278Y-94422502D01*
X144000571Y-94276893D01*
X144124393Y-94153071D01*
X144270002Y-94055778D01*
X144431788Y-93988764D01*
X144603541Y-93954600D01*
X144778659Y-93954600D01*
X144950412Y-93988764D01*
X144950412Y-93988764D01*
G37*
G36*
X147490412Y-93988764D02*
X147652198Y-94055778D01*
X147797807Y-94153071D01*
X147921629Y-94276893D01*
X148018922Y-94422502D01*
X148085936Y-94584288D01*
X148120100Y-94756041D01*
X148120100Y-94931159D01*
X148085936Y-95102912D01*
X148018922Y-95264698D01*
X147921629Y-95410307D01*
X147797807Y-95534129D01*
X147652198Y-95631422D01*
X147490412Y-95698436D01*
X147318659Y-95732600D01*
X147143541Y-95732600D01*
X146971788Y-95698436D01*
X146810002Y-95631422D01*
X146664393Y-95534129D01*
X146540571Y-95410307D01*
X146443278Y-95264698D01*
X146376264Y-95102912D01*
X146342100Y-94931159D01*
X146342100Y-94756041D01*
X146376264Y-94584288D01*
X146443278Y-94422502D01*
X146540571Y-94276893D01*
X146664393Y-94153071D01*
X146810002Y-94055778D01*
X146971788Y-93988764D01*
X147143541Y-93954600D01*
X147318659Y-93954600D01*
X147490412Y-93988764D01*
X147490412Y-93988764D01*
G37*
G36*
X150030412Y-93988764D02*
X150192198Y-94055778D01*
X150337807Y-94153071D01*
X150461629Y-94276893D01*
X150558922Y-94422502D01*
X150625936Y-94584288D01*
X150660100Y-94756041D01*
X150660100Y-94931159D01*
X150625936Y-95102912D01*
X150558922Y-95264698D01*
X150461629Y-95410307D01*
X150337807Y-95534129D01*
X150192198Y-95631422D01*
X150030412Y-95698436D01*
X149858659Y-95732600D01*
X149683541Y-95732600D01*
X149511788Y-95698436D01*
X149350002Y-95631422D01*
X149204393Y-95534129D01*
X149080571Y-95410307D01*
X148983278Y-95264698D01*
X148916264Y-95102912D01*
X148882100Y-94931159D01*
X148882100Y-94756041D01*
X148916264Y-94584288D01*
X148983278Y-94422502D01*
X149080571Y-94276893D01*
X149204393Y-94153071D01*
X149350002Y-94055778D01*
X149511788Y-93988764D01*
X149683541Y-93954600D01*
X149858659Y-93954600D01*
X150030412Y-93988764D01*
X150030412Y-93988764D01*
G37*
G36*
X152570412Y-93988764D02*
X152732198Y-94055778D01*
X152877807Y-94153071D01*
X153001629Y-94276893D01*
X153098922Y-94422502D01*
X153165936Y-94584288D01*
X153200100Y-94756041D01*
X153200100Y-94931159D01*
X153165936Y-95102912D01*
X153098922Y-95264698D01*
X153001629Y-95410307D01*
X152877807Y-95534129D01*
X152732198Y-95631422D01*
X152570412Y-95698436D01*
X152398659Y-95732600D01*
X152223541Y-95732600D01*
X152051788Y-95698436D01*
X151890002Y-95631422D01*
X151744393Y-95534129D01*
X151620571Y-95410307D01*
X151523278Y-95264698D01*
X151456264Y-95102912D01*
X151422100Y-94931159D01*
X151422100Y-94756041D01*
X151456264Y-94584288D01*
X151523278Y-94422502D01*
X151620571Y-94276893D01*
X151744393Y-94153071D01*
X151890002Y-94055778D01*
X152051788Y-93988764D01*
X152223541Y-93954600D01*
X152398659Y-93954600D01*
X152570412Y-93988764D01*
X152570412Y-93988764D01*
G37*
G36*
X155110412Y-93988764D02*
X155272198Y-94055778D01*
X155417807Y-94153071D01*
X155541629Y-94276893D01*
X155638922Y-94422502D01*
X155705936Y-94584288D01*
X155740100Y-94756041D01*
X155740100Y-94931159D01*
X155705936Y-95102912D01*
X155638922Y-95264698D01*
X155541629Y-95410307D01*
X155417807Y-95534129D01*
X155272198Y-95631422D01*
X155110412Y-95698436D01*
X154938659Y-95732600D01*
X154763541Y-95732600D01*
X154591788Y-95698436D01*
X154430002Y-95631422D01*
X154284393Y-95534129D01*
X154160571Y-95410307D01*
X154063278Y-95264698D01*
X153996264Y-95102912D01*
X153962100Y-94931159D01*
X153962100Y-94756041D01*
X153996264Y-94584288D01*
X154063278Y-94422502D01*
X154160571Y-94276893D01*
X154284393Y-94153071D01*
X154430002Y-94055778D01*
X154591788Y-93988764D01*
X154763541Y-93954600D01*
X154938659Y-93954600D01*
X155110412Y-93988764D01*
X155110412Y-93988764D01*
G37*
G36*
X157650412Y-93988764D02*
X157812198Y-94055778D01*
X157957807Y-94153071D01*
X158081629Y-94276893D01*
X158178922Y-94422502D01*
X158245936Y-94584288D01*
X158280100Y-94756041D01*
X158280100Y-94931159D01*
X158245936Y-95102912D01*
X158178922Y-95264698D01*
X158081629Y-95410307D01*
X157957807Y-95534129D01*
X157812198Y-95631422D01*
X157650412Y-95698436D01*
X157478659Y-95732600D01*
X157303541Y-95732600D01*
X157131788Y-95698436D01*
X156970002Y-95631422D01*
X156824393Y-95534129D01*
X156700571Y-95410307D01*
X156603278Y-95264698D01*
X156536264Y-95102912D01*
X156502100Y-94931159D01*
X156502100Y-94756041D01*
X156536264Y-94584288D01*
X156603278Y-94422502D01*
X156700571Y-94276893D01*
X156824393Y-94153071D01*
X156970002Y-94055778D01*
X157131788Y-93988764D01*
X157303541Y-93954600D01*
X157478659Y-93954600D01*
X157650412Y-93988764D01*
X157650412Y-93988764D01*
G37*
G36*
X160190412Y-93988764D02*
X160352198Y-94055778D01*
X160497807Y-94153071D01*
X160621629Y-94276893D01*
X160718922Y-94422502D01*
X160785936Y-94584288D01*
X160820100Y-94756041D01*
X160820100Y-94931159D01*
X160785936Y-95102912D01*
X160718922Y-95264698D01*
X160621629Y-95410307D01*
X160497807Y-95534129D01*
X160352198Y-95631422D01*
X160190412Y-95698436D01*
X160018659Y-95732600D01*
X159843541Y-95732600D01*
X159671788Y-95698436D01*
X159510002Y-95631422D01*
X159364393Y-95534129D01*
X159240571Y-95410307D01*
X159143278Y-95264698D01*
X159076264Y-95102912D01*
X159042100Y-94931159D01*
X159042100Y-94756041D01*
X159076264Y-94584288D01*
X159143278Y-94422502D01*
X159240571Y-94276893D01*
X159364393Y-94153071D01*
X159510002Y-94055778D01*
X159671788Y-93988764D01*
X159843541Y-93954600D01*
X160018659Y-93954600D01*
X160190412Y-93988764D01*
X160190412Y-93988764D01*
G37*
G36*
X167810412Y-93988764D02*
X167972198Y-94055778D01*
X168117807Y-94153071D01*
X168241629Y-94276893D01*
X168338922Y-94422502D01*
X168405936Y-94584288D01*
X168440100Y-94756041D01*
X168440100Y-94931159D01*
X168405936Y-95102912D01*
X168338922Y-95264698D01*
X168241629Y-95410307D01*
X168117807Y-95534129D01*
X167972198Y-95631422D01*
X167810412Y-95698436D01*
X167638659Y-95732600D01*
X167463541Y-95732600D01*
X167291788Y-95698436D01*
X167130002Y-95631422D01*
X166984393Y-95534129D01*
X166860571Y-95410307D01*
X166763278Y-95264698D01*
X166696264Y-95102912D01*
X166662100Y-94931159D01*
X166662100Y-94756041D01*
X166696264Y-94584288D01*
X166763278Y-94422502D01*
X166860571Y-94276893D01*
X166984393Y-94153071D01*
X167130002Y-94055778D01*
X167291788Y-93988764D01*
X167463541Y-93954600D01*
X167638659Y-93954600D01*
X167810412Y-93988764D01*
X167810412Y-93988764D01*
G37*
G36*
X165270412Y-93988764D02*
X165432198Y-94055778D01*
X165577807Y-94153071D01*
X165701629Y-94276893D01*
X165798922Y-94422502D01*
X165865936Y-94584288D01*
X165900100Y-94756041D01*
X165900100Y-94931159D01*
X165865936Y-95102912D01*
X165798922Y-95264698D01*
X165701629Y-95410307D01*
X165577807Y-95534129D01*
X165432198Y-95631422D01*
X165270412Y-95698436D01*
X165098659Y-95732600D01*
X164923541Y-95732600D01*
X164751788Y-95698436D01*
X164590002Y-95631422D01*
X164444393Y-95534129D01*
X164320571Y-95410307D01*
X164223278Y-95264698D01*
X164156264Y-95102912D01*
X164122100Y-94931159D01*
X164122100Y-94756041D01*
X164156264Y-94584288D01*
X164223278Y-94422502D01*
X164320571Y-94276893D01*
X164444393Y-94153071D01*
X164590002Y-94055778D01*
X164751788Y-93988764D01*
X164923541Y-93954600D01*
X165098659Y-93954600D01*
X165270412Y-93988764D01*
X165270412Y-93988764D01*
G37*
M02*
