G04 #@! TF.GenerationSoftware,KiCad,Pcbnew,5.0.2-bee76a0~70~ubuntu18.04.1*
G04 #@! TF.CreationDate,2019-01-13T20:45:53-06:00*
G04 #@! TF.ProjectId,Adafruit Feather M0 RFMxx,41646166-7275-4697-9420-466561746865,rev?*
G04 #@! TF.SameCoordinates,Original*
G04 #@! TF.FileFunction,Legend,Bot*
G04 #@! TF.FilePolarity,Positive*
%FSLAX46Y46*%
G04 Gerber Fmt 4.6, Leading zero omitted, Abs format (unit mm)*
G04 Created by KiCad (PCBNEW 5.0.2-bee76a0~70~ubuntu18.04.1) date Sun 13 Jan 2019 08:45:53 PM CST*
%MOMM*%
%LPD*%
G01*
G04 APERTURE LIST*
%ADD10C,0.150000*%
%ADD11C,0.152400*%
%ADD12C,0.165100*%
%ADD13C,0.121920*%
%ADD14C,0.160020*%
%ADD15C,0.203200*%
%ADD16C,0.254000*%
%ADD17C,0.138988*%
%ADD18C,0.182880*%
%ADD19C,2.601600*%
%ADD20C,3.301600*%
%ADD21C,1.301600*%
%ADD22R,2.601600X2.601600*%
%ADD23C,0.802000*%
%ADD24C,1.778000*%
%ADD25C,0.100000*%
%ADD26C,1.601600*%
%ADD27R,0.901600X1.101600*%
%ADD28R,2.301600X1.151600*%
%ADD29R,0.702000X1.652000*%
%ADD30R,1.302000X1.902000*%
%ADD31R,1.201600X1.101600*%
%ADD32R,2.301600X0.701600*%
G04 APERTURE END LIST*
D10*
G36*
X163957000Y-106426000D02*
X156210000Y-106426000D01*
X156210000Y-108077000D01*
X163957000Y-108077000D01*
X163957000Y-106426000D01*
G37*
X163957000Y-106426000D02*
X156210000Y-106426000D01*
X156210000Y-108077000D01*
X163957000Y-108077000D01*
X163957000Y-106426000D01*
G36*
X165481000Y-108585000D02*
X156210000Y-108585000D01*
X156210000Y-110617000D01*
X165481000Y-110617000D01*
X165481000Y-108585000D01*
G37*
X165481000Y-108585000D02*
X156210000Y-108585000D01*
X156210000Y-110617000D01*
X165481000Y-110617000D01*
X165481000Y-108585000D01*
D11*
X136175447Y-102011238D02*
X135577942Y-102011238D01*
X135899676Y-102378933D01*
X135761790Y-102378933D01*
X135669866Y-102424895D01*
X135623904Y-102470857D01*
X135577942Y-102562780D01*
X135577942Y-102792590D01*
X135623904Y-102884514D01*
X135669866Y-102930476D01*
X135761790Y-102976438D01*
X136037561Y-102976438D01*
X136129485Y-102930476D01*
X136175447Y-102884514D01*
X135164285Y-102884514D02*
X135118323Y-102930476D01*
X135164285Y-102976438D01*
X135210247Y-102930476D01*
X135164285Y-102884514D01*
X135164285Y-102976438D01*
X134796590Y-102011238D02*
X134153123Y-102011238D01*
X134566780Y-102976438D01*
X133096000Y-101965276D02*
X133923314Y-103206247D01*
X132360609Y-102332971D02*
X132360609Y-102976438D01*
X132590419Y-101965276D02*
X132820228Y-102654704D01*
X132222723Y-102654704D01*
X131855028Y-102884514D02*
X131809066Y-102930476D01*
X131855028Y-102976438D01*
X131900990Y-102930476D01*
X131855028Y-102884514D01*
X131855028Y-102976438D01*
X131441371Y-102103161D02*
X131395409Y-102057200D01*
X131303485Y-102011238D01*
X131073676Y-102011238D01*
X130981752Y-102057200D01*
X130935790Y-102103161D01*
X130889828Y-102195085D01*
X130889828Y-102287009D01*
X130935790Y-102424895D01*
X131487333Y-102976438D01*
X130889828Y-102976438D01*
X130614057Y-102011238D02*
X130292323Y-102976438D01*
X129970590Y-102011238D01*
X136405257Y-104576638D02*
X136864876Y-104576638D01*
X136864876Y-103611438D01*
X136083523Y-104576638D02*
X136083523Y-103933171D01*
X136083523Y-103611438D02*
X136129485Y-103657400D01*
X136083523Y-103703361D01*
X136037561Y-103657400D01*
X136083523Y-103611438D01*
X136083523Y-103703361D01*
X135623904Y-104576638D02*
X135623904Y-103611438D01*
X135256209Y-103611438D01*
X135164285Y-103657400D01*
X135118323Y-103703361D01*
X135072361Y-103795285D01*
X135072361Y-103933171D01*
X135118323Y-104025095D01*
X135164285Y-104071057D01*
X135256209Y-104117019D01*
X135623904Y-104117019D01*
X134520819Y-104576638D02*
X134612742Y-104530676D01*
X134658704Y-104484714D01*
X134704666Y-104392790D01*
X134704666Y-104117019D01*
X134658704Y-104025095D01*
X134612742Y-103979133D01*
X134520819Y-103933171D01*
X134382933Y-103933171D01*
X134291009Y-103979133D01*
X134245047Y-104025095D01*
X134199085Y-104117019D01*
X134199085Y-104392790D01*
X134245047Y-104484714D01*
X134291009Y-104530676D01*
X134382933Y-104576638D01*
X134520819Y-104576638D01*
X133647542Y-104576638D02*
X133739466Y-104530676D01*
X133785428Y-104438752D01*
X133785428Y-103611438D01*
X133371771Y-103933171D02*
X133141961Y-104576638D01*
X132912152Y-103933171D02*
X133141961Y-104576638D01*
X133233885Y-104806447D01*
X133279847Y-104852409D01*
X133371771Y-104898371D01*
X131487333Y-104071057D02*
X131349447Y-104117019D01*
X131303485Y-104162980D01*
X131257523Y-104254904D01*
X131257523Y-104392790D01*
X131303485Y-104484714D01*
X131349447Y-104530676D01*
X131441371Y-104576638D01*
X131809066Y-104576638D01*
X131809066Y-103611438D01*
X131487333Y-103611438D01*
X131395409Y-103657400D01*
X131349447Y-103703361D01*
X131303485Y-103795285D01*
X131303485Y-103887209D01*
X131349447Y-103979133D01*
X131395409Y-104025095D01*
X131487333Y-104071057D01*
X131809066Y-104071057D01*
X130430209Y-104576638D02*
X130430209Y-104071057D01*
X130476171Y-103979133D01*
X130568095Y-103933171D01*
X130751942Y-103933171D01*
X130843866Y-103979133D01*
X130430209Y-104530676D02*
X130522133Y-104576638D01*
X130751942Y-104576638D01*
X130843866Y-104530676D01*
X130889828Y-104438752D01*
X130889828Y-104346828D01*
X130843866Y-104254904D01*
X130751942Y-104208942D01*
X130522133Y-104208942D01*
X130430209Y-104162980D01*
X130108476Y-103933171D02*
X129740780Y-103933171D01*
X129970590Y-103611438D02*
X129970590Y-104438752D01*
X129924628Y-104530676D01*
X129832704Y-104576638D01*
X129740780Y-104576638D01*
X129556933Y-103933171D02*
X129189238Y-103933171D01*
X129419047Y-103611438D02*
X129419047Y-104438752D01*
X129373085Y-104530676D01*
X129281161Y-104576638D01*
X129189238Y-104576638D01*
X137623247Y-105533371D02*
X137623247Y-106498571D01*
X137163628Y-106038952D02*
X137117666Y-106130876D01*
X137025742Y-106176838D01*
X137623247Y-106038952D02*
X137577285Y-106130876D01*
X137485361Y-106176838D01*
X137301514Y-106176838D01*
X137209590Y-106130876D01*
X137163628Y-106038952D01*
X137163628Y-105533371D01*
X136612085Y-105211638D02*
X136612085Y-105992990D01*
X136566123Y-106084914D01*
X136520161Y-106130876D01*
X136428238Y-106176838D01*
X136244390Y-106176838D01*
X136152466Y-106130876D01*
X136106504Y-106084914D01*
X136060542Y-105992990D01*
X136060542Y-105211638D01*
X135646885Y-106130876D02*
X135509000Y-106176838D01*
X135279190Y-106176838D01*
X135187266Y-106130876D01*
X135141304Y-106084914D01*
X135095342Y-105992990D01*
X135095342Y-105901066D01*
X135141304Y-105809142D01*
X135187266Y-105763180D01*
X135279190Y-105717219D01*
X135463038Y-105671257D01*
X135554961Y-105625295D01*
X135600923Y-105579333D01*
X135646885Y-105487409D01*
X135646885Y-105395485D01*
X135600923Y-105303561D01*
X135554961Y-105257600D01*
X135463038Y-105211638D01*
X135233228Y-105211638D01*
X135095342Y-105257600D01*
X134359952Y-105671257D02*
X134222066Y-105717219D01*
X134176104Y-105763180D01*
X134130142Y-105855104D01*
X134130142Y-105992990D01*
X134176104Y-106084914D01*
X134222066Y-106130876D01*
X134313990Y-106176838D01*
X134681685Y-106176838D01*
X134681685Y-105211638D01*
X134359952Y-105211638D01*
X134268028Y-105257600D01*
X134222066Y-105303561D01*
X134176104Y-105395485D01*
X134176104Y-105487409D01*
X134222066Y-105579333D01*
X134268028Y-105625295D01*
X134359952Y-105671257D01*
X134681685Y-105671257D01*
X132567438Y-106130876D02*
X132659361Y-106176838D01*
X132843209Y-106176838D01*
X132935133Y-106130876D01*
X132981095Y-106084914D01*
X133027057Y-105992990D01*
X133027057Y-105717219D01*
X132981095Y-105625295D01*
X132935133Y-105579333D01*
X132843209Y-105533371D01*
X132659361Y-105533371D01*
X132567438Y-105579333D01*
X132153780Y-106176838D02*
X132153780Y-105211638D01*
X131740123Y-106176838D02*
X131740123Y-105671257D01*
X131786085Y-105579333D01*
X131878009Y-105533371D01*
X132015895Y-105533371D01*
X132107819Y-105579333D01*
X132153780Y-105625295D01*
X130866847Y-106176838D02*
X130866847Y-105671257D01*
X130912809Y-105579333D01*
X131004733Y-105533371D01*
X131188580Y-105533371D01*
X131280504Y-105579333D01*
X130866847Y-106130876D02*
X130958771Y-106176838D01*
X131188580Y-106176838D01*
X131280504Y-106130876D01*
X131326466Y-106038952D01*
X131326466Y-105947028D01*
X131280504Y-105855104D01*
X131188580Y-105809142D01*
X130958771Y-105809142D01*
X130866847Y-105763180D01*
X130407228Y-106176838D02*
X130407228Y-105533371D01*
X130407228Y-105717219D02*
X130361266Y-105625295D01*
X130315304Y-105579333D01*
X130223380Y-105533371D01*
X130131457Y-105533371D01*
X129396066Y-105533371D02*
X129396066Y-106314723D01*
X129442028Y-106406647D01*
X129487990Y-106452609D01*
X129579914Y-106498571D01*
X129717800Y-106498571D01*
X129809723Y-106452609D01*
X129396066Y-106130876D02*
X129487990Y-106176838D01*
X129671838Y-106176838D01*
X129763761Y-106130876D01*
X129809723Y-106084914D01*
X129855685Y-105992990D01*
X129855685Y-105717219D01*
X129809723Y-105625295D01*
X129763761Y-105579333D01*
X129671838Y-105533371D01*
X129487990Y-105533371D01*
X129396066Y-105579333D01*
X128568752Y-106130876D02*
X128660676Y-106176838D01*
X128844523Y-106176838D01*
X128936447Y-106130876D01*
X128982409Y-106038952D01*
X128982409Y-105671257D01*
X128936447Y-105579333D01*
X128844523Y-105533371D01*
X128660676Y-105533371D01*
X128568752Y-105579333D01*
X128522790Y-105671257D01*
X128522790Y-105763180D01*
X128982409Y-105855104D01*
D12*
X149721207Y-99103996D02*
X150123373Y-99103996D01*
X150123373Y-99735972D02*
X150123373Y-98529472D01*
X149548850Y-98529472D01*
X148629611Y-99678520D02*
X148744516Y-99735972D01*
X148974326Y-99735972D01*
X149089230Y-99678520D01*
X149146683Y-99563615D01*
X149146683Y-99103996D01*
X149089230Y-98989091D01*
X148974326Y-98931639D01*
X148744516Y-98931639D01*
X148629611Y-98989091D01*
X148572159Y-99103996D01*
X148572159Y-99218901D01*
X149146683Y-99333805D01*
X147538016Y-99735972D02*
X147538016Y-99103996D01*
X147595469Y-98989091D01*
X147710373Y-98931639D01*
X147940183Y-98931639D01*
X148055088Y-98989091D01*
X147538016Y-99678520D02*
X147652921Y-99735972D01*
X147940183Y-99735972D01*
X148055088Y-99678520D01*
X148112540Y-99563615D01*
X148112540Y-99448710D01*
X148055088Y-99333805D01*
X147940183Y-99276353D01*
X147652921Y-99276353D01*
X147538016Y-99218901D01*
X147135850Y-98931639D02*
X146676230Y-98931639D01*
X146963492Y-98529472D02*
X146963492Y-99563615D01*
X146906040Y-99678520D01*
X146791135Y-99735972D01*
X146676230Y-99735972D01*
X146274064Y-99735972D02*
X146274064Y-98529472D01*
X145756992Y-99735972D02*
X145756992Y-99103996D01*
X145814445Y-98989091D01*
X145929350Y-98931639D01*
X146101707Y-98931639D01*
X146216611Y-98989091D01*
X146274064Y-99046544D01*
X144722850Y-99678520D02*
X144837754Y-99735972D01*
X145067564Y-99735972D01*
X145182469Y-99678520D01*
X145239921Y-99563615D01*
X145239921Y-99103996D01*
X145182469Y-98989091D01*
X145067564Y-98931639D01*
X144837754Y-98931639D01*
X144722850Y-98989091D01*
X144665397Y-99103996D01*
X144665397Y-99218901D01*
X145239921Y-99333805D01*
X144148326Y-99735972D02*
X144148326Y-98931639D01*
X144148326Y-99161448D02*
X144090873Y-99046544D01*
X144033421Y-98989091D01*
X143918516Y-98931639D01*
X143803611Y-98931639D01*
X142482207Y-99735972D02*
X142482207Y-98529472D01*
X142080040Y-99391258D01*
X141677873Y-98529472D01*
X141677873Y-99735972D01*
X140873540Y-98529472D02*
X140758635Y-98529472D01*
X140643730Y-98586925D01*
X140586278Y-98644377D01*
X140528826Y-98759282D01*
X140471373Y-98989091D01*
X140471373Y-99276353D01*
X140528826Y-99506163D01*
X140586278Y-99621067D01*
X140643730Y-99678520D01*
X140758635Y-99735972D01*
X140873540Y-99735972D01*
X140988445Y-99678520D01*
X141045897Y-99621067D01*
X141103350Y-99506163D01*
X141160802Y-99276353D01*
X141160802Y-98989091D01*
X141103350Y-98759282D01*
X141045897Y-98644377D01*
X140988445Y-98586925D01*
X140873540Y-98529472D01*
X152852361Y-101710822D02*
X153254528Y-101136298D01*
X153541790Y-101710822D02*
X153541790Y-100504322D01*
X153082171Y-100504322D01*
X152967266Y-100561775D01*
X152909814Y-100619227D01*
X152852361Y-100734132D01*
X152852361Y-100906489D01*
X152909814Y-101021394D01*
X152967266Y-101078846D01*
X153082171Y-101136298D01*
X153541790Y-101136298D01*
X151933123Y-101078846D02*
X152335290Y-101078846D01*
X152335290Y-101710822D02*
X152335290Y-100504322D01*
X151760766Y-100504322D01*
X151301147Y-101710822D02*
X151301147Y-100504322D01*
X150898980Y-101366108D01*
X150496814Y-100504322D01*
X150496814Y-101710822D01*
X149864838Y-101710822D02*
X149635028Y-101710822D01*
X149520123Y-101653370D01*
X149462671Y-101595917D01*
X149347766Y-101423560D01*
X149290314Y-101193751D01*
X149290314Y-100734132D01*
X149347766Y-100619227D01*
X149405219Y-100561775D01*
X149520123Y-100504322D01*
X149749933Y-100504322D01*
X149864838Y-100561775D01*
X149922290Y-100619227D01*
X149979742Y-100734132D01*
X149979742Y-101021394D01*
X149922290Y-101136298D01*
X149864838Y-101193751D01*
X149749933Y-101251203D01*
X149520123Y-101251203D01*
X149405219Y-101193751D01*
X149347766Y-101136298D01*
X149290314Y-101021394D01*
X148888147Y-101710822D02*
X148256171Y-100906489D01*
X148888147Y-100906489D02*
X148256171Y-101710822D01*
X146302790Y-101710822D02*
X146877314Y-101710822D01*
X146877314Y-100504322D01*
X145728266Y-101710822D02*
X145843171Y-101653370D01*
X145900623Y-101595917D01*
X145958076Y-101481013D01*
X145958076Y-101136298D01*
X145900623Y-101021394D01*
X145843171Y-100963941D01*
X145728266Y-100906489D01*
X145555909Y-100906489D01*
X145441004Y-100963941D01*
X145383552Y-101021394D01*
X145326100Y-101136298D01*
X145326100Y-101481013D01*
X145383552Y-101595917D01*
X145441004Y-101653370D01*
X145555909Y-101710822D01*
X145728266Y-101710822D01*
X144119600Y-101710822D02*
X144521766Y-101136298D01*
X144809028Y-101710822D02*
X144809028Y-100504322D01*
X144349409Y-100504322D01*
X144234504Y-100561775D01*
X144177052Y-100619227D01*
X144119600Y-100734132D01*
X144119600Y-100906489D01*
X144177052Y-101021394D01*
X144234504Y-101078846D01*
X144349409Y-101136298D01*
X144809028Y-101136298D01*
X143085457Y-101710822D02*
X143085457Y-101078846D01*
X143142909Y-100963941D01*
X143257814Y-100906489D01*
X143487623Y-100906489D01*
X143602528Y-100963941D01*
X143085457Y-101653370D02*
X143200361Y-101710822D01*
X143487623Y-101710822D01*
X143602528Y-101653370D01*
X143659980Y-101538465D01*
X143659980Y-101423560D01*
X143602528Y-101308655D01*
X143487623Y-101251203D01*
X143200361Y-101251203D01*
X143085457Y-101193751D01*
X140902266Y-101710822D02*
X141304433Y-101136298D01*
X141591695Y-101710822D02*
X141591695Y-100504322D01*
X141132076Y-100504322D01*
X141017171Y-100561775D01*
X140959719Y-100619227D01*
X140902266Y-100734132D01*
X140902266Y-100906489D01*
X140959719Y-101021394D01*
X141017171Y-101078846D01*
X141132076Y-101136298D01*
X141591695Y-101136298D01*
X139868123Y-101710822D02*
X139868123Y-101078846D01*
X139925576Y-100963941D01*
X140040480Y-100906489D01*
X140270290Y-100906489D01*
X140385195Y-100963941D01*
X139868123Y-101653370D02*
X139983028Y-101710822D01*
X140270290Y-101710822D01*
X140385195Y-101653370D01*
X140442647Y-101538465D01*
X140442647Y-101423560D01*
X140385195Y-101308655D01*
X140270290Y-101251203D01*
X139983028Y-101251203D01*
X139868123Y-101193751D01*
X138776528Y-101710822D02*
X138776528Y-100504322D01*
X138776528Y-101653370D02*
X138891433Y-101710822D01*
X139121242Y-101710822D01*
X139236147Y-101653370D01*
X139293600Y-101595917D01*
X139351052Y-101481013D01*
X139351052Y-101136298D01*
X139293600Y-101021394D01*
X139236147Y-100963941D01*
X139121242Y-100906489D01*
X138891433Y-100906489D01*
X138776528Y-100963941D01*
X138202004Y-101710822D02*
X138202004Y-100906489D01*
X138202004Y-100504322D02*
X138259457Y-100561775D01*
X138202004Y-100619227D01*
X138144552Y-100561775D01*
X138202004Y-100504322D01*
X138202004Y-100619227D01*
X137455123Y-101710822D02*
X137570028Y-101653370D01*
X137627480Y-101595917D01*
X137684933Y-101481013D01*
X137684933Y-101136298D01*
X137627480Y-101021394D01*
X137570028Y-100963941D01*
X137455123Y-100906489D01*
X137282766Y-100906489D01*
X137167861Y-100963941D01*
X137110409Y-101021394D01*
X137052957Y-101136298D01*
X137052957Y-101481013D01*
X137110409Y-101595917D01*
X137167861Y-101653370D01*
X137282766Y-101710822D01*
X137455123Y-101710822D01*
D11*
X152044400Y-102865766D02*
X151584780Y-102865766D01*
X152136323Y-103141538D02*
X151814590Y-102176338D01*
X151492857Y-103141538D01*
X151309009Y-102176338D02*
X150757466Y-102176338D01*
X151033238Y-103141538D02*
X151033238Y-102176338D01*
X150481695Y-103095576D02*
X150343809Y-103141538D01*
X150114000Y-103141538D01*
X150022076Y-103095576D01*
X149976114Y-103049614D01*
X149930152Y-102957690D01*
X149930152Y-102865766D01*
X149976114Y-102773842D01*
X150022076Y-102727880D01*
X150114000Y-102681919D01*
X150297847Y-102635957D01*
X150389771Y-102589995D01*
X150435733Y-102544033D01*
X150481695Y-102452109D01*
X150481695Y-102360185D01*
X150435733Y-102268261D01*
X150389771Y-102222300D01*
X150297847Y-102176338D01*
X150068038Y-102176338D01*
X149930152Y-102222300D01*
X149562457Y-102865766D02*
X149102838Y-102865766D01*
X149654380Y-103141538D02*
X149332647Y-102176338D01*
X149010914Y-103141538D01*
X148689180Y-103141538D02*
X148689180Y-102176338D01*
X148367447Y-102865766D01*
X148045714Y-102176338D01*
X148045714Y-103141538D01*
X147586095Y-103141538D02*
X147586095Y-102176338D01*
X147356285Y-102176338D01*
X147218400Y-102222300D01*
X147126476Y-102314223D01*
X147080514Y-102406147D01*
X147034552Y-102589995D01*
X147034552Y-102727880D01*
X147080514Y-102911728D01*
X147126476Y-103003652D01*
X147218400Y-103095576D01*
X147356285Y-103141538D01*
X147586095Y-103141538D01*
X146666857Y-102268261D02*
X146620895Y-102222300D01*
X146528971Y-102176338D01*
X146299161Y-102176338D01*
X146207238Y-102222300D01*
X146161276Y-102268261D01*
X146115314Y-102360185D01*
X146115314Y-102452109D01*
X146161276Y-102589995D01*
X146712819Y-103141538D01*
X146115314Y-103141538D01*
X145196076Y-103141538D02*
X145747619Y-103141538D01*
X145471847Y-103141538D02*
X145471847Y-102176338D01*
X145563771Y-102314223D01*
X145655695Y-102406147D01*
X145747619Y-102452109D01*
X144276838Y-102222300D02*
X144368761Y-102176338D01*
X144506647Y-102176338D01*
X144644533Y-102222300D01*
X144736457Y-102314223D01*
X144782419Y-102406147D01*
X144828380Y-102589995D01*
X144828380Y-102727880D01*
X144782419Y-102911728D01*
X144736457Y-103003652D01*
X144644533Y-103095576D01*
X144506647Y-103141538D01*
X144414723Y-103141538D01*
X144276838Y-103095576D01*
X144230876Y-103049614D01*
X144230876Y-102727880D01*
X144414723Y-102727880D01*
X143311638Y-103141538D02*
X143863180Y-103141538D01*
X143587409Y-103141538D02*
X143587409Y-102176338D01*
X143679333Y-102314223D01*
X143771257Y-102406147D01*
X143863180Y-102452109D01*
X142760095Y-102589995D02*
X142852019Y-102544033D01*
X142897980Y-102498071D01*
X142943942Y-102406147D01*
X142943942Y-102360185D01*
X142897980Y-102268261D01*
X142852019Y-102222300D01*
X142760095Y-102176338D01*
X142576247Y-102176338D01*
X142484323Y-102222300D01*
X142438361Y-102268261D01*
X142392400Y-102360185D01*
X142392400Y-102406147D01*
X142438361Y-102498071D01*
X142484323Y-102544033D01*
X142576247Y-102589995D01*
X142760095Y-102589995D01*
X142852019Y-102635957D01*
X142897980Y-102681919D01*
X142943942Y-102773842D01*
X142943942Y-102957690D01*
X142897980Y-103049614D01*
X142852019Y-103095576D01*
X142760095Y-103141538D01*
X142576247Y-103141538D01*
X142484323Y-103095576D01*
X142438361Y-103049614D01*
X142392400Y-102957690D01*
X142392400Y-102773842D01*
X142438361Y-102681919D01*
X142484323Y-102635957D01*
X142576247Y-102589995D01*
X141335276Y-102176338D02*
X140737771Y-102176338D01*
X141059504Y-102544033D01*
X140921619Y-102544033D01*
X140829695Y-102589995D01*
X140783733Y-102635957D01*
X140737771Y-102727880D01*
X140737771Y-102957690D01*
X140783733Y-103049614D01*
X140829695Y-103095576D01*
X140921619Y-103141538D01*
X141197390Y-103141538D01*
X141289314Y-103095576D01*
X141335276Y-103049614D01*
X140324114Y-103049614D02*
X140278152Y-103095576D01*
X140324114Y-103141538D01*
X140370076Y-103095576D01*
X140324114Y-103049614D01*
X140324114Y-103141538D01*
X139956419Y-102176338D02*
X139358914Y-102176338D01*
X139680647Y-102544033D01*
X139542761Y-102544033D01*
X139450838Y-102589995D01*
X139404876Y-102635957D01*
X139358914Y-102727880D01*
X139358914Y-102957690D01*
X139404876Y-103049614D01*
X139450838Y-103095576D01*
X139542761Y-103141538D01*
X139818533Y-103141538D01*
X139910457Y-103095576D01*
X139956419Y-103049614D01*
X139083142Y-102176338D02*
X138761409Y-103141538D01*
X138439676Y-102176338D01*
X152182285Y-104098271D02*
X152182285Y-105063471D01*
X152182285Y-104695776D02*
X152274209Y-104741738D01*
X152458057Y-104741738D01*
X152549980Y-104695776D01*
X152595942Y-104649814D01*
X152641904Y-104557890D01*
X152641904Y-104282119D01*
X152595942Y-104190195D01*
X152549980Y-104144233D01*
X152458057Y-104098271D01*
X152274209Y-104098271D01*
X152182285Y-104144233D01*
X151814590Y-104098271D02*
X151630742Y-104741738D01*
X151446895Y-104282119D01*
X151263047Y-104741738D01*
X151079200Y-104098271D01*
X150711504Y-104741738D02*
X150711504Y-104098271D01*
X150711504Y-103776538D02*
X150757466Y-103822500D01*
X150711504Y-103868461D01*
X150665542Y-103822500D01*
X150711504Y-103776538D01*
X150711504Y-103868461D01*
X150251885Y-104741738D02*
X150251885Y-104098271D01*
X150251885Y-103776538D02*
X150297847Y-103822500D01*
X150251885Y-103868461D01*
X150205923Y-103822500D01*
X150251885Y-103776538D01*
X150251885Y-103868461D01*
X149378609Y-104695776D02*
X149470533Y-104741738D01*
X149654380Y-104741738D01*
X149746304Y-104695776D01*
X149792266Y-104649814D01*
X149838228Y-104557890D01*
X149838228Y-104282119D01*
X149792266Y-104190195D01*
X149746304Y-104144233D01*
X149654380Y-104098271D01*
X149470533Y-104098271D01*
X149378609Y-104144233D01*
X147815904Y-104741738D02*
X147815904Y-104236157D01*
X147861866Y-104144233D01*
X147953790Y-104098271D01*
X148137638Y-104098271D01*
X148229561Y-104144233D01*
X147815904Y-104695776D02*
X147907828Y-104741738D01*
X148137638Y-104741738D01*
X148229561Y-104695776D01*
X148275523Y-104603852D01*
X148275523Y-104511928D01*
X148229561Y-104420004D01*
X148137638Y-104374042D01*
X147907828Y-104374042D01*
X147815904Y-104328080D01*
X147356285Y-104098271D02*
X147356285Y-104741738D01*
X147356285Y-104190195D02*
X147310323Y-104144233D01*
X147218400Y-104098271D01*
X147080514Y-104098271D01*
X146988590Y-104144233D01*
X146942628Y-104236157D01*
X146942628Y-104741738D01*
X146069352Y-104741738D02*
X146069352Y-103776538D01*
X146069352Y-104695776D02*
X146161276Y-104741738D01*
X146345123Y-104741738D01*
X146437047Y-104695776D01*
X146483009Y-104649814D01*
X146528971Y-104557890D01*
X146528971Y-104282119D01*
X146483009Y-104190195D01*
X146437047Y-104144233D01*
X146345123Y-104098271D01*
X146161276Y-104098271D01*
X146069352Y-104144233D01*
X145012228Y-104098271D02*
X144644533Y-104098271D01*
X144874342Y-104741738D02*
X144874342Y-103914423D01*
X144828380Y-103822500D01*
X144736457Y-103776538D01*
X144644533Y-103776538D01*
X144184914Y-104741738D02*
X144276838Y-104695776D01*
X144322800Y-104603852D01*
X144322800Y-103776538D01*
X143403561Y-104741738D02*
X143403561Y-104236157D01*
X143449523Y-104144233D01*
X143541447Y-104098271D01*
X143725295Y-104098271D01*
X143817219Y-104144233D01*
X143403561Y-104695776D02*
X143495485Y-104741738D01*
X143725295Y-104741738D01*
X143817219Y-104695776D01*
X143863180Y-104603852D01*
X143863180Y-104511928D01*
X143817219Y-104420004D01*
X143725295Y-104374042D01*
X143495485Y-104374042D01*
X143403561Y-104328080D01*
X142989904Y-104695776D02*
X142897980Y-104741738D01*
X142714133Y-104741738D01*
X142622209Y-104695776D01*
X142576247Y-104603852D01*
X142576247Y-104557890D01*
X142622209Y-104465966D01*
X142714133Y-104420004D01*
X142852019Y-104420004D01*
X142943942Y-104374042D01*
X142989904Y-104282119D01*
X142989904Y-104236157D01*
X142943942Y-104144233D01*
X142852019Y-104098271D01*
X142714133Y-104098271D01*
X142622209Y-104144233D01*
X142162590Y-104741738D02*
X142162590Y-103776538D01*
X141748933Y-104741738D02*
X141748933Y-104236157D01*
X141794895Y-104144233D01*
X141886819Y-104098271D01*
X142024704Y-104098271D01*
X142116628Y-104144233D01*
X142162590Y-104190195D01*
X140645847Y-104098271D02*
X140416038Y-104741738D01*
X140186228Y-104098271D01*
X139634685Y-103776538D02*
X139542761Y-103776538D01*
X139450838Y-103822500D01*
X139404876Y-103868461D01*
X139358914Y-103960385D01*
X139312952Y-104144233D01*
X139312952Y-104374042D01*
X139358914Y-104557890D01*
X139404876Y-104649814D01*
X139450838Y-104695776D01*
X139542761Y-104741738D01*
X139634685Y-104741738D01*
X139726609Y-104695776D01*
X139772571Y-104649814D01*
X139818533Y-104557890D01*
X139864495Y-104374042D01*
X139864495Y-104144233D01*
X139818533Y-103960385D01*
X139772571Y-103868461D01*
X139726609Y-103822500D01*
X139634685Y-103776538D01*
X138899295Y-104649814D02*
X138853333Y-104695776D01*
X138899295Y-104741738D01*
X138945257Y-104695776D01*
X138899295Y-104649814D01*
X138899295Y-104741738D01*
X137934095Y-104741738D02*
X138485638Y-104741738D01*
X138209866Y-104741738D02*
X138209866Y-103776538D01*
X138301790Y-103914423D01*
X138393714Y-104006347D01*
X138485638Y-104052309D01*
X144162538Y-96038609D02*
X144943890Y-96038609D01*
X145035814Y-96084571D01*
X145081776Y-96130533D01*
X145127738Y-96222457D01*
X145127738Y-96406304D01*
X145081776Y-96498228D01*
X145035814Y-96544190D01*
X144943890Y-96590152D01*
X144162538Y-96590152D01*
X145081776Y-97003809D02*
X145127738Y-97141695D01*
X145127738Y-97371504D01*
X145081776Y-97463428D01*
X145035814Y-97509390D01*
X144943890Y-97555352D01*
X144851966Y-97555352D01*
X144760042Y-97509390D01*
X144714080Y-97463428D01*
X144668119Y-97371504D01*
X144622157Y-97187657D01*
X144576195Y-97095733D01*
X144530233Y-97049771D01*
X144438309Y-97003809D01*
X144346385Y-97003809D01*
X144254461Y-97049771D01*
X144208500Y-97095733D01*
X144162538Y-97187657D01*
X144162538Y-97417466D01*
X144208500Y-97555352D01*
X144622157Y-98290742D02*
X144668119Y-98428628D01*
X144714080Y-98474590D01*
X144806004Y-98520552D01*
X144943890Y-98520552D01*
X145035814Y-98474590D01*
X145081776Y-98428628D01*
X145127738Y-98336704D01*
X145127738Y-97969009D01*
X144162538Y-97969009D01*
X144162538Y-98290742D01*
X144208500Y-98382666D01*
X144254461Y-98428628D01*
X144346385Y-98474590D01*
X144438309Y-98474590D01*
X144530233Y-98428628D01*
X144576195Y-98382666D01*
X144622157Y-98290742D01*
X144622157Y-97969009D01*
X147540738Y-96691752D02*
X147540738Y-96140209D01*
X147540738Y-96415980D02*
X146575538Y-96415980D01*
X146713423Y-96324057D01*
X146805347Y-96232133D01*
X146851309Y-96140209D01*
X146575538Y-97013485D02*
X146575538Y-97610990D01*
X146943233Y-97289257D01*
X146943233Y-97427142D01*
X146989195Y-97519066D01*
X147035157Y-97565028D01*
X147127080Y-97610990D01*
X147356890Y-97610990D01*
X147448814Y-97565028D01*
X147494776Y-97519066D01*
X147540738Y-97427142D01*
X147540738Y-97151371D01*
X147494776Y-97059447D01*
X147448814Y-97013485D01*
X161942538Y-96851409D02*
X161942538Y-96391790D01*
X162402157Y-96345828D01*
X162356195Y-96391790D01*
X162310233Y-96483714D01*
X162310233Y-96713523D01*
X162356195Y-96805447D01*
X162402157Y-96851409D01*
X162494080Y-96897371D01*
X162723890Y-96897371D01*
X162815814Y-96851409D01*
X162861776Y-96805447D01*
X162907738Y-96713523D01*
X162907738Y-96483714D01*
X162861776Y-96391790D01*
X162815814Y-96345828D01*
X152620738Y-97199752D02*
X152620738Y-96648209D01*
X152620738Y-96923980D02*
X151655538Y-96923980D01*
X151793423Y-96832057D01*
X151885347Y-96740133D01*
X151931309Y-96648209D01*
X152620738Y-98118990D02*
X152620738Y-97567447D01*
X152620738Y-97843219D02*
X151655538Y-97843219D01*
X151793423Y-97751295D01*
X151885347Y-97659371D01*
X151931309Y-97567447D01*
X155160738Y-97199752D02*
X155160738Y-96648209D01*
X155160738Y-96923980D02*
X154195538Y-96923980D01*
X154333423Y-96832057D01*
X154425347Y-96740133D01*
X154471309Y-96648209D01*
X154195538Y-97797257D02*
X154195538Y-97889180D01*
X154241500Y-97981104D01*
X154287461Y-98027066D01*
X154379385Y-98073028D01*
X154563233Y-98118990D01*
X154793042Y-98118990D01*
X154976890Y-98073028D01*
X155068814Y-98027066D01*
X155114776Y-97981104D01*
X155160738Y-97889180D01*
X155160738Y-97797257D01*
X155114776Y-97705333D01*
X155068814Y-97659371D01*
X154976890Y-97613409D01*
X154793042Y-97567447D01*
X154563233Y-97567447D01*
X154379385Y-97613409D01*
X154287461Y-97659371D01*
X154241500Y-97705333D01*
X154195538Y-97797257D01*
X157827738Y-96818752D02*
X157827738Y-97002600D01*
X157781776Y-97094523D01*
X157735814Y-97140485D01*
X157597928Y-97232409D01*
X157414080Y-97278371D01*
X157046385Y-97278371D01*
X156954461Y-97232409D01*
X156908500Y-97186447D01*
X156862538Y-97094523D01*
X156862538Y-96910676D01*
X156908500Y-96818752D01*
X156954461Y-96772790D01*
X157046385Y-96726828D01*
X157276195Y-96726828D01*
X157368119Y-96772790D01*
X157414080Y-96818752D01*
X157460042Y-96910676D01*
X157460042Y-97094523D01*
X157414080Y-97186447D01*
X157368119Y-97232409D01*
X157276195Y-97278371D01*
X166735276Y-96478997D02*
X166781238Y-96616882D01*
X166781238Y-96846692D01*
X166735276Y-96938616D01*
X166689314Y-96984578D01*
X166597390Y-97030540D01*
X166505466Y-97030540D01*
X166413542Y-96984578D01*
X166367580Y-96938616D01*
X166321619Y-96846692D01*
X166275657Y-96662844D01*
X166229695Y-96570920D01*
X166183733Y-96524959D01*
X166091809Y-96478997D01*
X165999885Y-96478997D01*
X165907961Y-96524959D01*
X165862000Y-96570920D01*
X165816038Y-96662844D01*
X165816038Y-96892654D01*
X165862000Y-97030540D01*
X166689314Y-97995740D02*
X166735276Y-97949778D01*
X166781238Y-97811892D01*
X166781238Y-97719968D01*
X166735276Y-97582082D01*
X166643352Y-97490159D01*
X166551428Y-97444197D01*
X166367580Y-97398235D01*
X166229695Y-97398235D01*
X166045847Y-97444197D01*
X165953923Y-97490159D01*
X165862000Y-97582082D01*
X165816038Y-97719968D01*
X165816038Y-97811892D01*
X165862000Y-97949778D01*
X165907961Y-97995740D01*
X166781238Y-98869016D02*
X166781238Y-98409397D01*
X165816038Y-98409397D01*
X169427676Y-96490971D02*
X169473638Y-96628857D01*
X169473638Y-96858666D01*
X169427676Y-96950590D01*
X169381714Y-96996552D01*
X169289790Y-97042514D01*
X169197866Y-97042514D01*
X169105942Y-96996552D01*
X169059980Y-96950590D01*
X169014019Y-96858666D01*
X168968057Y-96674819D01*
X168922095Y-96582895D01*
X168876133Y-96536933D01*
X168784209Y-96490971D01*
X168692285Y-96490971D01*
X168600361Y-96536933D01*
X168554400Y-96582895D01*
X168508438Y-96674819D01*
X168508438Y-96904628D01*
X168554400Y-97042514D01*
X169473638Y-97456171D02*
X168508438Y-97456171D01*
X168508438Y-97685980D01*
X168554400Y-97823866D01*
X168646323Y-97915790D01*
X168738247Y-97961752D01*
X168922095Y-98007714D01*
X169059980Y-98007714D01*
X169243828Y-97961752D01*
X169335752Y-97915790D01*
X169427676Y-97823866D01*
X169473638Y-97685980D01*
X169473638Y-97456171D01*
X169197866Y-98375409D02*
X169197866Y-98835028D01*
X169473638Y-98283485D02*
X168508438Y-98605219D01*
X169473638Y-98926952D01*
X139542157Y-96544190D02*
X139588119Y-96682076D01*
X139634080Y-96728038D01*
X139726004Y-96774000D01*
X139863890Y-96774000D01*
X139955814Y-96728038D01*
X140001776Y-96682076D01*
X140047738Y-96590152D01*
X140047738Y-96222457D01*
X139082538Y-96222457D01*
X139082538Y-96544190D01*
X139128500Y-96636114D01*
X139174461Y-96682076D01*
X139266385Y-96728038D01*
X139358309Y-96728038D01*
X139450233Y-96682076D01*
X139496195Y-96636114D01*
X139542157Y-96544190D01*
X139542157Y-96222457D01*
X139771966Y-97141695D02*
X139771966Y-97601314D01*
X140047738Y-97049771D02*
X139082538Y-97371504D01*
X140047738Y-97693238D01*
X139082538Y-97877085D02*
X139082538Y-98428628D01*
X140047738Y-98152857D02*
X139082538Y-98152857D01*
X150080738Y-96691752D02*
X150080738Y-96140209D01*
X150080738Y-96415980D02*
X149115538Y-96415980D01*
X149253423Y-96324057D01*
X149345347Y-96232133D01*
X149391309Y-96140209D01*
X149207461Y-97059447D02*
X149161500Y-97105409D01*
X149115538Y-97197333D01*
X149115538Y-97427142D01*
X149161500Y-97519066D01*
X149207461Y-97565028D01*
X149299385Y-97610990D01*
X149391309Y-97610990D01*
X149529195Y-97565028D01*
X150080738Y-97013485D01*
X150080738Y-97610990D01*
X159275538Y-96805447D02*
X159275538Y-96621600D01*
X159321500Y-96529676D01*
X159367461Y-96483714D01*
X159505347Y-96391790D01*
X159689195Y-96345828D01*
X160056890Y-96345828D01*
X160148814Y-96391790D01*
X160194776Y-96437752D01*
X160240738Y-96529676D01*
X160240738Y-96713523D01*
X160194776Y-96805447D01*
X160148814Y-96851409D01*
X160056890Y-96897371D01*
X159827080Y-96897371D01*
X159735157Y-96851409D01*
X159689195Y-96805447D01*
X159643233Y-96713523D01*
X159643233Y-96529676D01*
X159689195Y-96437752D01*
X159735157Y-96391790D01*
X159827080Y-96345828D01*
X142082157Y-96232133D02*
X142082157Y-96553866D01*
X142587738Y-96691752D02*
X142587738Y-96232133D01*
X141622538Y-96232133D01*
X141622538Y-96691752D01*
X141944271Y-97105409D02*
X142587738Y-97105409D01*
X142036195Y-97105409D02*
X141990233Y-97151371D01*
X141944271Y-97243295D01*
X141944271Y-97381180D01*
X141990233Y-97473104D01*
X142082157Y-97519066D01*
X142587738Y-97519066D01*
D13*
D11*
X129887738Y-112476038D02*
X129428119Y-112154304D01*
X129887738Y-111924495D02*
X128922538Y-111924495D01*
X128922538Y-112292190D01*
X128968500Y-112384114D01*
X129014461Y-112430076D01*
X129106385Y-112476038D01*
X129244271Y-112476038D01*
X129336195Y-112430076D01*
X129382157Y-112384114D01*
X129428119Y-112292190D01*
X129428119Y-111924495D01*
X129841776Y-112843733D02*
X129887738Y-112981619D01*
X129887738Y-113211428D01*
X129841776Y-113303352D01*
X129795814Y-113349314D01*
X129703890Y-113395276D01*
X129611966Y-113395276D01*
X129520042Y-113349314D01*
X129474080Y-113303352D01*
X129428119Y-113211428D01*
X129382157Y-113027580D01*
X129336195Y-112935657D01*
X129290233Y-112889695D01*
X129198309Y-112843733D01*
X129106385Y-112843733D01*
X129014461Y-112889695D01*
X128968500Y-112935657D01*
X128922538Y-113027580D01*
X128922538Y-113257390D01*
X128968500Y-113395276D01*
X128922538Y-113671047D02*
X128922538Y-114222590D01*
X129887738Y-113946819D02*
X128922538Y-113946819D01*
X134691966Y-112143419D02*
X134691966Y-112603038D01*
X134967738Y-112051495D02*
X134002538Y-112373228D01*
X134967738Y-112694961D01*
X134967738Y-113568238D02*
X134508119Y-113246504D01*
X134967738Y-113016695D02*
X134002538Y-113016695D01*
X134002538Y-113384390D01*
X134048500Y-113476314D01*
X134094461Y-113522276D01*
X134186385Y-113568238D01*
X134324271Y-113568238D01*
X134416195Y-113522276D01*
X134462157Y-113476314D01*
X134508119Y-113384390D01*
X134508119Y-113016695D01*
X134324271Y-113844009D02*
X134324271Y-114211704D01*
X134967738Y-113981895D02*
X134140423Y-113981895D01*
X134048500Y-114027857D01*
X134002538Y-114119780D01*
X134002538Y-114211704D01*
X131589538Y-112650209D02*
X131589538Y-113247714D01*
X131957233Y-112925980D01*
X131957233Y-113063866D01*
X132003195Y-113155790D01*
X132049157Y-113201752D01*
X132141080Y-113247714D01*
X132370890Y-113247714D01*
X132462814Y-113201752D01*
X132508776Y-113155790D01*
X132554738Y-113063866D01*
X132554738Y-112788095D01*
X132508776Y-112696171D01*
X132462814Y-112650209D01*
X131589538Y-113523485D02*
X132554738Y-113845219D01*
X131589538Y-114166952D01*
X152471966Y-112569171D02*
X152471966Y-113028790D01*
X152747738Y-112477247D02*
X151782538Y-112798980D01*
X152747738Y-113120714D01*
X151782538Y-113902066D02*
X151782538Y-113442447D01*
X152242157Y-113396485D01*
X152196195Y-113442447D01*
X152150233Y-113534371D01*
X152150233Y-113764180D01*
X152196195Y-113856104D01*
X152242157Y-113902066D01*
X152334080Y-113948028D01*
X152563890Y-113948028D01*
X152655814Y-113902066D01*
X152701776Y-113856104D01*
X152747738Y-113764180D01*
X152747738Y-113534371D01*
X152701776Y-113442447D01*
X152655814Y-113396485D01*
X149804966Y-112569171D02*
X149804966Y-113028790D01*
X150080738Y-112477247D02*
X149115538Y-112798980D01*
X150080738Y-113120714D01*
X149437271Y-113856104D02*
X150080738Y-113856104D01*
X149069576Y-113626295D02*
X149759004Y-113396485D01*
X149759004Y-113993990D01*
X147391966Y-112569171D02*
X147391966Y-113028790D01*
X147667738Y-112477247D02*
X146702538Y-112798980D01*
X147667738Y-113120714D01*
X146702538Y-113350523D02*
X146702538Y-113948028D01*
X147070233Y-113626295D01*
X147070233Y-113764180D01*
X147116195Y-113856104D01*
X147162157Y-113902066D01*
X147254080Y-113948028D01*
X147483890Y-113948028D01*
X147575814Y-113902066D01*
X147621776Y-113856104D01*
X147667738Y-113764180D01*
X147667738Y-113488409D01*
X147621776Y-113396485D01*
X147575814Y-113350523D01*
X144724966Y-112569171D02*
X144724966Y-113028790D01*
X145000738Y-112477247D02*
X144035538Y-112798980D01*
X145000738Y-113120714D01*
X144127461Y-113396485D02*
X144081500Y-113442447D01*
X144035538Y-113534371D01*
X144035538Y-113764180D01*
X144081500Y-113856104D01*
X144127461Y-113902066D01*
X144219385Y-113948028D01*
X144311309Y-113948028D01*
X144449195Y-113902066D01*
X145000738Y-113350523D01*
X145000738Y-113948028D01*
X142184966Y-112696171D02*
X142184966Y-113155790D01*
X142460738Y-112604247D02*
X141495538Y-112925980D01*
X142460738Y-113247714D01*
X142460738Y-114075028D02*
X142460738Y-113523485D01*
X142460738Y-113799257D02*
X141495538Y-113799257D01*
X141633423Y-113707333D01*
X141725347Y-113615409D01*
X141771309Y-113523485D01*
X139771966Y-112569171D02*
X139771966Y-113028790D01*
X140047738Y-112477247D02*
X139082538Y-112798980D01*
X140047738Y-113120714D01*
X139082538Y-113626295D02*
X139082538Y-113718219D01*
X139128500Y-113810142D01*
X139174461Y-113856104D01*
X139266385Y-113902066D01*
X139450233Y-113948028D01*
X139680042Y-113948028D01*
X139863890Y-113902066D01*
X139955814Y-113856104D01*
X140001776Y-113810142D01*
X140047738Y-113718219D01*
X140047738Y-113626295D01*
X140001776Y-113534371D01*
X139955814Y-113488409D01*
X139863890Y-113442447D01*
X139680042Y-113396485D01*
X139450233Y-113396485D01*
X139266385Y-113442447D01*
X139174461Y-113488409D01*
X139128500Y-113534371D01*
X139082538Y-113626295D01*
X154987776Y-111636628D02*
X155033738Y-111774514D01*
X155033738Y-112004323D01*
X154987776Y-112096247D01*
X154941814Y-112142209D01*
X154849890Y-112188171D01*
X154757966Y-112188171D01*
X154666042Y-112142209D01*
X154620080Y-112096247D01*
X154574119Y-112004323D01*
X154528157Y-111820476D01*
X154482195Y-111728552D01*
X154436233Y-111682590D01*
X154344309Y-111636628D01*
X154252385Y-111636628D01*
X154160461Y-111682590D01*
X154114500Y-111728552D01*
X154068538Y-111820476D01*
X154068538Y-112050285D01*
X154114500Y-112188171D01*
X154941814Y-113153371D02*
X154987776Y-113107409D01*
X155033738Y-112969523D01*
X155033738Y-112877600D01*
X154987776Y-112739714D01*
X154895852Y-112647790D01*
X154803928Y-112601828D01*
X154620080Y-112555866D01*
X154482195Y-112555866D01*
X154298347Y-112601828D01*
X154206423Y-112647790D01*
X154114500Y-112739714D01*
X154068538Y-112877600D01*
X154068538Y-112969523D01*
X154114500Y-113107409D01*
X154160461Y-113153371D01*
X155033738Y-113567028D02*
X154068538Y-113567028D01*
X155033738Y-114118571D02*
X154482195Y-113704914D01*
X154068538Y-114118571D02*
X154620080Y-113567028D01*
X157519158Y-111423450D02*
X156674608Y-111423450D01*
X157277858Y-111704966D01*
X156674608Y-111986483D01*
X157519158Y-111986483D01*
X156674608Y-112549516D02*
X156674608Y-112710383D01*
X156714825Y-112790816D01*
X156795258Y-112871250D01*
X156956125Y-112911466D01*
X157237641Y-112911466D01*
X157398508Y-112871250D01*
X157478941Y-112790816D01*
X157519158Y-112710383D01*
X157519158Y-112549516D01*
X157478941Y-112469083D01*
X157398508Y-112388650D01*
X157237641Y-112348433D01*
X156956125Y-112348433D01*
X156795258Y-112388650D01*
X156714825Y-112469083D01*
X156674608Y-112549516D01*
X157478941Y-113233200D02*
X157519158Y-113353850D01*
X157519158Y-113554933D01*
X157478941Y-113635366D01*
X157438725Y-113675583D01*
X157358291Y-113715800D01*
X157277858Y-113715800D01*
X157197425Y-113675583D01*
X157157208Y-113635366D01*
X157116991Y-113554933D01*
X157076775Y-113394066D01*
X157036558Y-113313633D01*
X156996341Y-113273416D01*
X156915908Y-113233200D01*
X156835475Y-113233200D01*
X156755041Y-113273416D01*
X156714825Y-113313633D01*
X156674608Y-113394066D01*
X156674608Y-113595150D01*
X156714825Y-113715800D01*
X157519158Y-114077750D02*
X156674608Y-114077750D01*
X159932158Y-111423450D02*
X159087608Y-111423450D01*
X159690858Y-111704966D01*
X159087608Y-111986483D01*
X159932158Y-111986483D01*
X159932158Y-112388650D02*
X159087608Y-112388650D01*
X159891941Y-112750600D02*
X159932158Y-112871250D01*
X159932158Y-113072333D01*
X159891941Y-113152766D01*
X159851725Y-113192983D01*
X159771291Y-113233200D01*
X159690858Y-113233200D01*
X159610425Y-113192983D01*
X159570208Y-113152766D01*
X159529991Y-113072333D01*
X159489775Y-112911466D01*
X159449558Y-112831033D01*
X159409341Y-112790816D01*
X159328908Y-112750600D01*
X159248475Y-112750600D01*
X159168041Y-112790816D01*
X159127825Y-112831033D01*
X159087608Y-112911466D01*
X159087608Y-113112550D01*
X159127825Y-113233200D01*
X159087608Y-113756016D02*
X159087608Y-113916883D01*
X159127825Y-113997316D01*
X159208258Y-114077750D01*
X159369125Y-114117966D01*
X159650641Y-114117966D01*
X159811508Y-114077750D01*
X159891941Y-113997316D01*
X159932158Y-113916883D01*
X159932158Y-113756016D01*
X159891941Y-113675583D01*
X159811508Y-113595150D01*
X159650641Y-113554933D01*
X159369125Y-113554933D01*
X159208258Y-113595150D01*
X159127825Y-113675583D01*
X159087608Y-113756016D01*
X164269661Y-115844561D02*
X164269661Y-115752638D01*
X164223700Y-115660714D01*
X164177738Y-115614752D01*
X164085814Y-115568790D01*
X163901966Y-115522828D01*
X163672157Y-115522828D01*
X163488309Y-115568790D01*
X163396385Y-115614752D01*
X163350423Y-115660714D01*
X163304461Y-115752638D01*
X163304461Y-115844561D01*
X163350423Y-115936485D01*
X163396385Y-115982447D01*
X163488309Y-116028409D01*
X163672157Y-116074371D01*
X163901966Y-116074371D01*
X164085814Y-116028409D01*
X164177738Y-115982447D01*
X164223700Y-115936485D01*
X164269661Y-115844561D01*
X166463738Y-116328371D02*
X166463738Y-115776828D01*
X166463738Y-116052600D02*
X165498538Y-116052600D01*
X165636423Y-115960676D01*
X165728347Y-115868752D01*
X165774309Y-115776828D01*
X163546245Y-114558838D02*
X163867979Y-114099219D01*
X164097788Y-114558838D02*
X164097788Y-113593638D01*
X163730093Y-113593638D01*
X163638169Y-113639600D01*
X163592207Y-113685561D01*
X163546245Y-113777485D01*
X163546245Y-113915371D01*
X163592207Y-114007295D01*
X163638169Y-114053257D01*
X163730093Y-114099219D01*
X164097788Y-114099219D01*
X163224512Y-113593638D02*
X162581045Y-114558838D01*
X162581045Y-113593638D02*
X163224512Y-114558838D01*
X166672864Y-113593638D02*
X166121321Y-113593638D01*
X166397093Y-114558838D02*
X166397093Y-113593638D01*
X165891512Y-113593638D02*
X165248045Y-114558838D01*
X165248045Y-113593638D02*
X165891512Y-114558838D01*
X137679490Y-112903000D02*
X137771414Y-112857038D01*
X137909300Y-112857038D01*
X138047185Y-112903000D01*
X138139109Y-112994923D01*
X138185071Y-113086847D01*
X138231033Y-113270695D01*
X138231033Y-113408580D01*
X138185071Y-113592428D01*
X138139109Y-113684352D01*
X138047185Y-113776276D01*
X137909300Y-113822238D01*
X137817376Y-113822238D01*
X137679490Y-113776276D01*
X137633528Y-113730314D01*
X137633528Y-113408580D01*
X137817376Y-113408580D01*
X137219871Y-113822238D02*
X137219871Y-112857038D01*
X136668328Y-113822238D01*
X136668328Y-112857038D01*
X136208709Y-113822238D02*
X136208709Y-112857038D01*
X135978900Y-112857038D01*
X135841014Y-112903000D01*
X135749090Y-112994923D01*
X135703128Y-113086847D01*
X135657166Y-113270695D01*
X135657166Y-113408580D01*
X135703128Y-113592428D01*
X135749090Y-113684352D01*
X135841014Y-113776276D01*
X135978900Y-113822238D01*
X136208709Y-113822238D01*
X168409861Y-116040383D02*
X169053328Y-116040383D01*
X169375061Y-116040383D02*
X169329100Y-116086345D01*
X169283138Y-116040383D01*
X169329100Y-115994421D01*
X169375061Y-116040383D01*
X169283138Y-116040383D01*
X168409861Y-115442879D02*
X168455823Y-115534802D01*
X168501785Y-115580764D01*
X168593709Y-115626726D01*
X168869480Y-115626726D01*
X168961404Y-115580764D01*
X169007366Y-115534802D01*
X169053328Y-115442879D01*
X169053328Y-115304993D01*
X169007366Y-115213069D01*
X168961404Y-115167107D01*
X168869480Y-115121145D01*
X168593709Y-115121145D01*
X168501785Y-115167107D01*
X168455823Y-115213069D01*
X168409861Y-115304993D01*
X168409861Y-115442879D01*
X168409861Y-114201907D02*
X168409861Y-114753450D01*
X168409861Y-114477679D02*
X169375061Y-114477679D01*
X169237176Y-114569602D01*
X169145252Y-114661526D01*
X169099290Y-114753450D01*
X146252595Y-111363276D02*
X146160671Y-111409238D01*
X145976823Y-111409238D01*
X145884900Y-111363276D01*
X145838938Y-111271352D01*
X145838938Y-111225390D01*
X145884900Y-111133466D01*
X145976823Y-111087504D01*
X146114709Y-111087504D01*
X146206633Y-111041542D01*
X146252595Y-110949619D01*
X146252595Y-110903657D01*
X146206633Y-110811733D01*
X146114709Y-110765771D01*
X145976823Y-110765771D01*
X145884900Y-110811733D01*
X145517204Y-110765771D02*
X145333357Y-111409238D01*
X145149509Y-110949619D01*
X144965661Y-111409238D01*
X144781814Y-110765771D01*
X144000461Y-111409238D02*
X144000461Y-110444038D01*
X144000461Y-111363276D02*
X144092385Y-111409238D01*
X144276233Y-111409238D01*
X144368157Y-111363276D01*
X144414119Y-111317314D01*
X144460080Y-111225390D01*
X144460080Y-110949619D01*
X144414119Y-110857695D01*
X144368157Y-110811733D01*
X144276233Y-110765771D01*
X144092385Y-110765771D01*
X144000461Y-110811733D01*
X143540842Y-111409238D02*
X143540842Y-110765771D01*
X143540842Y-110444038D02*
X143586804Y-110490000D01*
X143540842Y-110535961D01*
X143494880Y-110490000D01*
X143540842Y-110444038D01*
X143540842Y-110535961D01*
X142943338Y-111409238D02*
X143035261Y-111363276D01*
X143081223Y-111317314D01*
X143127185Y-111225390D01*
X143127185Y-110949619D01*
X143081223Y-110857695D01*
X143035261Y-110811733D01*
X142943338Y-110765771D01*
X142805452Y-110765771D01*
X142713528Y-110811733D01*
X142667566Y-110857695D01*
X142621604Y-110949619D01*
X142621604Y-111225390D01*
X142667566Y-111317314D01*
X142713528Y-111363276D01*
X142805452Y-111409238D01*
X142943338Y-111409238D01*
X136681633Y-111490276D02*
X136589709Y-111536238D01*
X136405861Y-111536238D01*
X136313938Y-111490276D01*
X136267976Y-111398352D01*
X136267976Y-111352390D01*
X136313938Y-111260466D01*
X136405861Y-111214504D01*
X136543747Y-111214504D01*
X136635671Y-111168542D01*
X136681633Y-111076619D01*
X136681633Y-111030657D01*
X136635671Y-110938733D01*
X136543747Y-110892771D01*
X136405861Y-110892771D01*
X136313938Y-110938733D01*
X135946242Y-110892771D02*
X135762395Y-111536238D01*
X135578547Y-111076619D01*
X135394700Y-111536238D01*
X135210852Y-110892771D01*
X134429500Y-111490276D02*
X134521423Y-111536238D01*
X134705271Y-111536238D01*
X134797195Y-111490276D01*
X134843157Y-111444314D01*
X134889119Y-111352390D01*
X134889119Y-111076619D01*
X134843157Y-110984695D01*
X134797195Y-110938733D01*
X134705271Y-110892771D01*
X134521423Y-110892771D01*
X134429500Y-110938733D01*
X133877957Y-111536238D02*
X133969880Y-111490276D01*
X134015842Y-111398352D01*
X134015842Y-110571038D01*
X133510261Y-111536238D02*
X133510261Y-110571038D01*
X133418338Y-111168542D02*
X133142566Y-111536238D01*
X133142566Y-110892771D02*
X133510261Y-111260466D01*
X155303461Y-112142209D02*
X155257500Y-112188171D01*
X155211538Y-112280095D01*
X155211538Y-112509904D01*
X155257500Y-112601828D01*
X155303461Y-112647790D01*
X155395385Y-112693752D01*
X155487309Y-112693752D01*
X155625195Y-112647790D01*
X156176738Y-112096247D01*
X156176738Y-112693752D01*
X155533271Y-113521066D02*
X156176738Y-113521066D01*
X155165576Y-113291257D02*
X155855004Y-113061447D01*
X155855004Y-113658952D01*
X157771041Y-112107133D02*
X157730825Y-112147350D01*
X157690608Y-112227783D01*
X157690608Y-112428866D01*
X157730825Y-112509300D01*
X157771041Y-112549516D01*
X157851475Y-112589733D01*
X157931908Y-112589733D01*
X158052558Y-112549516D01*
X158535158Y-112066916D01*
X158535158Y-112589733D01*
X157690608Y-112871250D02*
X157690608Y-113394066D01*
X158012341Y-113112550D01*
X158012341Y-113233200D01*
X158052558Y-113313633D01*
X158092775Y-113353850D01*
X158173208Y-113394066D01*
X158374291Y-113394066D01*
X158454725Y-113353850D01*
X158494941Y-113313633D01*
X158535158Y-113233200D01*
X158535158Y-112991900D01*
X158494941Y-112911466D01*
X158454725Y-112871250D01*
X160184041Y-113123133D02*
X160143825Y-113163350D01*
X160103608Y-113243783D01*
X160103608Y-113444866D01*
X160143825Y-113525300D01*
X160184041Y-113565516D01*
X160264475Y-113605733D01*
X160344908Y-113605733D01*
X160465558Y-113565516D01*
X160948158Y-113082916D01*
X160948158Y-113605733D01*
X160184041Y-113927466D02*
X160143825Y-113967683D01*
X160103608Y-114048116D01*
X160103608Y-114249200D01*
X160143825Y-114329633D01*
X160184041Y-114369850D01*
X160264475Y-114410066D01*
X160344908Y-114410066D01*
X160465558Y-114369850D01*
X160948158Y-113887250D01*
X160948158Y-114410066D01*
X167330361Y-96673609D02*
X167284400Y-96719571D01*
X167238438Y-96811495D01*
X167238438Y-97041304D01*
X167284400Y-97133228D01*
X167330361Y-97179190D01*
X167422285Y-97225152D01*
X167514209Y-97225152D01*
X167652095Y-97179190D01*
X168203638Y-96627647D01*
X168203638Y-97225152D01*
X167238438Y-97822657D02*
X167238438Y-97914580D01*
X167284400Y-98006504D01*
X167330361Y-98052466D01*
X167422285Y-98098428D01*
X167606133Y-98144390D01*
X167835942Y-98144390D01*
X168019790Y-98098428D01*
X168111714Y-98052466D01*
X168157676Y-98006504D01*
X168203638Y-97914580D01*
X168203638Y-97822657D01*
X168157676Y-97730733D01*
X168111714Y-97684771D01*
X168019790Y-97638809D01*
X167835942Y-97592847D01*
X167606133Y-97592847D01*
X167422285Y-97638809D01*
X167330361Y-97684771D01*
X167284400Y-97730733D01*
X167238438Y-97822657D01*
X164717941Y-96765533D02*
X164677725Y-96805750D01*
X164637508Y-96886183D01*
X164637508Y-97087266D01*
X164677725Y-97167700D01*
X164717941Y-97207916D01*
X164798375Y-97248133D01*
X164878808Y-97248133D01*
X164999458Y-97207916D01*
X165482058Y-96725316D01*
X165482058Y-97248133D01*
X165482058Y-98052466D02*
X165482058Y-97569866D01*
X165482058Y-97811166D02*
X164637508Y-97811166D01*
X164758158Y-97730733D01*
X164838591Y-97650300D01*
X164878808Y-97569866D01*
X170187861Y-99416688D02*
X171153061Y-99416688D01*
X171153061Y-99186879D01*
X171107100Y-99048993D01*
X171015176Y-98957069D01*
X170923252Y-98911107D01*
X170739404Y-98865145D01*
X170601519Y-98865145D01*
X170417671Y-98911107D01*
X170325747Y-98957069D01*
X170233823Y-99048993D01*
X170187861Y-99186879D01*
X170187861Y-99416688D01*
X171061138Y-98497450D02*
X171107100Y-98451488D01*
X171153061Y-98359564D01*
X171153061Y-98129755D01*
X171107100Y-98037831D01*
X171061138Y-97991869D01*
X170969214Y-97945907D01*
X170877290Y-97945907D01*
X170739404Y-97991869D01*
X170187861Y-98543412D01*
X170187861Y-97945907D01*
X170149761Y-101956688D02*
X171114961Y-101956688D01*
X171114961Y-101726879D01*
X171069000Y-101588993D01*
X170977076Y-101497069D01*
X170885152Y-101451107D01*
X170701304Y-101405145D01*
X170563419Y-101405145D01*
X170379571Y-101451107D01*
X170287647Y-101497069D01*
X170195723Y-101588993D01*
X170149761Y-101726879D01*
X170149761Y-101956688D01*
X171114961Y-101083412D02*
X171114961Y-100485907D01*
X170747266Y-100807640D01*
X170747266Y-100669755D01*
X170701304Y-100577831D01*
X170655342Y-100531869D01*
X170563419Y-100485907D01*
X170333609Y-100485907D01*
X170241685Y-100531869D01*
X170195723Y-100577831D01*
X170149761Y-100669755D01*
X170149761Y-100945526D01*
X170195723Y-101037450D01*
X170241685Y-101083412D01*
X170187861Y-104496688D02*
X171153061Y-104496688D01*
X171153061Y-104266879D01*
X171107100Y-104128993D01*
X171015176Y-104037069D01*
X170923252Y-103991107D01*
X170739404Y-103945145D01*
X170601519Y-103945145D01*
X170417671Y-103991107D01*
X170325747Y-104037069D01*
X170233823Y-104128993D01*
X170187861Y-104266879D01*
X170187861Y-104496688D01*
X171153061Y-103071869D02*
X171153061Y-103531488D01*
X170693442Y-103577450D01*
X170739404Y-103531488D01*
X170785366Y-103439564D01*
X170785366Y-103209755D01*
X170739404Y-103117831D01*
X170693442Y-103071869D01*
X170601519Y-103025907D01*
X170371709Y-103025907D01*
X170279785Y-103071869D01*
X170233823Y-103117831D01*
X170187861Y-103209755D01*
X170187861Y-103439564D01*
X170233823Y-103531488D01*
X170279785Y-103577450D01*
X149655590Y-106057095D02*
X149926523Y-105670047D01*
X150120047Y-106057095D02*
X150120047Y-105244295D01*
X149810409Y-105244295D01*
X149733000Y-105283000D01*
X149694295Y-105321704D01*
X149655590Y-105399114D01*
X149655590Y-105515228D01*
X149694295Y-105592638D01*
X149733000Y-105631342D01*
X149810409Y-105670047D01*
X150120047Y-105670047D01*
X149036314Y-105631342D02*
X149307247Y-105631342D01*
X149307247Y-106057095D02*
X149307247Y-105244295D01*
X148920200Y-105244295D01*
X147526828Y-106057095D02*
X147797761Y-105670047D01*
X147991285Y-106057095D02*
X147991285Y-105244295D01*
X147681647Y-105244295D01*
X147604238Y-105283000D01*
X147565533Y-105321704D01*
X147526828Y-105399114D01*
X147526828Y-105515228D01*
X147565533Y-105592638D01*
X147604238Y-105631342D01*
X147681647Y-105670047D01*
X147991285Y-105670047D01*
X146830142Y-106057095D02*
X146830142Y-105631342D01*
X146868847Y-105553933D01*
X146946257Y-105515228D01*
X147101076Y-105515228D01*
X147178485Y-105553933D01*
X146830142Y-106018390D02*
X146907552Y-106057095D01*
X147101076Y-106057095D01*
X147178485Y-106018390D01*
X147217190Y-105940980D01*
X147217190Y-105863571D01*
X147178485Y-105786161D01*
X147101076Y-105747457D01*
X146907552Y-105747457D01*
X146830142Y-105708752D01*
X146094752Y-106057095D02*
X146094752Y-105244295D01*
X146094752Y-106018390D02*
X146172161Y-106057095D01*
X146326980Y-106057095D01*
X146404390Y-106018390D01*
X146443095Y-105979685D01*
X146481800Y-105902276D01*
X146481800Y-105670047D01*
X146443095Y-105592638D01*
X146404390Y-105553933D01*
X146326980Y-105515228D01*
X146172161Y-105515228D01*
X146094752Y-105553933D01*
X145707704Y-106057095D02*
X145707704Y-105515228D01*
X145707704Y-105244295D02*
X145746409Y-105283000D01*
X145707704Y-105321704D01*
X145669000Y-105283000D01*
X145707704Y-105244295D01*
X145707704Y-105321704D01*
X145204542Y-106057095D02*
X145281952Y-106018390D01*
X145320657Y-105979685D01*
X145359361Y-105902276D01*
X145359361Y-105670047D01*
X145320657Y-105592638D01*
X145281952Y-105553933D01*
X145204542Y-105515228D01*
X145088428Y-105515228D01*
X145011019Y-105553933D01*
X144972314Y-105592638D01*
X144933609Y-105670047D01*
X144933609Y-105902276D01*
X144972314Y-105979685D01*
X145011019Y-106018390D01*
X145088428Y-106057095D01*
X145204542Y-106057095D01*
X143617647Y-105515228D02*
X143617647Y-106057095D01*
X143965990Y-105515228D02*
X143965990Y-105940980D01*
X143927285Y-106018390D01*
X143849876Y-106057095D01*
X143733761Y-106057095D01*
X143656352Y-106018390D01*
X143617647Y-105979685D01*
X143269304Y-106018390D02*
X143191895Y-106057095D01*
X143037076Y-106057095D01*
X142959666Y-106018390D01*
X142920961Y-105940980D01*
X142920961Y-105902276D01*
X142959666Y-105824866D01*
X143037076Y-105786161D01*
X143153190Y-105786161D01*
X143230600Y-105747457D01*
X143269304Y-105670047D01*
X143269304Y-105631342D01*
X143230600Y-105553933D01*
X143153190Y-105515228D01*
X143037076Y-105515228D01*
X142959666Y-105553933D01*
X142262980Y-106018390D02*
X142340390Y-106057095D01*
X142495209Y-106057095D01*
X142572619Y-106018390D01*
X142611323Y-105940980D01*
X142611323Y-105631342D01*
X142572619Y-105553933D01*
X142495209Y-105515228D01*
X142340390Y-105515228D01*
X142262980Y-105553933D01*
X142224276Y-105631342D01*
X142224276Y-105708752D01*
X142611323Y-105786161D01*
X141914638Y-106018390D02*
X141837228Y-106057095D01*
X141682409Y-106057095D01*
X141605000Y-106018390D01*
X141566295Y-105940980D01*
X141566295Y-105902276D01*
X141605000Y-105824866D01*
X141682409Y-105786161D01*
X141798523Y-105786161D01*
X141875933Y-105747457D01*
X141914638Y-105670047D01*
X141914638Y-105631342D01*
X141875933Y-105553933D01*
X141798523Y-105515228D01*
X141682409Y-105515228D01*
X141605000Y-105553933D01*
X141217952Y-105979685D02*
X141179247Y-106018390D01*
X141217952Y-106057095D01*
X141256657Y-106018390D01*
X141217952Y-105979685D01*
X141217952Y-106057095D01*
X141217952Y-105553933D02*
X141179247Y-105592638D01*
X141217952Y-105631342D01*
X141256657Y-105592638D01*
X141217952Y-105553933D01*
X141217952Y-105631342D01*
X150468390Y-107428695D02*
X150468390Y-106615895D01*
X150197457Y-107196466D01*
X149926523Y-106615895D01*
X149926523Y-107428695D01*
X149539476Y-107428695D02*
X149539476Y-106615895D01*
X149191133Y-107389990D02*
X149075019Y-107428695D01*
X148881495Y-107428695D01*
X148804085Y-107389990D01*
X148765380Y-107351285D01*
X148726676Y-107273876D01*
X148726676Y-107196466D01*
X148765380Y-107119057D01*
X148804085Y-107080352D01*
X148881495Y-107041647D01*
X149036314Y-107002942D01*
X149113723Y-106964238D01*
X149152428Y-106925533D01*
X149191133Y-106848123D01*
X149191133Y-106770714D01*
X149152428Y-106693304D01*
X149113723Y-106654600D01*
X149036314Y-106615895D01*
X148842790Y-106615895D01*
X148726676Y-106654600D01*
X148223514Y-106615895D02*
X148068695Y-106615895D01*
X147991285Y-106654600D01*
X147913876Y-106732009D01*
X147875171Y-106886828D01*
X147875171Y-107157761D01*
X147913876Y-107312580D01*
X147991285Y-107389990D01*
X148068695Y-107428695D01*
X148223514Y-107428695D01*
X148300923Y-107389990D01*
X148378333Y-107312580D01*
X148417038Y-107157761D01*
X148417038Y-106886828D01*
X148378333Y-106732009D01*
X148300923Y-106654600D01*
X148223514Y-106615895D01*
X146946257Y-106577190D02*
X147642942Y-107622219D01*
X146675323Y-107428695D02*
X146675323Y-106615895D01*
X146404390Y-107196466D01*
X146133457Y-106615895D01*
X146133457Y-107428695D01*
X145591590Y-106615895D02*
X145436771Y-106615895D01*
X145359361Y-106654600D01*
X145281952Y-106732009D01*
X145243247Y-106886828D01*
X145243247Y-107157761D01*
X145281952Y-107312580D01*
X145359361Y-107389990D01*
X145436771Y-107428695D01*
X145591590Y-107428695D01*
X145669000Y-107389990D01*
X145746409Y-107312580D01*
X145785114Y-107157761D01*
X145785114Y-106886828D01*
X145746409Y-106732009D01*
X145669000Y-106654600D01*
X145591590Y-106615895D01*
X144933609Y-107389990D02*
X144817495Y-107428695D01*
X144623971Y-107428695D01*
X144546561Y-107389990D01*
X144507857Y-107351285D01*
X144469152Y-107273876D01*
X144469152Y-107196466D01*
X144507857Y-107119057D01*
X144546561Y-107080352D01*
X144623971Y-107041647D01*
X144778790Y-107002942D01*
X144856200Y-106964238D01*
X144894904Y-106925533D01*
X144933609Y-106848123D01*
X144933609Y-106770714D01*
X144894904Y-106693304D01*
X144856200Y-106654600D01*
X144778790Y-106615895D01*
X144585266Y-106615895D01*
X144469152Y-106654600D01*
X144120809Y-107428695D02*
X144120809Y-106615895D01*
X143153190Y-106577190D02*
X143849876Y-107622219D01*
X142920961Y-107389990D02*
X142804847Y-107428695D01*
X142611323Y-107428695D01*
X142533914Y-107389990D01*
X142495209Y-107351285D01*
X142456504Y-107273876D01*
X142456504Y-107196466D01*
X142495209Y-107119057D01*
X142533914Y-107080352D01*
X142611323Y-107041647D01*
X142766142Y-107002942D01*
X142843552Y-106964238D01*
X142882257Y-106925533D01*
X142920961Y-106848123D01*
X142920961Y-106770714D01*
X142882257Y-106693304D01*
X142843552Y-106654600D01*
X142766142Y-106615895D01*
X142572619Y-106615895D01*
X142456504Y-106654600D01*
X141643704Y-107351285D02*
X141682409Y-107389990D01*
X141798523Y-107428695D01*
X141875933Y-107428695D01*
X141992047Y-107389990D01*
X142069457Y-107312580D01*
X142108161Y-107235171D01*
X142146866Y-107080352D01*
X142146866Y-106964238D01*
X142108161Y-106809419D01*
X142069457Y-106732009D01*
X141992047Y-106654600D01*
X141875933Y-106615895D01*
X141798523Y-106615895D01*
X141682409Y-106654600D01*
X141643704Y-106693304D01*
X141295361Y-107428695D02*
X141295361Y-106615895D01*
X140830904Y-107428695D02*
X141179247Y-106964238D01*
X140830904Y-106615895D02*
X141295361Y-107080352D01*
X153139019Y-107987495D02*
X152674561Y-107987495D01*
X152906790Y-108800295D02*
X152906790Y-107987495D01*
X152481038Y-107987495D02*
X151939171Y-108800295D01*
X151939171Y-107987495D02*
X152481038Y-108800295D01*
X151629533Y-108800295D02*
X151629533Y-107987495D01*
X151436009Y-107987495D01*
X151319895Y-108026200D01*
X151242485Y-108103609D01*
X151203780Y-108181019D01*
X151165076Y-108335838D01*
X151165076Y-108451952D01*
X151203780Y-108606771D01*
X151242485Y-108684180D01*
X151319895Y-108761590D01*
X151436009Y-108800295D01*
X151629533Y-108800295D01*
X149733000Y-108800295D02*
X150003933Y-108413247D01*
X150197457Y-108800295D02*
X150197457Y-107987495D01*
X149887819Y-107987495D01*
X149810409Y-108026200D01*
X149771704Y-108064904D01*
X149733000Y-108142314D01*
X149733000Y-108258428D01*
X149771704Y-108335838D01*
X149810409Y-108374542D01*
X149887819Y-108413247D01*
X150197457Y-108413247D01*
X149423361Y-108761590D02*
X149307247Y-108800295D01*
X149113723Y-108800295D01*
X149036314Y-108761590D01*
X148997609Y-108722885D01*
X148958904Y-108645476D01*
X148958904Y-108568066D01*
X148997609Y-108490657D01*
X149036314Y-108451952D01*
X149113723Y-108413247D01*
X149268542Y-108374542D01*
X149345952Y-108335838D01*
X149384657Y-108297133D01*
X149423361Y-108219723D01*
X149423361Y-108142314D01*
X149384657Y-108064904D01*
X149345952Y-108026200D01*
X149268542Y-107987495D01*
X149075019Y-107987495D01*
X148958904Y-108026200D01*
X148726676Y-107987495D02*
X148262219Y-107987495D01*
X148494447Y-108800295D02*
X148494447Y-107987495D01*
X147952580Y-108761590D02*
X147952580Y-108800295D01*
X147991285Y-108877704D01*
X148029990Y-108916409D01*
X146520504Y-108800295D02*
X146791438Y-108413247D01*
X146984961Y-108800295D02*
X146984961Y-107987495D01*
X146675323Y-107987495D01*
X146597914Y-108026200D01*
X146559209Y-108064904D01*
X146520504Y-108142314D01*
X146520504Y-108258428D01*
X146559209Y-108335838D01*
X146597914Y-108374542D01*
X146675323Y-108413247D01*
X146984961Y-108413247D01*
X146249571Y-107987495D02*
X145707704Y-108800295D01*
X145707704Y-107987495D02*
X146249571Y-108800295D01*
X145398066Y-108800295D02*
X145398066Y-107987495D01*
X145204542Y-107987495D01*
X145088428Y-108026200D01*
X145011019Y-108103609D01*
X144972314Y-108181019D01*
X144933609Y-108335838D01*
X144933609Y-108451952D01*
X144972314Y-108606771D01*
X145011019Y-108684180D01*
X145088428Y-108761590D01*
X145204542Y-108800295D01*
X145398066Y-108800295D01*
X143965990Y-108800295D02*
X143965990Y-107987495D01*
X143114485Y-108800295D02*
X143385419Y-108413247D01*
X143578942Y-108800295D02*
X143578942Y-107987495D01*
X143269304Y-107987495D01*
X143191895Y-108026200D01*
X143153190Y-108064904D01*
X143114485Y-108142314D01*
X143114485Y-108258428D01*
X143153190Y-108335838D01*
X143191895Y-108374542D01*
X143269304Y-108413247D01*
X143578942Y-108413247D01*
X142224276Y-108877704D02*
X142301685Y-108839000D01*
X142379095Y-108761590D01*
X142495209Y-108645476D01*
X142572619Y-108606771D01*
X142650028Y-108606771D01*
X142611323Y-108800295D02*
X142688733Y-108761590D01*
X142766142Y-108684180D01*
X142804847Y-108529361D01*
X142804847Y-108258428D01*
X142766142Y-108103609D01*
X142688733Y-108026200D01*
X142611323Y-107987495D01*
X142456504Y-107987495D01*
X142379095Y-108026200D01*
X142301685Y-108103609D01*
X142262980Y-108258428D01*
X142262980Y-108529361D01*
X142301685Y-108684180D01*
X142379095Y-108761590D01*
X142456504Y-108800295D01*
X142611323Y-108800295D01*
X141875933Y-108761590D02*
X141875933Y-108800295D01*
X141914638Y-108877704D01*
X141953342Y-108916409D01*
X140792200Y-108335838D02*
X140869609Y-108297133D01*
X140908314Y-108258428D01*
X140947019Y-108181019D01*
X140947019Y-108142314D01*
X140908314Y-108064904D01*
X140869609Y-108026200D01*
X140792200Y-107987495D01*
X140637380Y-107987495D01*
X140559971Y-108026200D01*
X140521266Y-108064904D01*
X140482561Y-108142314D01*
X140482561Y-108181019D01*
X140521266Y-108258428D01*
X140559971Y-108297133D01*
X140637380Y-108335838D01*
X140792200Y-108335838D01*
X140869609Y-108374542D01*
X140908314Y-108413247D01*
X140947019Y-108490657D01*
X140947019Y-108645476D01*
X140908314Y-108722885D01*
X140869609Y-108761590D01*
X140792200Y-108800295D01*
X140637380Y-108800295D01*
X140559971Y-108761590D01*
X140521266Y-108722885D01*
X140482561Y-108645476D01*
X140482561Y-108490657D01*
X140521266Y-108413247D01*
X140559971Y-108374542D01*
X140637380Y-108335838D01*
X139050485Y-108722885D02*
X139089190Y-108761590D01*
X139205304Y-108800295D01*
X139282714Y-108800295D01*
X139398828Y-108761590D01*
X139476238Y-108684180D01*
X139514942Y-108606771D01*
X139553647Y-108451952D01*
X139553647Y-108335838D01*
X139514942Y-108181019D01*
X139476238Y-108103609D01*
X139398828Y-108026200D01*
X139282714Y-107987495D01*
X139205304Y-107987495D01*
X139089190Y-108026200D01*
X139050485Y-108064904D01*
X138740847Y-108761590D02*
X138624733Y-108800295D01*
X138431209Y-108800295D01*
X138353800Y-108761590D01*
X138315095Y-108722885D01*
X138276390Y-108645476D01*
X138276390Y-108568066D01*
X138315095Y-108490657D01*
X138353800Y-108451952D01*
X138431209Y-108413247D01*
X138586028Y-108374542D01*
X138663438Y-108335838D01*
X138702142Y-108297133D01*
X138740847Y-108219723D01*
X138740847Y-108142314D01*
X138702142Y-108064904D01*
X138663438Y-108026200D01*
X138586028Y-107987495D01*
X138392504Y-107987495D01*
X138276390Y-108026200D01*
D14*
X169690451Y-107644292D02*
X169690451Y-106558442D01*
X169069965Y-107644292D01*
X169069965Y-106558442D01*
X168397772Y-107644292D02*
X168501187Y-107592585D01*
X168552894Y-107540878D01*
X168604601Y-107437464D01*
X168604601Y-107127221D01*
X168552894Y-107023807D01*
X168501187Y-106972100D01*
X168397772Y-106920392D01*
X168242651Y-106920392D01*
X168139237Y-106972100D01*
X168087529Y-107023807D01*
X168035822Y-107127221D01*
X168035822Y-107437464D01*
X168087529Y-107540878D01*
X168139237Y-107592585D01*
X168242651Y-107644292D01*
X168397772Y-107644292D01*
X167105094Y-107644292D02*
X167105094Y-106558442D01*
X167105094Y-107592585D02*
X167208508Y-107644292D01*
X167415337Y-107644292D01*
X167518751Y-107592585D01*
X167570458Y-107540878D01*
X167622165Y-107437464D01*
X167622165Y-107127221D01*
X167570458Y-107023807D01*
X167518751Y-106972100D01*
X167415337Y-106920392D01*
X167208508Y-106920392D01*
X167105094Y-106972100D01*
X166174365Y-107592585D02*
X166277779Y-107644292D01*
X166484608Y-107644292D01*
X166588022Y-107592585D01*
X166639729Y-107489171D01*
X166639729Y-107075514D01*
X166588022Y-106972100D01*
X166484608Y-106920392D01*
X166277779Y-106920392D01*
X166174365Y-106972100D01*
X166122658Y-107075514D01*
X166122658Y-107178928D01*
X166639729Y-107282342D01*
X165709001Y-106920392D02*
X164933394Y-106920392D01*
X165398758Y-106455028D02*
X165709001Y-107851121D01*
X165036808Y-107385757D02*
X165812415Y-107385757D01*
X165347051Y-107851121D02*
X165036808Y-106455028D01*
X165366101Y-111368114D02*
X165728051Y-111368114D01*
X165728051Y-111936892D02*
X165728051Y-110851042D01*
X165210979Y-110851042D01*
X164797322Y-111936892D02*
X164797322Y-111212992D01*
X164797322Y-111419821D02*
X164745615Y-111316407D01*
X164693908Y-111264700D01*
X164590494Y-111212992D01*
X164487079Y-111212992D01*
X163711472Y-111885185D02*
X163814887Y-111936892D01*
X164021715Y-111936892D01*
X164125129Y-111885185D01*
X164176837Y-111781771D01*
X164176837Y-111368114D01*
X164125129Y-111264700D01*
X164021715Y-111212992D01*
X163814887Y-111212992D01*
X163711472Y-111264700D01*
X163659765Y-111368114D01*
X163659765Y-111471528D01*
X164176837Y-111574942D01*
X162729037Y-111212992D02*
X162729037Y-112298842D01*
X162729037Y-111885185D02*
X162832451Y-111936892D01*
X163039279Y-111936892D01*
X163142694Y-111885185D01*
X163194401Y-111833478D01*
X163246108Y-111730064D01*
X163246108Y-111419821D01*
X163194401Y-111316407D01*
X163142694Y-111264700D01*
X163039279Y-111212992D01*
X162832451Y-111212992D01*
X162729037Y-111264700D01*
X172612050Y-109709258D02*
X172612050Y-109192187D01*
X172301807Y-109812672D02*
X173387657Y-109450722D01*
X172301807Y-109088772D01*
X173025707Y-108726822D02*
X172301807Y-108726822D01*
X172922292Y-108726822D02*
X172974000Y-108675115D01*
X173025707Y-108571701D01*
X173025707Y-108416579D01*
X172974000Y-108313165D01*
X172870585Y-108261458D01*
X172301807Y-108261458D01*
X173025707Y-107899508D02*
X173025707Y-107485851D01*
X173387657Y-107744387D02*
X172456928Y-107744387D01*
X172353514Y-107692679D01*
X172301807Y-107589265D01*
X172301807Y-107485851D01*
X172405221Y-107123901D02*
X172353514Y-107072194D01*
X172301807Y-107123901D01*
X172353514Y-107175608D01*
X172405221Y-107123901D01*
X172301807Y-107123901D01*
X171064464Y-111689551D02*
X171064464Y-110862237D01*
X170650807Y-111275894D02*
X171478121Y-111275894D01*
X171633242Y-110396872D02*
X171684950Y-110345165D01*
X171736657Y-110241751D01*
X171736657Y-109983215D01*
X171684950Y-109879801D01*
X171633242Y-109828094D01*
X171529828Y-109776387D01*
X171426414Y-109776387D01*
X171271292Y-109828094D01*
X170650807Y-110448579D01*
X170650807Y-109776387D01*
X171736657Y-109104194D02*
X171736657Y-109000779D01*
X171684950Y-108897365D01*
X171633242Y-108845658D01*
X171529828Y-108793951D01*
X171323000Y-108742244D01*
X171064464Y-108742244D01*
X170857635Y-108793951D01*
X170754221Y-108845658D01*
X170702514Y-108897365D01*
X170650807Y-109000779D01*
X170650807Y-109104194D01*
X170702514Y-109207608D01*
X170754221Y-109259315D01*
X170857635Y-109311022D01*
X171064464Y-109362729D01*
X171323000Y-109362729D01*
X171529828Y-109311022D01*
X171633242Y-109259315D01*
X171684950Y-109207608D01*
X171736657Y-109104194D01*
X170650807Y-107811515D02*
X171736657Y-107811515D01*
X170702514Y-107811515D02*
X170650807Y-107914929D01*
X170650807Y-108121758D01*
X170702514Y-108225172D01*
X170754221Y-108276879D01*
X170857635Y-108328587D01*
X171167878Y-108328587D01*
X171271292Y-108276879D01*
X171323000Y-108225172D01*
X171374707Y-108121758D01*
X171374707Y-107914929D01*
X171323000Y-107811515D01*
X171219585Y-106932494D02*
X171167878Y-106777372D01*
X171116171Y-106725665D01*
X171012757Y-106673958D01*
X170857635Y-106673958D01*
X170754221Y-106725665D01*
X170702514Y-106777372D01*
X170650807Y-106880787D01*
X170650807Y-107294444D01*
X171736657Y-107294444D01*
X171736657Y-106932494D01*
X171684950Y-106829079D01*
X171633242Y-106777372D01*
X171529828Y-106725665D01*
X171426414Y-106725665D01*
X171323000Y-106777372D01*
X171271292Y-106829079D01*
X171219585Y-106932494D01*
X171219585Y-107294444D01*
X170650807Y-106208594D02*
X171374707Y-106208594D01*
X171271292Y-106208594D02*
X171323000Y-106156887D01*
X171374707Y-106053472D01*
X171374707Y-105898351D01*
X171323000Y-105794937D01*
X171219585Y-105743229D01*
X170650807Y-105743229D01*
X171219585Y-105743229D02*
X171323000Y-105691522D01*
X171374707Y-105588108D01*
X171374707Y-105432987D01*
X171323000Y-105329572D01*
X171219585Y-105277865D01*
X170650807Y-105277865D01*
D15*
G04 #@! TO.C,TP1*
X139468100Y-111099600D02*
G75*
G03X139468100Y-111099600I-1000000J0D01*
G01*
G04 #@! TO.C,TP2*
X142008100Y-111099600D02*
G75*
G03X142008100Y-111099600I-1000000J0D01*
G01*
G04 #@! TO.C,X4*
X170194100Y-109253600D02*
X169994100Y-109253600D01*
X170194100Y-110653600D02*
X169994100Y-110653600D01*
X170194100Y-112053600D02*
X169994100Y-112053600D01*
X170194100Y-113453600D02*
X169994100Y-113453600D01*
X170194100Y-109253600D02*
X170194100Y-110653600D01*
X170194100Y-112053600D02*
X170194100Y-113453600D01*
X170094100Y-109353600D02*
X170094100Y-110653600D01*
X170094100Y-112053600D02*
X170094100Y-113353600D01*
X167394100Y-109253600D02*
X167394100Y-110653600D01*
X167394100Y-112053600D02*
X167394100Y-113453600D01*
X169994100Y-109253600D02*
X169994100Y-110653600D01*
X167394100Y-109253600D02*
X169994100Y-109253600D01*
X169994100Y-113453600D02*
X167394100Y-113453600D01*
X169994100Y-112053600D02*
X169994100Y-113453600D01*
D16*
G04 #@! TO.C,JP7*
X130852000Y-99060000D02*
X130852000Y-96080000D01*
X136852000Y-99060000D02*
X136852000Y-96080000D01*
X130852000Y-99060000D02*
X131881000Y-99060000D01*
X136852000Y-99060000D02*
X135789000Y-99060000D01*
X131946000Y-94210000D02*
X135755000Y-94210000D01*
X131614370Y-99852000D02*
G75*
G03X131614370Y-99852000I-60370J0D01*
G01*
D15*
G04 #@! TO.C,U1*
X160106178Y-105387411D02*
X163906178Y-105387411D01*
X163906178Y-100587411D02*
X160106178Y-100587411D01*
X161371178Y-104917811D02*
G75*
G03X161371178Y-104917811I-254000J0D01*
G01*
G04 #@! TO.C,TP1*
D17*
X136488118Y-109427070D02*
X136046884Y-109427070D01*
X136267501Y-110199230D02*
X136267501Y-109427070D01*
X135789497Y-110199230D02*
X135789497Y-109427070D01*
X135495341Y-109427070D01*
X135421802Y-109463840D01*
X135385033Y-109500609D01*
X135348263Y-109574148D01*
X135348263Y-109684457D01*
X135385033Y-109757996D01*
X135421802Y-109794765D01*
X135495341Y-109831535D01*
X135789497Y-109831535D01*
X134612873Y-110199230D02*
X135054107Y-110199230D01*
X134833490Y-110199230D02*
X134833490Y-109427070D01*
X134907029Y-109537379D01*
X134980568Y-109610918D01*
X135054107Y-109647687D01*
G04 #@! TO.C,TP2*
X146140118Y-109300070D02*
X145698884Y-109300070D01*
X145919501Y-110072230D02*
X145919501Y-109300070D01*
X145441497Y-110072230D02*
X145441497Y-109300070D01*
X145147341Y-109300070D01*
X145073802Y-109336840D01*
X145037033Y-109373609D01*
X145000263Y-109447148D01*
X145000263Y-109557457D01*
X145037033Y-109630996D01*
X145073802Y-109667765D01*
X145147341Y-109704535D01*
X145441497Y-109704535D01*
X144706107Y-109373609D02*
X144669337Y-109336840D01*
X144595798Y-109300070D01*
X144411951Y-109300070D01*
X144338412Y-109336840D01*
X144301642Y-109373609D01*
X144264873Y-109447148D01*
X144264873Y-109520687D01*
X144301642Y-109630996D01*
X144742876Y-110072230D01*
X144264873Y-110072230D01*
G04 #@! TO.C,X4*
D18*
X172082242Y-113161838D02*
X171438775Y-114127038D01*
X171438775Y-113161838D02*
X172082242Y-114127038D01*
X170657423Y-113483571D02*
X170657423Y-114127038D01*
X170887232Y-113115876D02*
X171117042Y-113805304D01*
X170519537Y-113805304D01*
G04 #@! TO.C,JP7*
D16*
X134732333Y-95070523D02*
X134732333Y-95977666D01*
X134792809Y-96159095D01*
X134913761Y-96280047D01*
X135095190Y-96340523D01*
X135216142Y-96340523D01*
X134127571Y-96340523D02*
X134127571Y-95070523D01*
X133643761Y-95070523D01*
X133522809Y-95131000D01*
X133462333Y-95191476D01*
X133401857Y-95312428D01*
X133401857Y-95493857D01*
X133462333Y-95614809D01*
X133522809Y-95675285D01*
X133643761Y-95735761D01*
X134127571Y-95735761D01*
X132978523Y-95070523D02*
X132131857Y-95070523D01*
X132676142Y-96340523D01*
G04 #@! TO.C,R4*
D17*
X159646575Y-99404230D02*
X159903962Y-99036535D01*
X160087810Y-99404230D02*
X160087810Y-98632070D01*
X159793653Y-98632070D01*
X159720114Y-98668840D01*
X159683345Y-98705609D01*
X159646575Y-98779148D01*
X159646575Y-98889457D01*
X159683345Y-98962996D01*
X159720114Y-98999765D01*
X159793653Y-99036535D01*
X160087810Y-99036535D01*
X158984724Y-98889457D02*
X158984724Y-99404230D01*
X159168572Y-98595300D02*
X159352419Y-99146843D01*
X158874415Y-99146843D01*
G04 #@! TO.C,U1*
X162604408Y-103441596D02*
X163229490Y-103441596D01*
X163303029Y-103478365D01*
X163339798Y-103515135D01*
X163376568Y-103588674D01*
X163376568Y-103735752D01*
X163339798Y-103809291D01*
X163303029Y-103846061D01*
X163229490Y-103882830D01*
X162604408Y-103882830D01*
X163376568Y-104654990D02*
X163376568Y-104213756D01*
X163376568Y-104434373D02*
X162604408Y-104434373D01*
X162714717Y-104360834D01*
X162788256Y-104287295D01*
X162825025Y-104213756D01*
G04 #@! TD*
%LPC*%
D19*
G04 #@! TO.C,U$31*
X171272200Y-113868200D03*
G04 #@! TD*
G04 #@! TO.C,U$31*
X171361100Y-96113600D03*
G04 #@! TD*
D20*
G04 #@! TO.C,U$31*
X125641100Y-96113600D03*
G04 #@! TD*
G04 #@! TO.C,U$32*
X125641100Y-113893600D03*
G04 #@! TD*
D21*
G04 #@! TO.C,X3*
X128446100Y-108303600D03*
X128446100Y-101703600D03*
D22*
X125646100Y-101403600D03*
X125646100Y-108603600D03*
D23*
X127546100Y-106953600D03*
X127546100Y-103053600D03*
G04 #@! TD*
D24*
G04 #@! TO.C,JP1*
X129451100Y-115163600D03*
X131991100Y-115163600D03*
X134531100Y-115163600D03*
X137071100Y-115163600D03*
X139611100Y-115163600D03*
X142151100Y-115163600D03*
X144691100Y-115163600D03*
X147231100Y-115163600D03*
X149771100Y-115163600D03*
X152311100Y-115163600D03*
X154851100Y-115163600D03*
X157391100Y-115163600D03*
X159931100Y-115163600D03*
X162471100Y-115163600D03*
X165011100Y-115163600D03*
X167551100Y-115163600D03*
G04 #@! TD*
G04 #@! TO.C,JP3*
X167551100Y-94843600D03*
X165011100Y-94843600D03*
X162471100Y-94843600D03*
X159931100Y-94843600D03*
X157391100Y-94843600D03*
X154851100Y-94843600D03*
X152311100Y-94843600D03*
X149771100Y-94843600D03*
X147231100Y-94843600D03*
X144691100Y-94843600D03*
X142151100Y-94843600D03*
X139611100Y-94843600D03*
G04 #@! TD*
D25*
G04 #@! TO.C,TP1*
G36*
X138546593Y-110302655D02*
X138624329Y-110314186D01*
X138700561Y-110333281D01*
X138774554Y-110359756D01*
X138845596Y-110393356D01*
X138913002Y-110433758D01*
X138976123Y-110480572D01*
X139034352Y-110533348D01*
X139087128Y-110591577D01*
X139133942Y-110654698D01*
X139174344Y-110722104D01*
X139207944Y-110793146D01*
X139234419Y-110867139D01*
X139253514Y-110943371D01*
X139265045Y-111021107D01*
X139268901Y-111099599D01*
X139268901Y-111099601D01*
X139265045Y-111178093D01*
X139253514Y-111255829D01*
X139234419Y-111332061D01*
X139207944Y-111406054D01*
X139174344Y-111477096D01*
X139133942Y-111544502D01*
X139087128Y-111607623D01*
X139034352Y-111665852D01*
X138976123Y-111718628D01*
X138913002Y-111765442D01*
X138845596Y-111805844D01*
X138774554Y-111839444D01*
X138700561Y-111865919D01*
X138624329Y-111885014D01*
X138546593Y-111896545D01*
X138468101Y-111900401D01*
X138468099Y-111900401D01*
X138389607Y-111896545D01*
X138311871Y-111885014D01*
X138235639Y-111865919D01*
X138161646Y-111839444D01*
X138090604Y-111805844D01*
X138023198Y-111765442D01*
X137960077Y-111718628D01*
X137901848Y-111665852D01*
X137849072Y-111607623D01*
X137802258Y-111544502D01*
X137761856Y-111477096D01*
X137728256Y-111406054D01*
X137701781Y-111332061D01*
X137682686Y-111255829D01*
X137671155Y-111178093D01*
X137667299Y-111099601D01*
X137667299Y-111099599D01*
X137671155Y-111021107D01*
X137682686Y-110943371D01*
X137701781Y-110867139D01*
X137728256Y-110793146D01*
X137761856Y-110722104D01*
X137802258Y-110654698D01*
X137849072Y-110591577D01*
X137901848Y-110533348D01*
X137960077Y-110480572D01*
X138023198Y-110433758D01*
X138090604Y-110393356D01*
X138161646Y-110359756D01*
X138235639Y-110333281D01*
X138311871Y-110314186D01*
X138389607Y-110302655D01*
X138468099Y-110298799D01*
X138468101Y-110298799D01*
X138546593Y-110302655D01*
X138546593Y-110302655D01*
G37*
D26*
X138468100Y-111099600D03*
G04 #@! TD*
D25*
G04 #@! TO.C,TP2*
G36*
X141086593Y-110302655D02*
X141164329Y-110314186D01*
X141240561Y-110333281D01*
X141314554Y-110359756D01*
X141385596Y-110393356D01*
X141453002Y-110433758D01*
X141516123Y-110480572D01*
X141574352Y-110533348D01*
X141627128Y-110591577D01*
X141673942Y-110654698D01*
X141714344Y-110722104D01*
X141747944Y-110793146D01*
X141774419Y-110867139D01*
X141793514Y-110943371D01*
X141805045Y-111021107D01*
X141808901Y-111099599D01*
X141808901Y-111099601D01*
X141805045Y-111178093D01*
X141793514Y-111255829D01*
X141774419Y-111332061D01*
X141747944Y-111406054D01*
X141714344Y-111477096D01*
X141673942Y-111544502D01*
X141627128Y-111607623D01*
X141574352Y-111665852D01*
X141516123Y-111718628D01*
X141453002Y-111765442D01*
X141385596Y-111805844D01*
X141314554Y-111839444D01*
X141240561Y-111865919D01*
X141164329Y-111885014D01*
X141086593Y-111896545D01*
X141008101Y-111900401D01*
X141008099Y-111900401D01*
X140929607Y-111896545D01*
X140851871Y-111885014D01*
X140775639Y-111865919D01*
X140701646Y-111839444D01*
X140630604Y-111805844D01*
X140563198Y-111765442D01*
X140500077Y-111718628D01*
X140441848Y-111665852D01*
X140389072Y-111607623D01*
X140342258Y-111544502D01*
X140301856Y-111477096D01*
X140268256Y-111406054D01*
X140241781Y-111332061D01*
X140222686Y-111255829D01*
X140211155Y-111178093D01*
X140207299Y-111099601D01*
X140207299Y-111099599D01*
X140211155Y-111021107D01*
X140222686Y-110943371D01*
X140241781Y-110867139D01*
X140268256Y-110793146D01*
X140301856Y-110722104D01*
X140342258Y-110654698D01*
X140389072Y-110591577D01*
X140441848Y-110533348D01*
X140500077Y-110480572D01*
X140563198Y-110433758D01*
X140630604Y-110393356D01*
X140701646Y-110359756D01*
X140775639Y-110333281D01*
X140851871Y-110314186D01*
X140929607Y-110302655D01*
X141008099Y-110298799D01*
X141008101Y-110298799D01*
X141086593Y-110302655D01*
X141086593Y-110302655D01*
G37*
D26*
X141008100Y-111099600D03*
G04 #@! TD*
D24*
G04 #@! TO.C,JP2*
X172631100Y-111353600D03*
G04 #@! TD*
D27*
G04 #@! TO.C,X4*
X170219100Y-111353600D03*
D28*
X168694100Y-109978600D03*
X168694100Y-112728600D03*
G04 #@! TD*
D24*
G04 #@! TO.C,JP5*
X172631100Y-98653600D03*
X172631100Y-101193600D03*
X172631100Y-103733600D03*
G04 #@! TD*
D29*
G04 #@! TO.C,JP7*
X132352000Y-98871000D03*
X133352000Y-98871000D03*
X134352000Y-98871000D03*
X135352000Y-98871000D03*
D30*
X131052000Y-94996000D03*
X136652000Y-94996000D03*
G04 #@! TD*
D31*
G04 #@! TO.C,R4*
X162990000Y-99314000D03*
X161290000Y-99314000D03*
G04 #@! TD*
D32*
G04 #@! TO.C,U1*
X158691178Y-103622411D03*
X165321178Y-103622411D03*
X158691178Y-104892411D03*
X158691178Y-102352411D03*
X158691178Y-101082411D03*
X165321178Y-104892411D03*
X165321178Y-102352411D03*
X165321178Y-101082411D03*
G04 #@! TD*
M02*
