G04 #@! TF.GenerationSoftware,KiCad,Pcbnew,5.0.2-bee76a0~70~ubuntu18.04.1*
G04 #@! TF.CreationDate,2019-01-06T18:04:21-06:00*
G04 #@! TF.ProjectId,Adafruit Feather M0 RFMxx,41646166-7275-4697-9420-466561746865,rev?*
G04 #@! TF.SameCoordinates,Original*
G04 #@! TF.FileFunction,Legend,Top*
G04 #@! TF.FilePolarity,Positive*
%FSLAX46Y46*%
G04 Gerber Fmt 4.6, Leading zero omitted, Abs format (unit mm)*
G04 Created by KiCad (PCBNEW 5.0.2-bee76a0~70~ubuntu18.04.1) date Sun 06 Jan 2019 06:04:21 PM CST*
%MOMM*%
%LPD*%
G01*
G04 APERTURE LIST*
%ADD10C,0.121920*%
%ADD11C,0.106680*%
%ADD12C,0.248920*%
%ADD13C,0.304800*%
%ADD14C,0.100000*%
%ADD15C,0.127000*%
%ADD16C,0.203200*%
%ADD17C,0.406400*%
%ADD18C,0.609600*%
%ADD19C,0.138988*%
%ADD20C,0.146304*%
%ADD21C,0.500000*%
%ADD22R,1.601600X1.341600*%
%ADD23R,1.101600X1.201600*%
%ADD24R,1.301600X1.301600*%
%ADD25R,1.201600X1.101600*%
%ADD26C,1.101600*%
%ADD27R,1.101600X1.101600*%
%ADD28C,3.301600*%
%ADD29R,2.101600X1.101600*%
%ADD30R,1.451600X0.501600*%
%ADD31C,1.301600*%
%ADD32R,2.601600X2.601600*%
%ADD33C,0.802000*%
%ADD34R,0.651600X1.301600*%
%ADD35R,1.501600X1.501600*%
%ADD36C,1.778000*%
%ADD37R,1.701600X3.501600*%
%ADD38R,1.101600X4.701600*%
%ADD39R,0.851600X0.351600*%
%ADD40R,0.351600X0.851600*%
%ADD41R,4.801600X4.801600*%
%ADD42R,1.201600X2.001600*%
%ADD43R,1.601600X1.101600*%
G04 APERTURE END LIST*
D10*
X143600109Y-96093038D02*
X143600109Y-96874390D01*
X143646071Y-96966314D01*
X143692033Y-97012276D01*
X143783957Y-97058238D01*
X143967804Y-97058238D01*
X144059728Y-97012276D01*
X144105690Y-96966314D01*
X144151652Y-96874390D01*
X144151652Y-96093038D01*
X144565309Y-97012276D02*
X144703195Y-97058238D01*
X144933004Y-97058238D01*
X145024928Y-97012276D01*
X145070890Y-96966314D01*
X145116852Y-96874390D01*
X145116852Y-96782466D01*
X145070890Y-96690542D01*
X145024928Y-96644580D01*
X144933004Y-96598619D01*
X144749157Y-96552657D01*
X144657233Y-96506695D01*
X144611271Y-96460733D01*
X144565309Y-96368809D01*
X144565309Y-96276885D01*
X144611271Y-96184961D01*
X144657233Y-96139000D01*
X144749157Y-96093038D01*
X144978966Y-96093038D01*
X145116852Y-96139000D01*
X145852242Y-96552657D02*
X145990128Y-96598619D01*
X146036090Y-96644580D01*
X146082052Y-96736504D01*
X146082052Y-96874390D01*
X146036090Y-96966314D01*
X145990128Y-97012276D01*
X145898204Y-97058238D01*
X145530509Y-97058238D01*
X145530509Y-96093038D01*
X145852242Y-96093038D01*
X145944166Y-96139000D01*
X145990128Y-96184961D01*
X146036090Y-96276885D01*
X146036090Y-96368809D01*
X145990128Y-96460733D01*
X145944166Y-96506695D01*
X145852242Y-96552657D01*
X145530509Y-96552657D01*
X128638275Y-114076238D02*
X128316542Y-113616619D01*
X128086732Y-114076238D02*
X128086732Y-113111038D01*
X128454428Y-113111038D01*
X128546352Y-113157000D01*
X128592313Y-113202961D01*
X128638275Y-113294885D01*
X128638275Y-113432771D01*
X128592313Y-113524695D01*
X128546352Y-113570657D01*
X128454428Y-113616619D01*
X128086732Y-113616619D01*
X129005971Y-114030276D02*
X129143856Y-114076238D01*
X129373666Y-114076238D01*
X129465590Y-114030276D01*
X129511552Y-113984314D01*
X129557513Y-113892390D01*
X129557513Y-113800466D01*
X129511552Y-113708542D01*
X129465590Y-113662580D01*
X129373666Y-113616619D01*
X129189818Y-113570657D01*
X129097894Y-113524695D01*
X129051932Y-113478733D01*
X129005971Y-113386809D01*
X129005971Y-113294885D01*
X129051932Y-113202961D01*
X129097894Y-113157000D01*
X129189818Y-113111038D01*
X129419628Y-113111038D01*
X129557513Y-113157000D01*
X129833285Y-113111038D02*
X130384828Y-113111038D01*
X130109056Y-114076238D02*
X130109056Y-113111038D01*
X133269542Y-113800466D02*
X133729161Y-113800466D01*
X133177618Y-114076238D02*
X133499352Y-113111038D01*
X133821085Y-114076238D01*
X134694361Y-114076238D02*
X134372628Y-113616619D01*
X134142818Y-114076238D02*
X134142818Y-113111038D01*
X134510513Y-113111038D01*
X134602437Y-113157000D01*
X134648399Y-113202961D01*
X134694361Y-113294885D01*
X134694361Y-113432771D01*
X134648399Y-113524695D01*
X134602437Y-113570657D01*
X134510513Y-113616619D01*
X134142818Y-113616619D01*
X134970132Y-113432771D02*
X135337828Y-113432771D01*
X135108018Y-114076238D02*
X135108018Y-113248923D01*
X135153980Y-113157000D01*
X135245904Y-113111038D01*
X135337828Y-113111038D01*
X131154085Y-113111038D02*
X131751590Y-113111038D01*
X131429856Y-113478733D01*
X131567742Y-113478733D01*
X131659666Y-113524695D01*
X131705628Y-113570657D01*
X131751590Y-113662580D01*
X131751590Y-113892390D01*
X131705628Y-113984314D01*
X131659666Y-114030276D01*
X131567742Y-114076238D01*
X131291971Y-114076238D01*
X131200047Y-114030276D01*
X131154085Y-113984314D01*
X132027361Y-113111038D02*
X132349094Y-114076238D01*
X132670828Y-113111038D01*
X151685147Y-113648066D02*
X152144766Y-113648066D01*
X151593223Y-113923838D02*
X151914956Y-112958638D01*
X152236690Y-113923838D01*
X153018042Y-112958638D02*
X152558423Y-112958638D01*
X152512461Y-113418257D01*
X152558423Y-113372295D01*
X152650347Y-113326333D01*
X152880156Y-113326333D01*
X152972080Y-113372295D01*
X153018042Y-113418257D01*
X153064004Y-113510180D01*
X153064004Y-113739990D01*
X153018042Y-113831914D01*
X152972080Y-113877876D01*
X152880156Y-113923838D01*
X152650347Y-113923838D01*
X152558423Y-113877876D01*
X152512461Y-113831914D01*
X149145147Y-113648066D02*
X149604766Y-113648066D01*
X149053223Y-113923838D02*
X149374956Y-112958638D01*
X149696690Y-113923838D01*
X150432080Y-113280371D02*
X150432080Y-113923838D01*
X150202271Y-112912676D02*
X149972461Y-113602104D01*
X150569966Y-113602104D01*
X146605147Y-113648066D02*
X147064766Y-113648066D01*
X146513223Y-113923838D02*
X146834956Y-112958638D01*
X147156690Y-113923838D01*
X147386499Y-112958638D02*
X147984004Y-112958638D01*
X147662271Y-113326333D01*
X147800156Y-113326333D01*
X147892080Y-113372295D01*
X147938042Y-113418257D01*
X147984004Y-113510180D01*
X147984004Y-113739990D01*
X147938042Y-113831914D01*
X147892080Y-113877876D01*
X147800156Y-113923838D01*
X147524385Y-113923838D01*
X147432461Y-113877876D01*
X147386499Y-113831914D01*
X144065147Y-113648066D02*
X144524766Y-113648066D01*
X143973223Y-113923838D02*
X144294956Y-112958638D01*
X144616690Y-113923838D01*
X144892461Y-113050561D02*
X144938423Y-113004600D01*
X145030347Y-112958638D01*
X145260156Y-112958638D01*
X145352080Y-113004600D01*
X145398042Y-113050561D01*
X145444004Y-113142485D01*
X145444004Y-113234409D01*
X145398042Y-113372295D01*
X144846499Y-113923838D01*
X145444004Y-113923838D01*
X141779147Y-113648066D02*
X142238766Y-113648066D01*
X141687223Y-113923838D02*
X142008956Y-112958638D01*
X142330690Y-113923838D01*
X143158004Y-113923838D02*
X142606461Y-113923838D01*
X142882232Y-113923838D02*
X142882232Y-112958638D01*
X142790309Y-113096523D01*
X142698385Y-113188447D01*
X142606461Y-113234409D01*
X139239147Y-113648066D02*
X139698766Y-113648066D01*
X139147223Y-113923838D02*
X139468956Y-112958638D01*
X139790690Y-113923838D01*
X140296271Y-112958638D02*
X140388194Y-112958638D01*
X140480118Y-113004600D01*
X140526080Y-113050561D01*
X140572042Y-113142485D01*
X140618004Y-113326333D01*
X140618004Y-113556142D01*
X140572042Y-113739990D01*
X140526080Y-113831914D01*
X140480118Y-113877876D01*
X140388194Y-113923838D01*
X140296271Y-113923838D01*
X140204347Y-113877876D01*
X140158385Y-113831914D01*
X140112423Y-113739990D01*
X140066461Y-113556142D01*
X140066461Y-113326333D01*
X140112423Y-113142485D01*
X140158385Y-113050561D01*
X140204347Y-113004600D01*
X140296271Y-112958638D01*
X147047252Y-97058238D02*
X146495709Y-97058238D01*
X146771480Y-97058238D02*
X146771480Y-96093038D01*
X146679557Y-96230923D01*
X146587633Y-96322847D01*
X146495709Y-96368809D01*
X147368985Y-96093038D02*
X147966490Y-96093038D01*
X147644757Y-96460733D01*
X147782642Y-96460733D01*
X147874566Y-96506695D01*
X147920528Y-96552657D01*
X147966490Y-96644580D01*
X147966490Y-96874390D01*
X147920528Y-96966314D01*
X147874566Y-97012276D01*
X147782642Y-97058238D01*
X147506871Y-97058238D01*
X147414947Y-97012276D01*
X147368985Y-96966314D01*
X162006038Y-96194057D02*
X162006038Y-96653676D01*
X162465657Y-96699638D01*
X162419695Y-96653676D01*
X162373733Y-96561752D01*
X162373733Y-96331943D01*
X162419695Y-96240019D01*
X162465657Y-96194057D01*
X162557580Y-96148095D01*
X162787390Y-96148095D01*
X162879314Y-96194057D01*
X162925276Y-96240019D01*
X162971238Y-96331943D01*
X162971238Y-96561752D01*
X162925276Y-96653676D01*
X162879314Y-96699638D01*
X152106666Y-96931238D02*
X151555123Y-96931238D01*
X151830894Y-96931238D02*
X151830894Y-95966038D01*
X151738971Y-96103923D01*
X151647047Y-96195847D01*
X151555123Y-96241809D01*
X153025904Y-96931238D02*
X152474361Y-96931238D01*
X152750132Y-96931238D02*
X152750132Y-95966038D01*
X152658209Y-96103923D01*
X152566285Y-96195847D01*
X152474361Y-96241809D01*
X154519666Y-96804238D02*
X153968123Y-96804238D01*
X154243894Y-96804238D02*
X154243894Y-95839038D01*
X154151971Y-95976923D01*
X154060047Y-96068847D01*
X153968123Y-96114809D01*
X155117171Y-95839038D02*
X155209094Y-95839038D01*
X155301018Y-95885000D01*
X155346980Y-95930961D01*
X155392942Y-96022885D01*
X155438904Y-96206733D01*
X155438904Y-96436542D01*
X155392942Y-96620390D01*
X155346980Y-96712314D01*
X155301018Y-96758276D01*
X155209094Y-96804238D01*
X155117171Y-96804238D01*
X155025247Y-96758276D01*
X154979285Y-96712314D01*
X154933323Y-96620390D01*
X154887361Y-96436542D01*
X154887361Y-96206733D01*
X154933323Y-96022885D01*
X154979285Y-95930961D01*
X155025247Y-95885000D01*
X155117171Y-95839038D01*
X158526238Y-96607714D02*
X158526238Y-96423867D01*
X158480276Y-96331943D01*
X158434314Y-96285981D01*
X158296428Y-96194057D01*
X158112580Y-96148095D01*
X157744885Y-96148095D01*
X157652961Y-96194057D01*
X157607000Y-96240019D01*
X157561038Y-96331943D01*
X157561038Y-96515790D01*
X157607000Y-96607714D01*
X157652961Y-96653676D01*
X157744885Y-96699638D01*
X157974695Y-96699638D01*
X158066619Y-96653676D01*
X158112580Y-96607714D01*
X158158542Y-96515790D01*
X158158542Y-96331943D01*
X158112580Y-96240019D01*
X158066619Y-96194057D01*
X157974695Y-96148095D01*
D11*
X153808091Y-113921116D02*
X153928741Y-113961333D01*
X154129824Y-113961333D01*
X154210258Y-113921116D01*
X154250474Y-113880900D01*
X154290691Y-113800466D01*
X154290691Y-113720033D01*
X154250474Y-113639600D01*
X154210258Y-113599383D01*
X154129824Y-113559166D01*
X153968958Y-113518950D01*
X153888524Y-113478733D01*
X153848308Y-113438516D01*
X153808091Y-113358083D01*
X153808091Y-113277650D01*
X153848308Y-113197216D01*
X153888524Y-113157000D01*
X153968958Y-113116783D01*
X154170041Y-113116783D01*
X154290691Y-113157000D01*
X155135241Y-113880900D02*
X155095024Y-113921116D01*
X154974374Y-113961333D01*
X154893941Y-113961333D01*
X154773291Y-113921116D01*
X154692858Y-113840683D01*
X154652641Y-113760250D01*
X154612424Y-113599383D01*
X154612424Y-113478733D01*
X154652641Y-113317866D01*
X154692858Y-113237433D01*
X154773291Y-113157000D01*
X154893941Y-113116783D01*
X154974374Y-113116783D01*
X155095024Y-113157000D01*
X155135241Y-113197216D01*
X155497191Y-113961333D02*
X155497191Y-113116783D01*
X155979791Y-113961333D02*
X155617841Y-113478733D01*
X155979791Y-113116783D02*
X155497191Y-113599383D01*
X156392033Y-114148658D02*
X156392033Y-113304108D01*
X156673550Y-113907358D01*
X156955066Y-113304108D01*
X156955066Y-114148658D01*
X157518100Y-113304108D02*
X157678966Y-113304108D01*
X157759400Y-113344325D01*
X157839833Y-113424758D01*
X157880050Y-113585625D01*
X157880050Y-113867141D01*
X157839833Y-114028008D01*
X157759400Y-114108441D01*
X157678966Y-114148658D01*
X157518100Y-114148658D01*
X157437666Y-114108441D01*
X157357233Y-114028008D01*
X157317016Y-113867141D01*
X157317016Y-113585625D01*
X157357233Y-113424758D01*
X157437666Y-113344325D01*
X157518100Y-113304108D01*
X158201783Y-114108441D02*
X158322433Y-114148658D01*
X158523516Y-114148658D01*
X158603950Y-114108441D01*
X158644166Y-114068225D01*
X158684383Y-113987791D01*
X158684383Y-113907358D01*
X158644166Y-113826925D01*
X158603950Y-113786708D01*
X158523516Y-113746491D01*
X158362650Y-113706275D01*
X158282216Y-113666058D01*
X158242000Y-113625841D01*
X158201783Y-113545408D01*
X158201783Y-113464975D01*
X158242000Y-113384541D01*
X158282216Y-113344325D01*
X158362650Y-113304108D01*
X158563733Y-113304108D01*
X158684383Y-113344325D01*
X159173333Y-114148658D02*
X159173333Y-113304108D01*
X159454850Y-113907358D01*
X159736366Y-113304108D01*
X159736366Y-114148658D01*
X160138533Y-114148658D02*
X160138533Y-113304108D01*
X160500483Y-114108441D02*
X160621133Y-114148658D01*
X160822216Y-114148658D01*
X160902650Y-114108441D01*
X160942866Y-114068225D01*
X160983083Y-113987791D01*
X160983083Y-113907358D01*
X160942866Y-113826925D01*
X160902650Y-113786708D01*
X160822216Y-113746491D01*
X160661350Y-113706275D01*
X160580916Y-113666058D01*
X160540700Y-113625841D01*
X160500483Y-113545408D01*
X160500483Y-113464975D01*
X160540700Y-113384541D01*
X160580916Y-113344325D01*
X160661350Y-113304108D01*
X160862433Y-113304108D01*
X160983083Y-113344325D01*
X164128958Y-96649116D02*
X164249608Y-96689333D01*
X164450691Y-96689333D01*
X164531124Y-96649116D01*
X164571341Y-96608900D01*
X164611558Y-96528466D01*
X164611558Y-96448033D01*
X164571341Y-96367600D01*
X164531124Y-96327383D01*
X164450691Y-96287166D01*
X164289824Y-96246950D01*
X164209391Y-96206733D01*
X164169174Y-96166516D01*
X164128958Y-96086083D01*
X164128958Y-96005650D01*
X164169174Y-95925216D01*
X164209391Y-95885000D01*
X164289824Y-95844783D01*
X164490908Y-95844783D01*
X164611558Y-95885000D01*
X165456108Y-96608900D02*
X165415891Y-96649116D01*
X165295241Y-96689333D01*
X165214808Y-96689333D01*
X165094158Y-96649116D01*
X165013724Y-96568683D01*
X164973508Y-96488250D01*
X164933291Y-96327383D01*
X164933291Y-96206733D01*
X164973508Y-96045866D01*
X165013724Y-95965433D01*
X165094158Y-95885000D01*
X165214808Y-95844783D01*
X165295241Y-95844783D01*
X165415891Y-95885000D01*
X165456108Y-95925216D01*
X166220224Y-96689333D02*
X165818058Y-96689333D01*
X165818058Y-95844783D01*
X166652575Y-96582441D02*
X166773225Y-96622658D01*
X166974308Y-96622658D01*
X167054741Y-96582441D01*
X167094958Y-96542225D01*
X167135175Y-96461791D01*
X167135175Y-96381358D01*
X167094958Y-96300925D01*
X167054741Y-96260708D01*
X166974308Y-96220491D01*
X166813441Y-96180275D01*
X166733008Y-96140058D01*
X166692791Y-96099841D01*
X166652575Y-96019408D01*
X166652575Y-95938975D01*
X166692791Y-95858541D01*
X166733008Y-95818325D01*
X166813441Y-95778108D01*
X167014525Y-95778108D01*
X167135175Y-95818325D01*
X167497125Y-96622658D02*
X167497125Y-95778108D01*
X167698208Y-95778108D01*
X167818858Y-95818325D01*
X167899291Y-95898758D01*
X167939508Y-95979191D01*
X167979725Y-96140058D01*
X167979725Y-96260708D01*
X167939508Y-96421575D01*
X167899291Y-96502008D01*
X167818858Y-96582441D01*
X167698208Y-96622658D01*
X167497125Y-96622658D01*
X168301458Y-96381358D02*
X168703625Y-96381358D01*
X168221025Y-96622658D02*
X168502541Y-95778108D01*
X168784058Y-96622658D01*
X161864124Y-114215333D02*
X161582608Y-113813166D01*
X161381524Y-114215333D02*
X161381524Y-113370783D01*
X161703258Y-113370783D01*
X161783691Y-113411000D01*
X161823908Y-113451216D01*
X161864124Y-113531650D01*
X161864124Y-113652300D01*
X161823908Y-113732733D01*
X161783691Y-113772950D01*
X161703258Y-113813166D01*
X161381524Y-113813166D01*
X162145641Y-113370783D02*
X162708674Y-114215333D01*
X162708674Y-113370783D02*
X162145641Y-114215333D01*
X163191274Y-113370783D02*
X163271708Y-113370783D01*
X163352141Y-113411000D01*
X163392358Y-113451216D01*
X163432574Y-113531650D01*
X163472791Y-113692516D01*
X163472791Y-113893600D01*
X163432574Y-114054466D01*
X163392358Y-114134900D01*
X163352141Y-114175116D01*
X163271708Y-114215333D01*
X163191274Y-114215333D01*
X163110841Y-114175116D01*
X163070624Y-114134900D01*
X163030408Y-114054466D01*
X162990191Y-113893600D01*
X162990191Y-113692516D01*
X163030408Y-113531650D01*
X163070624Y-113451216D01*
X163110841Y-113411000D01*
X163191274Y-113370783D01*
X163620958Y-113370783D02*
X164103558Y-113370783D01*
X163862258Y-114215333D02*
X163862258Y-113370783D01*
X164304641Y-113370783D02*
X164867674Y-114215333D01*
X164867674Y-113370783D02*
X164304641Y-114215333D01*
X165631791Y-114215333D02*
X165149191Y-114215333D01*
X165390491Y-114215333D02*
X165390491Y-113370783D01*
X165310058Y-113491433D01*
X165229624Y-113571866D01*
X165149191Y-113612083D01*
D10*
X138660390Y-96425657D02*
X138798275Y-96471619D01*
X138844237Y-96517580D01*
X138890199Y-96609504D01*
X138890199Y-96747390D01*
X138844237Y-96839314D01*
X138798275Y-96885276D01*
X138706352Y-96931238D01*
X138338656Y-96931238D01*
X138338656Y-95966038D01*
X138660390Y-95966038D01*
X138752313Y-96012000D01*
X138798275Y-96057961D01*
X138844237Y-96149885D01*
X138844237Y-96241809D01*
X138798275Y-96333733D01*
X138752313Y-96379695D01*
X138660390Y-96425657D01*
X138338656Y-96425657D01*
X139257894Y-96655466D02*
X139717513Y-96655466D01*
X139165971Y-96931238D02*
X139487704Y-95966038D01*
X139809437Y-96931238D01*
X139993285Y-95966038D02*
X140544828Y-95966038D01*
X140269056Y-96931238D02*
X140269056Y-95966038D01*
X149312666Y-97058238D02*
X148761123Y-97058238D01*
X149036894Y-97058238D02*
X149036894Y-96093038D01*
X148944971Y-96230923D01*
X148853047Y-96322847D01*
X148761123Y-96368809D01*
X149680361Y-96184961D02*
X149726323Y-96139000D01*
X149818247Y-96093038D01*
X150048056Y-96093038D01*
X150139980Y-96139000D01*
X150185942Y-96184961D01*
X150231904Y-96276885D01*
X150231904Y-96368809D01*
X150185942Y-96506695D01*
X149634399Y-97058238D01*
X150231904Y-97058238D01*
X159275538Y-96056752D02*
X159275538Y-96240600D01*
X159321500Y-96332523D01*
X159367461Y-96378485D01*
X159505347Y-96470409D01*
X159689195Y-96516371D01*
X160056890Y-96516371D01*
X160148814Y-96470409D01*
X160194776Y-96424447D01*
X160240738Y-96332523D01*
X160240738Y-96148676D01*
X160194776Y-96056752D01*
X160148814Y-96010790D01*
X160056890Y-95964828D01*
X159827080Y-95964828D01*
X159735157Y-96010790D01*
X159689195Y-96056752D01*
X159643233Y-96148676D01*
X159643233Y-96332523D01*
X159689195Y-96424447D01*
X159735157Y-96470409D01*
X159827080Y-96516371D01*
X136589709Y-112903000D02*
X136497785Y-112857038D01*
X136359900Y-112857038D01*
X136222014Y-112903000D01*
X136130090Y-112994923D01*
X136084128Y-113086847D01*
X136038166Y-113270695D01*
X136038166Y-113408580D01*
X136084128Y-113592428D01*
X136130090Y-113684352D01*
X136222014Y-113776276D01*
X136359900Y-113822238D01*
X136451823Y-113822238D01*
X136589709Y-113776276D01*
X136635671Y-113730314D01*
X136635671Y-113408580D01*
X136451823Y-113408580D01*
X137049328Y-113822238D02*
X137049328Y-112857038D01*
X137600871Y-113822238D01*
X137600871Y-112857038D01*
X138060490Y-113822238D02*
X138060490Y-112857038D01*
X138290300Y-112857038D01*
X138428185Y-112903000D01*
X138520109Y-112994923D01*
X138566071Y-113086847D01*
X138612033Y-113270695D01*
X138612033Y-113408580D01*
X138566071Y-113592428D01*
X138520109Y-113684352D01*
X138428185Y-113776276D01*
X138290300Y-113822238D01*
X138060490Y-113822238D01*
X128710871Y-100971676D02*
X128710871Y-100282248D01*
X128297214Y-100695905D02*
X129538185Y-100971676D01*
X129124528Y-100374171D02*
X129124528Y-101063600D01*
X129538185Y-100649943D02*
X128297214Y-100374171D01*
X129354338Y-99454933D02*
X129354338Y-100006476D01*
X129354338Y-99730705D02*
X128389138Y-99730705D01*
X128527023Y-99822628D01*
X128618947Y-99914552D01*
X128664909Y-100006476D01*
X128389138Y-99133200D02*
X128389138Y-98535695D01*
X128756833Y-98857428D01*
X128756833Y-98719543D01*
X128802795Y-98627619D01*
X128848757Y-98581657D01*
X128940680Y-98535695D01*
X129170490Y-98535695D01*
X129262414Y-98581657D01*
X129308376Y-98627619D01*
X129354338Y-98719543D01*
X129354338Y-98995314D01*
X129308376Y-99087238D01*
X129262414Y-99133200D01*
X141152009Y-96425657D02*
X141473742Y-96425657D01*
X141611628Y-96931238D02*
X141152009Y-96931238D01*
X141152009Y-95966038D01*
X141611628Y-95966038D01*
X142025285Y-96287771D02*
X142025285Y-96931238D01*
X142025285Y-96379695D02*
X142071247Y-96333733D01*
X142163171Y-96287771D01*
X142301056Y-96287771D01*
X142392980Y-96333733D01*
X142438942Y-96425657D01*
X142438942Y-96931238D01*
D11*
X166893875Y-114148658D02*
X166893875Y-113585625D01*
X166893875Y-113304108D02*
X166853658Y-113344325D01*
X166893875Y-113384541D01*
X166934091Y-113344325D01*
X166893875Y-113304108D01*
X166893875Y-113384541D01*
X167416691Y-114148658D02*
X167336258Y-114108441D01*
X167296041Y-114068225D01*
X167255825Y-113987791D01*
X167255825Y-113746491D01*
X167296041Y-113666058D01*
X167336258Y-113625841D01*
X167416691Y-113585625D01*
X167537341Y-113585625D01*
X167617775Y-113625841D01*
X167657991Y-113666058D01*
X167698208Y-113746491D01*
X167698208Y-113987791D01*
X167657991Y-114068225D01*
X167617775Y-114108441D01*
X167537341Y-114148658D01*
X167416691Y-114148658D01*
X168502541Y-114148658D02*
X168019941Y-114148658D01*
X168261241Y-114148658D02*
X168261241Y-113304108D01*
X168180808Y-113424758D01*
X168100375Y-113505191D01*
X168019941Y-113545408D01*
D10*
X131304090Y-108234238D02*
X130982357Y-107774619D01*
X130752547Y-108234238D02*
X130752547Y-107269038D01*
X131120242Y-107269038D01*
X131212166Y-107315000D01*
X131258128Y-107360961D01*
X131304090Y-107452885D01*
X131304090Y-107590771D01*
X131258128Y-107682695D01*
X131212166Y-107728657D01*
X131120242Y-107774619D01*
X130752547Y-107774619D01*
X132085442Y-108188276D02*
X131993519Y-108234238D01*
X131809671Y-108234238D01*
X131717747Y-108188276D01*
X131671785Y-108096352D01*
X131671785Y-107728657D01*
X131717747Y-107636733D01*
X131809671Y-107590771D01*
X131993519Y-107590771D01*
X132085442Y-107636733D01*
X132131404Y-107728657D01*
X132131404Y-107820580D01*
X131671785Y-107912504D01*
X132499100Y-108188276D02*
X132591023Y-108234238D01*
X132774871Y-108234238D01*
X132866795Y-108188276D01*
X132912757Y-108096352D01*
X132912757Y-108050390D01*
X132866795Y-107958466D01*
X132774871Y-107912504D01*
X132636985Y-107912504D01*
X132545061Y-107866542D01*
X132499100Y-107774619D01*
X132499100Y-107728657D01*
X132545061Y-107636733D01*
X132636985Y-107590771D01*
X132774871Y-107590771D01*
X132866795Y-107636733D01*
X133694109Y-108188276D02*
X133602185Y-108234238D01*
X133418338Y-108234238D01*
X133326414Y-108188276D01*
X133280452Y-108096352D01*
X133280452Y-107728657D01*
X133326414Y-107636733D01*
X133418338Y-107590771D01*
X133602185Y-107590771D01*
X133694109Y-107636733D01*
X133740071Y-107728657D01*
X133740071Y-107820580D01*
X133280452Y-107912504D01*
X134015842Y-107590771D02*
X134383538Y-107590771D01*
X134153728Y-107269038D02*
X134153728Y-108096352D01*
X134199690Y-108188276D01*
X134291614Y-108234238D01*
X134383538Y-108234238D01*
X126449642Y-111799914D02*
X126403680Y-111845876D01*
X126265794Y-111891838D01*
X126173871Y-111891838D01*
X126035985Y-111845876D01*
X125944061Y-111753952D01*
X125898099Y-111662028D01*
X125852137Y-111478180D01*
X125852137Y-111340295D01*
X125898099Y-111156447D01*
X125944061Y-111064523D01*
X126035985Y-110972600D01*
X126173871Y-110926638D01*
X126265794Y-110926638D01*
X126403680Y-110972600D01*
X126449642Y-111018561D01*
X126863299Y-111891838D02*
X126863299Y-110926638D01*
X126863299Y-111386257D02*
X127414842Y-111386257D01*
X127414842Y-111891838D02*
X127414842Y-110926638D01*
X128380042Y-110972600D02*
X128288118Y-110926638D01*
X128150232Y-110926638D01*
X128012347Y-110972600D01*
X127920423Y-111064523D01*
X127874461Y-111156447D01*
X127828499Y-111340295D01*
X127828499Y-111478180D01*
X127874461Y-111662028D01*
X127920423Y-111753952D01*
X128012347Y-111845876D01*
X128150232Y-111891838D01*
X128242156Y-111891838D01*
X128380042Y-111845876D01*
X128426004Y-111799914D01*
X128426004Y-111478180D01*
X128242156Y-111478180D01*
X144223014Y-111792657D02*
X143901280Y-111792657D01*
X143901280Y-112298238D02*
X143901280Y-111333038D01*
X144360900Y-111333038D01*
X145096290Y-112252276D02*
X145004366Y-112298238D01*
X144820519Y-112298238D01*
X144728595Y-112252276D01*
X144682633Y-112160352D01*
X144682633Y-111792657D01*
X144728595Y-111700733D01*
X144820519Y-111654771D01*
X145004366Y-111654771D01*
X145096290Y-111700733D01*
X145142252Y-111792657D01*
X145142252Y-111884580D01*
X144682633Y-111976504D01*
X145969566Y-112298238D02*
X145969566Y-111792657D01*
X145923604Y-111700733D01*
X145831680Y-111654771D01*
X145647833Y-111654771D01*
X145555909Y-111700733D01*
X145969566Y-112252276D02*
X145877642Y-112298238D01*
X145647833Y-112298238D01*
X145555909Y-112252276D01*
X145509947Y-112160352D01*
X145509947Y-112068428D01*
X145555909Y-111976504D01*
X145647833Y-111930542D01*
X145877642Y-111930542D01*
X145969566Y-111884580D01*
X146291300Y-111654771D02*
X146658995Y-111654771D01*
X146429185Y-111333038D02*
X146429185Y-112160352D01*
X146475147Y-112252276D01*
X146567071Y-112298238D01*
X146658995Y-112298238D01*
X146980728Y-112298238D02*
X146980728Y-111333038D01*
X147394385Y-112298238D02*
X147394385Y-111792657D01*
X147348423Y-111700733D01*
X147256500Y-111654771D01*
X147118614Y-111654771D01*
X147026690Y-111700733D01*
X146980728Y-111746695D01*
X148221700Y-112252276D02*
X148129776Y-112298238D01*
X147945928Y-112298238D01*
X147854004Y-112252276D01*
X147808042Y-112160352D01*
X147808042Y-111792657D01*
X147854004Y-111700733D01*
X147945928Y-111654771D01*
X148129776Y-111654771D01*
X148221700Y-111700733D01*
X148267661Y-111792657D01*
X148267661Y-111884580D01*
X147808042Y-111976504D01*
X148681319Y-112298238D02*
X148681319Y-111654771D01*
X148681319Y-111838619D02*
X148727280Y-111746695D01*
X148773242Y-111700733D01*
X148865166Y-111654771D01*
X148957090Y-111654771D01*
X150014214Y-112298238D02*
X150014214Y-111333038D01*
X150335947Y-112022466D01*
X150657680Y-111333038D01*
X150657680Y-112298238D01*
X151301147Y-111333038D02*
X151393071Y-111333038D01*
X151484995Y-111379000D01*
X151530957Y-111424961D01*
X151576919Y-111516885D01*
X151622880Y-111700733D01*
X151622880Y-111930542D01*
X151576919Y-112114390D01*
X151530957Y-112206314D01*
X151484995Y-112252276D01*
X151393071Y-112298238D01*
X151301147Y-112298238D01*
X151209223Y-112252276D01*
X151163261Y-112206314D01*
X151117300Y-112114390D01*
X151071338Y-111930542D01*
X151071338Y-111700733D01*
X151117300Y-111516885D01*
X151163261Y-111424961D01*
X151209223Y-111379000D01*
X151301147Y-111333038D01*
X144277418Y-102011238D02*
X143955685Y-101551619D01*
X143725875Y-102011238D02*
X143725875Y-101046038D01*
X144093571Y-101046038D01*
X144185494Y-101092000D01*
X144231456Y-101137961D01*
X144277418Y-101229885D01*
X144277418Y-101367771D01*
X144231456Y-101459695D01*
X144185494Y-101505657D01*
X144093571Y-101551619D01*
X143725875Y-101551619D01*
X145012809Y-101505657D02*
X144691075Y-101505657D01*
X144691075Y-102011238D02*
X144691075Y-101046038D01*
X145150694Y-101046038D01*
X145518390Y-102011238D02*
X145518390Y-101046038D01*
X145840123Y-101735466D01*
X146161856Y-101046038D01*
X146161856Y-102011238D01*
X146667437Y-102011238D02*
X146851285Y-102011238D01*
X146943209Y-101965276D01*
X146989171Y-101919314D01*
X147081094Y-101781428D01*
X147127056Y-101597580D01*
X147127056Y-101229885D01*
X147081094Y-101137961D01*
X147035132Y-101092000D01*
X146943209Y-101046038D01*
X146759361Y-101046038D01*
X146667437Y-101092000D01*
X146621475Y-101137961D01*
X146575513Y-101229885D01*
X146575513Y-101459695D01*
X146621475Y-101551619D01*
X146667437Y-101597580D01*
X146759361Y-101643542D01*
X146943209Y-101643542D01*
X147035132Y-101597580D01*
X147081094Y-101551619D01*
X147127056Y-101459695D01*
X147448790Y-102011238D02*
X147954371Y-101367771D01*
X147448790Y-101367771D02*
X147954371Y-102011238D01*
X149517075Y-102011238D02*
X149057456Y-102011238D01*
X149057456Y-101046038D01*
X149976694Y-102011238D02*
X149884771Y-101965276D01*
X149838809Y-101919314D01*
X149792847Y-101827390D01*
X149792847Y-101551619D01*
X149838809Y-101459695D01*
X149884771Y-101413733D01*
X149976694Y-101367771D01*
X150114580Y-101367771D01*
X150206504Y-101413733D01*
X150252466Y-101459695D01*
X150298428Y-101551619D01*
X150298428Y-101827390D01*
X150252466Y-101919314D01*
X150206504Y-101965276D01*
X150114580Y-102011238D01*
X149976694Y-102011238D01*
X151263628Y-102011238D02*
X150941894Y-101551619D01*
X150712085Y-102011238D02*
X150712085Y-101046038D01*
X151079780Y-101046038D01*
X151171704Y-101092000D01*
X151217666Y-101137961D01*
X151263628Y-101229885D01*
X151263628Y-101367771D01*
X151217666Y-101459695D01*
X151171704Y-101505657D01*
X151079780Y-101551619D01*
X150712085Y-101551619D01*
X152090942Y-102011238D02*
X152090942Y-101505657D01*
X152044980Y-101413733D01*
X151953056Y-101367771D01*
X151769209Y-101367771D01*
X151677285Y-101413733D01*
X152090942Y-101965276D02*
X151999018Y-102011238D01*
X151769209Y-102011238D01*
X151677285Y-101965276D01*
X151631323Y-101873352D01*
X151631323Y-101781428D01*
X151677285Y-101689504D01*
X151769209Y-101643542D01*
X151999018Y-101643542D01*
X152090942Y-101597580D01*
X151493461Y-105384600D02*
X151999042Y-105384600D01*
X152090966Y-105338638D01*
X152136928Y-105246714D01*
X152136928Y-105062866D01*
X152090966Y-104970942D01*
X151539423Y-105384600D02*
X151493461Y-105292676D01*
X151493461Y-105062866D01*
X151539423Y-104970942D01*
X151631347Y-104924980D01*
X151723271Y-104924980D01*
X151815195Y-104970942D01*
X151861157Y-105062866D01*
X151861157Y-105292676D01*
X151907119Y-105384600D01*
X151493461Y-106257876D02*
X152458661Y-106257876D01*
X151539423Y-106257876D02*
X151493461Y-106165952D01*
X151493461Y-105982104D01*
X151539423Y-105890180D01*
X151585385Y-105844219D01*
X151677309Y-105798257D01*
X151953080Y-105798257D01*
X152045004Y-105844219D01*
X152090966Y-105890180D01*
X152136928Y-105982104D01*
X152136928Y-106165952D01*
X152090966Y-106257876D01*
X151493461Y-107131152D02*
X151999042Y-107131152D01*
X152090966Y-107085190D01*
X152136928Y-106993266D01*
X152136928Y-106809419D01*
X152090966Y-106717495D01*
X151539423Y-107131152D02*
X151493461Y-107039228D01*
X151493461Y-106809419D01*
X151539423Y-106717495D01*
X151631347Y-106671533D01*
X151723271Y-106671533D01*
X151815195Y-106717495D01*
X151861157Y-106809419D01*
X151861157Y-107039228D01*
X151907119Y-107131152D01*
X152136928Y-107452885D02*
X152136928Y-107820580D01*
X151493461Y-107590771D02*
X152320776Y-107590771D01*
X152412700Y-107636733D01*
X152458661Y-107728657D01*
X152458661Y-107820580D01*
X151493461Y-108142314D02*
X152136928Y-108142314D01*
X151953080Y-108142314D02*
X152045004Y-108188276D01*
X152090966Y-108234238D01*
X152136928Y-108326161D01*
X152136928Y-108418085D01*
X152136928Y-109153476D02*
X151493461Y-109153476D01*
X152136928Y-108739819D02*
X151631347Y-108739819D01*
X151539423Y-108785780D01*
X151493461Y-108877704D01*
X151493461Y-109015590D01*
X151539423Y-109107514D01*
X151585385Y-109153476D01*
X151493461Y-109613095D02*
X152136928Y-109613095D01*
X152458661Y-109613095D02*
X152412700Y-109567133D01*
X152366738Y-109613095D01*
X152412700Y-109659057D01*
X152458661Y-109613095D01*
X152366738Y-109613095D01*
X152136928Y-109934828D02*
X152136928Y-110302523D01*
X152458661Y-110072714D02*
X151631347Y-110072714D01*
X151539423Y-110118676D01*
X151493461Y-110210600D01*
X151493461Y-110302523D01*
X151585385Y-110624257D02*
X151539423Y-110670219D01*
X151493461Y-110624257D01*
X151539423Y-110578295D01*
X151585385Y-110624257D01*
X151493461Y-110624257D01*
X151861157Y-110624257D02*
X152412700Y-110578295D01*
X152458661Y-110624257D01*
X152412700Y-110670219D01*
X151861157Y-110624257D01*
X152458661Y-110624257D01*
D12*
X158262235Y-106256666D02*
X157699202Y-105452333D01*
X157297035Y-106256666D02*
X157297035Y-104567566D01*
X157940502Y-104567566D01*
X158101368Y-104648000D01*
X158181802Y-104728433D01*
X158262235Y-104889300D01*
X158262235Y-105130600D01*
X158181802Y-105291466D01*
X158101368Y-105371900D01*
X157940502Y-105452333D01*
X157297035Y-105452333D01*
X159549168Y-105371900D02*
X158986135Y-105371900D01*
X158986135Y-106256666D02*
X158986135Y-104567566D01*
X159790468Y-104567566D01*
X160433935Y-106256666D02*
X160433935Y-104567566D01*
X160996968Y-105774066D01*
X161560002Y-104567566D01*
X161560002Y-106256666D01*
X162444768Y-106256666D02*
X162766502Y-106256666D01*
X162927368Y-106176233D01*
X163007802Y-106095800D01*
X163168668Y-105854500D01*
X163249102Y-105532766D01*
X163249102Y-104889300D01*
X163168668Y-104728433D01*
X163088235Y-104648000D01*
X162927368Y-104567566D01*
X162605635Y-104567566D01*
X162444768Y-104648000D01*
X162364335Y-104728433D01*
X162283902Y-104889300D01*
X162283902Y-105291466D01*
X162364335Y-105452333D01*
X162444768Y-105532766D01*
X162605635Y-105613200D01*
X162927368Y-105613200D01*
X163088235Y-105532766D01*
X163168668Y-105452333D01*
X163249102Y-105291466D01*
X163812135Y-106256666D02*
X164696902Y-105130600D01*
X163812135Y-105130600D02*
X164696902Y-106256666D01*
X160031768Y-109039236D02*
X159227435Y-109039236D01*
X159227435Y-107350136D01*
X160836102Y-109039236D02*
X160675235Y-108958803D01*
X160594802Y-108878370D01*
X160514368Y-108717503D01*
X160514368Y-108234903D01*
X160594802Y-108074036D01*
X160675235Y-107993603D01*
X160836102Y-107913170D01*
X161077402Y-107913170D01*
X161238268Y-107993603D01*
X161318702Y-108074036D01*
X161399135Y-108234903D01*
X161399135Y-108717503D01*
X161318702Y-108878370D01*
X161238268Y-108958803D01*
X161077402Y-109039236D01*
X160836102Y-109039236D01*
X163088235Y-109039236D02*
X162525202Y-108234903D01*
X162123035Y-109039236D02*
X162123035Y-107350136D01*
X162766502Y-107350136D01*
X162927368Y-107430570D01*
X163007802Y-107511003D01*
X163088235Y-107671870D01*
X163088235Y-107913170D01*
X163007802Y-108074036D01*
X162927368Y-108154470D01*
X162766502Y-108234903D01*
X162123035Y-108234903D01*
X164536035Y-109039236D02*
X164536035Y-108154470D01*
X164455602Y-107993603D01*
X164294735Y-107913170D01*
X163973002Y-107913170D01*
X163812135Y-107993603D01*
X164536035Y-108958803D02*
X164375168Y-109039236D01*
X163973002Y-109039236D01*
X163812135Y-108958803D01*
X163731702Y-108797936D01*
X163731702Y-108637070D01*
X163812135Y-108476203D01*
X163973002Y-108395770D01*
X164375168Y-108395770D01*
X164536035Y-108315336D01*
D10*
D13*
G04 #@! TO.C,C6*
X130681100Y-103474600D02*
X131697100Y-103474600D01*
G04 #@! TO.C,C8*
X137467100Y-104809600D02*
X136451100Y-104809600D01*
D14*
G04 #@! TO.C,L1*
G36*
X125492100Y-99074600D02*
X126000100Y-99455600D01*
X126000100Y-98693600D01*
X125492100Y-99074600D01*
G37*
G36*
X125605600Y-99519100D02*
X125605600Y-98630100D01*
X125415100Y-98630100D01*
X125415100Y-99519100D01*
X125605600Y-99519100D01*
G37*
D15*
G04 #@! TO.C,SW1*
X131999100Y-109156600D02*
X132999100Y-109156600D01*
X131999102Y-109156600D02*
G75*
G03X131399100Y-109756600I-1J-600001D01*
G01*
X131399100Y-110156600D02*
X131399100Y-109756600D01*
X131399100Y-110156598D02*
G75*
G03X131999100Y-110756600I600001J-1D01*
G01*
X132999100Y-110756600D02*
X131999100Y-110756600D01*
X132999098Y-110756600D02*
G75*
G03X133599100Y-110156600I1J600001D01*
G01*
X133599100Y-109756600D02*
X133599100Y-110156600D01*
X133599100Y-109756602D02*
G75*
G03X132999100Y-109156600I-600001J1D01*
G01*
X134599100Y-108556600D02*
X134599100Y-111356600D01*
X130399100Y-108556600D02*
X134599100Y-108556600D01*
X130399100Y-111356600D02*
X130399100Y-108556600D01*
X134599100Y-111356600D02*
X130399100Y-111356600D01*
D16*
G04 #@! TO.C,U$31*
X127641100Y-96113600D02*
G75*
G03X127641100Y-96113600I-2000000J0D01*
G01*
G04 #@! TO.C,U$32*
X127641100Y-113893600D02*
G75*
G03X127641100Y-113893600I-2000000J0D01*
G01*
D15*
G04 #@! TO.C,X3*
X123246100Y-108803600D02*
X124146100Y-108803600D01*
X123246100Y-101203600D02*
X123246100Y-108803600D01*
X124146100Y-101203600D02*
X123246100Y-101203600D01*
X128646100Y-106703600D02*
X128646100Y-107503600D01*
X128646100Y-102503600D02*
X128646100Y-103303600D01*
D16*
G04 #@! TO.C,U2*
X141662100Y-101989600D02*
X140862100Y-101989600D01*
X139612100Y-101739600D02*
X139612100Y-100139600D01*
X142912100Y-101739600D02*
X142912100Y-100139600D01*
D14*
G04 #@! TO.C,D1*
G36*
X140981100Y-97764600D02*
X140681100Y-97964600D01*
X140681100Y-97564600D01*
X140981100Y-97764600D01*
G37*
G36*
X141381100Y-97264600D02*
X141181100Y-97264600D01*
X141181100Y-98264600D01*
X141381100Y-98264600D01*
X141381100Y-97264600D01*
G37*
D16*
X140581100Y-97364600D02*
X141181100Y-97764600D01*
X140581100Y-98164600D02*
X140581100Y-97364600D01*
X141181100Y-97764600D02*
X140581100Y-98164600D01*
X140008100Y-97064600D02*
X141754100Y-97064600D01*
X141754100Y-98464600D02*
X140008100Y-98464600D01*
G04 #@! TO.C,X1*
X129896100Y-101629600D02*
X129896100Y-97629600D01*
X130746100Y-101629600D02*
X129896100Y-101629600D01*
X130746100Y-99129600D02*
X130746100Y-101629600D01*
X132146100Y-99129600D02*
X130746100Y-99129600D01*
X137046100Y-99129600D02*
X135646100Y-99129600D01*
X137046100Y-101629600D02*
X137046100Y-99129600D01*
X137896100Y-101629600D02*
X137046100Y-101629600D01*
X137896100Y-97629600D02*
X137896100Y-101629600D01*
X131646100Y-94129600D02*
X136146100Y-94129600D01*
G04 #@! TO.C,U3*
X137344100Y-109736600D02*
X136544100Y-109736600D01*
X135294100Y-109486600D02*
X135294100Y-107886600D01*
X138594100Y-109486600D02*
X138594100Y-107886600D01*
D14*
G04 #@! TO.C,CHG1*
G36*
X125768100Y-110845600D02*
X125260100Y-110464600D01*
X125260100Y-111226600D01*
X125768100Y-110845600D01*
G37*
G36*
X125654600Y-110401100D02*
X125654600Y-111290100D01*
X125845100Y-111290100D01*
X125845100Y-110401100D01*
X125654600Y-110401100D01*
G37*
D13*
G04 #@! TO.C,C3*
X135039100Y-105257600D02*
X134023100Y-105257600D01*
D15*
G04 #@! TO.C,U$4*
X150831100Y-110381600D02*
X150281100Y-110381600D01*
X150831100Y-109831600D02*
X150831100Y-110381600D01*
X143631100Y-110381600D02*
X144181100Y-110381600D01*
X143631100Y-109831600D02*
X143631100Y-110381600D01*
X150831100Y-103181600D02*
X150831100Y-103731600D01*
X150281100Y-103181600D02*
X150831100Y-103181600D01*
X143631100Y-103181600D02*
X143631100Y-103731600D01*
X144181100Y-103181600D02*
X143631100Y-103181600D01*
D17*
X143480100Y-110713600D02*
G75*
G03X143480100Y-110713600I-127000J0D01*
G01*
D15*
G04 #@! TO.C,X2*
X139781101Y-111207601D02*
G75*
G03X139581100Y-111507600I49899J-249933D01*
G01*
X139581100Y-111807600D02*
X139581100Y-111507600D01*
X139581099Y-111807599D02*
G75*
G03X139881100Y-112007600I250001J50000D01*
G01*
X141881100Y-112007600D02*
X139881100Y-112007600D01*
X141881099Y-112007599D02*
G75*
G03X142181100Y-111707600I1J300000D01*
G01*
X142181100Y-111507600D02*
X142181100Y-111707600D01*
X142181100Y-111507600D02*
G75*
G03X141881100Y-111207600I-300100J-100D01*
G01*
X139781100Y-111207600D02*
X141881100Y-111207600D01*
X142481100Y-111223800D02*
X142481100Y-112024800D01*
X142481100Y-111223800D02*
G75*
G03X142164900Y-110907600I-316200J0D01*
G01*
X139504700Y-110907600D02*
X142164900Y-110907600D01*
X139504700Y-110907600D02*
G75*
G03X139281100Y-111131200I0J-223600D01*
G01*
X139281100Y-112024800D02*
X139281100Y-111131200D01*
X139281100Y-112024800D02*
G75*
G03X139563900Y-112307600I282800J0D01*
G01*
X142198300Y-112307600D02*
X139563900Y-112307600D01*
X142198300Y-112307600D02*
G75*
G03X142481100Y-112024800I0J282800D01*
G01*
D13*
G04 #@! TO.C,C5*
X151549100Y-98907600D02*
X152565100Y-98907600D01*
G04 #@! TO.C,C9*
X173139100Y-107670600D02*
X172123100Y-107670600D01*
D18*
G04 #@! TO.C,U4*
X172617100Y-112003600D02*
G75*
G03X172617100Y-112003600I-300000J0D01*
G01*
D15*
X170317100Y-113103600D02*
X170317100Y-112703600D01*
X154117100Y-113103600D02*
X170317100Y-113103600D01*
X154117100Y-112703600D02*
X154117100Y-113103600D01*
X170317100Y-96903600D02*
X170317100Y-97303600D01*
X154117100Y-96903600D02*
X170317100Y-96903600D01*
X154117100Y-97303600D02*
X154117100Y-96903600D01*
G04 #@! TO.C,C6*
D19*
X131205791Y-100727175D02*
X131242560Y-100763945D01*
X131279330Y-100874253D01*
X131279330Y-100947793D01*
X131242560Y-101058101D01*
X131169021Y-101131640D01*
X131095482Y-101168410D01*
X130948404Y-101205179D01*
X130838096Y-101205179D01*
X130691018Y-101168410D01*
X130617479Y-101131640D01*
X130543940Y-101058101D01*
X130507170Y-100947793D01*
X130507170Y-100874253D01*
X130543940Y-100763945D01*
X130580709Y-100727175D01*
X130507170Y-100065324D02*
X130507170Y-100212402D01*
X130543940Y-100285941D01*
X130580709Y-100322711D01*
X130691018Y-100396250D01*
X130838096Y-100433019D01*
X131132252Y-100433019D01*
X131205791Y-100396250D01*
X131242560Y-100359480D01*
X131279330Y-100285941D01*
X131279330Y-100138863D01*
X131242560Y-100065324D01*
X131205791Y-100028554D01*
X131132252Y-99991785D01*
X130948404Y-99991785D01*
X130874865Y-100028554D01*
X130838096Y-100065324D01*
X130801326Y-100138863D01*
X130801326Y-100285941D01*
X130838096Y-100359480D01*
X130874865Y-100396250D01*
X130948404Y-100433019D01*
G04 #@! TO.C,C8*
X135859289Y-107503451D02*
X135822519Y-107540220D01*
X135712211Y-107576990D01*
X135638672Y-107576990D01*
X135528363Y-107540220D01*
X135454824Y-107466681D01*
X135418054Y-107393142D01*
X135381285Y-107246064D01*
X135381285Y-107135756D01*
X135418054Y-106988678D01*
X135454824Y-106915139D01*
X135528363Y-106841600D01*
X135638672Y-106804830D01*
X135712211Y-106804830D01*
X135822519Y-106841600D01*
X135859289Y-106878369D01*
X136300523Y-107135756D02*
X136226984Y-107098986D01*
X136190214Y-107062217D01*
X136153445Y-106988678D01*
X136153445Y-106951908D01*
X136190214Y-106878369D01*
X136226984Y-106841600D01*
X136300523Y-106804830D01*
X136447601Y-106804830D01*
X136521140Y-106841600D01*
X136557910Y-106878369D01*
X136594679Y-106951908D01*
X136594679Y-106988678D01*
X136557910Y-107062217D01*
X136521140Y-107098986D01*
X136447601Y-107135756D01*
X136300523Y-107135756D01*
X136226984Y-107172525D01*
X136190214Y-107209295D01*
X136153445Y-107282834D01*
X136153445Y-107429912D01*
X136190214Y-107503451D01*
X136226984Y-107540220D01*
X136300523Y-107576990D01*
X136447601Y-107576990D01*
X136521140Y-107540220D01*
X136557910Y-107503451D01*
X136594679Y-107429912D01*
X136594679Y-107282834D01*
X136557910Y-107209295D01*
X136521140Y-107172525D01*
X136447601Y-107135756D01*
G04 #@! TO.C,L1*
X126624828Y-100825990D02*
X126257133Y-100825990D01*
X126257133Y-100053830D01*
X127286679Y-100825990D02*
X126845445Y-100825990D01*
X127066062Y-100825990D02*
X127066062Y-100053830D01*
X126992523Y-100164139D01*
X126918984Y-100237678D01*
X126845445Y-100274447D01*
G04 #@! TO.C,C14*
X136313324Y-112105698D02*
X136276554Y-112142467D01*
X136166246Y-112179237D01*
X136092706Y-112179237D01*
X135982398Y-112142467D01*
X135908859Y-112068928D01*
X135872089Y-111995389D01*
X135835320Y-111848311D01*
X135835320Y-111738003D01*
X135872089Y-111590925D01*
X135908859Y-111517386D01*
X135982398Y-111443847D01*
X136092706Y-111407077D01*
X136166246Y-111407077D01*
X136276554Y-111443847D01*
X136313324Y-111480616D01*
X137048714Y-112179237D02*
X136607480Y-112179237D01*
X136828097Y-112179237D02*
X136828097Y-111407077D01*
X136754558Y-111517386D01*
X136681019Y-111590925D01*
X136607480Y-111627694D01*
X137710566Y-111664464D02*
X137710566Y-112179237D01*
X137526718Y-111370307D02*
X137342870Y-111921850D01*
X137820874Y-111921850D01*
G04 #@! TO.C,U2*
X137833285Y-100902830D02*
X137833285Y-101527912D01*
X137870054Y-101601451D01*
X137906824Y-101638220D01*
X137980363Y-101674990D01*
X138127441Y-101674990D01*
X138200980Y-101638220D01*
X138237750Y-101601451D01*
X138274519Y-101527912D01*
X138274519Y-100902830D01*
X138605445Y-100976369D02*
X138642214Y-100939600D01*
X138715753Y-100902830D01*
X138899601Y-100902830D01*
X138973140Y-100939600D01*
X139009910Y-100976369D01*
X139046679Y-101049908D01*
X139046679Y-101123447D01*
X139009910Y-101233756D01*
X138568675Y-101674990D01*
X139046679Y-101674990D01*
G04 #@! TO.C,D1*
X140737054Y-99515990D02*
X140737054Y-98743830D01*
X140920902Y-98743830D01*
X141031211Y-98780600D01*
X141104750Y-98854139D01*
X141141519Y-98927678D01*
X141178289Y-99074756D01*
X141178289Y-99185064D01*
X141141519Y-99332142D01*
X141104750Y-99405681D01*
X141031211Y-99479220D01*
X140920902Y-99515990D01*
X140737054Y-99515990D01*
X141913679Y-99515990D02*
X141472445Y-99515990D01*
X141693062Y-99515990D02*
X141693062Y-98743830D01*
X141619523Y-98854139D01*
X141545984Y-98927678D01*
X141472445Y-98964447D01*
G04 #@! TO.C,X1*
D20*
X131952545Y-94609557D02*
X132540857Y-94830174D01*
X131952545Y-95050791D01*
X132908552Y-95124330D02*
X132908552Y-94352170D01*
X133349787Y-95124330D01*
X133349787Y-94352170D01*
X134048408Y-95124330D02*
X134048408Y-94719865D01*
X134011638Y-94646326D01*
X133938099Y-94609557D01*
X133791021Y-94609557D01*
X133717482Y-94646326D01*
X134048408Y-95087560D02*
X133974869Y-95124330D01*
X133791021Y-95124330D01*
X133717482Y-95087560D01*
X133680712Y-95014021D01*
X133680712Y-94940482D01*
X133717482Y-94866943D01*
X133791021Y-94830174D01*
X133974869Y-94830174D01*
X134048408Y-94793404D01*
X134416103Y-95124330D02*
X134416103Y-94609557D01*
X134416103Y-94683096D02*
X134452872Y-94646326D01*
X134526411Y-94609557D01*
X134636720Y-94609557D01*
X134710259Y-94646326D01*
X134747029Y-94719865D01*
X134747029Y-95124330D01*
X134747029Y-94719865D02*
X134783798Y-94646326D01*
X134857337Y-94609557D01*
X134967646Y-94609557D01*
X135041185Y-94646326D01*
X135077954Y-94719865D01*
X135077954Y-95124330D01*
X135739806Y-95087560D02*
X135666267Y-95124330D01*
X135519189Y-95124330D01*
X135445649Y-95087560D01*
X135408880Y-95014021D01*
X135408880Y-94719865D01*
X135445649Y-94646326D01*
X135519189Y-94609557D01*
X135666267Y-94609557D01*
X135739806Y-94646326D01*
X135776575Y-94719865D01*
X135776575Y-94793404D01*
X135408880Y-94866943D01*
G04 #@! TO.C,U3*
D19*
X133515285Y-108649830D02*
X133515285Y-109274912D01*
X133552054Y-109348451D01*
X133588824Y-109385220D01*
X133662363Y-109421990D01*
X133809441Y-109421990D01*
X133882980Y-109385220D01*
X133919750Y-109348451D01*
X133956519Y-109274912D01*
X133956519Y-108649830D01*
X134250675Y-108649830D02*
X134728679Y-108649830D01*
X134471293Y-108943986D01*
X134581601Y-108943986D01*
X134655140Y-108980756D01*
X134691910Y-109017525D01*
X134728679Y-109091064D01*
X134728679Y-109274912D01*
X134691910Y-109348451D01*
X134655140Y-109385220D01*
X134581601Y-109421990D01*
X134360984Y-109421990D01*
X134287445Y-109385220D01*
X134250675Y-109348451D01*
G04 #@! TO.C,CHG1*
X124451524Y-109719291D02*
X124414754Y-109756060D01*
X124304446Y-109792830D01*
X124230906Y-109792830D01*
X124120598Y-109756060D01*
X124047059Y-109682521D01*
X124010289Y-109608982D01*
X123973520Y-109461904D01*
X123973520Y-109351596D01*
X124010289Y-109204518D01*
X124047059Y-109130979D01*
X124120598Y-109057440D01*
X124230906Y-109020670D01*
X124304446Y-109020670D01*
X124414754Y-109057440D01*
X124451524Y-109094209D01*
X124782449Y-109792830D02*
X124782449Y-109020670D01*
X124782449Y-109388365D02*
X125223684Y-109388365D01*
X125223684Y-109792830D02*
X125223684Y-109020670D01*
X125995844Y-109057440D02*
X125922305Y-109020670D01*
X125811996Y-109020670D01*
X125701687Y-109057440D01*
X125628148Y-109130979D01*
X125591379Y-109204518D01*
X125554609Y-109351596D01*
X125554609Y-109461904D01*
X125591379Y-109608982D01*
X125628148Y-109682521D01*
X125701687Y-109756060D01*
X125811996Y-109792830D01*
X125885535Y-109792830D01*
X125995844Y-109756060D01*
X126032613Y-109719291D01*
X126032613Y-109461904D01*
X125885535Y-109461904D01*
X126768004Y-109792830D02*
X126326769Y-109792830D01*
X126547386Y-109792830D02*
X126547386Y-109020670D01*
X126473847Y-109130979D01*
X126400308Y-109204518D01*
X126326769Y-109241287D01*
G04 #@! TO.C,R2*
X131690524Y-112205830D02*
X131433137Y-111838135D01*
X131249289Y-112205830D02*
X131249289Y-111433670D01*
X131543446Y-111433670D01*
X131616985Y-111470440D01*
X131653754Y-111507209D01*
X131690524Y-111580748D01*
X131690524Y-111691057D01*
X131653754Y-111764596D01*
X131616985Y-111801365D01*
X131543446Y-111838135D01*
X131249289Y-111838135D01*
X131984680Y-111507209D02*
X132021449Y-111470440D01*
X132094988Y-111433670D01*
X132278836Y-111433670D01*
X132352375Y-111470440D01*
X132389145Y-111507209D01*
X132425914Y-111580748D01*
X132425914Y-111654287D01*
X132389145Y-111764596D01*
X131947910Y-112205830D01*
X132425914Y-112205830D01*
G04 #@! TO.C,C3*
X135065951Y-108262410D02*
X135102720Y-108299180D01*
X135139490Y-108409488D01*
X135139490Y-108483027D01*
X135102720Y-108593336D01*
X135029181Y-108666875D01*
X134955642Y-108703645D01*
X134808564Y-108740414D01*
X134698256Y-108740414D01*
X134551178Y-108703645D01*
X134477639Y-108666875D01*
X134404100Y-108593336D01*
X134367330Y-108483027D01*
X134367330Y-108409488D01*
X134404100Y-108299180D01*
X134440869Y-108262410D01*
X134367330Y-108005024D02*
X134367330Y-107527020D01*
X134661486Y-107784406D01*
X134661486Y-107674098D01*
X134698256Y-107600559D01*
X134735025Y-107563789D01*
X134808564Y-107527020D01*
X134992412Y-107527020D01*
X135065951Y-107563789D01*
X135102720Y-107600559D01*
X135139490Y-107674098D01*
X135139490Y-107894715D01*
X135102720Y-107968254D01*
X135065951Y-108005024D01*
G04 #@! TO.C,R8*
X134193289Y-112723990D02*
X133935902Y-112356295D01*
X133752054Y-112723990D02*
X133752054Y-111951830D01*
X134046211Y-111951830D01*
X134119750Y-111988600D01*
X134156519Y-112025369D01*
X134193289Y-112098908D01*
X134193289Y-112209217D01*
X134156519Y-112282756D01*
X134119750Y-112319525D01*
X134046211Y-112356295D01*
X133752054Y-112356295D01*
X134634523Y-112282756D02*
X134560984Y-112245986D01*
X134524214Y-112209217D01*
X134487445Y-112135678D01*
X134487445Y-112098908D01*
X134524214Y-112025369D01*
X134560984Y-111988600D01*
X134634523Y-111951830D01*
X134781601Y-111951830D01*
X134855140Y-111988600D01*
X134891910Y-112025369D01*
X134928679Y-112098908D01*
X134928679Y-112135678D01*
X134891910Y-112209217D01*
X134855140Y-112245986D01*
X134781601Y-112282756D01*
X134634523Y-112282756D01*
X134560984Y-112319525D01*
X134524214Y-112356295D01*
X134487445Y-112429834D01*
X134487445Y-112576912D01*
X134524214Y-112650451D01*
X134560984Y-112687220D01*
X134634523Y-112723990D01*
X134781601Y-112723990D01*
X134855140Y-112687220D01*
X134891910Y-112650451D01*
X134928679Y-112576912D01*
X134928679Y-112429834D01*
X134891910Y-112356295D01*
X134855140Y-112319525D01*
X134781601Y-112282756D01*
G04 #@! TO.C,R3*
X147400424Y-98134230D02*
X147143037Y-97766535D01*
X146959189Y-98134230D02*
X146959189Y-97362070D01*
X147253346Y-97362070D01*
X147326885Y-97398840D01*
X147363654Y-97435609D01*
X147400424Y-97509148D01*
X147400424Y-97619457D01*
X147363654Y-97692996D01*
X147326885Y-97729765D01*
X147253346Y-97766535D01*
X146959189Y-97766535D01*
X147657810Y-97362070D02*
X148135814Y-97362070D01*
X147878427Y-97656226D01*
X147988736Y-97656226D01*
X148062275Y-97692996D01*
X148099045Y-97729765D01*
X148135814Y-97803304D01*
X148135814Y-97987152D01*
X148099045Y-98060691D01*
X148062275Y-98097460D01*
X147988736Y-98134230D01*
X147768119Y-98134230D01*
X147694580Y-98097460D01*
X147657810Y-98060691D01*
G04 #@! TO.C,R6*
X142829289Y-99642990D02*
X142571902Y-99275295D01*
X142388054Y-99642990D02*
X142388054Y-98870830D01*
X142682211Y-98870830D01*
X142755750Y-98907600D01*
X142792519Y-98944369D01*
X142829289Y-99017908D01*
X142829289Y-99128217D01*
X142792519Y-99201756D01*
X142755750Y-99238525D01*
X142682211Y-99275295D01*
X142388054Y-99275295D01*
X143491140Y-98870830D02*
X143344062Y-98870830D01*
X143270523Y-98907600D01*
X143233753Y-98944369D01*
X143160214Y-99054678D01*
X143123445Y-99201756D01*
X143123445Y-99495912D01*
X143160214Y-99569451D01*
X143196984Y-99606220D01*
X143270523Y-99642990D01*
X143417601Y-99642990D01*
X143491140Y-99606220D01*
X143527910Y-99569451D01*
X143564679Y-99495912D01*
X143564679Y-99312064D01*
X143527910Y-99238525D01*
X143491140Y-99201756D01*
X143417601Y-99164986D01*
X143270523Y-99164986D01*
X143196984Y-99201756D01*
X143160214Y-99238525D01*
X143123445Y-99312064D01*
G04 #@! TO.C,C2*
X140986691Y-106599575D02*
X141023460Y-106636345D01*
X141060230Y-106746653D01*
X141060230Y-106820193D01*
X141023460Y-106930501D01*
X140949921Y-107004040D01*
X140876382Y-107040810D01*
X140729304Y-107077579D01*
X140618996Y-107077579D01*
X140471918Y-107040810D01*
X140398379Y-107004040D01*
X140324840Y-106930501D01*
X140288070Y-106820193D01*
X140288070Y-106746653D01*
X140324840Y-106636345D01*
X140361609Y-106599575D01*
X140361609Y-106305419D02*
X140324840Y-106268650D01*
X140288070Y-106195111D01*
X140288070Y-106011263D01*
X140324840Y-105937724D01*
X140361609Y-105900954D01*
X140435148Y-105864185D01*
X140508687Y-105864185D01*
X140618996Y-105900954D01*
X141060230Y-106342189D01*
X141060230Y-105864185D01*
G04 #@! TO.C,C4*
X139716691Y-106599575D02*
X139753460Y-106636345D01*
X139790230Y-106746653D01*
X139790230Y-106820193D01*
X139753460Y-106930501D01*
X139679921Y-107004040D01*
X139606382Y-107040810D01*
X139459304Y-107077579D01*
X139348996Y-107077579D01*
X139201918Y-107040810D01*
X139128379Y-107004040D01*
X139054840Y-106930501D01*
X139018070Y-106820193D01*
X139018070Y-106746653D01*
X139054840Y-106636345D01*
X139091609Y-106599575D01*
X139275457Y-105937724D02*
X139790230Y-105937724D01*
X138981300Y-106121572D02*
X139532843Y-106305419D01*
X139532843Y-105827415D01*
G04 #@! TO.C,C5*
X150638691Y-99106575D02*
X150675460Y-99143345D01*
X150712230Y-99253653D01*
X150712230Y-99327193D01*
X150675460Y-99437501D01*
X150601921Y-99511040D01*
X150528382Y-99547810D01*
X150381304Y-99584579D01*
X150270996Y-99584579D01*
X150123918Y-99547810D01*
X150050379Y-99511040D01*
X149976840Y-99437501D01*
X149940070Y-99327193D01*
X149940070Y-99253653D01*
X149976840Y-99143345D01*
X150013609Y-99106575D01*
X149940070Y-98407954D02*
X149940070Y-98775650D01*
X150307765Y-98812419D01*
X150270996Y-98775650D01*
X150234226Y-98702111D01*
X150234226Y-98518263D01*
X150270996Y-98444724D01*
X150307765Y-98407954D01*
X150381304Y-98371185D01*
X150565152Y-98371185D01*
X150638691Y-98407954D01*
X150675460Y-98444724D01*
X150712230Y-98518263D01*
X150712230Y-98702111D01*
X150675460Y-98775650D01*
X150638691Y-98812419D01*
G04 #@! TO.C,R1*
X138812330Y-97811175D02*
X138444635Y-98068562D01*
X138812330Y-98252410D02*
X138040170Y-98252410D01*
X138040170Y-97958253D01*
X138076940Y-97884714D01*
X138113709Y-97847945D01*
X138187248Y-97811175D01*
X138297557Y-97811175D01*
X138371096Y-97847945D01*
X138407865Y-97884714D01*
X138444635Y-97958253D01*
X138444635Y-98252410D01*
X138812330Y-97075785D02*
X138812330Y-97517019D01*
X138812330Y-97296402D02*
X138040170Y-97296402D01*
X138150479Y-97369941D01*
X138224018Y-97443480D01*
X138260787Y-97517019D01*
G04 #@! TO.C,C9*
X173165951Y-110675410D02*
X173202720Y-110712180D01*
X173239490Y-110822488D01*
X173239490Y-110896027D01*
X173202720Y-111006336D01*
X173129181Y-111079875D01*
X173055642Y-111116645D01*
X172908564Y-111153414D01*
X172798256Y-111153414D01*
X172651178Y-111116645D01*
X172577639Y-111079875D01*
X172504100Y-111006336D01*
X172467330Y-110896027D01*
X172467330Y-110822488D01*
X172504100Y-110712180D01*
X172540869Y-110675410D01*
X173239490Y-110307715D02*
X173239490Y-110160637D01*
X173202720Y-110087098D01*
X173165951Y-110050328D01*
X173055642Y-109976789D01*
X172908564Y-109940020D01*
X172614408Y-109940020D01*
X172540869Y-109976789D01*
X172504100Y-110013559D01*
X172467330Y-110087098D01*
X172467330Y-110234176D01*
X172504100Y-110307715D01*
X172540869Y-110344485D01*
X172614408Y-110381254D01*
X172798256Y-110381254D01*
X172871795Y-110344485D01*
X172908564Y-110307715D01*
X172945334Y-110234176D01*
X172945334Y-110087098D01*
X172908564Y-110013559D01*
X172871795Y-109976789D01*
X172798256Y-109940020D01*
G04 #@! TO.C,JP2*
X171784070Y-114440193D02*
X172335613Y-114440193D01*
X172445921Y-114476962D01*
X172519460Y-114550501D01*
X172556230Y-114660810D01*
X172556230Y-114734349D01*
X172556230Y-114072497D02*
X171784070Y-114072497D01*
X171784070Y-113778341D01*
X171820840Y-113704802D01*
X171857609Y-113668033D01*
X171931148Y-113631263D01*
X172041457Y-113631263D01*
X172114996Y-113668033D01*
X172151765Y-113704802D01*
X172188535Y-113778341D01*
X172188535Y-114072497D01*
X171857609Y-113337107D02*
X171820840Y-113300337D01*
X171784070Y-113226798D01*
X171784070Y-113042951D01*
X171820840Y-112969412D01*
X171857609Y-112932642D01*
X171931148Y-112895873D01*
X172004687Y-112895873D01*
X172114996Y-112932642D01*
X172556230Y-113373876D01*
X172556230Y-112895873D01*
G04 #@! TO.C,U4*
X156992189Y-97362070D02*
X156992189Y-97987152D01*
X157028959Y-98060691D01*
X157065728Y-98097460D01*
X157139267Y-98134230D01*
X157286346Y-98134230D01*
X157359885Y-98097460D01*
X157396654Y-98060691D01*
X157433424Y-97987152D01*
X157433424Y-97362070D01*
X158132045Y-97619457D02*
X158132045Y-98134230D01*
X157948197Y-97325300D02*
X157764349Y-97876843D01*
X158242353Y-97876843D01*
G04 #@! TO.C,JP5*
X172165070Y-96914193D02*
X172716613Y-96914193D01*
X172826921Y-96950962D01*
X172900460Y-97024501D01*
X172937230Y-97134810D01*
X172937230Y-97208349D01*
X172937230Y-96546497D02*
X172165070Y-96546497D01*
X172165070Y-96252341D01*
X172201840Y-96178802D01*
X172238609Y-96142033D01*
X172312148Y-96105263D01*
X172422457Y-96105263D01*
X172495996Y-96142033D01*
X172532765Y-96178802D01*
X172569535Y-96252341D01*
X172569535Y-96546497D01*
X172165070Y-95406642D02*
X172165070Y-95774337D01*
X172532765Y-95811107D01*
X172495996Y-95774337D01*
X172459226Y-95700798D01*
X172459226Y-95516951D01*
X172495996Y-95443412D01*
X172532765Y-95406642D01*
X172606304Y-95369873D01*
X172790152Y-95369873D01*
X172863691Y-95406642D01*
X172900460Y-95443412D01*
X172937230Y-95516951D01*
X172937230Y-95700798D01*
X172900460Y-95774337D01*
X172863691Y-95811107D01*
G04 #@! TD*
%LPC*%
D21*
G04 #@! TO.C,U$34*
X133896100Y-95617600D02*
G75*
G03X133146100Y-96367600I0J-750000D01*
G01*
X133146100Y-96367600D02*
G75*
G03X133896100Y-97117600I750000J0D01*
G01*
X133896100Y-97117600D02*
G75*
G03X134646100Y-96367600I0J750000D01*
G01*
X134646100Y-96367600D02*
G75*
G03X133896100Y-95617600I-750000J0D01*
G01*
G04 #@! TO.C,U$35*
X169503300Y-114914600D02*
G75*
G03X168753300Y-115664600I0J-750000D01*
G01*
X168753300Y-115664600D02*
G75*
G03X169503300Y-116414600I750000J0D01*
G01*
X169503300Y-116414600D02*
G75*
G03X170253300Y-115664600I0J750000D01*
G01*
X170253300Y-115664600D02*
G75*
G03X169503300Y-114914600I-750000J0D01*
G01*
D14*
G04 #@! TO.C,X3*
G36*
X127596100Y-106053600D02*
X127596100Y-106553600D01*
X129046100Y-106553600D01*
X129046100Y-106053600D01*
X127596100Y-106053600D01*
G37*
G36*
X127596100Y-105403600D02*
X127596100Y-105903600D01*
X129046100Y-105903600D01*
X129046100Y-105403600D01*
X127596100Y-105403600D01*
G37*
G36*
X127596100Y-104753600D02*
X127596100Y-105253600D01*
X129046100Y-105253600D01*
X129046100Y-104753600D01*
X127596100Y-104753600D01*
G37*
G36*
X127596100Y-104103600D02*
X127596100Y-104603600D01*
X129046100Y-104603600D01*
X129046100Y-104103600D01*
X127596100Y-104103600D01*
G37*
G36*
X127596100Y-103453600D02*
X127596100Y-103953600D01*
X129046100Y-103953600D01*
X129046100Y-103453600D01*
X127596100Y-103453600D01*
G37*
G04 #@! TD*
D22*
G04 #@! TO.C,C6*
X131189100Y-102524600D03*
X131189100Y-104424600D03*
G04 #@! TD*
D23*
G04 #@! TO.C,C7*
X139501100Y-103721600D03*
X139501100Y-105421600D03*
G04 #@! TD*
D22*
G04 #@! TO.C,C8*
X136959100Y-105759600D03*
X136959100Y-103859600D03*
G04 #@! TD*
D24*
G04 #@! TO.C,L1*
X126796100Y-99074600D03*
X124696100Y-99074600D03*
G04 #@! TD*
D25*
G04 #@! TO.C,C14*
X134669900Y-112089007D03*
X132969900Y-112089007D03*
G04 #@! TD*
D23*
G04 #@! TO.C,R7*
X128816100Y-96328600D03*
X128816100Y-94628600D03*
G04 #@! TD*
D14*
G04 #@! TO.C,U$34*
G36*
X133950089Y-95819451D02*
X134003557Y-95827382D01*
X134055990Y-95840516D01*
X134106883Y-95858726D01*
X134155746Y-95881837D01*
X134202109Y-95909626D01*
X134245525Y-95941825D01*
X134285575Y-95978125D01*
X134321875Y-96018175D01*
X134354074Y-96061591D01*
X134381863Y-96107954D01*
X134404974Y-96156817D01*
X134423184Y-96207710D01*
X134436318Y-96260143D01*
X134444249Y-96313611D01*
X134446901Y-96367599D01*
X134446901Y-96367601D01*
X134444249Y-96421589D01*
X134436318Y-96475057D01*
X134423184Y-96527490D01*
X134404974Y-96578383D01*
X134381863Y-96627246D01*
X134354074Y-96673609D01*
X134321875Y-96717025D01*
X134285575Y-96757075D01*
X134245525Y-96793375D01*
X134202109Y-96825574D01*
X134155746Y-96853363D01*
X134106883Y-96876474D01*
X134055990Y-96894684D01*
X134003557Y-96907818D01*
X133950089Y-96915749D01*
X133896101Y-96918401D01*
X133896099Y-96918401D01*
X133842111Y-96915749D01*
X133788643Y-96907818D01*
X133736210Y-96894684D01*
X133685317Y-96876474D01*
X133636454Y-96853363D01*
X133590091Y-96825574D01*
X133546675Y-96793375D01*
X133506625Y-96757075D01*
X133470325Y-96717025D01*
X133438126Y-96673609D01*
X133410337Y-96627246D01*
X133387226Y-96578383D01*
X133369016Y-96527490D01*
X133355882Y-96475057D01*
X133347951Y-96421589D01*
X133345299Y-96367601D01*
X133345299Y-96367599D01*
X133347951Y-96313611D01*
X133355882Y-96260143D01*
X133369016Y-96207710D01*
X133387226Y-96156817D01*
X133410337Y-96107954D01*
X133438126Y-96061591D01*
X133470325Y-96018175D01*
X133506625Y-95978125D01*
X133546675Y-95941825D01*
X133590091Y-95909626D01*
X133636454Y-95881837D01*
X133685317Y-95858726D01*
X133736210Y-95840516D01*
X133788643Y-95827382D01*
X133842111Y-95819451D01*
X133896099Y-95816799D01*
X133896101Y-95816799D01*
X133950089Y-95819451D01*
X133950089Y-95819451D01*
G37*
D26*
X133896100Y-96367600D03*
G04 #@! TD*
D14*
G04 #@! TO.C,U$35*
G36*
X169557289Y-115116451D02*
X169610757Y-115124382D01*
X169663190Y-115137516D01*
X169714083Y-115155726D01*
X169762946Y-115178837D01*
X169809309Y-115206626D01*
X169852725Y-115238825D01*
X169892775Y-115275125D01*
X169929075Y-115315175D01*
X169961274Y-115358591D01*
X169989063Y-115404954D01*
X170012174Y-115453817D01*
X170030384Y-115504710D01*
X170043518Y-115557143D01*
X170051449Y-115610611D01*
X170054101Y-115664599D01*
X170054101Y-115664601D01*
X170051449Y-115718589D01*
X170043518Y-115772057D01*
X170030384Y-115824490D01*
X170012174Y-115875383D01*
X169989063Y-115924246D01*
X169961274Y-115970609D01*
X169929075Y-116014025D01*
X169892775Y-116054075D01*
X169852725Y-116090375D01*
X169809309Y-116122574D01*
X169762946Y-116150363D01*
X169714083Y-116173474D01*
X169663190Y-116191684D01*
X169610757Y-116204818D01*
X169557289Y-116212749D01*
X169503301Y-116215401D01*
X169503299Y-116215401D01*
X169449311Y-116212749D01*
X169395843Y-116204818D01*
X169343410Y-116191684D01*
X169292517Y-116173474D01*
X169243654Y-116150363D01*
X169197291Y-116122574D01*
X169153875Y-116090375D01*
X169113825Y-116054075D01*
X169077525Y-116014025D01*
X169045326Y-115970609D01*
X169017537Y-115924246D01*
X168994426Y-115875383D01*
X168976216Y-115824490D01*
X168963082Y-115772057D01*
X168955151Y-115718589D01*
X168952499Y-115664601D01*
X168952499Y-115664599D01*
X168955151Y-115610611D01*
X168963082Y-115557143D01*
X168976216Y-115504710D01*
X168994426Y-115453817D01*
X169017537Y-115404954D01*
X169045326Y-115358591D01*
X169077525Y-115315175D01*
X169113825Y-115275125D01*
X169153875Y-115238825D01*
X169197291Y-115206626D01*
X169243654Y-115178837D01*
X169292517Y-115155726D01*
X169343410Y-115137516D01*
X169395843Y-115124382D01*
X169449311Y-115116451D01*
X169503299Y-115113799D01*
X169503301Y-115113799D01*
X169557289Y-115116451D01*
X169557289Y-115116451D01*
G37*
D26*
X169503300Y-115664600D03*
G04 #@! TD*
D27*
G04 #@! TO.C,SW1*
X134499100Y-110756600D03*
X134499100Y-109156600D03*
X130499100Y-109156600D03*
X130499100Y-110756600D03*
G04 #@! TD*
D28*
G04 #@! TO.C,U$31*
X125641100Y-96113600D03*
G04 #@! TD*
G04 #@! TO.C,U$32*
X125641100Y-113893600D03*
G04 #@! TD*
D29*
G04 #@! TO.C,X3*
X125546100Y-105753600D03*
X125546100Y-104253600D03*
D30*
X128321100Y-106303600D03*
X128321100Y-105653600D03*
X128321100Y-105003600D03*
X128321100Y-104353600D03*
X128321100Y-103703600D03*
D31*
X128446100Y-108303600D03*
X128446100Y-101703600D03*
D32*
X125646100Y-101403600D03*
X125646100Y-108603600D03*
D33*
X127546100Y-106953600D03*
X127546100Y-103053600D03*
G04 #@! TD*
D34*
G04 #@! TO.C,U2*
X142212100Y-102239700D03*
X140312100Y-102239700D03*
X140312100Y-99639500D03*
X141262100Y-99639500D03*
X142212100Y-99639500D03*
G04 #@! TD*
D35*
G04 #@! TO.C,D1*
X139031100Y-97764600D03*
X142731100Y-97764600D03*
G04 #@! TD*
D36*
G04 #@! TO.C,JP1*
X129451100Y-115163600D03*
X131991100Y-115163600D03*
X134531100Y-115163600D03*
X137071100Y-115163600D03*
X139611100Y-115163600D03*
X142151100Y-115163600D03*
X144691100Y-115163600D03*
X147231100Y-115163600D03*
X149771100Y-115163600D03*
X152311100Y-115163600D03*
X154851100Y-115163600D03*
X157391100Y-115163600D03*
X159931100Y-115163600D03*
X162471100Y-115163600D03*
X165011100Y-115163600D03*
X167551100Y-115163600D03*
G04 #@! TD*
D37*
G04 #@! TO.C,X1*
X137296100Y-95629600D03*
X130496100Y-95629600D03*
D38*
X134896100Y-100829600D03*
X132896100Y-100829600D03*
G04 #@! TD*
D36*
G04 #@! TO.C,JP3*
X167551100Y-94843600D03*
X165011100Y-94843600D03*
X162471100Y-94843600D03*
X159931100Y-94843600D03*
X157391100Y-94843600D03*
X154851100Y-94843600D03*
X152311100Y-94843600D03*
X149771100Y-94843600D03*
X147231100Y-94843600D03*
X144691100Y-94843600D03*
X142151100Y-94843600D03*
X139611100Y-94843600D03*
G04 #@! TD*
D34*
G04 #@! TO.C,U3*
X137894100Y-109986700D03*
X135994100Y-109986700D03*
X135994100Y-107386500D03*
X136944100Y-107386500D03*
X137894100Y-107386500D03*
G04 #@! TD*
D24*
G04 #@! TO.C,CHG1*
X124464100Y-110845600D03*
X126564100Y-110845600D03*
G04 #@! TD*
D25*
G04 #@! TO.C,R2*
X130047100Y-112115600D03*
X128347100Y-112115600D03*
G04 #@! TD*
D22*
G04 #@! TO.C,C3*
X134531100Y-106207600D03*
X134531100Y-104307600D03*
G04 #@! TD*
D25*
G04 #@! TO.C,R8*
X136094100Y-112115600D03*
X137794100Y-112115600D03*
G04 #@! TD*
G04 #@! TO.C,R3*
X146049100Y-97764600D03*
X144349100Y-97764600D03*
G04 #@! TD*
G04 #@! TO.C,R6*
X144730100Y-99034600D03*
X146430100Y-99034600D03*
G04 #@! TD*
D39*
G04 #@! TO.C,U$4*
X143756100Y-109531600D03*
D40*
X144481100Y-103306600D03*
D39*
X150706100Y-104031600D03*
D40*
X149981100Y-110256600D03*
D41*
X147231100Y-106781600D03*
D39*
X143756100Y-109031600D03*
X143756100Y-108531600D03*
X143756100Y-108031600D03*
X143756100Y-107531600D03*
X143756100Y-107031600D03*
X143756100Y-106531600D03*
X143756100Y-106031600D03*
X143756100Y-105531600D03*
X143756100Y-105031600D03*
X143756100Y-104531600D03*
X143756100Y-104031600D03*
D40*
X144981100Y-103306600D03*
X145481100Y-103306600D03*
X145981100Y-103306600D03*
X146481100Y-103306600D03*
X146981100Y-103306600D03*
X147481100Y-103306600D03*
X147981100Y-103306600D03*
X148481100Y-103306600D03*
X148981100Y-103306600D03*
X149481100Y-103306600D03*
X149981100Y-103306600D03*
D39*
X150706100Y-104531600D03*
X150706100Y-105031600D03*
X150706100Y-105531600D03*
X150706100Y-106031600D03*
X150706100Y-106531600D03*
X150706100Y-107031600D03*
X150706100Y-107531600D03*
X150706100Y-108031600D03*
X150706100Y-108531600D03*
X150706100Y-109031600D03*
X150706100Y-109531600D03*
D40*
X149481100Y-110256600D03*
X148981100Y-110256600D03*
X148481100Y-110256600D03*
X147981100Y-110256600D03*
X147481100Y-110256600D03*
X146981100Y-110256600D03*
X146481100Y-110256600D03*
X145981100Y-110256600D03*
X145481100Y-110256600D03*
X144981100Y-110256600D03*
X144481100Y-110256600D03*
G04 #@! TD*
D23*
G04 #@! TO.C,C1*
X140881100Y-103772600D03*
X140881100Y-105472600D03*
G04 #@! TD*
G04 #@! TO.C,C2*
X140754100Y-108090600D03*
X140754100Y-109790600D03*
G04 #@! TD*
G04 #@! TO.C,C4*
X139484100Y-108090600D03*
X139484100Y-109790600D03*
G04 #@! TD*
D42*
G04 #@! TO.C,X2*
X139681100Y-111607600D03*
X142081100Y-111607600D03*
G04 #@! TD*
D22*
G04 #@! TO.C,C5*
X152057100Y-97957600D03*
X152057100Y-99857600D03*
G04 #@! TD*
D23*
G04 #@! TO.C,R1*
X138722100Y-99454600D03*
X138722100Y-101154600D03*
G04 #@! TD*
D22*
G04 #@! TO.C,C9*
X172631100Y-108620600D03*
X172631100Y-106720600D03*
G04 #@! TD*
D36*
G04 #@! TO.C,JP2*
X172631100Y-111353600D03*
G04 #@! TD*
D43*
G04 #@! TO.C,U4*
X154117100Y-112003600D03*
X154117100Y-110003600D03*
X154117100Y-108003600D03*
X154117100Y-106003600D03*
X154117100Y-104003600D03*
X154117100Y-102003600D03*
X154117100Y-100003600D03*
X154117100Y-98003600D03*
X170317100Y-98003600D03*
X170317100Y-100003600D03*
X170317100Y-102003600D03*
X170317100Y-104003600D03*
X170317100Y-106003600D03*
X170317100Y-108003600D03*
X170317100Y-110003600D03*
X170317100Y-112003600D03*
G04 #@! TD*
D36*
G04 #@! TO.C,JP5*
X172631100Y-98653600D03*
X172631100Y-101193600D03*
X172631100Y-103733600D03*
G04 #@! TD*
M02*
