G04 #@! TF.GenerationSoftware,KiCad,Pcbnew,5.0.2-bee76a0~70~ubuntu18.04.1*
G04 #@! TF.CreationDate,2019-01-06T18:04:21-06:00*
G04 #@! TF.ProjectId,Adafruit Feather M0 RFMxx,41646166-7275-4697-9420-466561746865,rev?*
G04 #@! TF.SameCoordinates,Original*
G04 #@! TF.FileFunction,Soldermask,Top*
G04 #@! TF.FilePolarity,Negative*
%FSLAX46Y46*%
G04 Gerber Fmt 4.6, Leading zero omitted, Abs format (unit mm)*
G04 Created by KiCad (PCBNEW 5.0.2-bee76a0~70~ubuntu18.04.1) date Sun 06 Jan 2019 06:04:21 PM CST*
%MOMM*%
%LPD*%
G01*
G04 APERTURE LIST*
%ADD10C,0.500000*%
%ADD11C,0.100000*%
G04 APERTURE END LIST*
D10*
G04 #@! TO.C,U$34*
X133896100Y-95617600D02*
G75*
G03X133146100Y-96367600I0J-750000D01*
G01*
X133146100Y-96367600D02*
G75*
G03X133896100Y-97117600I750000J0D01*
G01*
X133896100Y-97117600D02*
G75*
G03X134646100Y-96367600I0J750000D01*
G01*
X134646100Y-96367600D02*
G75*
G03X133896100Y-95617600I-750000J0D01*
G01*
G04 #@! TO.C,U$35*
X169503300Y-114914600D02*
G75*
G03X168753300Y-115664600I0J-750000D01*
G01*
X168753300Y-115664600D02*
G75*
G03X169503300Y-116414600I750000J0D01*
G01*
X169503300Y-116414600D02*
G75*
G03X170253300Y-115664600I0J750000D01*
G01*
X170253300Y-115664600D02*
G75*
G03X169503300Y-114914600I-750000J0D01*
G01*
D11*
G04 #@! TO.C,X3*
G36*
X127596100Y-106053600D02*
X127596100Y-106553600D01*
X129046100Y-106553600D01*
X129046100Y-106053600D01*
X127596100Y-106053600D01*
G37*
G36*
X127596100Y-105403600D02*
X127596100Y-105903600D01*
X129046100Y-105903600D01*
X129046100Y-105403600D01*
X127596100Y-105403600D01*
G37*
G36*
X127596100Y-104753600D02*
X127596100Y-105253600D01*
X129046100Y-105253600D01*
X129046100Y-104753600D01*
X127596100Y-104753600D01*
G37*
G36*
X127596100Y-104103600D02*
X127596100Y-104603600D01*
X129046100Y-104603600D01*
X129046100Y-104103600D01*
X127596100Y-104103600D01*
G37*
G36*
X127596100Y-103453600D02*
X127596100Y-103953600D01*
X129046100Y-103953600D01*
X129046100Y-103453600D01*
X127596100Y-103453600D01*
G37*
G36*
X169610757Y-115124382D02*
X169714083Y-115155726D01*
X169809309Y-115206626D01*
X169892775Y-115275125D01*
X169961274Y-115358591D01*
X170012174Y-115453817D01*
X170043518Y-115557143D01*
X170054101Y-115664599D01*
X170054101Y-115664601D01*
X170043518Y-115772057D01*
X170012174Y-115875383D01*
X169961274Y-115970609D01*
X169892775Y-116054075D01*
X169809309Y-116122574D01*
X169714083Y-116173474D01*
X169610757Y-116204818D01*
X169503301Y-116215401D01*
X169503299Y-116215401D01*
X169395843Y-116204818D01*
X169292517Y-116173474D01*
X169197291Y-116122574D01*
X169113825Y-116054075D01*
X169045326Y-115970609D01*
X168994426Y-115875383D01*
X168963082Y-115772057D01*
X168952499Y-115664601D01*
X168952499Y-115664599D01*
X168963082Y-115557143D01*
X168994426Y-115453817D01*
X169045326Y-115358591D01*
X169113825Y-115275125D01*
X169197291Y-115206626D01*
X169292517Y-115155726D01*
X169395843Y-115124382D01*
X169503299Y-115113799D01*
X169503301Y-115113799D01*
X169610757Y-115124382D01*
X169610757Y-115124382D01*
G37*
G36*
X147490412Y-114308764D02*
X147652198Y-114375778D01*
X147797807Y-114473071D01*
X147921629Y-114596893D01*
X148018922Y-114742502D01*
X148085936Y-114904288D01*
X148120100Y-115076041D01*
X148120100Y-115251159D01*
X148085936Y-115422912D01*
X148018922Y-115584698D01*
X147921629Y-115730307D01*
X147797807Y-115854129D01*
X147652198Y-115951422D01*
X147490412Y-116018436D01*
X147318659Y-116052600D01*
X147143541Y-116052600D01*
X146971788Y-116018436D01*
X146810002Y-115951422D01*
X146664393Y-115854129D01*
X146540571Y-115730307D01*
X146443278Y-115584698D01*
X146376264Y-115422912D01*
X146342100Y-115251159D01*
X146342100Y-115076041D01*
X146376264Y-114904288D01*
X146443278Y-114742502D01*
X146540571Y-114596893D01*
X146664393Y-114473071D01*
X146810002Y-114375778D01*
X146971788Y-114308764D01*
X147143541Y-114274600D01*
X147318659Y-114274600D01*
X147490412Y-114308764D01*
X147490412Y-114308764D01*
G37*
G36*
X165270412Y-114308764D02*
X165432198Y-114375778D01*
X165577807Y-114473071D01*
X165701629Y-114596893D01*
X165798922Y-114742502D01*
X165865936Y-114904288D01*
X165900100Y-115076041D01*
X165900100Y-115251159D01*
X165865936Y-115422912D01*
X165798922Y-115584698D01*
X165701629Y-115730307D01*
X165577807Y-115854129D01*
X165432198Y-115951422D01*
X165270412Y-116018436D01*
X165098659Y-116052600D01*
X164923541Y-116052600D01*
X164751788Y-116018436D01*
X164590002Y-115951422D01*
X164444393Y-115854129D01*
X164320571Y-115730307D01*
X164223278Y-115584698D01*
X164156264Y-115422912D01*
X164122100Y-115251159D01*
X164122100Y-115076041D01*
X164156264Y-114904288D01*
X164223278Y-114742502D01*
X164320571Y-114596893D01*
X164444393Y-114473071D01*
X164590002Y-114375778D01*
X164751788Y-114308764D01*
X164923541Y-114274600D01*
X165098659Y-114274600D01*
X165270412Y-114308764D01*
X165270412Y-114308764D01*
G37*
G36*
X162730412Y-114308764D02*
X162892198Y-114375778D01*
X163037807Y-114473071D01*
X163161629Y-114596893D01*
X163258922Y-114742502D01*
X163325936Y-114904288D01*
X163360100Y-115076041D01*
X163360100Y-115251159D01*
X163325936Y-115422912D01*
X163258922Y-115584698D01*
X163161629Y-115730307D01*
X163037807Y-115854129D01*
X162892198Y-115951422D01*
X162730412Y-116018436D01*
X162558659Y-116052600D01*
X162383541Y-116052600D01*
X162211788Y-116018436D01*
X162050002Y-115951422D01*
X161904393Y-115854129D01*
X161780571Y-115730307D01*
X161683278Y-115584698D01*
X161616264Y-115422912D01*
X161582100Y-115251159D01*
X161582100Y-115076041D01*
X161616264Y-114904288D01*
X161683278Y-114742502D01*
X161780571Y-114596893D01*
X161904393Y-114473071D01*
X162050002Y-114375778D01*
X162211788Y-114308764D01*
X162383541Y-114274600D01*
X162558659Y-114274600D01*
X162730412Y-114308764D01*
X162730412Y-114308764D01*
G37*
G36*
X160190412Y-114308764D02*
X160352198Y-114375778D01*
X160497807Y-114473071D01*
X160621629Y-114596893D01*
X160718922Y-114742502D01*
X160785936Y-114904288D01*
X160820100Y-115076041D01*
X160820100Y-115251159D01*
X160785936Y-115422912D01*
X160718922Y-115584698D01*
X160621629Y-115730307D01*
X160497807Y-115854129D01*
X160352198Y-115951422D01*
X160190412Y-116018436D01*
X160018659Y-116052600D01*
X159843541Y-116052600D01*
X159671788Y-116018436D01*
X159510002Y-115951422D01*
X159364393Y-115854129D01*
X159240571Y-115730307D01*
X159143278Y-115584698D01*
X159076264Y-115422912D01*
X159042100Y-115251159D01*
X159042100Y-115076041D01*
X159076264Y-114904288D01*
X159143278Y-114742502D01*
X159240571Y-114596893D01*
X159364393Y-114473071D01*
X159510002Y-114375778D01*
X159671788Y-114308764D01*
X159843541Y-114274600D01*
X160018659Y-114274600D01*
X160190412Y-114308764D01*
X160190412Y-114308764D01*
G37*
G36*
X157650412Y-114308764D02*
X157812198Y-114375778D01*
X157957807Y-114473071D01*
X158081629Y-114596893D01*
X158178922Y-114742502D01*
X158245936Y-114904288D01*
X158280100Y-115076041D01*
X158280100Y-115251159D01*
X158245936Y-115422912D01*
X158178922Y-115584698D01*
X158081629Y-115730307D01*
X157957807Y-115854129D01*
X157812198Y-115951422D01*
X157650412Y-116018436D01*
X157478659Y-116052600D01*
X157303541Y-116052600D01*
X157131788Y-116018436D01*
X156970002Y-115951422D01*
X156824393Y-115854129D01*
X156700571Y-115730307D01*
X156603278Y-115584698D01*
X156536264Y-115422912D01*
X156502100Y-115251159D01*
X156502100Y-115076041D01*
X156536264Y-114904288D01*
X156603278Y-114742502D01*
X156700571Y-114596893D01*
X156824393Y-114473071D01*
X156970002Y-114375778D01*
X157131788Y-114308764D01*
X157303541Y-114274600D01*
X157478659Y-114274600D01*
X157650412Y-114308764D01*
X157650412Y-114308764D01*
G37*
G36*
X155110412Y-114308764D02*
X155272198Y-114375778D01*
X155417807Y-114473071D01*
X155541629Y-114596893D01*
X155638922Y-114742502D01*
X155705936Y-114904288D01*
X155740100Y-115076041D01*
X155740100Y-115251159D01*
X155705936Y-115422912D01*
X155638922Y-115584698D01*
X155541629Y-115730307D01*
X155417807Y-115854129D01*
X155272198Y-115951422D01*
X155110412Y-116018436D01*
X154938659Y-116052600D01*
X154763541Y-116052600D01*
X154591788Y-116018436D01*
X154430002Y-115951422D01*
X154284393Y-115854129D01*
X154160571Y-115730307D01*
X154063278Y-115584698D01*
X153996264Y-115422912D01*
X153962100Y-115251159D01*
X153962100Y-115076041D01*
X153996264Y-114904288D01*
X154063278Y-114742502D01*
X154160571Y-114596893D01*
X154284393Y-114473071D01*
X154430002Y-114375778D01*
X154591788Y-114308764D01*
X154763541Y-114274600D01*
X154938659Y-114274600D01*
X155110412Y-114308764D01*
X155110412Y-114308764D01*
G37*
G36*
X152570412Y-114308764D02*
X152732198Y-114375778D01*
X152877807Y-114473071D01*
X153001629Y-114596893D01*
X153098922Y-114742502D01*
X153165936Y-114904288D01*
X153200100Y-115076041D01*
X153200100Y-115251159D01*
X153165936Y-115422912D01*
X153098922Y-115584698D01*
X153001629Y-115730307D01*
X152877807Y-115854129D01*
X152732198Y-115951422D01*
X152570412Y-116018436D01*
X152398659Y-116052600D01*
X152223541Y-116052600D01*
X152051788Y-116018436D01*
X151890002Y-115951422D01*
X151744393Y-115854129D01*
X151620571Y-115730307D01*
X151523278Y-115584698D01*
X151456264Y-115422912D01*
X151422100Y-115251159D01*
X151422100Y-115076041D01*
X151456264Y-114904288D01*
X151523278Y-114742502D01*
X151620571Y-114596893D01*
X151744393Y-114473071D01*
X151890002Y-114375778D01*
X152051788Y-114308764D01*
X152223541Y-114274600D01*
X152398659Y-114274600D01*
X152570412Y-114308764D01*
X152570412Y-114308764D01*
G37*
G36*
X150030412Y-114308764D02*
X150192198Y-114375778D01*
X150337807Y-114473071D01*
X150461629Y-114596893D01*
X150558922Y-114742502D01*
X150625936Y-114904288D01*
X150660100Y-115076041D01*
X150660100Y-115251159D01*
X150625936Y-115422912D01*
X150558922Y-115584698D01*
X150461629Y-115730307D01*
X150337807Y-115854129D01*
X150192198Y-115951422D01*
X150030412Y-116018436D01*
X149858659Y-116052600D01*
X149683541Y-116052600D01*
X149511788Y-116018436D01*
X149350002Y-115951422D01*
X149204393Y-115854129D01*
X149080571Y-115730307D01*
X148983278Y-115584698D01*
X148916264Y-115422912D01*
X148882100Y-115251159D01*
X148882100Y-115076041D01*
X148916264Y-114904288D01*
X148983278Y-114742502D01*
X149080571Y-114596893D01*
X149204393Y-114473071D01*
X149350002Y-114375778D01*
X149511788Y-114308764D01*
X149683541Y-114274600D01*
X149858659Y-114274600D01*
X150030412Y-114308764D01*
X150030412Y-114308764D01*
G37*
G36*
X144950412Y-114308764D02*
X145112198Y-114375778D01*
X145257807Y-114473071D01*
X145381629Y-114596893D01*
X145478922Y-114742502D01*
X145545936Y-114904288D01*
X145580100Y-115076041D01*
X145580100Y-115251159D01*
X145545936Y-115422912D01*
X145478922Y-115584698D01*
X145381629Y-115730307D01*
X145257807Y-115854129D01*
X145112198Y-115951422D01*
X144950412Y-116018436D01*
X144778659Y-116052600D01*
X144603541Y-116052600D01*
X144431788Y-116018436D01*
X144270002Y-115951422D01*
X144124393Y-115854129D01*
X144000571Y-115730307D01*
X143903278Y-115584698D01*
X143836264Y-115422912D01*
X143802100Y-115251159D01*
X143802100Y-115076041D01*
X143836264Y-114904288D01*
X143903278Y-114742502D01*
X144000571Y-114596893D01*
X144124393Y-114473071D01*
X144270002Y-114375778D01*
X144431788Y-114308764D01*
X144603541Y-114274600D01*
X144778659Y-114274600D01*
X144950412Y-114308764D01*
X144950412Y-114308764D01*
G37*
G36*
X142410412Y-114308764D02*
X142572198Y-114375778D01*
X142717807Y-114473071D01*
X142841629Y-114596893D01*
X142938922Y-114742502D01*
X143005936Y-114904288D01*
X143040100Y-115076041D01*
X143040100Y-115251159D01*
X143005936Y-115422912D01*
X142938922Y-115584698D01*
X142841629Y-115730307D01*
X142717807Y-115854129D01*
X142572198Y-115951422D01*
X142410412Y-116018436D01*
X142238659Y-116052600D01*
X142063541Y-116052600D01*
X141891788Y-116018436D01*
X141730002Y-115951422D01*
X141584393Y-115854129D01*
X141460571Y-115730307D01*
X141363278Y-115584698D01*
X141296264Y-115422912D01*
X141262100Y-115251159D01*
X141262100Y-115076041D01*
X141296264Y-114904288D01*
X141363278Y-114742502D01*
X141460571Y-114596893D01*
X141584393Y-114473071D01*
X141730002Y-114375778D01*
X141891788Y-114308764D01*
X142063541Y-114274600D01*
X142238659Y-114274600D01*
X142410412Y-114308764D01*
X142410412Y-114308764D01*
G37*
G36*
X139870412Y-114308764D02*
X140032198Y-114375778D01*
X140177807Y-114473071D01*
X140301629Y-114596893D01*
X140398922Y-114742502D01*
X140465936Y-114904288D01*
X140500100Y-115076041D01*
X140500100Y-115251159D01*
X140465936Y-115422912D01*
X140398922Y-115584698D01*
X140301629Y-115730307D01*
X140177807Y-115854129D01*
X140032198Y-115951422D01*
X139870412Y-116018436D01*
X139698659Y-116052600D01*
X139523541Y-116052600D01*
X139351788Y-116018436D01*
X139190002Y-115951422D01*
X139044393Y-115854129D01*
X138920571Y-115730307D01*
X138823278Y-115584698D01*
X138756264Y-115422912D01*
X138722100Y-115251159D01*
X138722100Y-115076041D01*
X138756264Y-114904288D01*
X138823278Y-114742502D01*
X138920571Y-114596893D01*
X139044393Y-114473071D01*
X139190002Y-114375778D01*
X139351788Y-114308764D01*
X139523541Y-114274600D01*
X139698659Y-114274600D01*
X139870412Y-114308764D01*
X139870412Y-114308764D01*
G37*
G36*
X137330412Y-114308764D02*
X137492198Y-114375778D01*
X137637807Y-114473071D01*
X137761629Y-114596893D01*
X137858922Y-114742502D01*
X137925936Y-114904288D01*
X137960100Y-115076041D01*
X137960100Y-115251159D01*
X137925936Y-115422912D01*
X137858922Y-115584698D01*
X137761629Y-115730307D01*
X137637807Y-115854129D01*
X137492198Y-115951422D01*
X137330412Y-116018436D01*
X137158659Y-116052600D01*
X136983541Y-116052600D01*
X136811788Y-116018436D01*
X136650002Y-115951422D01*
X136504393Y-115854129D01*
X136380571Y-115730307D01*
X136283278Y-115584698D01*
X136216264Y-115422912D01*
X136182100Y-115251159D01*
X136182100Y-115076041D01*
X136216264Y-114904288D01*
X136283278Y-114742502D01*
X136380571Y-114596893D01*
X136504393Y-114473071D01*
X136650002Y-114375778D01*
X136811788Y-114308764D01*
X136983541Y-114274600D01*
X137158659Y-114274600D01*
X137330412Y-114308764D01*
X137330412Y-114308764D01*
G37*
G36*
X134790412Y-114308764D02*
X134952198Y-114375778D01*
X135097807Y-114473071D01*
X135221629Y-114596893D01*
X135318922Y-114742502D01*
X135385936Y-114904288D01*
X135420100Y-115076041D01*
X135420100Y-115251159D01*
X135385936Y-115422912D01*
X135318922Y-115584698D01*
X135221629Y-115730307D01*
X135097807Y-115854129D01*
X134952198Y-115951422D01*
X134790412Y-116018436D01*
X134618659Y-116052600D01*
X134443541Y-116052600D01*
X134271788Y-116018436D01*
X134110002Y-115951422D01*
X133964393Y-115854129D01*
X133840571Y-115730307D01*
X133743278Y-115584698D01*
X133676264Y-115422912D01*
X133642100Y-115251159D01*
X133642100Y-115076041D01*
X133676264Y-114904288D01*
X133743278Y-114742502D01*
X133840571Y-114596893D01*
X133964393Y-114473071D01*
X134110002Y-114375778D01*
X134271788Y-114308764D01*
X134443541Y-114274600D01*
X134618659Y-114274600D01*
X134790412Y-114308764D01*
X134790412Y-114308764D01*
G37*
G36*
X132250412Y-114308764D02*
X132412198Y-114375778D01*
X132557807Y-114473071D01*
X132681629Y-114596893D01*
X132778922Y-114742502D01*
X132845936Y-114904288D01*
X132880100Y-115076041D01*
X132880100Y-115251159D01*
X132845936Y-115422912D01*
X132778922Y-115584698D01*
X132681629Y-115730307D01*
X132557807Y-115854129D01*
X132412198Y-115951422D01*
X132250412Y-116018436D01*
X132078659Y-116052600D01*
X131903541Y-116052600D01*
X131731788Y-116018436D01*
X131570002Y-115951422D01*
X131424393Y-115854129D01*
X131300571Y-115730307D01*
X131203278Y-115584698D01*
X131136264Y-115422912D01*
X131102100Y-115251159D01*
X131102100Y-115076041D01*
X131136264Y-114904288D01*
X131203278Y-114742502D01*
X131300571Y-114596893D01*
X131424393Y-114473071D01*
X131570002Y-114375778D01*
X131731788Y-114308764D01*
X131903541Y-114274600D01*
X132078659Y-114274600D01*
X132250412Y-114308764D01*
X132250412Y-114308764D01*
G37*
G36*
X129710412Y-114308764D02*
X129872198Y-114375778D01*
X130017807Y-114473071D01*
X130141629Y-114596893D01*
X130238922Y-114742502D01*
X130305936Y-114904288D01*
X130340100Y-115076041D01*
X130340100Y-115251159D01*
X130305936Y-115422912D01*
X130238922Y-115584698D01*
X130141629Y-115730307D01*
X130017807Y-115854129D01*
X129872198Y-115951422D01*
X129710412Y-116018436D01*
X129538659Y-116052600D01*
X129363541Y-116052600D01*
X129191788Y-116018436D01*
X129030002Y-115951422D01*
X128884393Y-115854129D01*
X128760571Y-115730307D01*
X128663278Y-115584698D01*
X128596264Y-115422912D01*
X128562100Y-115251159D01*
X128562100Y-115076041D01*
X128596264Y-114904288D01*
X128663278Y-114742502D01*
X128760571Y-114596893D01*
X128884393Y-114473071D01*
X129030002Y-114375778D01*
X129191788Y-114308764D01*
X129363541Y-114274600D01*
X129538659Y-114274600D01*
X129710412Y-114308764D01*
X129710412Y-114308764D01*
G37*
G36*
X167810412Y-114308764D02*
X167972198Y-114375778D01*
X168117807Y-114473071D01*
X168241629Y-114596893D01*
X168338922Y-114742502D01*
X168405936Y-114904288D01*
X168440100Y-115076041D01*
X168440100Y-115251159D01*
X168405936Y-115422912D01*
X168338922Y-115584698D01*
X168241629Y-115730307D01*
X168117807Y-115854129D01*
X167972198Y-115951422D01*
X167810412Y-116018436D01*
X167638659Y-116052600D01*
X167463541Y-116052600D01*
X167291788Y-116018436D01*
X167130002Y-115951422D01*
X166984393Y-115854129D01*
X166860571Y-115730307D01*
X166763278Y-115584698D01*
X166696264Y-115422912D01*
X166662100Y-115251159D01*
X166662100Y-115076041D01*
X166696264Y-114904288D01*
X166763278Y-114742502D01*
X166860571Y-114596893D01*
X166984393Y-114473071D01*
X167130002Y-114375778D01*
X167291788Y-114308764D01*
X167463541Y-114274600D01*
X167638659Y-114274600D01*
X167810412Y-114308764D01*
X167810412Y-114308764D01*
G37*
G36*
X125883423Y-112258660D02*
X126122621Y-112306239D01*
X126423047Y-112430680D01*
X126693424Y-112611340D01*
X126923360Y-112841276D01*
X127104020Y-113111653D01*
X127228461Y-113412079D01*
X127291900Y-113731010D01*
X127291900Y-114056190D01*
X127228461Y-114375121D01*
X127104020Y-114675547D01*
X126923360Y-114945924D01*
X126693424Y-115175860D01*
X126423047Y-115356520D01*
X126122621Y-115480961D01*
X125883423Y-115528540D01*
X125803691Y-115544400D01*
X125478509Y-115544400D01*
X125398777Y-115528540D01*
X125159579Y-115480961D01*
X124859153Y-115356520D01*
X124588776Y-115175860D01*
X124358840Y-114945924D01*
X124178180Y-114675547D01*
X124053739Y-114375121D01*
X123990300Y-114056190D01*
X123990300Y-113731010D01*
X124053739Y-113412079D01*
X124178180Y-113111653D01*
X124358840Y-112841276D01*
X124588776Y-112611340D01*
X124859153Y-112430680D01*
X125159579Y-112306239D01*
X125398777Y-112258660D01*
X125478509Y-112242800D01*
X125803691Y-112242800D01*
X125883423Y-112258660D01*
X125883423Y-112258660D01*
G37*
G36*
X135049900Y-111413207D02*
X135052302Y-111437593D01*
X135059415Y-111461042D01*
X135070966Y-111482653D01*
X135086512Y-111501595D01*
X135105454Y-111517141D01*
X135127065Y-111528692D01*
X135150514Y-111535805D01*
X135174900Y-111538207D01*
X135319520Y-111538207D01*
X135326254Y-111543734D01*
X135347865Y-111555285D01*
X135371314Y-111562398D01*
X135395700Y-111564800D01*
X136694900Y-111564800D01*
X136694900Y-112666400D01*
X135444480Y-112666400D01*
X135437746Y-112660873D01*
X135416135Y-112649322D01*
X135392686Y-112642209D01*
X135368300Y-112639807D01*
X134069100Y-112639807D01*
X134069100Y-111432400D01*
X134066698Y-111408014D01*
X134059585Y-111384565D01*
X134048034Y-111362954D01*
X134032488Y-111344012D01*
X134013546Y-111328466D01*
X133991935Y-111316915D01*
X133968486Y-111309802D01*
X133948300Y-111307814D01*
X133948300Y-110205800D01*
X135049900Y-110205800D01*
X135049900Y-111413207D01*
X135049900Y-111413207D01*
G37*
G36*
X128947900Y-112666400D02*
X127746300Y-112666400D01*
X127746300Y-111564800D01*
X128947900Y-111564800D01*
X128947900Y-112666400D01*
X128947900Y-112666400D01*
G37*
G36*
X130647900Y-112666400D02*
X129446300Y-112666400D01*
X129446300Y-111564800D01*
X130647900Y-111564800D01*
X130647900Y-112666400D01*
X130647900Y-112666400D01*
G37*
G36*
X138394900Y-112666400D02*
X137193300Y-112666400D01*
X137193300Y-111564800D01*
X138394900Y-111564800D01*
X138394900Y-112666400D01*
X138394900Y-112666400D01*
G37*
G36*
X133570700Y-112639807D02*
X132369100Y-112639807D01*
X132369100Y-111538207D01*
X133570700Y-111538207D01*
X133570700Y-112639807D01*
X133570700Y-112639807D01*
G37*
G36*
X142681900Y-112608400D02*
X141480300Y-112608400D01*
X141480300Y-110606800D01*
X142681900Y-110606800D01*
X142681900Y-112608400D01*
X142681900Y-112608400D01*
G37*
G36*
X141304900Y-110391400D02*
X140406900Y-110391400D01*
X140382514Y-110393802D01*
X140359065Y-110400915D01*
X140337454Y-110412466D01*
X140318512Y-110428012D01*
X140302966Y-110446954D01*
X140291415Y-110468565D01*
X140284302Y-110492014D01*
X140281900Y-110516400D01*
X140281900Y-112608400D01*
X139080300Y-112608400D01*
X139080300Y-110516400D01*
X139077898Y-110492014D01*
X139070785Y-110468565D01*
X139059234Y-110446954D01*
X139043688Y-110428012D01*
X139024746Y-110412466D01*
X139003135Y-110400915D01*
X138979686Y-110393802D01*
X138955300Y-110391400D01*
X138933300Y-110391400D01*
X138933300Y-109189800D01*
X141304900Y-109189800D01*
X141304900Y-110391400D01*
X141304900Y-110391400D01*
G37*
G36*
X154917900Y-112554400D02*
X153316300Y-112554400D01*
X153316300Y-111452800D01*
X154917900Y-111452800D01*
X154917900Y-112554400D01*
X154917900Y-112554400D01*
G37*
G36*
X171117900Y-112554400D02*
X169516300Y-112554400D01*
X169516300Y-111452800D01*
X171117900Y-111452800D01*
X171117900Y-112554400D01*
X171117900Y-112554400D01*
G37*
G36*
X172890412Y-110498764D02*
X173052198Y-110565778D01*
X173197807Y-110663071D01*
X173321629Y-110786893D01*
X173418922Y-110932502D01*
X173485936Y-111094288D01*
X173520100Y-111266041D01*
X173520100Y-111441159D01*
X173485936Y-111612912D01*
X173418922Y-111774698D01*
X173321629Y-111920307D01*
X173197807Y-112044129D01*
X173052198Y-112141422D01*
X172890412Y-112208436D01*
X172718659Y-112242600D01*
X172543541Y-112242600D01*
X172371788Y-112208436D01*
X172210002Y-112141422D01*
X172064393Y-112044129D01*
X171940571Y-111920307D01*
X171843278Y-111774698D01*
X171776264Y-111612912D01*
X171742100Y-111441159D01*
X171742100Y-111266041D01*
X171776264Y-111094288D01*
X171843278Y-110932502D01*
X171940571Y-110786893D01*
X172064393Y-110663071D01*
X172210002Y-110565778D01*
X172371788Y-110498764D01*
X172543541Y-110464600D01*
X172718659Y-110464600D01*
X172890412Y-110498764D01*
X172890412Y-110498764D01*
G37*
G36*
X127214900Y-111496400D02*
X125913300Y-111496400D01*
X125913300Y-110194800D01*
X127214900Y-110194800D01*
X127214900Y-111496400D01*
X127214900Y-111496400D01*
G37*
G36*
X125114900Y-111496400D02*
X123813300Y-111496400D01*
X123813300Y-110194800D01*
X125114900Y-110194800D01*
X125114900Y-111496400D01*
X125114900Y-111496400D01*
G37*
G36*
X131049900Y-111307400D02*
X129948300Y-111307400D01*
X129948300Y-110205800D01*
X131049900Y-110205800D01*
X131049900Y-111307400D01*
X131049900Y-111307400D01*
G37*
G36*
X150156900Y-109832400D02*
X150156900Y-110682400D01*
X144305300Y-110682400D01*
X144305300Y-109832400D01*
X144305125Y-109830625D01*
X144306900Y-109830800D01*
X150155300Y-109830800D01*
X150157075Y-109830625D01*
X150156900Y-109832400D01*
X150156900Y-109832400D01*
G37*
G36*
X138219900Y-110637500D02*
X137568300Y-110637500D01*
X137568300Y-109335900D01*
X138219900Y-109335900D01*
X138219900Y-110637500D01*
X138219900Y-110637500D01*
G37*
G36*
X136319900Y-110637500D02*
X135668300Y-110637500D01*
X135668300Y-109335900D01*
X136319900Y-109335900D01*
X136319900Y-110637500D01*
X136319900Y-110637500D01*
G37*
G36*
X171117900Y-110554400D02*
X169516300Y-110554400D01*
X169516300Y-109452800D01*
X171117900Y-109452800D01*
X171117900Y-110554400D01*
X171117900Y-110554400D01*
G37*
G36*
X154917900Y-110554400D02*
X153316300Y-110554400D01*
X153316300Y-109452800D01*
X154917900Y-109452800D01*
X154917900Y-110554400D01*
X154917900Y-110554400D01*
G37*
G36*
X126946900Y-109904400D02*
X124345300Y-109904400D01*
X124345300Y-107302800D01*
X126946900Y-107302800D01*
X126946900Y-109904400D01*
X126946900Y-109904400D01*
G37*
G36*
X144181900Y-103857400D02*
X144181900Y-109705800D01*
X144182075Y-109707575D01*
X144180300Y-109707400D01*
X143330300Y-109707400D01*
X143330300Y-103855800D01*
X144180300Y-103855800D01*
X144182075Y-103855625D01*
X144181900Y-103857400D01*
X144181900Y-103857400D01*
G37*
G36*
X150281900Y-103855800D02*
X151131900Y-103855800D01*
X151131900Y-109707400D01*
X150281900Y-109707400D01*
X150280125Y-109707575D01*
X150280300Y-109705800D01*
X150280300Y-103857400D01*
X150280125Y-103855625D01*
X150281900Y-103855800D01*
X150281900Y-103855800D01*
G37*
G36*
X135049900Y-109707400D02*
X133948300Y-109707400D01*
X133948300Y-108605800D01*
X135049900Y-108605800D01*
X135049900Y-109707400D01*
X135049900Y-109707400D01*
G37*
G36*
X131049900Y-109707400D02*
X129948300Y-109707400D01*
X129948300Y-108605800D01*
X131049900Y-108605800D01*
X131049900Y-109707400D01*
X131049900Y-109707400D01*
G37*
G36*
X173431900Y-109291400D02*
X171830300Y-109291400D01*
X171830300Y-107949800D01*
X173431900Y-107949800D01*
X173431900Y-109291400D01*
X173431900Y-109291400D01*
G37*
G36*
X149631900Y-109182400D02*
X144830300Y-109182400D01*
X144830300Y-104380800D01*
X149631900Y-104380800D01*
X149631900Y-109182400D01*
X149631900Y-109182400D01*
G37*
G36*
X128635929Y-107677809D02*
X128635932Y-107677810D01*
X128635931Y-107677810D01*
X128754369Y-107726868D01*
X128754370Y-107726869D01*
X128860964Y-107798093D01*
X128951607Y-107888736D01*
X128951609Y-107888739D01*
X129022832Y-107995331D01*
X129040216Y-108037300D01*
X129071891Y-108113771D01*
X129096900Y-108239500D01*
X129096900Y-108367700D01*
X129071891Y-108493429D01*
X129071890Y-108493431D01*
X129022832Y-108611869D01*
X129022831Y-108611870D01*
X128951607Y-108718464D01*
X128860964Y-108809107D01*
X128860961Y-108809109D01*
X128754369Y-108880332D01*
X128662762Y-108918276D01*
X128635929Y-108929391D01*
X128510200Y-108954400D01*
X128382000Y-108954400D01*
X128256271Y-108929391D01*
X128229438Y-108918276D01*
X128137831Y-108880332D01*
X128031239Y-108809109D01*
X128031236Y-108809107D01*
X127940593Y-108718464D01*
X127869369Y-108611870D01*
X127869368Y-108611869D01*
X127820310Y-108493431D01*
X127820309Y-108493429D01*
X127795300Y-108367700D01*
X127795300Y-108239500D01*
X127820309Y-108113771D01*
X127851984Y-108037300D01*
X127869368Y-107995331D01*
X127940591Y-107888739D01*
X127940593Y-107888736D01*
X128031236Y-107798093D01*
X128137830Y-107726869D01*
X128137831Y-107726868D01*
X128256269Y-107677810D01*
X128256268Y-107677810D01*
X128256271Y-107677809D01*
X128382000Y-107652800D01*
X128510200Y-107652800D01*
X128635929Y-107677809D01*
X128635929Y-107677809D01*
G37*
G36*
X141304900Y-108691400D02*
X138933300Y-108691400D01*
X138933300Y-107489800D01*
X141304900Y-107489800D01*
X141304900Y-108691400D01*
X141304900Y-108691400D01*
G37*
G36*
X171117900Y-108554400D02*
X169516300Y-108554400D01*
X169516300Y-107452800D01*
X171117900Y-107452800D01*
X171117900Y-108554400D01*
X171117900Y-108554400D01*
G37*
G36*
X154917900Y-108554400D02*
X153316300Y-108554400D01*
X153316300Y-107452800D01*
X154917900Y-107452800D01*
X154917900Y-108554400D01*
X154917900Y-108554400D01*
G37*
G36*
X136319900Y-108037300D02*
X135668300Y-108037300D01*
X135668300Y-106735700D01*
X136319900Y-106735700D01*
X136319900Y-108037300D01*
X136319900Y-108037300D01*
G37*
G36*
X137269900Y-108037300D02*
X136618300Y-108037300D01*
X136618300Y-106735700D01*
X137269900Y-106735700D01*
X137269900Y-108037300D01*
X137269900Y-108037300D01*
G37*
G36*
X138219900Y-108037300D02*
X137568300Y-108037300D01*
X137568300Y-106735700D01*
X138219900Y-106735700D01*
X138219900Y-108037300D01*
X138219900Y-108037300D01*
G37*
G36*
X173431900Y-107391400D02*
X171830300Y-107391400D01*
X171830300Y-106049800D01*
X173431900Y-106049800D01*
X173431900Y-107391400D01*
X173431900Y-107391400D01*
G37*
G36*
X127611419Y-102657737D02*
X127663067Y-102668010D01*
X127736045Y-102698239D01*
X127801725Y-102742125D01*
X127857575Y-102797975D01*
X127857577Y-102797978D01*
X127901461Y-102863655D01*
X127931690Y-102936633D01*
X127941963Y-102988281D01*
X127947100Y-103014104D01*
X127947100Y-103093096D01*
X127943482Y-103111285D01*
X127931690Y-103170567D01*
X127901461Y-103243545D01*
X127891566Y-103258354D01*
X127880015Y-103279965D01*
X127872902Y-103303414D01*
X127870500Y-103327801D01*
X127872902Y-103352187D01*
X127880015Y-103375636D01*
X127891567Y-103397247D01*
X127907112Y-103416189D01*
X127926054Y-103431734D01*
X127947665Y-103443285D01*
X127971114Y-103450398D01*
X127995500Y-103452800D01*
X129046900Y-103452800D01*
X129046900Y-106554400D01*
X127995500Y-106554400D01*
X127971114Y-106556802D01*
X127947665Y-106563915D01*
X127926054Y-106575466D01*
X127907112Y-106591012D01*
X127891566Y-106609954D01*
X127880015Y-106631565D01*
X127872902Y-106655014D01*
X127870500Y-106679400D01*
X127872902Y-106703786D01*
X127880015Y-106727235D01*
X127891566Y-106748846D01*
X127901461Y-106763655D01*
X127931690Y-106836633D01*
X127947100Y-106914105D01*
X127947100Y-106993095D01*
X127931690Y-107070567D01*
X127905903Y-107132822D01*
X127901461Y-107143545D01*
X127857575Y-107209225D01*
X127801725Y-107265075D01*
X127801722Y-107265077D01*
X127736045Y-107308961D01*
X127663067Y-107339190D01*
X127611419Y-107349463D01*
X127585596Y-107354600D01*
X127506604Y-107354600D01*
X127480781Y-107349463D01*
X127429133Y-107339190D01*
X127356155Y-107308961D01*
X127290478Y-107265077D01*
X127290475Y-107265075D01*
X127234625Y-107209225D01*
X127190737Y-107143542D01*
X127187384Y-107135447D01*
X127185981Y-107132822D01*
X127185115Y-107129969D01*
X127160510Y-107070567D01*
X127145100Y-106993095D01*
X127145100Y-106914105D01*
X127160510Y-106836633D01*
X127190739Y-106763655D01*
X127234623Y-106697978D01*
X127234625Y-106697975D01*
X127290475Y-106642125D01*
X127356155Y-106598239D01*
X127373602Y-106591012D01*
X127429133Y-106568010D01*
X127494688Y-106554970D01*
X127518135Y-106547858D01*
X127539746Y-106536307D01*
X127558688Y-106520762D01*
X127574233Y-106501820D01*
X127585785Y-106480209D01*
X127592898Y-106456760D01*
X127595300Y-106432373D01*
X127595300Y-103574827D01*
X127592898Y-103550441D01*
X127585785Y-103526992D01*
X127574234Y-103505381D01*
X127558688Y-103486439D01*
X127539746Y-103470893D01*
X127518135Y-103459342D01*
X127494688Y-103452230D01*
X127429133Y-103439190D01*
X127356155Y-103408961D01*
X127290478Y-103365077D01*
X127290475Y-103365075D01*
X127234625Y-103309225D01*
X127190739Y-103243545D01*
X127160510Y-103170567D01*
X127148718Y-103111285D01*
X127145100Y-103093096D01*
X127145100Y-103014104D01*
X127150237Y-102988281D01*
X127160510Y-102936633D01*
X127185115Y-102877231D01*
X127185981Y-102874378D01*
X127187384Y-102871753D01*
X127190737Y-102863658D01*
X127234625Y-102797975D01*
X127290475Y-102742125D01*
X127356155Y-102698239D01*
X127429133Y-102668010D01*
X127480781Y-102657737D01*
X127506604Y-102652600D01*
X127585596Y-102652600D01*
X127611419Y-102657737D01*
X127611419Y-102657737D01*
G37*
G36*
X135331900Y-106878400D02*
X133730300Y-106878400D01*
X133730300Y-105536800D01*
X135331900Y-105536800D01*
X135331900Y-106878400D01*
X135331900Y-106878400D01*
G37*
G36*
X154917900Y-106554400D02*
X153316300Y-106554400D01*
X153316300Y-105452800D01*
X154917900Y-105452800D01*
X154917900Y-106554400D01*
X154917900Y-106554400D01*
G37*
G36*
X171117900Y-106554400D02*
X169516300Y-106554400D01*
X169516300Y-105452800D01*
X171117900Y-105452800D01*
X171117900Y-106554400D01*
X171117900Y-106554400D01*
G37*
G36*
X137759900Y-106430400D02*
X136158300Y-106430400D01*
X136158300Y-105088800D01*
X137759900Y-105088800D01*
X137759900Y-106430400D01*
X137759900Y-106430400D01*
G37*
G36*
X126596900Y-106304400D02*
X124495300Y-106304400D01*
X124495300Y-105202800D01*
X126596900Y-105202800D01*
X126596900Y-106304400D01*
X126596900Y-106304400D01*
G37*
G36*
X141431900Y-106073400D02*
X140330300Y-106073400D01*
X140330300Y-104871800D01*
X141431900Y-104871800D01*
X141431900Y-106073400D01*
X141431900Y-106073400D01*
G37*
G36*
X140051900Y-106022400D02*
X138950300Y-106022400D01*
X138950300Y-104820800D01*
X140051900Y-104820800D01*
X140051900Y-106022400D01*
X140051900Y-106022400D01*
G37*
G36*
X131989900Y-105095400D02*
X130388300Y-105095400D01*
X130388300Y-103753800D01*
X131989900Y-103753800D01*
X131989900Y-105095400D01*
X131989900Y-105095400D01*
G37*
G36*
X135331900Y-104978400D02*
X133730300Y-104978400D01*
X133730300Y-103636800D01*
X135331900Y-103636800D01*
X135331900Y-104978400D01*
X135331900Y-104978400D01*
G37*
G36*
X126596900Y-104804400D02*
X124495300Y-104804400D01*
X124495300Y-103702800D01*
X126596900Y-103702800D01*
X126596900Y-104804400D01*
X126596900Y-104804400D01*
G37*
G36*
X172890412Y-102878764D02*
X173052198Y-102945778D01*
X173197807Y-103043071D01*
X173321629Y-103166893D01*
X173418922Y-103312502D01*
X173485936Y-103474288D01*
X173520100Y-103646041D01*
X173520100Y-103821159D01*
X173485936Y-103992912D01*
X173418922Y-104154698D01*
X173321629Y-104300307D01*
X173197807Y-104424129D01*
X173052198Y-104521422D01*
X172890412Y-104588436D01*
X172718659Y-104622600D01*
X172543541Y-104622600D01*
X172371788Y-104588436D01*
X172210002Y-104521422D01*
X172064393Y-104424129D01*
X171940571Y-104300307D01*
X171843278Y-104154698D01*
X171776264Y-103992912D01*
X171742100Y-103821159D01*
X171742100Y-103646041D01*
X171776264Y-103474288D01*
X171843278Y-103312502D01*
X171940571Y-103166893D01*
X172064393Y-103043071D01*
X172210002Y-102945778D01*
X172371788Y-102878764D01*
X172543541Y-102844600D01*
X172718659Y-102844600D01*
X172890412Y-102878764D01*
X172890412Y-102878764D01*
G37*
G36*
X171117900Y-104554400D02*
X169516300Y-104554400D01*
X169516300Y-103452800D01*
X171117900Y-103452800D01*
X171117900Y-104554400D01*
X171117900Y-104554400D01*
G37*
G36*
X154917900Y-104554400D02*
X153316300Y-104554400D01*
X153316300Y-103452800D01*
X154917900Y-103452800D01*
X154917900Y-104554400D01*
X154917900Y-104554400D01*
G37*
G36*
X137759900Y-104530400D02*
X136158300Y-104530400D01*
X136158300Y-103188800D01*
X137759900Y-103188800D01*
X137759900Y-104530400D01*
X137759900Y-104530400D01*
G37*
G36*
X141431900Y-104373400D02*
X140330300Y-104373400D01*
X140330300Y-103171800D01*
X141431900Y-103171800D01*
X141431900Y-104373400D01*
X141431900Y-104373400D01*
G37*
G36*
X140637900Y-102890500D02*
X140176900Y-102890500D01*
X140152514Y-102892902D01*
X140129065Y-102900015D01*
X140107454Y-102911566D01*
X140088512Y-102927112D01*
X140072966Y-102946054D01*
X140061415Y-102967665D01*
X140054302Y-102991114D01*
X140051900Y-103015500D01*
X140051900Y-104322400D01*
X138950300Y-104322400D01*
X138950300Y-103120800D01*
X139861300Y-103120800D01*
X139885686Y-103118398D01*
X139909135Y-103111285D01*
X139930746Y-103099734D01*
X139949688Y-103084188D01*
X139965234Y-103065246D01*
X139976785Y-103043635D01*
X139983898Y-103020186D01*
X139986300Y-102995800D01*
X139986300Y-101588900D01*
X140637900Y-101588900D01*
X140637900Y-102890500D01*
X140637900Y-102890500D01*
G37*
G36*
X150156900Y-103730800D02*
X150157075Y-103732575D01*
X150155300Y-103732400D01*
X144306900Y-103732400D01*
X144305125Y-103732575D01*
X144305300Y-103730800D01*
X144305300Y-102880800D01*
X150156900Y-102880800D01*
X150156900Y-103730800D01*
X150156900Y-103730800D01*
G37*
G36*
X131989900Y-103195400D02*
X130388300Y-103195400D01*
X130388300Y-101853800D01*
X131989900Y-101853800D01*
X131989900Y-103195400D01*
X131989900Y-103195400D01*
G37*
G36*
X133446900Y-103180400D02*
X132345300Y-103180400D01*
X132345300Y-98478800D01*
X133446900Y-98478800D01*
X133446900Y-103180400D01*
X133446900Y-103180400D01*
G37*
G36*
X135446900Y-103180400D02*
X134345300Y-103180400D01*
X134345300Y-98478800D01*
X135446900Y-98478800D01*
X135446900Y-103180400D01*
X135446900Y-103180400D01*
G37*
G36*
X142537900Y-102890500D02*
X141886300Y-102890500D01*
X141886300Y-101588900D01*
X142537900Y-101588900D01*
X142537900Y-102890500D01*
X142537900Y-102890500D01*
G37*
G36*
X126946900Y-102704400D02*
X124345300Y-102704400D01*
X124345300Y-100102800D01*
X126946900Y-100102800D01*
X126946900Y-102704400D01*
X126946900Y-102704400D01*
G37*
G36*
X171117900Y-102554400D02*
X169516300Y-102554400D01*
X169516300Y-101452800D01*
X171117900Y-101452800D01*
X171117900Y-102554400D01*
X171117900Y-102554400D01*
G37*
G36*
X154917900Y-102554400D02*
X153316300Y-102554400D01*
X153316300Y-101452800D01*
X154917900Y-101452800D01*
X154917900Y-102554400D01*
X154917900Y-102554400D01*
G37*
G36*
X128635929Y-101077809D02*
X128635932Y-101077810D01*
X128635931Y-101077810D01*
X128754369Y-101126868D01*
X128754370Y-101126869D01*
X128860964Y-101198093D01*
X128951607Y-101288736D01*
X128951609Y-101288739D01*
X129022832Y-101395331D01*
X129060776Y-101486938D01*
X129071891Y-101513771D01*
X129096900Y-101639500D01*
X129096900Y-101767700D01*
X129071891Y-101893429D01*
X129071890Y-101893431D01*
X129022832Y-102011869D01*
X128975571Y-102082600D01*
X128951607Y-102118464D01*
X128860964Y-102209107D01*
X128860961Y-102209109D01*
X128754369Y-102280332D01*
X128662762Y-102318276D01*
X128635929Y-102329391D01*
X128510200Y-102354400D01*
X128382000Y-102354400D01*
X128256271Y-102329391D01*
X128229438Y-102318276D01*
X128137831Y-102280332D01*
X128031239Y-102209109D01*
X128031236Y-102209107D01*
X127940593Y-102118464D01*
X127916629Y-102082600D01*
X127869368Y-102011869D01*
X127820310Y-101893431D01*
X127820309Y-101893429D01*
X127795300Y-101767700D01*
X127795300Y-101639500D01*
X127820309Y-101513771D01*
X127831424Y-101486938D01*
X127869368Y-101395331D01*
X127940591Y-101288739D01*
X127940593Y-101288736D01*
X128031236Y-101198093D01*
X128137830Y-101126869D01*
X128137831Y-101126868D01*
X128256269Y-101077810D01*
X128256268Y-101077810D01*
X128256271Y-101077809D01*
X128382000Y-101052800D01*
X128510200Y-101052800D01*
X128635929Y-101077809D01*
X128635929Y-101077809D01*
G37*
G36*
X172890412Y-100338764D02*
X173052198Y-100405778D01*
X173197807Y-100503071D01*
X173321629Y-100626893D01*
X173418922Y-100772502D01*
X173485936Y-100934288D01*
X173520100Y-101106041D01*
X173520100Y-101281159D01*
X173485936Y-101452912D01*
X173418922Y-101614698D01*
X173321629Y-101760307D01*
X173197807Y-101884129D01*
X173052198Y-101981422D01*
X172890412Y-102048436D01*
X172718659Y-102082600D01*
X172543541Y-102082600D01*
X172371788Y-102048436D01*
X172210002Y-101981422D01*
X172064393Y-101884129D01*
X171940571Y-101760307D01*
X171843278Y-101614698D01*
X171776264Y-101452912D01*
X171742100Y-101281159D01*
X171742100Y-101106041D01*
X171776264Y-100934288D01*
X171843278Y-100772502D01*
X171940571Y-100626893D01*
X172064393Y-100503071D01*
X172210002Y-100405778D01*
X172371788Y-100338764D01*
X172543541Y-100304600D01*
X172718659Y-100304600D01*
X172890412Y-100338764D01*
X172890412Y-100338764D01*
G37*
G36*
X139272900Y-101755400D02*
X138171300Y-101755400D01*
X138171300Y-100553800D01*
X139272900Y-100553800D01*
X139272900Y-101755400D01*
X139272900Y-101755400D01*
G37*
G36*
X171117900Y-100554400D02*
X169516300Y-100554400D01*
X169516300Y-99452800D01*
X171117900Y-99452800D01*
X171117900Y-100554400D01*
X171117900Y-100554400D01*
G37*
G36*
X154917900Y-100554400D02*
X153316300Y-100554400D01*
X153316300Y-99452800D01*
X154917900Y-99452800D01*
X154917900Y-100554400D01*
X154917900Y-100554400D01*
G37*
G36*
X152857900Y-100528400D02*
X151256300Y-100528400D01*
X151256300Y-99186800D01*
X152857900Y-99186800D01*
X152857900Y-100528400D01*
X152857900Y-100528400D01*
G37*
G36*
X141587900Y-100290300D02*
X140936300Y-100290300D01*
X140936300Y-98988700D01*
X141587900Y-98988700D01*
X141587900Y-100290300D01*
X141587900Y-100290300D01*
G37*
G36*
X142537900Y-100290300D02*
X141886300Y-100290300D01*
X141886300Y-98988700D01*
X142537900Y-98988700D01*
X142537900Y-100290300D01*
X142537900Y-100290300D01*
G37*
G36*
X140637900Y-100290300D02*
X139986300Y-100290300D01*
X139986300Y-98988700D01*
X140637900Y-98988700D01*
X140637900Y-100290300D01*
X140637900Y-100290300D01*
G37*
G36*
X139272900Y-100055400D02*
X138171300Y-100055400D01*
X138171300Y-98853800D01*
X139272900Y-98853800D01*
X139272900Y-100055400D01*
X139272900Y-100055400D01*
G37*
G36*
X125346900Y-99725400D02*
X124045300Y-99725400D01*
X124045300Y-98423800D01*
X125346900Y-98423800D01*
X125346900Y-99725400D01*
X125346900Y-99725400D01*
G37*
G36*
X127446900Y-99725400D02*
X126145300Y-99725400D01*
X126145300Y-98423800D01*
X127446900Y-98423800D01*
X127446900Y-99725400D01*
X127446900Y-99725400D01*
G37*
G36*
X146649900Y-98358800D02*
X146652302Y-98383186D01*
X146659415Y-98406635D01*
X146670966Y-98428246D01*
X146686512Y-98447188D01*
X146705454Y-98462734D01*
X146727065Y-98474285D01*
X146750514Y-98481398D01*
X146774900Y-98483800D01*
X147030900Y-98483800D01*
X147030900Y-99585400D01*
X145829300Y-99585400D01*
X145829300Y-98440400D01*
X145826898Y-98416014D01*
X145819785Y-98392565D01*
X145808234Y-98370954D01*
X145792688Y-98352012D01*
X145773746Y-98336466D01*
X145752135Y-98324915D01*
X145728686Y-98317802D01*
X145704300Y-98315400D01*
X145455900Y-98315400D01*
X145448300Y-98316149D01*
X145448300Y-97213800D01*
X146649900Y-97213800D01*
X146649900Y-98358800D01*
X146649900Y-98358800D01*
G37*
G36*
X144949900Y-98358800D02*
X144952302Y-98383186D01*
X144959415Y-98406635D01*
X144970966Y-98428246D01*
X144986512Y-98447188D01*
X145005454Y-98462734D01*
X145027065Y-98474285D01*
X145050514Y-98481398D01*
X145074900Y-98483800D01*
X145323300Y-98483800D01*
X145330900Y-98483051D01*
X145330900Y-99585400D01*
X144129300Y-99585400D01*
X144129300Y-98440400D01*
X144126898Y-98416014D01*
X144119785Y-98392565D01*
X144108234Y-98370954D01*
X144092688Y-98352012D01*
X144073746Y-98336466D01*
X144052135Y-98324915D01*
X144028686Y-98317802D01*
X144004300Y-98315400D01*
X143748300Y-98315400D01*
X143748300Y-97213800D01*
X144949900Y-97213800D01*
X144949900Y-98358800D01*
X144949900Y-98358800D01*
G37*
G36*
X172890412Y-97798764D02*
X173052198Y-97865778D01*
X173197807Y-97963071D01*
X173321629Y-98086893D01*
X173418922Y-98232502D01*
X173485936Y-98394288D01*
X173520100Y-98566041D01*
X173520100Y-98741159D01*
X173485936Y-98912912D01*
X173418922Y-99074698D01*
X173321629Y-99220307D01*
X173197807Y-99344129D01*
X173052198Y-99441422D01*
X172890412Y-99508436D01*
X172718659Y-99542600D01*
X172543541Y-99542600D01*
X172371788Y-99508436D01*
X172210002Y-99441422D01*
X172064393Y-99344129D01*
X171940571Y-99220307D01*
X171843278Y-99074698D01*
X171776264Y-98912912D01*
X171742100Y-98741159D01*
X171742100Y-98566041D01*
X171776264Y-98394288D01*
X171843278Y-98232502D01*
X171940571Y-98086893D01*
X172064393Y-97963071D01*
X172210002Y-97865778D01*
X172371788Y-97798764D01*
X172543541Y-97764600D01*
X172718659Y-97764600D01*
X172890412Y-97798764D01*
X172890412Y-97798764D01*
G37*
G36*
X152857900Y-98628400D02*
X151256300Y-98628400D01*
X151256300Y-97286800D01*
X152857900Y-97286800D01*
X152857900Y-98628400D01*
X152857900Y-98628400D01*
G37*
G36*
X171117900Y-98554400D02*
X169516300Y-98554400D01*
X169516300Y-97452800D01*
X171117900Y-97452800D01*
X171117900Y-98554400D01*
X171117900Y-98554400D01*
G37*
G36*
X154917900Y-98554400D02*
X153316300Y-98554400D01*
X153316300Y-97452800D01*
X154917900Y-97452800D01*
X154917900Y-98554400D01*
X154917900Y-98554400D01*
G37*
G36*
X138146900Y-96888800D02*
X138149302Y-96913186D01*
X138156415Y-96936635D01*
X138167966Y-96958246D01*
X138183512Y-96977188D01*
X138202454Y-96992734D01*
X138224065Y-97004285D01*
X138247514Y-97011398D01*
X138271900Y-97013800D01*
X139781900Y-97013800D01*
X139781900Y-98515400D01*
X138280300Y-98515400D01*
X138280300Y-97505400D01*
X138277898Y-97481014D01*
X138270785Y-97457565D01*
X138259234Y-97435954D01*
X138243688Y-97417012D01*
X138224746Y-97401466D01*
X138203135Y-97389915D01*
X138179686Y-97382802D01*
X138155300Y-97380400D01*
X136445300Y-97380400D01*
X136445300Y-93878800D01*
X138146900Y-93878800D01*
X138146900Y-96888800D01*
X138146900Y-96888800D01*
G37*
G36*
X143481900Y-98515400D02*
X141980300Y-98515400D01*
X141980300Y-97013800D01*
X143481900Y-97013800D01*
X143481900Y-98515400D01*
X143481900Y-98515400D01*
G37*
G36*
X125883423Y-94478660D02*
X126122621Y-94526239D01*
X126423047Y-94650680D01*
X126693424Y-94831340D01*
X126923360Y-95061276D01*
X127104020Y-95331653D01*
X127228461Y-95632079D01*
X127291900Y-95951010D01*
X127291900Y-96276190D01*
X127228461Y-96595121D01*
X127104020Y-96895547D01*
X126923360Y-97165924D01*
X126693424Y-97395860D01*
X126423047Y-97576520D01*
X126122621Y-97700961D01*
X125883423Y-97748540D01*
X125803691Y-97764400D01*
X125478509Y-97764400D01*
X125398777Y-97748540D01*
X125159579Y-97700961D01*
X124859153Y-97576520D01*
X124588776Y-97395860D01*
X124358840Y-97165924D01*
X124178180Y-96895547D01*
X124053739Y-96595121D01*
X123990300Y-96276190D01*
X123990300Y-95951010D01*
X124053739Y-95632079D01*
X124178180Y-95331653D01*
X124358840Y-95061276D01*
X124588776Y-94831340D01*
X124859153Y-94650680D01*
X125159579Y-94526239D01*
X125398777Y-94478660D01*
X125478509Y-94462800D01*
X125803691Y-94462800D01*
X125883423Y-94478660D01*
X125883423Y-94478660D01*
G37*
G36*
X131346900Y-97380400D02*
X129645300Y-97380400D01*
X129645300Y-93878800D01*
X131346900Y-93878800D01*
X131346900Y-97380400D01*
X131346900Y-97380400D01*
G37*
G36*
X129366900Y-96929400D02*
X128265300Y-96929400D01*
X128265300Y-95727800D01*
X129366900Y-95727800D01*
X129366900Y-96929400D01*
X129366900Y-96929400D01*
G37*
G36*
X134003557Y-95827382D02*
X134106883Y-95858726D01*
X134202109Y-95909626D01*
X134285575Y-95978125D01*
X134354074Y-96061591D01*
X134404974Y-96156817D01*
X134436318Y-96260143D01*
X134446901Y-96367599D01*
X134446901Y-96367601D01*
X134436318Y-96475057D01*
X134404974Y-96578383D01*
X134354074Y-96673609D01*
X134285575Y-96757075D01*
X134202109Y-96825574D01*
X134106883Y-96876474D01*
X134003557Y-96907818D01*
X133896101Y-96918401D01*
X133896099Y-96918401D01*
X133788643Y-96907818D01*
X133685317Y-96876474D01*
X133590091Y-96825574D01*
X133506625Y-96757075D01*
X133438126Y-96673609D01*
X133387226Y-96578383D01*
X133355882Y-96475057D01*
X133345299Y-96367601D01*
X133345299Y-96367599D01*
X133355882Y-96260143D01*
X133387226Y-96156817D01*
X133438126Y-96061591D01*
X133506625Y-95978125D01*
X133590091Y-95909626D01*
X133685317Y-95858726D01*
X133788643Y-95827382D01*
X133896099Y-95816799D01*
X133896101Y-95816799D01*
X134003557Y-95827382D01*
X134003557Y-95827382D01*
G37*
G36*
X162730412Y-93988764D02*
X162892198Y-94055778D01*
X163037807Y-94153071D01*
X163161629Y-94276893D01*
X163258922Y-94422502D01*
X163325936Y-94584288D01*
X163360100Y-94756041D01*
X163360100Y-94931159D01*
X163325936Y-95102912D01*
X163258922Y-95264698D01*
X163161629Y-95410307D01*
X163037807Y-95534129D01*
X162892198Y-95631422D01*
X162730412Y-95698436D01*
X162558659Y-95732600D01*
X162383541Y-95732600D01*
X162211788Y-95698436D01*
X162050002Y-95631422D01*
X161904393Y-95534129D01*
X161780571Y-95410307D01*
X161683278Y-95264698D01*
X161616264Y-95102912D01*
X161582100Y-94931159D01*
X161582100Y-94756041D01*
X161616264Y-94584288D01*
X161683278Y-94422502D01*
X161780571Y-94276893D01*
X161904393Y-94153071D01*
X162050002Y-94055778D01*
X162211788Y-93988764D01*
X162383541Y-93954600D01*
X162558659Y-93954600D01*
X162730412Y-93988764D01*
X162730412Y-93988764D01*
G37*
G36*
X167810412Y-93988764D02*
X167972198Y-94055778D01*
X168117807Y-94153071D01*
X168241629Y-94276893D01*
X168338922Y-94422502D01*
X168405936Y-94584288D01*
X168440100Y-94756041D01*
X168440100Y-94931159D01*
X168405936Y-95102912D01*
X168338922Y-95264698D01*
X168241629Y-95410307D01*
X168117807Y-95534129D01*
X167972198Y-95631422D01*
X167810412Y-95698436D01*
X167638659Y-95732600D01*
X167463541Y-95732600D01*
X167291788Y-95698436D01*
X167130002Y-95631422D01*
X166984393Y-95534129D01*
X166860571Y-95410307D01*
X166763278Y-95264698D01*
X166696264Y-95102912D01*
X166662100Y-94931159D01*
X166662100Y-94756041D01*
X166696264Y-94584288D01*
X166763278Y-94422502D01*
X166860571Y-94276893D01*
X166984393Y-94153071D01*
X167130002Y-94055778D01*
X167291788Y-93988764D01*
X167463541Y-93954600D01*
X167638659Y-93954600D01*
X167810412Y-93988764D01*
X167810412Y-93988764D01*
G37*
G36*
X165270412Y-93988764D02*
X165432198Y-94055778D01*
X165577807Y-94153071D01*
X165701629Y-94276893D01*
X165798922Y-94422502D01*
X165865936Y-94584288D01*
X165900100Y-94756041D01*
X165900100Y-94931159D01*
X165865936Y-95102912D01*
X165798922Y-95264698D01*
X165701629Y-95410307D01*
X165577807Y-95534129D01*
X165432198Y-95631422D01*
X165270412Y-95698436D01*
X165098659Y-95732600D01*
X164923541Y-95732600D01*
X164751788Y-95698436D01*
X164590002Y-95631422D01*
X164444393Y-95534129D01*
X164320571Y-95410307D01*
X164223278Y-95264698D01*
X164156264Y-95102912D01*
X164122100Y-94931159D01*
X164122100Y-94756041D01*
X164156264Y-94584288D01*
X164223278Y-94422502D01*
X164320571Y-94276893D01*
X164444393Y-94153071D01*
X164590002Y-94055778D01*
X164751788Y-93988764D01*
X164923541Y-93954600D01*
X165098659Y-93954600D01*
X165270412Y-93988764D01*
X165270412Y-93988764D01*
G37*
G36*
X160190412Y-93988764D02*
X160352198Y-94055778D01*
X160497807Y-94153071D01*
X160621629Y-94276893D01*
X160718922Y-94422502D01*
X160785936Y-94584288D01*
X160820100Y-94756041D01*
X160820100Y-94931159D01*
X160785936Y-95102912D01*
X160718922Y-95264698D01*
X160621629Y-95410307D01*
X160497807Y-95534129D01*
X160352198Y-95631422D01*
X160190412Y-95698436D01*
X160018659Y-95732600D01*
X159843541Y-95732600D01*
X159671788Y-95698436D01*
X159510002Y-95631422D01*
X159364393Y-95534129D01*
X159240571Y-95410307D01*
X159143278Y-95264698D01*
X159076264Y-95102912D01*
X159042100Y-94931159D01*
X159042100Y-94756041D01*
X159076264Y-94584288D01*
X159143278Y-94422502D01*
X159240571Y-94276893D01*
X159364393Y-94153071D01*
X159510002Y-94055778D01*
X159671788Y-93988764D01*
X159843541Y-93954600D01*
X160018659Y-93954600D01*
X160190412Y-93988764D01*
X160190412Y-93988764D01*
G37*
G36*
X157650412Y-93988764D02*
X157812198Y-94055778D01*
X157957807Y-94153071D01*
X158081629Y-94276893D01*
X158178922Y-94422502D01*
X158245936Y-94584288D01*
X158280100Y-94756041D01*
X158280100Y-94931159D01*
X158245936Y-95102912D01*
X158178922Y-95264698D01*
X158081629Y-95410307D01*
X157957807Y-95534129D01*
X157812198Y-95631422D01*
X157650412Y-95698436D01*
X157478659Y-95732600D01*
X157303541Y-95732600D01*
X157131788Y-95698436D01*
X156970002Y-95631422D01*
X156824393Y-95534129D01*
X156700571Y-95410307D01*
X156603278Y-95264698D01*
X156536264Y-95102912D01*
X156502100Y-94931159D01*
X156502100Y-94756041D01*
X156536264Y-94584288D01*
X156603278Y-94422502D01*
X156700571Y-94276893D01*
X156824393Y-94153071D01*
X156970002Y-94055778D01*
X157131788Y-93988764D01*
X157303541Y-93954600D01*
X157478659Y-93954600D01*
X157650412Y-93988764D01*
X157650412Y-93988764D01*
G37*
G36*
X155110412Y-93988764D02*
X155272198Y-94055778D01*
X155417807Y-94153071D01*
X155541629Y-94276893D01*
X155638922Y-94422502D01*
X155705936Y-94584288D01*
X155740100Y-94756041D01*
X155740100Y-94931159D01*
X155705936Y-95102912D01*
X155638922Y-95264698D01*
X155541629Y-95410307D01*
X155417807Y-95534129D01*
X155272198Y-95631422D01*
X155110412Y-95698436D01*
X154938659Y-95732600D01*
X154763541Y-95732600D01*
X154591788Y-95698436D01*
X154430002Y-95631422D01*
X154284393Y-95534129D01*
X154160571Y-95410307D01*
X154063278Y-95264698D01*
X153996264Y-95102912D01*
X153962100Y-94931159D01*
X153962100Y-94756041D01*
X153996264Y-94584288D01*
X154063278Y-94422502D01*
X154160571Y-94276893D01*
X154284393Y-94153071D01*
X154430002Y-94055778D01*
X154591788Y-93988764D01*
X154763541Y-93954600D01*
X154938659Y-93954600D01*
X155110412Y-93988764D01*
X155110412Y-93988764D01*
G37*
G36*
X152570412Y-93988764D02*
X152732198Y-94055778D01*
X152877807Y-94153071D01*
X153001629Y-94276893D01*
X153098922Y-94422502D01*
X153165936Y-94584288D01*
X153200100Y-94756041D01*
X153200100Y-94931159D01*
X153165936Y-95102912D01*
X153098922Y-95264698D01*
X153001629Y-95410307D01*
X152877807Y-95534129D01*
X152732198Y-95631422D01*
X152570412Y-95698436D01*
X152398659Y-95732600D01*
X152223541Y-95732600D01*
X152051788Y-95698436D01*
X151890002Y-95631422D01*
X151744393Y-95534129D01*
X151620571Y-95410307D01*
X151523278Y-95264698D01*
X151456264Y-95102912D01*
X151422100Y-94931159D01*
X151422100Y-94756041D01*
X151456264Y-94584288D01*
X151523278Y-94422502D01*
X151620571Y-94276893D01*
X151744393Y-94153071D01*
X151890002Y-94055778D01*
X152051788Y-93988764D01*
X152223541Y-93954600D01*
X152398659Y-93954600D01*
X152570412Y-93988764D01*
X152570412Y-93988764D01*
G37*
G36*
X150030412Y-93988764D02*
X150192198Y-94055778D01*
X150337807Y-94153071D01*
X150461629Y-94276893D01*
X150558922Y-94422502D01*
X150625936Y-94584288D01*
X150660100Y-94756041D01*
X150660100Y-94931159D01*
X150625936Y-95102912D01*
X150558922Y-95264698D01*
X150461629Y-95410307D01*
X150337807Y-95534129D01*
X150192198Y-95631422D01*
X150030412Y-95698436D01*
X149858659Y-95732600D01*
X149683541Y-95732600D01*
X149511788Y-95698436D01*
X149350002Y-95631422D01*
X149204393Y-95534129D01*
X149080571Y-95410307D01*
X148983278Y-95264698D01*
X148916264Y-95102912D01*
X148882100Y-94931159D01*
X148882100Y-94756041D01*
X148916264Y-94584288D01*
X148983278Y-94422502D01*
X149080571Y-94276893D01*
X149204393Y-94153071D01*
X149350002Y-94055778D01*
X149511788Y-93988764D01*
X149683541Y-93954600D01*
X149858659Y-93954600D01*
X150030412Y-93988764D01*
X150030412Y-93988764D01*
G37*
G36*
X139870412Y-93988764D02*
X140032198Y-94055778D01*
X140177807Y-94153071D01*
X140301629Y-94276893D01*
X140398922Y-94422502D01*
X140465936Y-94584288D01*
X140500100Y-94756041D01*
X140500100Y-94931159D01*
X140465936Y-95102912D01*
X140398922Y-95264698D01*
X140301629Y-95410307D01*
X140177807Y-95534129D01*
X140032198Y-95631422D01*
X139870412Y-95698436D01*
X139698659Y-95732600D01*
X139523541Y-95732600D01*
X139351788Y-95698436D01*
X139190002Y-95631422D01*
X139044393Y-95534129D01*
X138920571Y-95410307D01*
X138823278Y-95264698D01*
X138756264Y-95102912D01*
X138722100Y-94931159D01*
X138722100Y-94756041D01*
X138756264Y-94584288D01*
X138823278Y-94422502D01*
X138920571Y-94276893D01*
X139044393Y-94153071D01*
X139190002Y-94055778D01*
X139351788Y-93988764D01*
X139523541Y-93954600D01*
X139698659Y-93954600D01*
X139870412Y-93988764D01*
X139870412Y-93988764D01*
G37*
G36*
X147490412Y-93988764D02*
X147652198Y-94055778D01*
X147797807Y-94153071D01*
X147921629Y-94276893D01*
X148018922Y-94422502D01*
X148085936Y-94584288D01*
X148120100Y-94756041D01*
X148120100Y-94931159D01*
X148085936Y-95102912D01*
X148018922Y-95264698D01*
X147921629Y-95410307D01*
X147797807Y-95534129D01*
X147652198Y-95631422D01*
X147490412Y-95698436D01*
X147318659Y-95732600D01*
X147143541Y-95732600D01*
X146971788Y-95698436D01*
X146810002Y-95631422D01*
X146664393Y-95534129D01*
X146540571Y-95410307D01*
X146443278Y-95264698D01*
X146376264Y-95102912D01*
X146342100Y-94931159D01*
X146342100Y-94756041D01*
X146376264Y-94584288D01*
X146443278Y-94422502D01*
X146540571Y-94276893D01*
X146664393Y-94153071D01*
X146810002Y-94055778D01*
X146971788Y-93988764D01*
X147143541Y-93954600D01*
X147318659Y-93954600D01*
X147490412Y-93988764D01*
X147490412Y-93988764D01*
G37*
G36*
X144950412Y-93988764D02*
X145112198Y-94055778D01*
X145257807Y-94153071D01*
X145381629Y-94276893D01*
X145478922Y-94422502D01*
X145545936Y-94584288D01*
X145580100Y-94756041D01*
X145580100Y-94931159D01*
X145545936Y-95102912D01*
X145478922Y-95264698D01*
X145381629Y-95410307D01*
X145257807Y-95534129D01*
X145112198Y-95631422D01*
X144950412Y-95698436D01*
X144778659Y-95732600D01*
X144603541Y-95732600D01*
X144431788Y-95698436D01*
X144270002Y-95631422D01*
X144124393Y-95534129D01*
X144000571Y-95410307D01*
X143903278Y-95264698D01*
X143836264Y-95102912D01*
X143802100Y-94931159D01*
X143802100Y-94756041D01*
X143836264Y-94584288D01*
X143903278Y-94422502D01*
X144000571Y-94276893D01*
X144124393Y-94153071D01*
X144270002Y-94055778D01*
X144431788Y-93988764D01*
X144603541Y-93954600D01*
X144778659Y-93954600D01*
X144950412Y-93988764D01*
X144950412Y-93988764D01*
G37*
G36*
X142410412Y-93988764D02*
X142572198Y-94055778D01*
X142717807Y-94153071D01*
X142841629Y-94276893D01*
X142938922Y-94422502D01*
X143005936Y-94584288D01*
X143040100Y-94756041D01*
X143040100Y-94931159D01*
X143005936Y-95102912D01*
X142938922Y-95264698D01*
X142841629Y-95410307D01*
X142717807Y-95534129D01*
X142572198Y-95631422D01*
X142410412Y-95698436D01*
X142238659Y-95732600D01*
X142063541Y-95732600D01*
X141891788Y-95698436D01*
X141730002Y-95631422D01*
X141584393Y-95534129D01*
X141460571Y-95410307D01*
X141363278Y-95264698D01*
X141296264Y-95102912D01*
X141262100Y-94931159D01*
X141262100Y-94756041D01*
X141296264Y-94584288D01*
X141363278Y-94422502D01*
X141460571Y-94276893D01*
X141584393Y-94153071D01*
X141730002Y-94055778D01*
X141891788Y-93988764D01*
X142063541Y-93954600D01*
X142238659Y-93954600D01*
X142410412Y-93988764D01*
X142410412Y-93988764D01*
G37*
G36*
X129366900Y-95229400D02*
X128265300Y-95229400D01*
X128265300Y-94027800D01*
X129366900Y-94027800D01*
X129366900Y-95229400D01*
X129366900Y-95229400D01*
G37*
M02*
