G04 #@! TF.GenerationSoftware,KiCad,Pcbnew,5.0.2-bee76a0~70~ubuntu18.04.1*
G04 #@! TF.CreationDate,2019-01-02T19:48:11-06:00*
G04 #@! TF.ProjectId,Adafruit Feather M0 RFMxx,41646166-7275-4697-9420-466561746865,rev?*
G04 #@! TF.SameCoordinates,Original*
G04 #@! TF.FileFunction,Legend,Top*
G04 #@! TF.FilePolarity,Positive*
%FSLAX46Y46*%
G04 Gerber Fmt 4.6, Leading zero omitted, Abs format (unit mm)*
G04 Created by KiCad (PCBNEW 5.0.2-bee76a0~70~ubuntu18.04.1) date Wed 02 Jan 2019 07:48:11 PM CST*
%MOMM*%
%LPD*%
G01*
G04 APERTURE LIST*
%ADD10C,0.121920*%
%ADD11C,0.106680*%
%ADD12C,0.248920*%
%ADD13C,0.304800*%
%ADD14C,0.100000*%
%ADD15C,0.127000*%
%ADD16C,0.203200*%
%ADD17C,0.406400*%
%ADD18C,0.609600*%
%ADD19C,0.138988*%
%ADD20C,0.146304*%
%ADD21C,0.077216*%
%ADD22C,0.038608*%
G04 APERTURE END LIST*
D10*
X143600109Y-96093038D02*
X143600109Y-96874390D01*
X143646071Y-96966314D01*
X143692033Y-97012276D01*
X143783957Y-97058238D01*
X143967804Y-97058238D01*
X144059728Y-97012276D01*
X144105690Y-96966314D01*
X144151652Y-96874390D01*
X144151652Y-96093038D01*
X144565309Y-97012276D02*
X144703195Y-97058238D01*
X144933004Y-97058238D01*
X145024928Y-97012276D01*
X145070890Y-96966314D01*
X145116852Y-96874390D01*
X145116852Y-96782466D01*
X145070890Y-96690542D01*
X145024928Y-96644580D01*
X144933004Y-96598619D01*
X144749157Y-96552657D01*
X144657233Y-96506695D01*
X144611271Y-96460733D01*
X144565309Y-96368809D01*
X144565309Y-96276885D01*
X144611271Y-96184961D01*
X144657233Y-96139000D01*
X144749157Y-96093038D01*
X144978966Y-96093038D01*
X145116852Y-96139000D01*
X145852242Y-96552657D02*
X145990128Y-96598619D01*
X146036090Y-96644580D01*
X146082052Y-96736504D01*
X146082052Y-96874390D01*
X146036090Y-96966314D01*
X145990128Y-97012276D01*
X145898204Y-97058238D01*
X145530509Y-97058238D01*
X145530509Y-96093038D01*
X145852242Y-96093038D01*
X145944166Y-96139000D01*
X145990128Y-96184961D01*
X146036090Y-96276885D01*
X146036090Y-96368809D01*
X145990128Y-96460733D01*
X145944166Y-96506695D01*
X145852242Y-96552657D01*
X145530509Y-96552657D01*
X127660375Y-114304838D02*
X127338642Y-113845219D01*
X127108832Y-114304838D02*
X127108832Y-113339638D01*
X127476528Y-113339638D01*
X127568452Y-113385600D01*
X127614413Y-113431561D01*
X127660375Y-113523485D01*
X127660375Y-113661371D01*
X127614413Y-113753295D01*
X127568452Y-113799257D01*
X127476528Y-113845219D01*
X127108832Y-113845219D01*
X128028071Y-114258876D02*
X128165956Y-114304838D01*
X128395766Y-114304838D01*
X128487690Y-114258876D01*
X128533652Y-114212914D01*
X128579613Y-114120990D01*
X128579613Y-114029066D01*
X128533652Y-113937142D01*
X128487690Y-113891180D01*
X128395766Y-113845219D01*
X128211918Y-113799257D01*
X128119994Y-113753295D01*
X128074032Y-113707333D01*
X128028071Y-113615409D01*
X128028071Y-113523485D01*
X128074032Y-113431561D01*
X128119994Y-113385600D01*
X128211918Y-113339638D01*
X128441728Y-113339638D01*
X128579613Y-113385600D01*
X128855385Y-113339638D02*
X129406928Y-113339638D01*
X129131156Y-114304838D02*
X129131156Y-113339638D01*
X132291642Y-114029066D02*
X132751261Y-114029066D01*
X132199718Y-114304838D02*
X132521452Y-113339638D01*
X132843185Y-114304838D01*
X133716461Y-114304838D02*
X133394728Y-113845219D01*
X133164918Y-114304838D02*
X133164918Y-113339638D01*
X133532613Y-113339638D01*
X133624537Y-113385600D01*
X133670499Y-113431561D01*
X133716461Y-113523485D01*
X133716461Y-113661371D01*
X133670499Y-113753295D01*
X133624537Y-113799257D01*
X133532613Y-113845219D01*
X133164918Y-113845219D01*
X133992232Y-113661371D02*
X134359928Y-113661371D01*
X134130118Y-114304838D02*
X134130118Y-113477523D01*
X134176080Y-113385600D01*
X134268004Y-113339638D01*
X134359928Y-113339638D01*
X130430185Y-113339638D02*
X131027690Y-113339638D01*
X130705956Y-113707333D01*
X130843842Y-113707333D01*
X130935766Y-113753295D01*
X130981728Y-113799257D01*
X131027690Y-113891180D01*
X131027690Y-114120990D01*
X130981728Y-114212914D01*
X130935766Y-114258876D01*
X130843842Y-114304838D01*
X130568071Y-114304838D01*
X130476147Y-114258876D01*
X130430185Y-114212914D01*
X131303461Y-113339638D02*
X131625194Y-114304838D01*
X131946928Y-113339638D01*
X150669147Y-114029066D02*
X151128766Y-114029066D01*
X150577223Y-114304838D02*
X150898956Y-113339638D01*
X151220690Y-114304838D01*
X152002042Y-113339638D02*
X151542423Y-113339638D01*
X151496461Y-113799257D01*
X151542423Y-113753295D01*
X151634347Y-113707333D01*
X151864156Y-113707333D01*
X151956080Y-113753295D01*
X152002042Y-113799257D01*
X152048004Y-113891180D01*
X152048004Y-114120990D01*
X152002042Y-114212914D01*
X151956080Y-114258876D01*
X151864156Y-114304838D01*
X151634347Y-114304838D01*
X151542423Y-114258876D01*
X151496461Y-114212914D01*
X148129147Y-114029066D02*
X148588766Y-114029066D01*
X148037223Y-114304838D02*
X148358956Y-113339638D01*
X148680690Y-114304838D01*
X149416080Y-113661371D02*
X149416080Y-114304838D01*
X149186271Y-113293676D02*
X148956461Y-113983104D01*
X149553966Y-113983104D01*
X145589147Y-114029066D02*
X146048766Y-114029066D01*
X145497223Y-114304838D02*
X145818956Y-113339638D01*
X146140690Y-114304838D01*
X146370499Y-113339638D02*
X146968004Y-113339638D01*
X146646271Y-113707333D01*
X146784156Y-113707333D01*
X146876080Y-113753295D01*
X146922042Y-113799257D01*
X146968004Y-113891180D01*
X146968004Y-114120990D01*
X146922042Y-114212914D01*
X146876080Y-114258876D01*
X146784156Y-114304838D01*
X146508385Y-114304838D01*
X146416461Y-114258876D01*
X146370499Y-114212914D01*
X143049147Y-114029066D02*
X143508766Y-114029066D01*
X142957223Y-114304838D02*
X143278956Y-113339638D01*
X143600690Y-114304838D01*
X143876461Y-113431561D02*
X143922423Y-113385600D01*
X144014347Y-113339638D01*
X144244156Y-113339638D01*
X144336080Y-113385600D01*
X144382042Y-113431561D01*
X144428004Y-113523485D01*
X144428004Y-113615409D01*
X144382042Y-113753295D01*
X143830499Y-114304838D01*
X144428004Y-114304838D01*
X140763147Y-114029066D02*
X141222766Y-114029066D01*
X140671223Y-114304838D02*
X140992956Y-113339638D01*
X141314690Y-114304838D01*
X142142004Y-114304838D02*
X141590461Y-114304838D01*
X141866232Y-114304838D02*
X141866232Y-113339638D01*
X141774309Y-113477523D01*
X141682385Y-113569447D01*
X141590461Y-113615409D01*
X138223147Y-114029066D02*
X138682766Y-114029066D01*
X138131223Y-114304838D02*
X138452956Y-113339638D01*
X138774690Y-114304838D01*
X139280271Y-113339638D02*
X139372194Y-113339638D01*
X139464118Y-113385600D01*
X139510080Y-113431561D01*
X139556042Y-113523485D01*
X139602004Y-113707333D01*
X139602004Y-113937142D01*
X139556042Y-114120990D01*
X139510080Y-114212914D01*
X139464118Y-114258876D01*
X139372194Y-114304838D01*
X139280271Y-114304838D01*
X139188347Y-114258876D01*
X139142385Y-114212914D01*
X139096423Y-114120990D01*
X139050461Y-113937142D01*
X139050461Y-113707333D01*
X139096423Y-113523485D01*
X139142385Y-113431561D01*
X139188347Y-113385600D01*
X139280271Y-113339638D01*
X147047252Y-97058238D02*
X146495709Y-97058238D01*
X146771480Y-97058238D02*
X146771480Y-96093038D01*
X146679557Y-96230923D01*
X146587633Y-96322847D01*
X146495709Y-96368809D01*
X147368985Y-96093038D02*
X147966490Y-96093038D01*
X147644757Y-96460733D01*
X147782642Y-96460733D01*
X147874566Y-96506695D01*
X147920528Y-96552657D01*
X147966490Y-96644580D01*
X147966490Y-96874390D01*
X147920528Y-96966314D01*
X147874566Y-97012276D01*
X147782642Y-97058238D01*
X147506871Y-97058238D01*
X147414947Y-97012276D01*
X147368985Y-96966314D01*
X162552138Y-96422657D02*
X162552138Y-96882276D01*
X163011757Y-96928238D01*
X162965795Y-96882276D01*
X162919833Y-96790352D01*
X162919833Y-96560543D01*
X162965795Y-96468619D01*
X163011757Y-96422657D01*
X163103680Y-96376695D01*
X163333490Y-96376695D01*
X163425414Y-96422657D01*
X163471376Y-96468619D01*
X163517338Y-96560543D01*
X163517338Y-96790352D01*
X163471376Y-96882276D01*
X163425414Y-96928238D01*
X151255766Y-97540838D02*
X150704223Y-97540838D01*
X150979994Y-97540838D02*
X150979994Y-96575638D01*
X150888071Y-96713523D01*
X150796147Y-96805447D01*
X150704223Y-96851409D01*
X152175004Y-97540838D02*
X151623461Y-97540838D01*
X151899232Y-97540838D02*
X151899232Y-96575638D01*
X151807309Y-96713523D01*
X151715385Y-96805447D01*
X151623461Y-96851409D01*
X153795766Y-97159838D02*
X153244223Y-97159838D01*
X153519994Y-97159838D02*
X153519994Y-96194638D01*
X153428071Y-96332523D01*
X153336147Y-96424447D01*
X153244223Y-96470409D01*
X154393271Y-96194638D02*
X154485194Y-96194638D01*
X154577118Y-96240600D01*
X154623080Y-96286561D01*
X154669042Y-96378485D01*
X154715004Y-96562333D01*
X154715004Y-96792142D01*
X154669042Y-96975990D01*
X154623080Y-97067914D01*
X154577118Y-97113876D01*
X154485194Y-97159838D01*
X154393271Y-97159838D01*
X154301347Y-97113876D01*
X154255385Y-97067914D01*
X154209423Y-96975990D01*
X154163461Y-96792142D01*
X154163461Y-96562333D01*
X154209423Y-96378485D01*
X154255385Y-96286561D01*
X154301347Y-96240600D01*
X154393271Y-96194638D01*
X158564338Y-96836314D02*
X158564338Y-96652467D01*
X158518376Y-96560543D01*
X158472414Y-96514581D01*
X158334528Y-96422657D01*
X158150680Y-96376695D01*
X157782985Y-96376695D01*
X157691061Y-96422657D01*
X157645100Y-96468619D01*
X157599138Y-96560543D01*
X157599138Y-96744390D01*
X157645100Y-96836314D01*
X157691061Y-96882276D01*
X157782985Y-96928238D01*
X158012795Y-96928238D01*
X158104719Y-96882276D01*
X158150680Y-96836314D01*
X158196642Y-96744390D01*
X158196642Y-96560543D01*
X158150680Y-96468619D01*
X158104719Y-96422657D01*
X158012795Y-96376695D01*
D11*
X152449191Y-114530716D02*
X152569841Y-114570933D01*
X152770924Y-114570933D01*
X152851358Y-114530716D01*
X152891574Y-114490500D01*
X152931791Y-114410066D01*
X152931791Y-114329633D01*
X152891574Y-114249200D01*
X152851358Y-114208983D01*
X152770924Y-114168766D01*
X152610058Y-114128550D01*
X152529624Y-114088333D01*
X152489408Y-114048116D01*
X152449191Y-113967683D01*
X152449191Y-113887250D01*
X152489408Y-113806816D01*
X152529624Y-113766600D01*
X152610058Y-113726383D01*
X152811141Y-113726383D01*
X152931791Y-113766600D01*
X153776341Y-114490500D02*
X153736124Y-114530716D01*
X153615474Y-114570933D01*
X153535041Y-114570933D01*
X153414391Y-114530716D01*
X153333958Y-114450283D01*
X153293741Y-114369850D01*
X153253524Y-114208983D01*
X153253524Y-114088333D01*
X153293741Y-113927466D01*
X153333958Y-113847033D01*
X153414391Y-113766600D01*
X153535041Y-113726383D01*
X153615474Y-113726383D01*
X153736124Y-113766600D01*
X153776341Y-113806816D01*
X154138291Y-114570933D02*
X154138291Y-113726383D01*
X154620891Y-114570933D02*
X154258941Y-114088333D01*
X154620891Y-113726383D02*
X154138291Y-114208983D01*
X156392033Y-114148658D02*
X156392033Y-113304108D01*
X156673550Y-113907358D01*
X156955066Y-113304108D01*
X156955066Y-114148658D01*
X157518100Y-113304108D02*
X157678966Y-113304108D01*
X157759400Y-113344325D01*
X157839833Y-113424758D01*
X157880050Y-113585625D01*
X157880050Y-113867141D01*
X157839833Y-114028008D01*
X157759400Y-114108441D01*
X157678966Y-114148658D01*
X157518100Y-114148658D01*
X157437666Y-114108441D01*
X157357233Y-114028008D01*
X157317016Y-113867141D01*
X157317016Y-113585625D01*
X157357233Y-113424758D01*
X157437666Y-113344325D01*
X157518100Y-113304108D01*
X158201783Y-114108441D02*
X158322433Y-114148658D01*
X158523516Y-114148658D01*
X158603950Y-114108441D01*
X158644166Y-114068225D01*
X158684383Y-113987791D01*
X158684383Y-113907358D01*
X158644166Y-113826925D01*
X158603950Y-113786708D01*
X158523516Y-113746491D01*
X158362650Y-113706275D01*
X158282216Y-113666058D01*
X158242000Y-113625841D01*
X158201783Y-113545408D01*
X158201783Y-113464975D01*
X158242000Y-113384541D01*
X158282216Y-113344325D01*
X158362650Y-113304108D01*
X158563733Y-113304108D01*
X158684383Y-113344325D01*
X159173333Y-114148658D02*
X159173333Y-113304108D01*
X159454850Y-113907358D01*
X159736366Y-113304108D01*
X159736366Y-114148658D01*
X160138533Y-114148658D02*
X160138533Y-113304108D01*
X160500483Y-114108441D02*
X160621133Y-114148658D01*
X160822216Y-114148658D01*
X160902650Y-114108441D01*
X160942866Y-114068225D01*
X160983083Y-113987791D01*
X160983083Y-113907358D01*
X160942866Y-113826925D01*
X160902650Y-113786708D01*
X160822216Y-113746491D01*
X160661350Y-113706275D01*
X160580916Y-113666058D01*
X160540700Y-113625841D01*
X160500483Y-113545408D01*
X160500483Y-113464975D01*
X160540700Y-113384541D01*
X160580916Y-113344325D01*
X160661350Y-113304108D01*
X160862433Y-113304108D01*
X160983083Y-113344325D01*
X162897058Y-97004716D02*
X163017708Y-97044933D01*
X163218791Y-97044933D01*
X163299224Y-97004716D01*
X163339441Y-96964500D01*
X163379658Y-96884066D01*
X163379658Y-96803633D01*
X163339441Y-96723200D01*
X163299224Y-96682983D01*
X163218791Y-96642766D01*
X163057924Y-96602550D01*
X162977491Y-96562333D01*
X162937274Y-96522116D01*
X162897058Y-96441683D01*
X162897058Y-96361250D01*
X162937274Y-96280816D01*
X162977491Y-96240600D01*
X163057924Y-96200383D01*
X163259008Y-96200383D01*
X163379658Y-96240600D01*
X164224208Y-96964500D02*
X164183991Y-97004716D01*
X164063341Y-97044933D01*
X163982908Y-97044933D01*
X163862258Y-97004716D01*
X163781824Y-96924283D01*
X163741608Y-96843850D01*
X163701391Y-96682983D01*
X163701391Y-96562333D01*
X163741608Y-96401466D01*
X163781824Y-96321033D01*
X163862258Y-96240600D01*
X163982908Y-96200383D01*
X164063341Y-96200383D01*
X164183991Y-96240600D01*
X164224208Y-96280816D01*
X164988324Y-97044933D02*
X164586158Y-97044933D01*
X164586158Y-96200383D01*
X166652575Y-96582441D02*
X166773225Y-96622658D01*
X166974308Y-96622658D01*
X167054741Y-96582441D01*
X167094958Y-96542225D01*
X167135175Y-96461791D01*
X167135175Y-96381358D01*
X167094958Y-96300925D01*
X167054741Y-96260708D01*
X166974308Y-96220491D01*
X166813441Y-96180275D01*
X166733008Y-96140058D01*
X166692791Y-96099841D01*
X166652575Y-96019408D01*
X166652575Y-95938975D01*
X166692791Y-95858541D01*
X166733008Y-95818325D01*
X166813441Y-95778108D01*
X167014525Y-95778108D01*
X167135175Y-95818325D01*
X167497125Y-96622658D02*
X167497125Y-95778108D01*
X167698208Y-95778108D01*
X167818858Y-95818325D01*
X167899291Y-95898758D01*
X167939508Y-95979191D01*
X167979725Y-96140058D01*
X167979725Y-96260708D01*
X167939508Y-96421575D01*
X167899291Y-96502008D01*
X167818858Y-96582441D01*
X167698208Y-96622658D01*
X167497125Y-96622658D01*
X168301458Y-96381358D02*
X168703625Y-96381358D01*
X168221025Y-96622658D02*
X168502541Y-95778108D01*
X168784058Y-96622658D01*
X160759224Y-114570933D02*
X160477708Y-114168766D01*
X160276624Y-114570933D02*
X160276624Y-113726383D01*
X160598358Y-113726383D01*
X160678791Y-113766600D01*
X160719008Y-113806816D01*
X160759224Y-113887250D01*
X160759224Y-114007900D01*
X160719008Y-114088333D01*
X160678791Y-114128550D01*
X160598358Y-114168766D01*
X160276624Y-114168766D01*
X161040741Y-113726383D02*
X161603774Y-114570933D01*
X161603774Y-113726383D02*
X161040741Y-114570933D01*
X162086374Y-113726383D02*
X162166808Y-113726383D01*
X162247241Y-113766600D01*
X162287458Y-113806816D01*
X162327674Y-113887250D01*
X162367891Y-114048116D01*
X162367891Y-114249200D01*
X162327674Y-114410066D01*
X162287458Y-114490500D01*
X162247241Y-114530716D01*
X162166808Y-114570933D01*
X162086374Y-114570933D01*
X162005941Y-114530716D01*
X161965724Y-114490500D01*
X161925508Y-114410066D01*
X161885291Y-114249200D01*
X161885291Y-114048116D01*
X161925508Y-113887250D01*
X161965724Y-113806816D01*
X162005941Y-113766600D01*
X162086374Y-113726383D01*
X162897058Y-113726383D02*
X163379658Y-113726383D01*
X163138358Y-114570933D02*
X163138358Y-113726383D01*
X163580741Y-113726383D02*
X164143774Y-114570933D01*
X164143774Y-113726383D02*
X163580741Y-114570933D01*
X164907891Y-114570933D02*
X164425291Y-114570933D01*
X164666591Y-114570933D02*
X164666591Y-113726383D01*
X164586158Y-113847033D01*
X164505724Y-113927466D01*
X164425291Y-113967683D01*
D10*
X137809490Y-96781257D02*
X137947375Y-96827219D01*
X137993337Y-96873180D01*
X138039299Y-96965104D01*
X138039299Y-97102990D01*
X137993337Y-97194914D01*
X137947375Y-97240876D01*
X137855452Y-97286838D01*
X137487756Y-97286838D01*
X137487756Y-96321638D01*
X137809490Y-96321638D01*
X137901413Y-96367600D01*
X137947375Y-96413561D01*
X137993337Y-96505485D01*
X137993337Y-96597409D01*
X137947375Y-96689333D01*
X137901413Y-96735295D01*
X137809490Y-96781257D01*
X137487756Y-96781257D01*
X138406994Y-97011066D02*
X138866613Y-97011066D01*
X138315071Y-97286838D02*
X138636804Y-96321638D01*
X138958537Y-97286838D01*
X139142385Y-96321638D02*
X139693928Y-96321638D01*
X139418156Y-97286838D02*
X139418156Y-96321638D01*
X148588766Y-97540838D02*
X148037223Y-97540838D01*
X148312994Y-97540838D02*
X148312994Y-96575638D01*
X148221071Y-96713523D01*
X148129147Y-96805447D01*
X148037223Y-96851409D01*
X148956461Y-96667561D02*
X149002423Y-96621600D01*
X149094347Y-96575638D01*
X149324156Y-96575638D01*
X149416080Y-96621600D01*
X149462042Y-96667561D01*
X149508004Y-96759485D01*
X149508004Y-96851409D01*
X149462042Y-96989295D01*
X148910499Y-97540838D01*
X149508004Y-97540838D01*
X159275538Y-96056752D02*
X159275538Y-96240600D01*
X159321500Y-96332523D01*
X159367461Y-96378485D01*
X159505347Y-96470409D01*
X159689195Y-96516371D01*
X160056890Y-96516371D01*
X160148814Y-96470409D01*
X160194776Y-96424447D01*
X160240738Y-96332523D01*
X160240738Y-96148676D01*
X160194776Y-96056752D01*
X160148814Y-96010790D01*
X160056890Y-95964828D01*
X159827080Y-95964828D01*
X159735157Y-96010790D01*
X159689195Y-96056752D01*
X159643233Y-96148676D01*
X159643233Y-96332523D01*
X159689195Y-96424447D01*
X159735157Y-96470409D01*
X159827080Y-96516371D01*
X136589709Y-112903000D02*
X136497785Y-112857038D01*
X136359900Y-112857038D01*
X136222014Y-112903000D01*
X136130090Y-112994923D01*
X136084128Y-113086847D01*
X136038166Y-113270695D01*
X136038166Y-113408580D01*
X136084128Y-113592428D01*
X136130090Y-113684352D01*
X136222014Y-113776276D01*
X136359900Y-113822238D01*
X136451823Y-113822238D01*
X136589709Y-113776276D01*
X136635671Y-113730314D01*
X136635671Y-113408580D01*
X136451823Y-113408580D01*
X137049328Y-113822238D02*
X137049328Y-112857038D01*
X137600871Y-113822238D01*
X137600871Y-112857038D01*
X138060490Y-113822238D02*
X138060490Y-112857038D01*
X138290300Y-112857038D01*
X138428185Y-112903000D01*
X138520109Y-112994923D01*
X138566071Y-113086847D01*
X138612033Y-113270695D01*
X138612033Y-113408580D01*
X138566071Y-113592428D01*
X138520109Y-113684352D01*
X138428185Y-113776276D01*
X138290300Y-113822238D01*
X138060490Y-113822238D01*
X128710871Y-100971676D02*
X128710871Y-100282248D01*
X128297214Y-100695905D02*
X129538185Y-100971676D01*
X129124528Y-100374171D02*
X129124528Y-101063600D01*
X129538185Y-100649943D02*
X128297214Y-100374171D01*
X129354338Y-99454933D02*
X129354338Y-100006476D01*
X129354338Y-99730705D02*
X128389138Y-99730705D01*
X128527023Y-99822628D01*
X128618947Y-99914552D01*
X128664909Y-100006476D01*
X128389138Y-99133200D02*
X128389138Y-98535695D01*
X128756833Y-98857428D01*
X128756833Y-98719543D01*
X128802795Y-98627619D01*
X128848757Y-98581657D01*
X128940680Y-98535695D01*
X129170490Y-98535695D01*
X129262414Y-98581657D01*
X129308376Y-98627619D01*
X129354338Y-98719543D01*
X129354338Y-98995314D01*
X129308376Y-99087238D01*
X129262414Y-99133200D01*
X140682109Y-96781257D02*
X141003842Y-96781257D01*
X141141728Y-97286838D02*
X140682109Y-97286838D01*
X140682109Y-96321638D01*
X141141728Y-96321638D01*
X141555385Y-96643371D02*
X141555385Y-97286838D01*
X141555385Y-96735295D02*
X141601347Y-96689333D01*
X141693271Y-96643371D01*
X141831156Y-96643371D01*
X141923080Y-96689333D01*
X141969042Y-96781257D01*
X141969042Y-97286838D01*
D11*
X166893875Y-114148658D02*
X166893875Y-113585625D01*
X166893875Y-113304108D02*
X166853658Y-113344325D01*
X166893875Y-113384541D01*
X166934091Y-113344325D01*
X166893875Y-113304108D01*
X166893875Y-113384541D01*
X167416691Y-114148658D02*
X167336258Y-114108441D01*
X167296041Y-114068225D01*
X167255825Y-113987791D01*
X167255825Y-113746491D01*
X167296041Y-113666058D01*
X167336258Y-113625841D01*
X167416691Y-113585625D01*
X167537341Y-113585625D01*
X167617775Y-113625841D01*
X167657991Y-113666058D01*
X167698208Y-113746491D01*
X167698208Y-113987791D01*
X167657991Y-114068225D01*
X167617775Y-114108441D01*
X167537341Y-114148658D01*
X167416691Y-114148658D01*
X168502541Y-114148658D02*
X168019941Y-114148658D01*
X168261241Y-114148658D02*
X168261241Y-113304108D01*
X168180808Y-113424758D01*
X168100375Y-113505191D01*
X168019941Y-113545408D01*
D10*
X131304090Y-108234238D02*
X130982357Y-107774619D01*
X130752547Y-108234238D02*
X130752547Y-107269038D01*
X131120242Y-107269038D01*
X131212166Y-107315000D01*
X131258128Y-107360961D01*
X131304090Y-107452885D01*
X131304090Y-107590771D01*
X131258128Y-107682695D01*
X131212166Y-107728657D01*
X131120242Y-107774619D01*
X130752547Y-107774619D01*
X132085442Y-108188276D02*
X131993519Y-108234238D01*
X131809671Y-108234238D01*
X131717747Y-108188276D01*
X131671785Y-108096352D01*
X131671785Y-107728657D01*
X131717747Y-107636733D01*
X131809671Y-107590771D01*
X131993519Y-107590771D01*
X132085442Y-107636733D01*
X132131404Y-107728657D01*
X132131404Y-107820580D01*
X131671785Y-107912504D01*
X132499100Y-108188276D02*
X132591023Y-108234238D01*
X132774871Y-108234238D01*
X132866795Y-108188276D01*
X132912757Y-108096352D01*
X132912757Y-108050390D01*
X132866795Y-107958466D01*
X132774871Y-107912504D01*
X132636985Y-107912504D01*
X132545061Y-107866542D01*
X132499100Y-107774619D01*
X132499100Y-107728657D01*
X132545061Y-107636733D01*
X132636985Y-107590771D01*
X132774871Y-107590771D01*
X132866795Y-107636733D01*
X133694109Y-108188276D02*
X133602185Y-108234238D01*
X133418338Y-108234238D01*
X133326414Y-108188276D01*
X133280452Y-108096352D01*
X133280452Y-107728657D01*
X133326414Y-107636733D01*
X133418338Y-107590771D01*
X133602185Y-107590771D01*
X133694109Y-107636733D01*
X133740071Y-107728657D01*
X133740071Y-107820580D01*
X133280452Y-107912504D01*
X134015842Y-107590771D02*
X134383538Y-107590771D01*
X134153728Y-107269038D02*
X134153728Y-108096352D01*
X134199690Y-108188276D01*
X134291614Y-108234238D01*
X134383538Y-108234238D01*
X126449642Y-111799914D02*
X126403680Y-111845876D01*
X126265794Y-111891838D01*
X126173871Y-111891838D01*
X126035985Y-111845876D01*
X125944061Y-111753952D01*
X125898099Y-111662028D01*
X125852137Y-111478180D01*
X125852137Y-111340295D01*
X125898099Y-111156447D01*
X125944061Y-111064523D01*
X126035985Y-110972600D01*
X126173871Y-110926638D01*
X126265794Y-110926638D01*
X126403680Y-110972600D01*
X126449642Y-111018561D01*
X126863299Y-111891838D02*
X126863299Y-110926638D01*
X126863299Y-111386257D02*
X127414842Y-111386257D01*
X127414842Y-111891838D02*
X127414842Y-110926638D01*
X128380042Y-110972600D02*
X128288118Y-110926638D01*
X128150232Y-110926638D01*
X128012347Y-110972600D01*
X127920423Y-111064523D01*
X127874461Y-111156447D01*
X127828499Y-111340295D01*
X127828499Y-111478180D01*
X127874461Y-111662028D01*
X127920423Y-111753952D01*
X128012347Y-111845876D01*
X128150232Y-111891838D01*
X128242156Y-111891838D01*
X128380042Y-111845876D01*
X128426004Y-111799914D01*
X128426004Y-111478180D01*
X128242156Y-111478180D01*
X144223014Y-111792657D02*
X143901280Y-111792657D01*
X143901280Y-112298238D02*
X143901280Y-111333038D01*
X144360900Y-111333038D01*
X145096290Y-112252276D02*
X145004366Y-112298238D01*
X144820519Y-112298238D01*
X144728595Y-112252276D01*
X144682633Y-112160352D01*
X144682633Y-111792657D01*
X144728595Y-111700733D01*
X144820519Y-111654771D01*
X145004366Y-111654771D01*
X145096290Y-111700733D01*
X145142252Y-111792657D01*
X145142252Y-111884580D01*
X144682633Y-111976504D01*
X145969566Y-112298238D02*
X145969566Y-111792657D01*
X145923604Y-111700733D01*
X145831680Y-111654771D01*
X145647833Y-111654771D01*
X145555909Y-111700733D01*
X145969566Y-112252276D02*
X145877642Y-112298238D01*
X145647833Y-112298238D01*
X145555909Y-112252276D01*
X145509947Y-112160352D01*
X145509947Y-112068428D01*
X145555909Y-111976504D01*
X145647833Y-111930542D01*
X145877642Y-111930542D01*
X145969566Y-111884580D01*
X146291300Y-111654771D02*
X146658995Y-111654771D01*
X146429185Y-111333038D02*
X146429185Y-112160352D01*
X146475147Y-112252276D01*
X146567071Y-112298238D01*
X146658995Y-112298238D01*
X146980728Y-112298238D02*
X146980728Y-111333038D01*
X147394385Y-112298238D02*
X147394385Y-111792657D01*
X147348423Y-111700733D01*
X147256500Y-111654771D01*
X147118614Y-111654771D01*
X147026690Y-111700733D01*
X146980728Y-111746695D01*
X148221700Y-112252276D02*
X148129776Y-112298238D01*
X147945928Y-112298238D01*
X147854004Y-112252276D01*
X147808042Y-112160352D01*
X147808042Y-111792657D01*
X147854004Y-111700733D01*
X147945928Y-111654771D01*
X148129776Y-111654771D01*
X148221700Y-111700733D01*
X148267661Y-111792657D01*
X148267661Y-111884580D01*
X147808042Y-111976504D01*
X148681319Y-112298238D02*
X148681319Y-111654771D01*
X148681319Y-111838619D02*
X148727280Y-111746695D01*
X148773242Y-111700733D01*
X148865166Y-111654771D01*
X148957090Y-111654771D01*
X150014214Y-112298238D02*
X150014214Y-111333038D01*
X150335947Y-112022466D01*
X150657680Y-111333038D01*
X150657680Y-112298238D01*
X151301147Y-111333038D02*
X151393071Y-111333038D01*
X151484995Y-111379000D01*
X151530957Y-111424961D01*
X151576919Y-111516885D01*
X151622880Y-111700733D01*
X151622880Y-111930542D01*
X151576919Y-112114390D01*
X151530957Y-112206314D01*
X151484995Y-112252276D01*
X151393071Y-112298238D01*
X151301147Y-112298238D01*
X151209223Y-112252276D01*
X151163261Y-112206314D01*
X151117300Y-112114390D01*
X151071338Y-111930542D01*
X151071338Y-111700733D01*
X151117300Y-111516885D01*
X151163261Y-111424961D01*
X151209223Y-111379000D01*
X151301147Y-111333038D01*
X140124518Y-103128838D02*
X139802785Y-102669219D01*
X139572975Y-103128838D02*
X139572975Y-102163638D01*
X139940671Y-102163638D01*
X140032594Y-102209600D01*
X140078556Y-102255561D01*
X140124518Y-102347485D01*
X140124518Y-102485371D01*
X140078556Y-102577295D01*
X140032594Y-102623257D01*
X139940671Y-102669219D01*
X139572975Y-102669219D01*
X140859909Y-102623257D02*
X140538175Y-102623257D01*
X140538175Y-103128838D02*
X140538175Y-102163638D01*
X140997794Y-102163638D01*
X141365490Y-103128838D02*
X141365490Y-102163638D01*
X141687223Y-102853066D01*
X142008956Y-102163638D01*
X142008956Y-103128838D01*
X142514537Y-103128838D02*
X142698385Y-103128838D01*
X142790309Y-103082876D01*
X142836271Y-103036914D01*
X142928194Y-102899028D01*
X142974156Y-102715180D01*
X142974156Y-102347485D01*
X142928194Y-102255561D01*
X142882232Y-102209600D01*
X142790309Y-102163638D01*
X142606461Y-102163638D01*
X142514537Y-102209600D01*
X142468575Y-102255561D01*
X142422613Y-102347485D01*
X142422613Y-102577295D01*
X142468575Y-102669219D01*
X142514537Y-102715180D01*
X142606461Y-102761142D01*
X142790309Y-102761142D01*
X142882232Y-102715180D01*
X142928194Y-102669219D01*
X142974156Y-102577295D01*
X143295890Y-103128838D02*
X143801471Y-102485371D01*
X143295890Y-102485371D02*
X143801471Y-103128838D01*
X145364175Y-103128838D02*
X144904556Y-103128838D01*
X144904556Y-102163638D01*
X145823794Y-103128838D02*
X145731871Y-103082876D01*
X145685909Y-103036914D01*
X145639947Y-102944990D01*
X145639947Y-102669219D01*
X145685909Y-102577295D01*
X145731871Y-102531333D01*
X145823794Y-102485371D01*
X145961680Y-102485371D01*
X146053604Y-102531333D01*
X146099566Y-102577295D01*
X146145528Y-102669219D01*
X146145528Y-102944990D01*
X146099566Y-103036914D01*
X146053604Y-103082876D01*
X145961680Y-103128838D01*
X145823794Y-103128838D01*
X147110728Y-103128838D02*
X146788994Y-102669219D01*
X146559185Y-103128838D02*
X146559185Y-102163638D01*
X146926880Y-102163638D01*
X147018804Y-102209600D01*
X147064766Y-102255561D01*
X147110728Y-102347485D01*
X147110728Y-102485371D01*
X147064766Y-102577295D01*
X147018804Y-102623257D01*
X146926880Y-102669219D01*
X146559185Y-102669219D01*
X147938042Y-103128838D02*
X147938042Y-102623257D01*
X147892080Y-102531333D01*
X147800156Y-102485371D01*
X147616309Y-102485371D01*
X147524385Y-102531333D01*
X147938042Y-103082876D02*
X147846118Y-103128838D01*
X147616309Y-103128838D01*
X147524385Y-103082876D01*
X147478423Y-102990952D01*
X147478423Y-102899028D01*
X147524385Y-102807104D01*
X147616309Y-102761142D01*
X147846118Y-102761142D01*
X147938042Y-102715180D01*
X151493461Y-105384600D02*
X151999042Y-105384600D01*
X152090966Y-105338638D01*
X152136928Y-105246714D01*
X152136928Y-105062866D01*
X152090966Y-104970942D01*
X151539423Y-105384600D02*
X151493461Y-105292676D01*
X151493461Y-105062866D01*
X151539423Y-104970942D01*
X151631347Y-104924980D01*
X151723271Y-104924980D01*
X151815195Y-104970942D01*
X151861157Y-105062866D01*
X151861157Y-105292676D01*
X151907119Y-105384600D01*
X151493461Y-106257876D02*
X152458661Y-106257876D01*
X151539423Y-106257876D02*
X151493461Y-106165952D01*
X151493461Y-105982104D01*
X151539423Y-105890180D01*
X151585385Y-105844219D01*
X151677309Y-105798257D01*
X151953080Y-105798257D01*
X152045004Y-105844219D01*
X152090966Y-105890180D01*
X152136928Y-105982104D01*
X152136928Y-106165952D01*
X152090966Y-106257876D01*
X151493461Y-107131152D02*
X151999042Y-107131152D01*
X152090966Y-107085190D01*
X152136928Y-106993266D01*
X152136928Y-106809419D01*
X152090966Y-106717495D01*
X151539423Y-107131152D02*
X151493461Y-107039228D01*
X151493461Y-106809419D01*
X151539423Y-106717495D01*
X151631347Y-106671533D01*
X151723271Y-106671533D01*
X151815195Y-106717495D01*
X151861157Y-106809419D01*
X151861157Y-107039228D01*
X151907119Y-107131152D01*
X152136928Y-107452885D02*
X152136928Y-107820580D01*
X151493461Y-107590771D02*
X152320776Y-107590771D01*
X152412700Y-107636733D01*
X152458661Y-107728657D01*
X152458661Y-107820580D01*
X151493461Y-108142314D02*
X152136928Y-108142314D01*
X151953080Y-108142314D02*
X152045004Y-108188276D01*
X152090966Y-108234238D01*
X152136928Y-108326161D01*
X152136928Y-108418085D01*
X152136928Y-109153476D02*
X151493461Y-109153476D01*
X152136928Y-108739819D02*
X151631347Y-108739819D01*
X151539423Y-108785780D01*
X151493461Y-108877704D01*
X151493461Y-109015590D01*
X151539423Y-109107514D01*
X151585385Y-109153476D01*
X151493461Y-109613095D02*
X152136928Y-109613095D01*
X152458661Y-109613095D02*
X152412700Y-109567133D01*
X152366738Y-109613095D01*
X152412700Y-109659057D01*
X152458661Y-109613095D01*
X152366738Y-109613095D01*
X152136928Y-109934828D02*
X152136928Y-110302523D01*
X152458661Y-110072714D02*
X151631347Y-110072714D01*
X151539423Y-110118676D01*
X151493461Y-110210600D01*
X151493461Y-110302523D01*
X151585385Y-110624257D02*
X151539423Y-110670219D01*
X151493461Y-110624257D01*
X151539423Y-110578295D01*
X151585385Y-110624257D01*
X151493461Y-110624257D01*
X151861157Y-110624257D02*
X152412700Y-110578295D01*
X152458661Y-110624257D01*
X152412700Y-110670219D01*
X151861157Y-110624257D01*
X152458661Y-110624257D01*
D12*
X155252335Y-106739266D02*
X154689302Y-105934933D01*
X154287135Y-106739266D02*
X154287135Y-105050166D01*
X154930602Y-105050166D01*
X155091468Y-105130600D01*
X155171902Y-105211033D01*
X155252335Y-105371900D01*
X155252335Y-105613200D01*
X155171902Y-105774066D01*
X155091468Y-105854500D01*
X154930602Y-105934933D01*
X154287135Y-105934933D01*
X156539268Y-105854500D02*
X155976235Y-105854500D01*
X155976235Y-106739266D02*
X155976235Y-105050166D01*
X156780568Y-105050166D01*
X157424035Y-106739266D02*
X157424035Y-105050166D01*
X157987068Y-106256666D01*
X158550102Y-105050166D01*
X158550102Y-106739266D01*
X159434868Y-106739266D02*
X159756602Y-106739266D01*
X159917468Y-106658833D01*
X159997902Y-106578400D01*
X160158768Y-106337100D01*
X160239202Y-106015366D01*
X160239202Y-105371900D01*
X160158768Y-105211033D01*
X160078335Y-105130600D01*
X159917468Y-105050166D01*
X159595735Y-105050166D01*
X159434868Y-105130600D01*
X159354435Y-105211033D01*
X159274002Y-105371900D01*
X159274002Y-105774066D01*
X159354435Y-105934933D01*
X159434868Y-106015366D01*
X159595735Y-106095800D01*
X159917468Y-106095800D01*
X160078335Y-106015366D01*
X160158768Y-105934933D01*
X160239202Y-105774066D01*
X160802235Y-106739266D02*
X161687002Y-105613200D01*
X160802235Y-105613200D02*
X161687002Y-106739266D01*
X157021868Y-109521836D02*
X156217535Y-109521836D01*
X156217535Y-107832736D01*
X157826202Y-109521836D02*
X157665335Y-109441403D01*
X157584902Y-109360970D01*
X157504468Y-109200103D01*
X157504468Y-108717503D01*
X157584902Y-108556636D01*
X157665335Y-108476203D01*
X157826202Y-108395770D01*
X158067502Y-108395770D01*
X158228368Y-108476203D01*
X158308802Y-108556636D01*
X158389235Y-108717503D01*
X158389235Y-109200103D01*
X158308802Y-109360970D01*
X158228368Y-109441403D01*
X158067502Y-109521836D01*
X157826202Y-109521836D01*
X160078335Y-109521836D02*
X159515302Y-108717503D01*
X159113135Y-109521836D02*
X159113135Y-107832736D01*
X159756602Y-107832736D01*
X159917468Y-107913170D01*
X159997902Y-107993603D01*
X160078335Y-108154470D01*
X160078335Y-108395770D01*
X159997902Y-108556636D01*
X159917468Y-108637070D01*
X159756602Y-108717503D01*
X159113135Y-108717503D01*
X161526135Y-109521836D02*
X161526135Y-108637070D01*
X161445702Y-108476203D01*
X161284835Y-108395770D01*
X160963102Y-108395770D01*
X160802235Y-108476203D01*
X161526135Y-109441403D02*
X161365268Y-109521836D01*
X160963102Y-109521836D01*
X160802235Y-109441403D01*
X160721802Y-109280536D01*
X160721802Y-109119670D01*
X160802235Y-108958803D01*
X160963102Y-108878370D01*
X161365268Y-108878370D01*
X161526135Y-108797936D01*
D10*
D13*
G04 #@! TO.C,C6*
X130681100Y-103474600D02*
X131697100Y-103474600D01*
G04 #@! TO.C,C8*
X137467100Y-104809600D02*
X136451100Y-104809600D01*
D14*
G04 #@! TO.C,L1*
G36*
X125492100Y-99074600D02*
X126000100Y-99455600D01*
X126000100Y-98693600D01*
X125492100Y-99074600D01*
G37*
G36*
X125605600Y-99519100D02*
X125605600Y-98630100D01*
X125415100Y-98630100D01*
X125415100Y-99519100D01*
X125605600Y-99519100D01*
G37*
D15*
G04 #@! TO.C,SW1*
X131999100Y-109156600D02*
X132999100Y-109156600D01*
X131999102Y-109156600D02*
G75*
G03X131399100Y-109756600I-1J-600001D01*
G01*
X131399100Y-110156600D02*
X131399100Y-109756600D01*
X131399100Y-110156598D02*
G75*
G03X131999100Y-110756600I600001J-1D01*
G01*
X132999100Y-110756600D02*
X131999100Y-110756600D01*
X132999098Y-110756600D02*
G75*
G03X133599100Y-110156600I1J600001D01*
G01*
X133599100Y-109756600D02*
X133599100Y-110156600D01*
X133599100Y-109756602D02*
G75*
G03X132999100Y-109156600I-600001J1D01*
G01*
X134599100Y-108556600D02*
X134599100Y-111356600D01*
X130399100Y-108556600D02*
X134599100Y-108556600D01*
X130399100Y-111356600D02*
X130399100Y-108556600D01*
X134599100Y-111356600D02*
X130399100Y-111356600D01*
D16*
G04 #@! TO.C,U$31*
X127641100Y-96113600D02*
G75*
G03X127641100Y-96113600I-2000000J0D01*
G01*
G04 #@! TO.C,U$32*
X127641100Y-113893600D02*
G75*
G03X127641100Y-113893600I-2000000J0D01*
G01*
D15*
G04 #@! TO.C,X3*
X123246100Y-108803600D02*
X124146100Y-108803600D01*
X123246100Y-101203600D02*
X123246100Y-108803600D01*
X124146100Y-101203600D02*
X123246100Y-101203600D01*
X128646100Y-106703600D02*
X128646100Y-107503600D01*
X128646100Y-102503600D02*
X128646100Y-103303600D01*
D16*
G04 #@! TO.C,U2*
X141662100Y-101989600D02*
X140862100Y-101989600D01*
X139612100Y-101739600D02*
X139612100Y-100139600D01*
X142912100Y-101739600D02*
X142912100Y-100139600D01*
D14*
G04 #@! TO.C,D1*
G36*
X140981100Y-97764600D02*
X140681100Y-97964600D01*
X140681100Y-97564600D01*
X140981100Y-97764600D01*
G37*
G36*
X141381100Y-97264600D02*
X141181100Y-97264600D01*
X141181100Y-98264600D01*
X141381100Y-98264600D01*
X141381100Y-97264600D01*
G37*
D16*
X140581100Y-97364600D02*
X141181100Y-97764600D01*
X140581100Y-98164600D02*
X140581100Y-97364600D01*
X141181100Y-97764600D02*
X140581100Y-98164600D01*
X140008100Y-97064600D02*
X141754100Y-97064600D01*
X141754100Y-98464600D02*
X140008100Y-98464600D01*
G04 #@! TO.C,X1*
X129896100Y-101629600D02*
X129896100Y-97629600D01*
X130746100Y-101629600D02*
X129896100Y-101629600D01*
X130746100Y-99129600D02*
X130746100Y-101629600D01*
X132146100Y-99129600D02*
X130746100Y-99129600D01*
X137046100Y-99129600D02*
X135646100Y-99129600D01*
X137046100Y-101629600D02*
X137046100Y-99129600D01*
X137896100Y-101629600D02*
X137046100Y-101629600D01*
X137896100Y-97629600D02*
X137896100Y-101629600D01*
X131646100Y-94129600D02*
X136146100Y-94129600D01*
G04 #@! TO.C,U3*
X137344100Y-109736600D02*
X136544100Y-109736600D01*
X135294100Y-109486600D02*
X135294100Y-107886600D01*
X138594100Y-109486600D02*
X138594100Y-107886600D01*
D14*
G04 #@! TO.C,CHG1*
G36*
X125768100Y-110845600D02*
X125260100Y-110464600D01*
X125260100Y-111226600D01*
X125768100Y-110845600D01*
G37*
G36*
X125654600Y-110401100D02*
X125654600Y-111290100D01*
X125845100Y-111290100D01*
X125845100Y-110401100D01*
X125654600Y-110401100D01*
G37*
D13*
G04 #@! TO.C,C3*
X135039100Y-105257600D02*
X134023100Y-105257600D01*
D15*
G04 #@! TO.C,U$4*
X150831100Y-110381600D02*
X150281100Y-110381600D01*
X150831100Y-109831600D02*
X150831100Y-110381600D01*
X143631100Y-110381600D02*
X144181100Y-110381600D01*
X143631100Y-109831600D02*
X143631100Y-110381600D01*
X150831100Y-103181600D02*
X150831100Y-103731600D01*
X150281100Y-103181600D02*
X150831100Y-103181600D01*
X143631100Y-103181600D02*
X143631100Y-103731600D01*
X144181100Y-103181600D02*
X143631100Y-103181600D01*
D17*
X143480100Y-110713600D02*
G75*
G03X143480100Y-110713600I-127000J0D01*
G01*
D15*
G04 #@! TO.C,X2*
X139781101Y-111207601D02*
G75*
G03X139581100Y-111507600I49899J-249933D01*
G01*
X139581100Y-111807600D02*
X139581100Y-111507600D01*
X139581099Y-111807599D02*
G75*
G03X139881100Y-112007600I250001J50000D01*
G01*
X141881100Y-112007600D02*
X139881100Y-112007600D01*
X141881099Y-112007599D02*
G75*
G03X142181100Y-111707600I1J300000D01*
G01*
X142181100Y-111507600D02*
X142181100Y-111707600D01*
X142181100Y-111507600D02*
G75*
G03X141881100Y-111207600I-300100J-100D01*
G01*
X139781100Y-111207600D02*
X141881100Y-111207600D01*
X142481100Y-111223800D02*
X142481100Y-112024800D01*
X142481100Y-111223800D02*
G75*
G03X142164900Y-110907600I-316200J0D01*
G01*
X139504700Y-110907600D02*
X142164900Y-110907600D01*
X139504700Y-110907600D02*
G75*
G03X139281100Y-111131200I0J-223600D01*
G01*
X139281100Y-112024800D02*
X139281100Y-111131200D01*
X139281100Y-112024800D02*
G75*
G03X139563900Y-112307600I282800J0D01*
G01*
X142198300Y-112307600D02*
X139563900Y-112307600D01*
X142198300Y-112307600D02*
G75*
G03X142481100Y-112024800I0J282800D01*
G01*
D13*
G04 #@! TO.C,C5*
X151549100Y-98907600D02*
X152565100Y-98907600D01*
G04 #@! TO.C,C9*
X173139100Y-107670600D02*
X172123100Y-107670600D01*
D18*
G04 #@! TO.C,U4*
X172617100Y-112003600D02*
G75*
G03X172617100Y-112003600I-300000J0D01*
G01*
D15*
X170317100Y-113103600D02*
X170317100Y-112703600D01*
X154117100Y-113103600D02*
X170317100Y-113103600D01*
X154117100Y-112703600D02*
X154117100Y-113103600D01*
X170317100Y-96903600D02*
X170317100Y-97303600D01*
X154117100Y-96903600D02*
X170317100Y-96903600D01*
X154117100Y-97303600D02*
X154117100Y-96903600D01*
G04 #@! TO.C,C6*
D19*
X131205791Y-100727175D02*
X131242560Y-100763945D01*
X131279330Y-100874253D01*
X131279330Y-100947793D01*
X131242560Y-101058101D01*
X131169021Y-101131640D01*
X131095482Y-101168410D01*
X130948404Y-101205179D01*
X130838096Y-101205179D01*
X130691018Y-101168410D01*
X130617479Y-101131640D01*
X130543940Y-101058101D01*
X130507170Y-100947793D01*
X130507170Y-100874253D01*
X130543940Y-100763945D01*
X130580709Y-100727175D01*
X130507170Y-100065324D02*
X130507170Y-100212402D01*
X130543940Y-100285941D01*
X130580709Y-100322711D01*
X130691018Y-100396250D01*
X130838096Y-100433019D01*
X131132252Y-100433019D01*
X131205791Y-100396250D01*
X131242560Y-100359480D01*
X131279330Y-100285941D01*
X131279330Y-100138863D01*
X131242560Y-100065324D01*
X131205791Y-100028554D01*
X131132252Y-99991785D01*
X130948404Y-99991785D01*
X130874865Y-100028554D01*
X130838096Y-100065324D01*
X130801326Y-100138863D01*
X130801326Y-100285941D01*
X130838096Y-100359480D01*
X130874865Y-100396250D01*
X130948404Y-100433019D01*
G04 #@! TO.C,C7*
X140343524Y-102683291D02*
X140306754Y-102720060D01*
X140196446Y-102756830D01*
X140122906Y-102756830D01*
X140012598Y-102720060D01*
X139939059Y-102646521D01*
X139902289Y-102572982D01*
X139865520Y-102425904D01*
X139865520Y-102315596D01*
X139902289Y-102168518D01*
X139939059Y-102094979D01*
X140012598Y-102021440D01*
X140122906Y-101984670D01*
X140196446Y-101984670D01*
X140306754Y-102021440D01*
X140343524Y-102058209D01*
X140600910Y-101984670D02*
X141115684Y-101984670D01*
X140784758Y-102756830D01*
G04 #@! TO.C,C8*
X135859289Y-107503451D02*
X135822519Y-107540220D01*
X135712211Y-107576990D01*
X135638672Y-107576990D01*
X135528363Y-107540220D01*
X135454824Y-107466681D01*
X135418054Y-107393142D01*
X135381285Y-107246064D01*
X135381285Y-107135756D01*
X135418054Y-106988678D01*
X135454824Y-106915139D01*
X135528363Y-106841600D01*
X135638672Y-106804830D01*
X135712211Y-106804830D01*
X135822519Y-106841600D01*
X135859289Y-106878369D01*
X136300523Y-107135756D02*
X136226984Y-107098986D01*
X136190214Y-107062217D01*
X136153445Y-106988678D01*
X136153445Y-106951908D01*
X136190214Y-106878369D01*
X136226984Y-106841600D01*
X136300523Y-106804830D01*
X136447601Y-106804830D01*
X136521140Y-106841600D01*
X136557910Y-106878369D01*
X136594679Y-106951908D01*
X136594679Y-106988678D01*
X136557910Y-107062217D01*
X136521140Y-107098986D01*
X136447601Y-107135756D01*
X136300523Y-107135756D01*
X136226984Y-107172525D01*
X136190214Y-107209295D01*
X136153445Y-107282834D01*
X136153445Y-107429912D01*
X136190214Y-107503451D01*
X136226984Y-107540220D01*
X136300523Y-107576990D01*
X136447601Y-107576990D01*
X136521140Y-107540220D01*
X136557910Y-107503451D01*
X136594679Y-107429912D01*
X136594679Y-107282834D01*
X136557910Y-107209295D01*
X136521140Y-107172525D01*
X136447601Y-107135756D01*
G04 #@! TO.C,L1*
X126624828Y-100825990D02*
X126257133Y-100825990D01*
X126257133Y-100053830D01*
X127286679Y-100825990D02*
X126845445Y-100825990D01*
X127066062Y-100825990D02*
X127066062Y-100053830D01*
X126992523Y-100164139D01*
X126918984Y-100237678D01*
X126845445Y-100274447D01*
G04 #@! TO.C,C14*
X136313324Y-112105698D02*
X136276554Y-112142467D01*
X136166246Y-112179237D01*
X136092706Y-112179237D01*
X135982398Y-112142467D01*
X135908859Y-112068928D01*
X135872089Y-111995389D01*
X135835320Y-111848311D01*
X135835320Y-111738003D01*
X135872089Y-111590925D01*
X135908859Y-111517386D01*
X135982398Y-111443847D01*
X136092706Y-111407077D01*
X136166246Y-111407077D01*
X136276554Y-111443847D01*
X136313324Y-111480616D01*
X137048714Y-112179237D02*
X136607480Y-112179237D01*
X136828097Y-112179237D02*
X136828097Y-111407077D01*
X136754558Y-111517386D01*
X136681019Y-111590925D01*
X136607480Y-111627694D01*
X137710566Y-111664464D02*
X137710566Y-112179237D01*
X137526718Y-111370307D02*
X137342870Y-111921850D01*
X137820874Y-111921850D01*
G04 #@! TO.C,R7*
X129424490Y-98229410D02*
X129056795Y-98486797D01*
X129424490Y-98670645D02*
X128652330Y-98670645D01*
X128652330Y-98376488D01*
X128689100Y-98302949D01*
X128725869Y-98266180D01*
X128799408Y-98229410D01*
X128909717Y-98229410D01*
X128983256Y-98266180D01*
X129020025Y-98302949D01*
X129056795Y-98376488D01*
X129056795Y-98670645D01*
X128652330Y-97972024D02*
X128652330Y-97457250D01*
X129424490Y-97788176D01*
G04 #@! TO.C,X3*
X121657330Y-103676414D02*
X122429490Y-103161641D01*
X121657330Y-103161641D02*
X122429490Y-103676414D01*
X121657330Y-102941024D02*
X121657330Y-102463020D01*
X121951486Y-102720406D01*
X121951486Y-102610098D01*
X121988256Y-102536559D01*
X122025025Y-102499789D01*
X122098564Y-102463020D01*
X122282412Y-102463020D01*
X122355951Y-102499789D01*
X122392720Y-102536559D01*
X122429490Y-102610098D01*
X122429490Y-102830715D01*
X122392720Y-102904254D01*
X122355951Y-102941024D01*
G04 #@! TO.C,U2*
X137833285Y-100902830D02*
X137833285Y-101527912D01*
X137870054Y-101601451D01*
X137906824Y-101638220D01*
X137980363Y-101674990D01*
X138127441Y-101674990D01*
X138200980Y-101638220D01*
X138237750Y-101601451D01*
X138274519Y-101527912D01*
X138274519Y-100902830D01*
X138605445Y-100976369D02*
X138642214Y-100939600D01*
X138715753Y-100902830D01*
X138899601Y-100902830D01*
X138973140Y-100939600D01*
X139009910Y-100976369D01*
X139046679Y-101049908D01*
X139046679Y-101123447D01*
X139009910Y-101233756D01*
X138568675Y-101674990D01*
X139046679Y-101674990D01*
G04 #@! TO.C,D1*
X140737054Y-99515990D02*
X140737054Y-98743830D01*
X140920902Y-98743830D01*
X141031211Y-98780600D01*
X141104750Y-98854139D01*
X141141519Y-98927678D01*
X141178289Y-99074756D01*
X141178289Y-99185064D01*
X141141519Y-99332142D01*
X141104750Y-99405681D01*
X141031211Y-99479220D01*
X140920902Y-99515990D01*
X140737054Y-99515990D01*
X141913679Y-99515990D02*
X141472445Y-99515990D01*
X141693062Y-99515990D02*
X141693062Y-98743830D01*
X141619523Y-98854139D01*
X141545984Y-98927678D01*
X141472445Y-98964447D01*
G04 #@! TO.C,JP1*
X167115559Y-116955630D02*
X167115559Y-117507173D01*
X167078790Y-117617481D01*
X167005251Y-117691020D01*
X166894942Y-117727790D01*
X166821403Y-117727790D01*
X167483254Y-117727790D02*
X167483254Y-116955630D01*
X167777411Y-116955630D01*
X167850950Y-116992400D01*
X167887719Y-117029169D01*
X167924489Y-117102708D01*
X167924489Y-117213017D01*
X167887719Y-117286556D01*
X167850950Y-117323325D01*
X167777411Y-117360095D01*
X167483254Y-117360095D01*
X168659879Y-117727790D02*
X168218645Y-117727790D01*
X168439262Y-117727790D02*
X168439262Y-116955630D01*
X168365723Y-117065939D01*
X168292184Y-117139478D01*
X168218645Y-117176247D01*
G04 #@! TO.C,X1*
D20*
X131952545Y-94609557D02*
X132540857Y-94830174D01*
X131952545Y-95050791D01*
X132908552Y-95124330D02*
X132908552Y-94352170D01*
X133349787Y-95124330D01*
X133349787Y-94352170D01*
X134048408Y-95124330D02*
X134048408Y-94719865D01*
X134011638Y-94646326D01*
X133938099Y-94609557D01*
X133791021Y-94609557D01*
X133717482Y-94646326D01*
X134048408Y-95087560D02*
X133974869Y-95124330D01*
X133791021Y-95124330D01*
X133717482Y-95087560D01*
X133680712Y-95014021D01*
X133680712Y-94940482D01*
X133717482Y-94866943D01*
X133791021Y-94830174D01*
X133974869Y-94830174D01*
X134048408Y-94793404D01*
X134416103Y-95124330D02*
X134416103Y-94609557D01*
X134416103Y-94683096D02*
X134452872Y-94646326D01*
X134526411Y-94609557D01*
X134636720Y-94609557D01*
X134710259Y-94646326D01*
X134747029Y-94719865D01*
X134747029Y-95124330D01*
X134747029Y-94719865D02*
X134783798Y-94646326D01*
X134857337Y-94609557D01*
X134967646Y-94609557D01*
X135041185Y-94646326D01*
X135077954Y-94719865D01*
X135077954Y-95124330D01*
X135739806Y-95087560D02*
X135666267Y-95124330D01*
X135519189Y-95124330D01*
X135445649Y-95087560D01*
X135408880Y-95014021D01*
X135408880Y-94719865D01*
X135445649Y-94646326D01*
X135519189Y-94609557D01*
X135666267Y-94609557D01*
X135739806Y-94646326D01*
X135776575Y-94719865D01*
X135776575Y-94793404D01*
X135408880Y-94866943D01*
G04 #@! TO.C,JP3*
D19*
X138759706Y-92205870D02*
X138759706Y-92757413D01*
X138722937Y-92867721D01*
X138649398Y-92941260D01*
X138539089Y-92978030D01*
X138465550Y-92978030D01*
X139127402Y-92978030D02*
X139127402Y-92205870D01*
X139421558Y-92205870D01*
X139495097Y-92242640D01*
X139531866Y-92279409D01*
X139568636Y-92352948D01*
X139568636Y-92463257D01*
X139531866Y-92536796D01*
X139495097Y-92573565D01*
X139421558Y-92610335D01*
X139127402Y-92610335D01*
X139826023Y-92205870D02*
X140304026Y-92205870D01*
X140046640Y-92500026D01*
X140156948Y-92500026D01*
X140230487Y-92536796D01*
X140267257Y-92573565D01*
X140304026Y-92647104D01*
X140304026Y-92830952D01*
X140267257Y-92904491D01*
X140230487Y-92941260D01*
X140156948Y-92978030D01*
X139936331Y-92978030D01*
X139862792Y-92941260D01*
X139826023Y-92904491D01*
G04 #@! TO.C,U3*
X133515285Y-108649830D02*
X133515285Y-109274912D01*
X133552054Y-109348451D01*
X133588824Y-109385220D01*
X133662363Y-109421990D01*
X133809441Y-109421990D01*
X133882980Y-109385220D01*
X133919750Y-109348451D01*
X133956519Y-109274912D01*
X133956519Y-108649830D01*
X134250675Y-108649830D02*
X134728679Y-108649830D01*
X134471293Y-108943986D01*
X134581601Y-108943986D01*
X134655140Y-108980756D01*
X134691910Y-109017525D01*
X134728679Y-109091064D01*
X134728679Y-109274912D01*
X134691910Y-109348451D01*
X134655140Y-109385220D01*
X134581601Y-109421990D01*
X134360984Y-109421990D01*
X134287445Y-109385220D01*
X134250675Y-109348451D01*
G04 #@! TO.C,CHG1*
X124451524Y-109719291D02*
X124414754Y-109756060D01*
X124304446Y-109792830D01*
X124230906Y-109792830D01*
X124120598Y-109756060D01*
X124047059Y-109682521D01*
X124010289Y-109608982D01*
X123973520Y-109461904D01*
X123973520Y-109351596D01*
X124010289Y-109204518D01*
X124047059Y-109130979D01*
X124120598Y-109057440D01*
X124230906Y-109020670D01*
X124304446Y-109020670D01*
X124414754Y-109057440D01*
X124451524Y-109094209D01*
X124782449Y-109792830D02*
X124782449Y-109020670D01*
X124782449Y-109388365D02*
X125223684Y-109388365D01*
X125223684Y-109792830D02*
X125223684Y-109020670D01*
X125995844Y-109057440D02*
X125922305Y-109020670D01*
X125811996Y-109020670D01*
X125701687Y-109057440D01*
X125628148Y-109130979D01*
X125591379Y-109204518D01*
X125554609Y-109351596D01*
X125554609Y-109461904D01*
X125591379Y-109608982D01*
X125628148Y-109682521D01*
X125701687Y-109756060D01*
X125811996Y-109792830D01*
X125885535Y-109792830D01*
X125995844Y-109756060D01*
X126032613Y-109719291D01*
X126032613Y-109461904D01*
X125885535Y-109461904D01*
X126768004Y-109792830D02*
X126326769Y-109792830D01*
X126547386Y-109792830D02*
X126547386Y-109020670D01*
X126473847Y-109130979D01*
X126400308Y-109204518D01*
X126326769Y-109241287D01*
G04 #@! TO.C,R2*
X131690524Y-112205830D02*
X131433137Y-111838135D01*
X131249289Y-112205830D02*
X131249289Y-111433670D01*
X131543446Y-111433670D01*
X131616985Y-111470440D01*
X131653754Y-111507209D01*
X131690524Y-111580748D01*
X131690524Y-111691057D01*
X131653754Y-111764596D01*
X131616985Y-111801365D01*
X131543446Y-111838135D01*
X131249289Y-111838135D01*
X131984680Y-111507209D02*
X132021449Y-111470440D01*
X132094988Y-111433670D01*
X132278836Y-111433670D01*
X132352375Y-111470440D01*
X132389145Y-111507209D01*
X132425914Y-111580748D01*
X132425914Y-111654287D01*
X132389145Y-111764596D01*
X131947910Y-112205830D01*
X132425914Y-112205830D01*
G04 #@! TO.C,C3*
X135065951Y-108262410D02*
X135102720Y-108299180D01*
X135139490Y-108409488D01*
X135139490Y-108483027D01*
X135102720Y-108593336D01*
X135029181Y-108666875D01*
X134955642Y-108703645D01*
X134808564Y-108740414D01*
X134698256Y-108740414D01*
X134551178Y-108703645D01*
X134477639Y-108666875D01*
X134404100Y-108593336D01*
X134367330Y-108483027D01*
X134367330Y-108409488D01*
X134404100Y-108299180D01*
X134440869Y-108262410D01*
X134367330Y-108005024D02*
X134367330Y-107527020D01*
X134661486Y-107784406D01*
X134661486Y-107674098D01*
X134698256Y-107600559D01*
X134735025Y-107563789D01*
X134808564Y-107527020D01*
X134992412Y-107527020D01*
X135065951Y-107563789D01*
X135102720Y-107600559D01*
X135139490Y-107674098D01*
X135139490Y-107894715D01*
X135102720Y-107968254D01*
X135065951Y-108005024D01*
G04 #@! TO.C,R8*
X134193289Y-112723990D02*
X133935902Y-112356295D01*
X133752054Y-112723990D02*
X133752054Y-111951830D01*
X134046211Y-111951830D01*
X134119750Y-111988600D01*
X134156519Y-112025369D01*
X134193289Y-112098908D01*
X134193289Y-112209217D01*
X134156519Y-112282756D01*
X134119750Y-112319525D01*
X134046211Y-112356295D01*
X133752054Y-112356295D01*
X134634523Y-112282756D02*
X134560984Y-112245986D01*
X134524214Y-112209217D01*
X134487445Y-112135678D01*
X134487445Y-112098908D01*
X134524214Y-112025369D01*
X134560984Y-111988600D01*
X134634523Y-111951830D01*
X134781601Y-111951830D01*
X134855140Y-111988600D01*
X134891910Y-112025369D01*
X134928679Y-112098908D01*
X134928679Y-112135678D01*
X134891910Y-112209217D01*
X134855140Y-112245986D01*
X134781601Y-112282756D01*
X134634523Y-112282756D01*
X134560984Y-112319525D01*
X134524214Y-112356295D01*
X134487445Y-112429834D01*
X134487445Y-112576912D01*
X134524214Y-112650451D01*
X134560984Y-112687220D01*
X134634523Y-112723990D01*
X134781601Y-112723990D01*
X134855140Y-112687220D01*
X134891910Y-112650451D01*
X134928679Y-112576912D01*
X134928679Y-112429834D01*
X134891910Y-112356295D01*
X134855140Y-112319525D01*
X134781601Y-112282756D01*
G04 #@! TO.C,R3*
X147692524Y-97854830D02*
X147435137Y-97487135D01*
X147251289Y-97854830D02*
X147251289Y-97082670D01*
X147545446Y-97082670D01*
X147618985Y-97119440D01*
X147655754Y-97156209D01*
X147692524Y-97229748D01*
X147692524Y-97340057D01*
X147655754Y-97413596D01*
X147618985Y-97450365D01*
X147545446Y-97487135D01*
X147251289Y-97487135D01*
X147949910Y-97082670D02*
X148427914Y-97082670D01*
X148170527Y-97376826D01*
X148280836Y-97376826D01*
X148354375Y-97413596D01*
X148391145Y-97450365D01*
X148427914Y-97523904D01*
X148427914Y-97707752D01*
X148391145Y-97781291D01*
X148354375Y-97818060D01*
X148280836Y-97854830D01*
X148060219Y-97854830D01*
X147986680Y-97818060D01*
X147949910Y-97781291D01*
G04 #@! TO.C,R6*
X142829289Y-99642990D02*
X142571902Y-99275295D01*
X142388054Y-99642990D02*
X142388054Y-98870830D01*
X142682211Y-98870830D01*
X142755750Y-98907600D01*
X142792519Y-98944369D01*
X142829289Y-99017908D01*
X142829289Y-99128217D01*
X142792519Y-99201756D01*
X142755750Y-99238525D01*
X142682211Y-99275295D01*
X142388054Y-99275295D01*
X143491140Y-98870830D02*
X143344062Y-98870830D01*
X143270523Y-98907600D01*
X143233753Y-98944369D01*
X143160214Y-99054678D01*
X143123445Y-99201756D01*
X143123445Y-99495912D01*
X143160214Y-99569451D01*
X143196984Y-99606220D01*
X143270523Y-99642990D01*
X143417601Y-99642990D01*
X143491140Y-99606220D01*
X143527910Y-99569451D01*
X143564679Y-99495912D01*
X143564679Y-99312064D01*
X143527910Y-99238525D01*
X143491140Y-99201756D01*
X143417601Y-99164986D01*
X143270523Y-99164986D01*
X143196984Y-99201756D01*
X143160214Y-99238525D01*
X143123445Y-99312064D01*
G04 #@! TO.C,U$4*
X145155289Y-101572670D02*
X145155289Y-102197752D01*
X145192059Y-102271291D01*
X145228828Y-102308060D01*
X145302367Y-102344830D01*
X145449446Y-102344830D01*
X145522985Y-102308060D01*
X145559754Y-102271291D01*
X145596524Y-102197752D01*
X145596524Y-101572670D01*
X145927449Y-102308060D02*
X146037758Y-102344830D01*
X146221606Y-102344830D01*
X146295145Y-102308060D01*
X146331914Y-102271291D01*
X146368684Y-102197752D01*
X146368684Y-102124213D01*
X146331914Y-102050674D01*
X146295145Y-102013904D01*
X146221606Y-101977135D01*
X146074527Y-101940365D01*
X146000988Y-101903596D01*
X145964219Y-101866826D01*
X145927449Y-101793287D01*
X145927449Y-101719748D01*
X145964219Y-101646209D01*
X146000988Y-101609440D01*
X146074527Y-101572670D01*
X146258375Y-101572670D01*
X146368684Y-101609440D01*
X146148066Y-101462361D02*
X146148066Y-102455139D01*
X147030535Y-101830057D02*
X147030535Y-102344830D01*
X146846687Y-101535900D02*
X146662840Y-102087443D01*
X147140844Y-102087443D01*
G04 #@! TO.C,C1*
X140897791Y-102129175D02*
X140934560Y-102165945D01*
X140971330Y-102276253D01*
X140971330Y-102349793D01*
X140934560Y-102460101D01*
X140861021Y-102533640D01*
X140787482Y-102570410D01*
X140640404Y-102607179D01*
X140530096Y-102607179D01*
X140383018Y-102570410D01*
X140309479Y-102533640D01*
X140235940Y-102460101D01*
X140199170Y-102349793D01*
X140199170Y-102276253D01*
X140235940Y-102165945D01*
X140272709Y-102129175D01*
X140971330Y-101393785D02*
X140971330Y-101835019D01*
X140971330Y-101614402D02*
X140199170Y-101614402D01*
X140309479Y-101687941D01*
X140383018Y-101761480D01*
X140419787Y-101835019D01*
G04 #@! TO.C,C2*
X140770791Y-106447175D02*
X140807560Y-106483945D01*
X140844330Y-106594253D01*
X140844330Y-106667793D01*
X140807560Y-106778101D01*
X140734021Y-106851640D01*
X140660482Y-106888410D01*
X140513404Y-106925179D01*
X140403096Y-106925179D01*
X140256018Y-106888410D01*
X140182479Y-106851640D01*
X140108940Y-106778101D01*
X140072170Y-106667793D01*
X140072170Y-106594253D01*
X140108940Y-106483945D01*
X140145709Y-106447175D01*
X140145709Y-106153019D02*
X140108940Y-106116250D01*
X140072170Y-106042711D01*
X140072170Y-105858863D01*
X140108940Y-105785324D01*
X140145709Y-105748554D01*
X140219248Y-105711785D01*
X140292787Y-105711785D01*
X140403096Y-105748554D01*
X140844330Y-106189789D01*
X140844330Y-105711785D01*
G04 #@! TO.C,C4*
X139500791Y-106447175D02*
X139537560Y-106483945D01*
X139574330Y-106594253D01*
X139574330Y-106667793D01*
X139537560Y-106778101D01*
X139464021Y-106851640D01*
X139390482Y-106888410D01*
X139243404Y-106925179D01*
X139133096Y-106925179D01*
X138986018Y-106888410D01*
X138912479Y-106851640D01*
X138838940Y-106778101D01*
X138802170Y-106667793D01*
X138802170Y-106594253D01*
X138838940Y-106483945D01*
X138875709Y-106447175D01*
X139059557Y-105785324D02*
X139574330Y-105785324D01*
X138765400Y-105969172D02*
X139316943Y-106153019D01*
X139316943Y-105675015D01*
G04 #@! TO.C,X2*
D21*
X138769176Y-112796438D02*
X139412642Y-113761638D01*
X139412642Y-112796438D02*
X138769176Y-113761638D01*
X139734376Y-112888361D02*
X139780338Y-112842400D01*
X139872261Y-112796438D01*
X140102071Y-112796438D01*
X140193995Y-112842400D01*
X140239957Y-112888361D01*
X140285918Y-112980285D01*
X140285918Y-113072209D01*
X140239957Y-113210095D01*
X139688414Y-113761638D01*
X140285918Y-113761638D01*
G04 #@! TO.C,C5*
D19*
X152073791Y-96160175D02*
X152110560Y-96196945D01*
X152147330Y-96307253D01*
X152147330Y-96380793D01*
X152110560Y-96491101D01*
X152037021Y-96564640D01*
X151963482Y-96601410D01*
X151816404Y-96638179D01*
X151706096Y-96638179D01*
X151559018Y-96601410D01*
X151485479Y-96564640D01*
X151411940Y-96491101D01*
X151375170Y-96380793D01*
X151375170Y-96307253D01*
X151411940Y-96196945D01*
X151448709Y-96160175D01*
X151375170Y-95461554D02*
X151375170Y-95829250D01*
X151742865Y-95866019D01*
X151706096Y-95829250D01*
X151669326Y-95755711D01*
X151669326Y-95571863D01*
X151706096Y-95498324D01*
X151742865Y-95461554D01*
X151816404Y-95424785D01*
X152000252Y-95424785D01*
X152073791Y-95461554D01*
X152110560Y-95498324D01*
X152147330Y-95571863D01*
X152147330Y-95755711D01*
X152110560Y-95829250D01*
X152073791Y-95866019D01*
G04 #@! TO.C,R1*
X138812330Y-97811175D02*
X138444635Y-98068562D01*
X138812330Y-98252410D02*
X138040170Y-98252410D01*
X138040170Y-97958253D01*
X138076940Y-97884714D01*
X138113709Y-97847945D01*
X138187248Y-97811175D01*
X138297557Y-97811175D01*
X138371096Y-97847945D01*
X138407865Y-97884714D01*
X138444635Y-97958253D01*
X138444635Y-98252410D01*
X138812330Y-97075785D02*
X138812330Y-97517019D01*
X138812330Y-97296402D02*
X138040170Y-97296402D01*
X138150479Y-97369941D01*
X138224018Y-97443480D01*
X138260787Y-97517019D01*
G04 #@! TO.C,C9*
X173165951Y-110675410D02*
X173202720Y-110712180D01*
X173239490Y-110822488D01*
X173239490Y-110896027D01*
X173202720Y-111006336D01*
X173129181Y-111079875D01*
X173055642Y-111116645D01*
X172908564Y-111153414D01*
X172798256Y-111153414D01*
X172651178Y-111116645D01*
X172577639Y-111079875D01*
X172504100Y-111006336D01*
X172467330Y-110896027D01*
X172467330Y-110822488D01*
X172504100Y-110712180D01*
X172540869Y-110675410D01*
X173239490Y-110307715D02*
X173239490Y-110160637D01*
X173202720Y-110087098D01*
X173165951Y-110050328D01*
X173055642Y-109976789D01*
X172908564Y-109940020D01*
X172614408Y-109940020D01*
X172540869Y-109976789D01*
X172504100Y-110013559D01*
X172467330Y-110087098D01*
X172467330Y-110234176D01*
X172504100Y-110307715D01*
X172540869Y-110344485D01*
X172614408Y-110381254D01*
X172798256Y-110381254D01*
X172871795Y-110344485D01*
X172908564Y-110307715D01*
X172945334Y-110234176D01*
X172945334Y-110087098D01*
X172908564Y-110013559D01*
X172871795Y-109976789D01*
X172798256Y-109940020D01*
G04 #@! TO.C,JP2*
X171779706Y-108715870D02*
X171779706Y-109267413D01*
X171742937Y-109377721D01*
X171669398Y-109451260D01*
X171559089Y-109488030D01*
X171485550Y-109488030D01*
X172147402Y-109488030D02*
X172147402Y-108715870D01*
X172441558Y-108715870D01*
X172515097Y-108752640D01*
X172551866Y-108789409D01*
X172588636Y-108862948D01*
X172588636Y-108973257D01*
X172551866Y-109046796D01*
X172515097Y-109083565D01*
X172441558Y-109120335D01*
X172147402Y-109120335D01*
X172882792Y-108789409D02*
X172919562Y-108752640D01*
X172993101Y-108715870D01*
X173176948Y-108715870D01*
X173250487Y-108752640D01*
X173287257Y-108789409D01*
X173324026Y-108862948D01*
X173324026Y-108936487D01*
X173287257Y-109046796D01*
X172846023Y-109488030D01*
X173324026Y-109488030D01*
G04 #@! TO.C,U4*
X154491289Y-95694670D02*
X154491289Y-96319752D01*
X154528059Y-96393291D01*
X154564828Y-96430060D01*
X154638367Y-96466830D01*
X154785446Y-96466830D01*
X154858985Y-96430060D01*
X154895754Y-96393291D01*
X154932524Y-96319752D01*
X154932524Y-95694670D01*
X155631145Y-95952057D02*
X155631145Y-96466830D01*
X155447297Y-95657900D02*
X155263449Y-96209443D01*
X155741453Y-96209443D01*
D22*
X154454736Y-113685215D02*
X154326042Y-113501367D01*
X154234119Y-113685215D02*
X154234119Y-113299135D01*
X154381197Y-113299135D01*
X154417966Y-113317520D01*
X154436351Y-113335904D01*
X154454736Y-113372674D01*
X154454736Y-113427828D01*
X154436351Y-113464598D01*
X154417966Y-113482982D01*
X154381197Y-113501367D01*
X154234119Y-113501367D01*
X154748892Y-113482982D02*
X154620199Y-113482982D01*
X154620199Y-113685215D02*
X154620199Y-113299135D01*
X154804046Y-113299135D01*
X154951124Y-113685215D02*
X154951124Y-113299135D01*
X155079818Y-113574906D01*
X155208511Y-113299135D01*
X155208511Y-113685215D01*
X155557821Y-113299135D02*
X155484282Y-113299135D01*
X155447513Y-113317520D01*
X155429128Y-113335904D01*
X155392359Y-113391059D01*
X155373974Y-113464598D01*
X155373974Y-113611676D01*
X155392359Y-113648445D01*
X155410743Y-113666830D01*
X155447513Y-113685215D01*
X155521052Y-113685215D01*
X155557821Y-113666830D01*
X155576206Y-113648445D01*
X155594591Y-113611676D01*
X155594591Y-113519752D01*
X155576206Y-113482982D01*
X155557821Y-113464598D01*
X155521052Y-113446213D01*
X155447513Y-113446213D01*
X155410743Y-113464598D01*
X155392359Y-113482982D01*
X155373974Y-113519752D01*
X155778439Y-113685215D02*
X155851978Y-113685215D01*
X155888747Y-113666830D01*
X155907132Y-113648445D01*
X155943901Y-113593291D01*
X155962286Y-113519752D01*
X155962286Y-113372674D01*
X155943901Y-113335904D01*
X155925517Y-113317520D01*
X155888747Y-113299135D01*
X155815208Y-113299135D01*
X155778439Y-113317520D01*
X155760054Y-113335904D01*
X155741669Y-113372674D01*
X155741669Y-113464598D01*
X155760054Y-113501367D01*
X155778439Y-113519752D01*
X155815208Y-113538137D01*
X155888747Y-113538137D01*
X155925517Y-113519752D01*
X155943901Y-113501367D01*
X155962286Y-113464598D01*
X156127749Y-113685215D02*
X156127749Y-113299135D01*
X156127749Y-113482982D02*
X156348366Y-113482982D01*
X156348366Y-113685215D02*
X156348366Y-113299135D01*
X156752831Y-113648445D02*
X156734446Y-113666830D01*
X156679292Y-113685215D01*
X156642522Y-113685215D01*
X156587368Y-113666830D01*
X156550599Y-113630060D01*
X156532214Y-113593291D01*
X156513829Y-113519752D01*
X156513829Y-113464598D01*
X156532214Y-113391059D01*
X156550599Y-113354289D01*
X156587368Y-113317520D01*
X156642522Y-113299135D01*
X156679292Y-113299135D01*
X156734446Y-113317520D01*
X156752831Y-113335904D01*
X156881524Y-113299135D02*
X156973448Y-113685215D01*
X157046987Y-113409443D01*
X157120526Y-113685215D01*
X157212450Y-113299135D01*
G04 #@! TO.C,JP5*
D19*
X169993370Y-104584993D02*
X170544913Y-104584993D01*
X170655221Y-104621762D01*
X170728760Y-104695301D01*
X170765530Y-104805610D01*
X170765530Y-104879149D01*
X170765530Y-104217297D02*
X169993370Y-104217297D01*
X169993370Y-103923141D01*
X170030140Y-103849602D01*
X170066909Y-103812833D01*
X170140448Y-103776063D01*
X170250757Y-103776063D01*
X170324296Y-103812833D01*
X170361065Y-103849602D01*
X170397835Y-103923141D01*
X170397835Y-104217297D01*
X169993370Y-103077442D02*
X169993370Y-103445137D01*
X170361065Y-103481907D01*
X170324296Y-103445137D01*
X170287526Y-103371598D01*
X170287526Y-103187751D01*
X170324296Y-103114212D01*
X170361065Y-103077442D01*
X170434604Y-103040673D01*
X170618452Y-103040673D01*
X170691991Y-103077442D01*
X170728760Y-103114212D01*
X170765530Y-103187751D01*
X170765530Y-103371598D01*
X170728760Y-103445137D01*
X170691991Y-103481907D01*
G04 #@! TD*
M02*
