M48
;DRILL file {KiCad 5.0.2-bee76a0~70~ubuntu18.04.1} date Sun 13 Jan 2019 08:45:59 PM CST
;FORMAT={-:-/ absolute / metric / decimal}
FMAT,2
METRIC,TZ
T1C0.400
T2C0.500
T3C0.800
T4C0.900
T5C1.000
T6C2.500
%
G90
G05
T1
X137.033Y-102.362
X141.901Y-104.622
X142.901Y-104.517
X145.478Y-105.029
X149.733Y-113.03
X151.892Y-103.505
X151.957Y-101.928
X152.004Y-106.769
X152.54Y-108.714
X152.597Y-104.314
X152.608Y-105.356
X152.724Y-102.823
X155.702Y-105.156
X155.702Y-106.934
X156.083Y-101.219
X157.226Y-107.569
X157.347Y-111.881
X158.152Y-107.945
X158.75Y-100.33
X159.385Y-99.187
X160.274Y-106.68
X162.941Y-102.108
X163.143Y-109.476
X163.576Y-103.632
X165.227Y-107.569
X165.227Y-109.982
T2
X125.514Y-105.004
X127.546Y-94.463
X130.683Y-98.806
X130.721Y-113.513
X130.975Y-106.02
X130.975Y-107.29
X131.483Y-100.813
X132.372Y-109.195
X132.372Y-110.719
X132.626Y-104.496
X132.753Y-105.893
X136.049Y-101.473
X136.944Y-110.846
X137.565Y-98.033
X138.762Y-102.464
X139.484Y-106.782
X141.262Y-98.019
X141.933Y-108.553
X142.113Y-109.855
X142.247Y-106.205
X143.167Y-99.162
X143.167Y-101.956
X143.62Y-110.823
X144.183Y-100.432
X144.31Y-102.21
X145.326Y-113.005
X145.453Y-106.782
X146.05Y-100.188
X146.088Y-111.735
X146.469Y-108.442
X146.803Y-101.346
X147.231Y-105.004
X147.358Y-97.13
X148.247Y-99.035
X149.009Y-106.909
X149.271Y-101.343
X149.39Y-97.765
X149.39Y-100.178
X150.479Y-111.106
X152.102Y-100.885
X152.565Y-111.608
X155.702Y-109.474
X155.818Y-98.355
X156.629Y-110.973
X156.883Y-109.449
X159.296Y-97.511
X160.147Y-100.203
X160.566Y-102.337
X160.82Y-98.044
X161.29Y-104.394
X162.217Y-107.29
X162.217Y-111.481
X163.449Y-105.512
X164.249Y-111.608
X164.63Y-97.765
X166.154Y-110.973
X166.281Y-108.941
X166.281Y-112.497
X167.767Y-103.124
X168.313Y-98.654
X168.567Y-114.021
X168.694Y-101.956
X168.694Y-105.131
X168.694Y-108.433
X168.873Y-103.097
X169.202Y-96.241
T3
X128.446Y-101.704
X128.446Y-108.304
T4
X125.646Y-101.404
X125.646Y-108.604
T5
X172.631Y-111.354
X139.611Y-94.844
X142.151Y-94.844
X144.691Y-94.844
X147.231Y-94.844
X149.771Y-94.844
X152.311Y-94.844
X154.851Y-94.844
X157.391Y-94.844
X159.931Y-94.844
X162.471Y-94.844
X165.011Y-94.844
X167.551Y-94.844
X172.631Y-98.654
X172.631Y-101.194
X172.631Y-103.734
X129.451Y-115.164
X131.991Y-115.164
X134.531Y-115.164
X137.071Y-115.164
X139.611Y-115.164
X142.151Y-115.164
X144.691Y-115.164
X147.231Y-115.164
X149.771Y-115.164
X152.311Y-115.164
X154.851Y-115.164
X157.391Y-115.164
X159.931Y-115.164
X162.471Y-115.164
X165.011Y-115.164
X167.551Y-115.164
T6
X125.641Y-113.894
X125.641Y-96.114
T0
M30
