G04 #@! TF.GenerationSoftware,KiCad,Pcbnew,5.0.2-bee76a0~70~ubuntu18.04.1*
G04 #@! TF.CreationDate,2019-01-13T19:20:35-06:00*
G04 #@! TF.ProjectId,Adafruit Feather M0 RFMxx,41646166-7275-4697-9420-466561746865,rev?*
G04 #@! TF.SameCoordinates,Original*
G04 #@! TF.FileFunction,Copper,L2,Bot*
G04 #@! TF.FilePolarity,Positive*
%FSLAX46Y46*%
G04 Gerber Fmt 4.6, Leading zero omitted, Abs format (unit mm)*
G04 Created by KiCad (PCBNEW 5.0.2-bee76a0~70~ubuntu18.04.1) date Sun 13 Jan 2019 07:20:35 PM CST*
%MOMM*%
%LPD*%
G01*
G04 APERTURE LIST*
G04 #@! TA.AperFunction,ComponentPad*
%ADD10C,3.200000*%
G04 #@! TD*
G04 #@! TA.AperFunction,ComponentPad*
%ADD11C,1.200000*%
G04 #@! TD*
G04 #@! TA.AperFunction,ComponentPad*
%ADD12R,2.500000X2.500000*%
G04 #@! TD*
G04 #@! TA.AperFunction,ComponentPad*
%ADD13C,1.676400*%
G04 #@! TD*
G04 #@! TA.AperFunction,Conductor*
%ADD14C,0.100000*%
G04 #@! TD*
G04 #@! TA.AperFunction,SMDPad,CuDef*
%ADD15C,1.500000*%
G04 #@! TD*
G04 #@! TA.AperFunction,SMDPad,CuDef*
%ADD16R,1.100000X1.000000*%
G04 #@! TD*
G04 #@! TA.AperFunction,SMDPad,CuDef*
%ADD17R,2.200000X0.600000*%
G04 #@! TD*
G04 #@! TA.AperFunction,SMDPad,CuDef*
%ADD18R,0.600000X1.550000*%
G04 #@! TD*
G04 #@! TA.AperFunction,SMDPad,CuDef*
%ADD19R,1.200000X1.800000*%
G04 #@! TD*
G04 #@! TA.AperFunction,ComponentPad*
%ADD20O,1.700000X1.700000*%
G04 #@! TD*
G04 #@! TA.AperFunction,ComponentPad*
%ADD21R,1.700000X1.700000*%
G04 #@! TD*
G04 #@! TA.AperFunction,ViaPad*
%ADD22C,0.906400*%
G04 #@! TD*
G04 #@! TA.AperFunction,ViaPad*
%ADD23C,0.800000*%
G04 #@! TD*
G04 #@! TA.AperFunction,Conductor*
%ADD24C,0.250000*%
G04 #@! TD*
G04 #@! TA.AperFunction,Conductor*
%ADD25C,0.406400*%
G04 #@! TD*
G04 #@! TA.AperFunction,Conductor*
%ADD26C,0.254000*%
G04 #@! TD*
G04 APERTURE END LIST*
D10*
G04 #@! TO.P,U$31,P$1*
G04 #@! TO.N,N/C*
X125641100Y-96113600D03*
G04 #@! TD*
G04 #@! TO.P,U$32,P$1*
G04 #@! TO.N,N/C*
X125641100Y-113893600D03*
G04 #@! TD*
D11*
G04 #@! TO.P,X3,SPRT@2*
G04 #@! TO.N,GND*
X128446100Y-108303600D03*
G04 #@! TO.P,X3,SPRT@1*
X128446100Y-101703600D03*
D12*
G04 #@! TO.P,X3,SPRT@3*
X125646100Y-101403600D03*
G04 #@! TO.P,X3,SPRT@4*
X125646100Y-108603600D03*
G04 #@! TD*
D13*
G04 #@! TO.P,JP1,16*
G04 #@! TO.N,/~RESET*
X129451100Y-115163600D03*
G04 #@! TO.P,JP1,15*
G04 #@! TO.N,+3V3*
X131991100Y-115163600D03*
G04 #@! TO.P,JP1,14*
G04 #@! TO.N,/AREF*
X134531100Y-115163600D03*
G04 #@! TO.P,JP1,13*
G04 #@! TO.N,GND*
X137071100Y-115163600D03*
G04 #@! TO.P,JP1,12*
G04 #@! TO.N,/A0*
X139611100Y-115163600D03*
G04 #@! TO.P,JP1,11*
G04 #@! TO.N,/A1*
X142151100Y-115163600D03*
G04 #@! TO.P,JP1,10*
G04 #@! TO.N,/A2*
X144691100Y-115163600D03*
G04 #@! TO.P,JP1,9*
G04 #@! TO.N,/A3*
X147231100Y-115163600D03*
G04 #@! TO.P,JP1,8*
G04 #@! TO.N,/A4*
X149771100Y-115163600D03*
G04 #@! TO.P,JP1,7*
G04 #@! TO.N,/A5*
X152311100Y-115163600D03*
G04 #@! TO.P,JP1,6*
G04 #@! TO.N,/SCK*
X154851100Y-115163600D03*
G04 #@! TO.P,JP1,5*
G04 #@! TO.N,/MOSI*
X157391100Y-115163600D03*
G04 #@! TO.P,JP1,4*
G04 #@! TO.N,/MISO*
X159931100Y-115163600D03*
G04 #@! TO.P,JP1,3*
G04 #@! TO.N,/D0*
X162471100Y-115163600D03*
G04 #@! TO.P,JP1,2*
G04 #@! TO.N,/D1*
X165011100Y-115163600D03*
G04 #@! TO.P,JP1,1*
G04 #@! TO.N,/DIO1*
X167551100Y-115163600D03*
G04 #@! TD*
G04 #@! TO.P,JP3,12*
G04 #@! TO.N,/SDA*
X167551100Y-94843600D03*
G04 #@! TO.P,JP3,11*
G04 #@! TO.N,/SCL*
X165011100Y-94843600D03*
G04 #@! TO.P,JP3,10*
G04 #@! TO.N,/D5*
X162471100Y-94843600D03*
G04 #@! TO.P,JP3,9*
G04 #@! TO.N,/D6*
X159931100Y-94843600D03*
G04 #@! TO.P,JP3,8*
G04 #@! TO.N,/D9*
X157391100Y-94843600D03*
G04 #@! TO.P,JP3,7*
G04 #@! TO.N,/D10*
X154851100Y-94843600D03*
G04 #@! TO.P,JP3,6*
G04 #@! TO.N,/D11*
X152311100Y-94843600D03*
G04 #@! TO.P,JP3,5*
G04 #@! TO.N,/D12*
X149771100Y-94843600D03*
G04 #@! TO.P,JP3,4*
G04 #@! TO.N,/D13*
X147231100Y-94843600D03*
G04 #@! TO.P,JP3,3*
G04 #@! TO.N,VBUS*
X144691100Y-94843600D03*
G04 #@! TO.P,JP3,2*
G04 #@! TO.N,/EN*
X142151100Y-94843600D03*
G04 #@! TO.P,JP3,1*
G04 #@! TO.N,VBAT*
X139611100Y-94843600D03*
G04 #@! TD*
D14*
G04 #@! TO.N,/SWCLK*
G04 #@! TO.C,TP1*
G36*
X138541614Y-110353210D02*
X138614419Y-110364010D01*
X138685815Y-110381894D01*
X138755114Y-110406689D01*
X138821649Y-110438158D01*
X138884779Y-110475997D01*
X138943896Y-110519841D01*
X138998431Y-110569269D01*
X139047859Y-110623804D01*
X139091703Y-110682921D01*
X139129542Y-110746051D01*
X139161011Y-110812586D01*
X139185806Y-110881885D01*
X139203690Y-110953281D01*
X139214490Y-111026086D01*
X139218101Y-111099599D01*
X139218101Y-111099601D01*
X139214490Y-111173114D01*
X139203690Y-111245919D01*
X139185806Y-111317315D01*
X139161011Y-111386614D01*
X139129542Y-111453149D01*
X139091703Y-111516279D01*
X139047859Y-111575396D01*
X138998431Y-111629931D01*
X138943896Y-111679359D01*
X138884779Y-111723203D01*
X138821649Y-111761042D01*
X138755114Y-111792511D01*
X138685815Y-111817306D01*
X138614419Y-111835190D01*
X138541614Y-111845990D01*
X138468101Y-111849601D01*
X138468099Y-111849601D01*
X138394586Y-111845990D01*
X138321781Y-111835190D01*
X138250385Y-111817306D01*
X138181086Y-111792511D01*
X138114551Y-111761042D01*
X138051421Y-111723203D01*
X137992304Y-111679359D01*
X137937769Y-111629931D01*
X137888341Y-111575396D01*
X137844497Y-111516279D01*
X137806658Y-111453149D01*
X137775189Y-111386614D01*
X137750394Y-111317315D01*
X137732510Y-111245919D01*
X137721710Y-111173114D01*
X137718099Y-111099601D01*
X137718099Y-111099599D01*
X137721710Y-111026086D01*
X137732510Y-110953281D01*
X137750394Y-110881885D01*
X137775189Y-110812586D01*
X137806658Y-110746051D01*
X137844497Y-110682921D01*
X137888341Y-110623804D01*
X137937769Y-110569269D01*
X137992304Y-110519841D01*
X138051421Y-110475997D01*
X138114551Y-110438158D01*
X138181086Y-110406689D01*
X138250385Y-110381894D01*
X138321781Y-110364010D01*
X138394586Y-110353210D01*
X138468099Y-110349599D01*
X138468101Y-110349599D01*
X138541614Y-110353210D01*
X138541614Y-110353210D01*
G37*
D15*
G04 #@! TD*
G04 #@! TO.P,TP1,P$1*
G04 #@! TO.N,/SWCLK*
X138468100Y-111099600D03*
D14*
G04 #@! TO.N,/SWDIO*
G04 #@! TO.C,TP2*
G36*
X141081614Y-110353210D02*
X141154419Y-110364010D01*
X141225815Y-110381894D01*
X141295114Y-110406689D01*
X141361649Y-110438158D01*
X141424779Y-110475997D01*
X141483896Y-110519841D01*
X141538431Y-110569269D01*
X141587859Y-110623804D01*
X141631703Y-110682921D01*
X141669542Y-110746051D01*
X141701011Y-110812586D01*
X141725806Y-110881885D01*
X141743690Y-110953281D01*
X141754490Y-111026086D01*
X141758101Y-111099599D01*
X141758101Y-111099601D01*
X141754490Y-111173114D01*
X141743690Y-111245919D01*
X141725806Y-111317315D01*
X141701011Y-111386614D01*
X141669542Y-111453149D01*
X141631703Y-111516279D01*
X141587859Y-111575396D01*
X141538431Y-111629931D01*
X141483896Y-111679359D01*
X141424779Y-111723203D01*
X141361649Y-111761042D01*
X141295114Y-111792511D01*
X141225815Y-111817306D01*
X141154419Y-111835190D01*
X141081614Y-111845990D01*
X141008101Y-111849601D01*
X141008099Y-111849601D01*
X140934586Y-111845990D01*
X140861781Y-111835190D01*
X140790385Y-111817306D01*
X140721086Y-111792511D01*
X140654551Y-111761042D01*
X140591421Y-111723203D01*
X140532304Y-111679359D01*
X140477769Y-111629931D01*
X140428341Y-111575396D01*
X140384497Y-111516279D01*
X140346658Y-111453149D01*
X140315189Y-111386614D01*
X140290394Y-111317315D01*
X140272510Y-111245919D01*
X140261710Y-111173114D01*
X140258099Y-111099601D01*
X140258099Y-111099599D01*
X140261710Y-111026086D01*
X140272510Y-110953281D01*
X140290394Y-110881885D01*
X140315189Y-110812586D01*
X140346658Y-110746051D01*
X140384497Y-110682921D01*
X140428341Y-110623804D01*
X140477769Y-110569269D01*
X140532304Y-110519841D01*
X140591421Y-110475997D01*
X140654551Y-110438158D01*
X140721086Y-110406689D01*
X140790385Y-110381894D01*
X140861781Y-110364010D01*
X140934586Y-110353210D01*
X141008099Y-110349599D01*
X141008101Y-110349599D01*
X141081614Y-110353210D01*
X141081614Y-110353210D01*
G37*
D15*
G04 #@! TD*
G04 #@! TO.P,TP2,P$1*
G04 #@! TO.N,/SWDIO*
X141008100Y-111099600D03*
D16*
G04 #@! TO.P,R4,1*
G04 #@! TO.N,/FLASH_CS*
X162990000Y-99314000D03*
G04 #@! TO.P,R4,2*
G04 #@! TO.N,+3V3*
X161290000Y-99314000D03*
G04 #@! TD*
D17*
G04 #@! TO.P,U1,2*
G04 #@! TO.N,/D2_FLASHMISO*
X158691178Y-103622411D03*
G04 #@! TO.P,U1,7*
G04 #@! TO.N,+3V3*
X165321178Y-103622411D03*
G04 #@! TO.P,U1,1*
G04 #@! TO.N,/FLASH_CS*
X158691178Y-104892411D03*
G04 #@! TO.P,U1,3*
G04 #@! TO.N,+3V3*
X158691178Y-102352411D03*
G04 #@! TO.P,U1,4*
G04 #@! TO.N,GND*
X158691178Y-101082411D03*
G04 #@! TO.P,U1,8*
G04 #@! TO.N,+3V3*
X165321178Y-104892411D03*
G04 #@! TO.P,U1,6*
G04 #@! TO.N,/D3_FLASHSCK*
X165321178Y-102352411D03*
G04 #@! TO.P,U1,5*
G04 #@! TO.N,/D4_FLASHMOSI*
X165321178Y-101082411D03*
G04 #@! TD*
D18*
G04 #@! TO.P,JP7,1*
G04 #@! TO.N,GND*
X132352000Y-98871000D03*
G04 #@! TO.P,JP7,2*
G04 #@! TO.N,+3V3*
X133352000Y-98871000D03*
G04 #@! TO.P,JP7,3*
G04 #@! TO.N,/SDA*
X134352000Y-98871000D03*
G04 #@! TO.P,JP7,4*
G04 #@! TO.N,/SCL*
X135352000Y-98871000D03*
D19*
G04 #@! TO.P,JP7,5*
G04 #@! TO.N,N/C*
X131052000Y-94996000D03*
G04 #@! TO.P,JP7,6*
X136652000Y-94996000D03*
G04 #@! TD*
D20*
G04 #@! TO.P,J32,2*
G04 #@! TO.N,Net-(J32-Pad2)*
X172212000Y-104140000D03*
D21*
G04 #@! TO.P,J32,1*
G04 #@! TO.N,Net-(J32-Pad1)*
X172212000Y-101600000D03*
G04 #@! TD*
G04 #@! TO.P,J33,1*
G04 #@! TO.N,Net-(J32-Pad1)*
X172212000Y-106680000D03*
D20*
G04 #@! TO.P,J33,2*
G04 #@! TO.N,Net-(J32-Pad2)*
X172212000Y-109220000D03*
G04 #@! TD*
G04 #@! TO.P,J31,2*
G04 #@! TO.N,Net-(J31-Pad2)*
X169672000Y-106680000D03*
D21*
G04 #@! TO.P,J31,1*
G04 #@! TO.N,Net-(J31-Pad1)*
X169672000Y-104140000D03*
G04 #@! TD*
D22*
G04 #@! TO.N,GND*
X125514100Y-105003600D03*
X132753100Y-105892600D03*
X136944100Y-110845600D03*
X132372100Y-109194600D03*
X141262100Y-98018600D03*
X145453100Y-106781600D03*
X147231100Y-105003600D03*
X149009100Y-106908600D03*
X131483100Y-100812600D03*
X168402000Y-107823000D03*
X168567100Y-114020600D03*
X166281100Y-112496600D03*
X168783000Y-98298000D03*
X169202100Y-96240600D03*
X163449000Y-105511600D03*
X130683000Y-98806000D03*
D23*
X145478500Y-105029000D03*
D22*
X146469100Y-108441790D03*
D23*
X157607000Y-99949000D03*
D22*
X166485156Y-108868602D03*
X166164171Y-111034109D03*
X161417000Y-97536000D03*
D23*
X168275000Y-101727000D03*
X154178000Y-99568000D03*
D22*
X155817586Y-98330590D03*
X160909000Y-104775000D03*
D23*
X138769112Y-107067074D03*
D22*
G04 #@! TO.N,+3V3*
X145326100Y-113004600D03*
D23*
X140081000Y-106781600D03*
D22*
X144183100Y-100431600D03*
D23*
X137033000Y-102362000D03*
D22*
X152102431Y-100884842D03*
D23*
X167132000Y-102362000D03*
X157607000Y-98806000D03*
X162940994Y-104521000D03*
D22*
G04 #@! TO.N,VBUS*
X132626100Y-104495600D03*
X138761628Y-102463600D03*
D23*
X138430000Y-113858600D03*
X152146000Y-112649000D03*
X158181699Y-111487011D03*
X164480000Y-111125000D03*
D22*
G04 #@! TO.N,VBAT*
X143167100Y-99161600D03*
X137565318Y-98033382D03*
G04 #@! TO.N,/AREF*
X146088100Y-111734600D03*
G04 #@! TO.N,/D13*
X127546100Y-94462600D03*
X149271167Y-101342562D03*
D23*
G04 #@! TO.N,/~RESET*
X142494000Y-106426000D03*
D22*
X132372100Y-110718600D03*
G04 #@! TO.N,/D+*
X130975100Y-107289600D03*
X144333985Y-102215916D03*
G04 #@! TO.N,/D-*
X130975100Y-106019600D03*
X143264347Y-101933037D03*
G04 #@! TO.N,/A5*
X143620310Y-110822634D03*
D23*
X149733000Y-113030000D03*
G04 #@! TO.N,/SCK*
X155321000Y-109601000D03*
X159375461Y-112391562D03*
X155576410Y-105918000D03*
X155034511Y-104415870D03*
G04 #@! TO.N,/MOSI*
X152003738Y-106768845D03*
X155829000Y-107479000D03*
X160358655Y-112574190D03*
X156718000Y-111887000D03*
G04 #@! TO.N,/MISO*
X152607982Y-105355981D03*
X166899282Y-107900235D03*
X157353000Y-107315000D03*
X156591000Y-104775000D03*
G04 #@! TO.N,/D0*
X152540165Y-108713784D03*
D22*
G04 #@! TO.N,/D1*
X154305000Y-109020801D03*
G04 #@! TO.N,/SDA*
X146802734Y-101346000D03*
G04 #@! TO.N,/SCL*
X146050000Y-100187824D03*
G04 #@! TO.N,/D5*
X156932750Y-97996900D03*
D23*
X154686000Y-100711000D03*
D22*
G04 #@! TO.N,/D6*
X149390100Y-97764600D03*
D23*
G04 #@! TO.N,/D9*
X153797000Y-101727000D03*
D22*
X150478791Y-111106037D03*
G04 #@! TO.N,/D10*
X149390100Y-100177600D03*
G04 #@! TO.N,/D11*
X147358100Y-97129600D03*
G04 #@! TO.N,/D12*
X148247100Y-99034600D03*
G04 #@! TO.N,Net-(R2-Pad2)*
X130721100Y-113512600D03*
X136049312Y-101473000D03*
G04 #@! TO.N,/SWDIO*
X142113000Y-109854998D03*
G04 #@! TO.N,/SWCLK*
X141932740Y-108552742D03*
D23*
G04 #@! TO.N,/FLASH_CS*
X152597051Y-104313701D03*
G04 #@! TO.N,/D2_FLASHMISO*
X156210000Y-100838000D03*
G04 #@! TO.N,/D3_FLASHSCK*
X165227000Y-107569000D03*
X166116012Y-109982000D03*
D22*
X155315089Y-111125000D03*
D23*
G04 #@! TO.N,/D4_FLASHMOSI*
X159258000Y-106172000D03*
G04 #@! TO.N,/TXD_RST*
X142748000Y-104775000D03*
X158623000Y-107696000D03*
G04 #@! TO.N,/RXD_IRQ*
X141986000Y-105537000D03*
X153738518Y-108132908D03*
G04 #@! TO.N,Net-(U31-Pad20)*
X161095946Y-107501946D03*
X162560000Y-107569000D03*
G04 #@! TD*
D24*
G04 #@! TO.N,GND*
X132334000Y-98853000D02*
X132352000Y-98871000D01*
X132287000Y-98806000D02*
X132352000Y-98871000D01*
X130683000Y-98806000D02*
X132287000Y-98806000D01*
D25*
G04 #@! TO.N,+3V3*
X131991100Y-115163600D02*
X134658100Y-112496600D01*
X134658100Y-112496600D02*
X141897100Y-112496600D01*
X141897100Y-112496600D02*
X142786100Y-111607600D01*
X142786100Y-111607600D02*
X142786100Y-111480600D01*
D26*
X144310100Y-100431600D02*
X144183100Y-100431600D01*
D25*
X136703098Y-100616599D02*
X133916199Y-100616599D01*
X133352000Y-100052400D02*
X133352000Y-98871000D01*
X133916199Y-100616599D02*
X133352000Y-100052400D01*
X137037915Y-100951416D02*
X136703098Y-100616599D01*
X131991100Y-111575001D02*
X130118699Y-109702600D01*
X130118699Y-109702600D02*
X130118699Y-103561301D01*
X130118699Y-103561301D02*
X130918001Y-102761999D01*
X130918001Y-102761999D02*
X136633001Y-102761999D01*
X136633001Y-102761999D02*
X137033000Y-102362000D01*
X131991100Y-115163600D02*
X131991100Y-111575001D01*
X137033000Y-100956331D02*
X137037915Y-100951416D01*
X137033000Y-102362000D02*
X137033000Y-100956331D01*
X147231100Y-112623600D02*
X146850100Y-113004600D01*
X142984535Y-111679035D02*
X144031383Y-111679035D01*
X144031383Y-111679035D02*
X144944207Y-110766211D01*
X146647711Y-110766211D02*
X147231100Y-111349600D01*
X142786100Y-111480600D02*
X142984535Y-111679035D01*
X144944207Y-110766211D02*
X146647711Y-110766211D01*
X146850100Y-113004600D02*
X145967021Y-113004600D01*
X147231100Y-111349600D02*
X147231100Y-112623600D01*
X145967021Y-113004600D02*
X145326100Y-113004600D01*
X165321178Y-103622411D02*
X165321178Y-104892411D01*
X144310100Y-100431600D02*
X145580100Y-101701600D01*
X145580100Y-103860600D02*
X149357335Y-103860600D01*
X151035599Y-102182336D02*
X151035599Y-101696927D01*
X151035599Y-101696927D02*
X151847684Y-100884842D01*
X151847684Y-100884842D02*
X152102431Y-100884842D01*
X145580100Y-101701600D02*
X145580100Y-103860600D01*
X149357335Y-103860600D02*
X151035599Y-102182336D01*
D24*
X161290000Y-100460962D02*
X161290000Y-99314000D01*
X158691178Y-102352411D02*
X159398551Y-102352411D01*
X159398551Y-102352411D02*
X161290000Y-100460962D01*
D25*
X163814778Y-103622411D02*
X163321994Y-104115195D01*
X165321178Y-103622411D02*
X163814778Y-103622411D01*
D24*
X167132000Y-102927685D02*
X166437274Y-103622411D01*
X166437274Y-103622411D02*
X165321178Y-103622411D01*
X167132000Y-102362000D02*
X167132000Y-102927685D01*
X167132000Y-101796315D02*
X167132000Y-102362000D01*
X167132000Y-100908231D02*
X167132000Y-101796315D01*
X162165001Y-98488999D02*
X164712768Y-98488999D01*
X161340000Y-99314000D02*
X162165001Y-98488999D01*
X164712768Y-98488999D02*
X167132000Y-100908231D01*
X161290000Y-99314000D02*
X161340000Y-99314000D01*
D25*
X161290000Y-99314000D02*
X160782000Y-98806000D01*
X160782000Y-98806000D02*
X158406998Y-98806000D01*
X158406998Y-98806000D02*
X157607000Y-98806000D01*
X163321994Y-104140000D02*
X162940994Y-104521000D01*
X163321994Y-104115195D02*
X163321994Y-104140000D01*
X142524074Y-111218574D02*
X142524074Y-110711402D01*
X142786100Y-111480600D02*
X142524074Y-111218574D01*
X142524074Y-110711402D02*
X142969402Y-110266074D01*
X143167100Y-107927126D02*
X142808974Y-107569000D01*
X142969402Y-110266074D02*
X142969402Y-110139074D01*
X143167100Y-109941376D02*
X143167100Y-107927126D01*
X142969402Y-110139074D02*
X143167100Y-109941376D01*
X144030700Y-100584000D02*
X138046252Y-100584000D01*
X137678836Y-100951416D02*
X137037915Y-100951416D01*
X144183100Y-100431600D02*
X144030700Y-100584000D01*
X138046252Y-100584000D02*
X137678836Y-100951416D01*
D24*
X140868400Y-107569000D02*
X140081000Y-106781600D01*
X142808974Y-107569000D02*
X140868400Y-107569000D01*
D25*
G04 #@! TO.N,VBUS*
X136729628Y-104495600D02*
X138308429Y-102916799D01*
X132626100Y-104495600D02*
X136729628Y-104495600D01*
X138308429Y-102916799D02*
X138761628Y-102463600D01*
D24*
X150936400Y-113858600D02*
X151746001Y-113048999D01*
X138430000Y-113858600D02*
X150936400Y-113858600D01*
X151746001Y-113048999D02*
X152146000Y-112649000D01*
X164480000Y-111125000D02*
X163185817Y-110705594D01*
X163185817Y-110705594D02*
X158963116Y-110705594D01*
X158963116Y-110705594D02*
X158581698Y-111087012D01*
X158581698Y-111087012D02*
X158181699Y-111487011D01*
D25*
G04 #@! TO.N,VBAT*
X143167100Y-99161600D02*
X142887700Y-99441000D01*
X138972936Y-99441000D02*
X137565318Y-98033382D01*
X142887700Y-99441000D02*
X138972936Y-99441000D01*
D26*
G04 #@! TO.N,/AREF*
X134531100Y-114655600D02*
X134531100Y-115163600D01*
X146088100Y-111734600D02*
X144818100Y-111734600D01*
X144818100Y-111734600D02*
X143421100Y-113131600D01*
X143421100Y-113131600D02*
X136182100Y-113131600D01*
X136182100Y-113131600D02*
X134531100Y-114782600D01*
X134531100Y-114782600D02*
X134531100Y-115163600D01*
G04 #@! TO.N,/D13*
X146723100Y-94843600D02*
X147231100Y-94843600D01*
X145199100Y-96520000D02*
X145199100Y-96367600D01*
X127546100Y-95288100D02*
X127546100Y-94462600D01*
X128524000Y-96266000D02*
X127546100Y-95288100D01*
X143776700Y-96266000D02*
X128524000Y-96266000D01*
D24*
X145199100Y-96431100D02*
X145199100Y-96520000D01*
X143776700Y-96266000D02*
X145300700Y-96266000D01*
D26*
X145199100Y-96367600D02*
X145300700Y-96266000D01*
X145300700Y-96266000D02*
X146723100Y-94843600D01*
X146342100Y-99415600D02*
X147344205Y-99415600D01*
X145199100Y-96520000D02*
X145199100Y-98272600D01*
X148817968Y-100889363D02*
X149271167Y-101342562D01*
X147344205Y-99415600D02*
X148817968Y-100889363D01*
X145199100Y-98272600D02*
X146342100Y-99415600D01*
D24*
G04 #@! TO.N,/~RESET*
X140881827Y-106426000D02*
X140208000Y-105752173D01*
X142494000Y-106426000D02*
X140881827Y-106426000D01*
X139243527Y-105752173D02*
X140208000Y-105752173D01*
D26*
X138976827Y-105752173D02*
X134010400Y-110718600D01*
X139243527Y-105752173D02*
X138976827Y-105752173D01*
X134010400Y-110718600D02*
X132372100Y-110718600D01*
D24*
G04 #@! TO.N,/D+*
X143810102Y-102616000D02*
X143863217Y-102669115D01*
D26*
X131428299Y-107742799D02*
X135601901Y-107742799D01*
X130975100Y-107289600D02*
X131428299Y-107742799D01*
X135601901Y-107742799D02*
X140631462Y-102713238D01*
X140631462Y-102713238D02*
X143712864Y-102713238D01*
D24*
X143863217Y-102669115D02*
X143880786Y-102669115D01*
D26*
X143712864Y-102713238D02*
X143810102Y-102616000D01*
D24*
X143880786Y-102669115D02*
X144333985Y-102215916D01*
D26*
G04 #@! TO.N,/D-*
X142623426Y-101933037D02*
X143264347Y-101933037D01*
X140649663Y-101933037D02*
X142623426Y-101933037D01*
X135674100Y-106908600D02*
X140649663Y-101933037D01*
X131864100Y-106908600D02*
X135674100Y-106908600D01*
X130975100Y-106019600D02*
X131864100Y-106908600D01*
G04 #@! TO.N,/A5*
X144073509Y-110369435D02*
X143620310Y-110822634D01*
X147510500Y-110236000D02*
X144206944Y-110236000D01*
X148374100Y-112623600D02*
X148374100Y-111099600D01*
X144206944Y-110236000D02*
X144073509Y-110369435D01*
X148374100Y-111099600D02*
X147510500Y-110236000D01*
D24*
X149333001Y-112630001D02*
X149733000Y-113030000D01*
X148374100Y-112623600D02*
X149326600Y-112623600D01*
X149326600Y-112623600D02*
X149333001Y-112630001D01*
G04 #@! TO.N,/SCK*
X155829912Y-112791561D02*
X158975462Y-112791561D01*
X155321000Y-109601000D02*
X154536888Y-110385112D01*
X154536888Y-110385112D02*
X154536888Y-111498537D01*
X158975462Y-112791561D02*
X159375461Y-112391562D01*
X154536888Y-111498537D02*
X155829912Y-112791561D01*
X155176411Y-105518001D02*
X155576410Y-105918000D01*
X155034511Y-104415870D02*
X155034511Y-105376101D01*
X155034511Y-105376101D02*
X155176411Y-105518001D01*
G04 #@! TO.N,/MOSI*
X154393845Y-106768845D02*
X154395001Y-106770001D01*
X152003738Y-106768845D02*
X154393845Y-106768845D01*
X159198704Y-111542999D02*
X159893149Y-111542999D01*
X157170013Y-112212013D02*
X158529690Y-112212013D01*
X158529690Y-112212013D02*
X159198704Y-111542999D01*
X160358655Y-112008505D02*
X160358655Y-112574190D01*
X159893149Y-111542999D02*
X160358655Y-112008505D01*
X157170013Y-112212013D02*
X157043013Y-112212013D01*
X157043013Y-112212013D02*
X156718000Y-111887000D01*
X155263315Y-107479000D02*
X155829000Y-107479000D01*
X155104000Y-107479000D02*
X155263315Y-107479000D01*
X154393845Y-106768845D02*
X155104000Y-107479000D01*
G04 #@! TO.N,/MISO*
X165968767Y-107900235D02*
X165575001Y-108294001D01*
X166899282Y-107900235D02*
X165968767Y-107900235D01*
X165575001Y-108294001D02*
X160294003Y-108294001D01*
X160294003Y-108294001D02*
X158971001Y-106970999D01*
X158971001Y-106970999D02*
X157697001Y-106970999D01*
X157697001Y-106970999D02*
X157353000Y-107315000D01*
X156591000Y-104013000D02*
X156591000Y-104775000D01*
X156268869Y-103690869D02*
X156591000Y-104013000D01*
X152607982Y-105355981D02*
X154273094Y-103690869D01*
X154273094Y-103690869D02*
X156268869Y-103690869D01*
D26*
G04 #@! TO.N,/D0*
X161079523Y-113772023D02*
X155039955Y-113772023D01*
X162471100Y-115163600D02*
X161079523Y-113772023D01*
X152540165Y-111272233D02*
X152540165Y-109279469D01*
X152540165Y-109279469D02*
X152540165Y-108713784D01*
X155039955Y-113772023D02*
X152540165Y-111272233D01*
G04 #@! TO.N,/D1*
X155228013Y-113318013D02*
X153289000Y-111379000D01*
X153289000Y-111379000D02*
X153289000Y-110036801D01*
X165011100Y-115163600D02*
X163165513Y-113318013D01*
X153851801Y-109474000D02*
X154305000Y-109020801D01*
X163165513Y-113318013D02*
X155228013Y-113318013D01*
X153289000Y-110036801D02*
X153851801Y-109474000D01*
G04 #@! TO.N,/SDA*
X154216100Y-97129600D02*
X151168100Y-100177600D01*
X158915100Y-96621600D02*
X158407100Y-97129600D01*
X158407100Y-97129600D02*
X154216100Y-97129600D01*
X151168100Y-100177600D02*
X151168100Y-100814595D01*
X165773100Y-96621600D02*
X158915100Y-96621600D01*
X151168100Y-100814595D02*
X150505386Y-101477309D01*
X167551100Y-94843600D02*
X165773100Y-96621600D01*
X149434578Y-103033526D02*
X148490260Y-103033526D01*
X150505386Y-101962718D02*
X149434578Y-103033526D01*
X150505386Y-101477309D02*
X150505386Y-101962718D01*
D24*
X148490260Y-103033526D02*
X147864526Y-103033526D01*
X147864526Y-103033526D02*
X146939000Y-102108000D01*
X146802734Y-101986921D02*
X146802734Y-101346000D01*
X146923813Y-102108000D02*
X146802734Y-101986921D01*
X146939000Y-102108000D02*
X146923813Y-102108000D01*
X134352000Y-98871000D02*
X134352000Y-99896000D01*
X145971501Y-101346000D02*
X146161813Y-101346000D01*
X134511789Y-100055789D02*
X143424649Y-100055789D01*
X144556637Y-99653399D02*
X144961301Y-100058063D01*
X144961301Y-100058063D02*
X144961301Y-100335800D01*
X144961301Y-100335800D02*
X145971501Y-101346000D01*
X143827039Y-99653399D02*
X144556637Y-99653399D01*
X143424649Y-100055789D02*
X143827039Y-99653399D01*
X146161813Y-101346000D02*
X146802734Y-101346000D01*
X134352000Y-99896000D02*
X134511789Y-100055789D01*
G04 #@! TO.N,/SCL*
X135352000Y-97566000D02*
X135352000Y-98871000D01*
X135677601Y-97240399D02*
X135352000Y-97566000D01*
X146050000Y-100187824D02*
X144160176Y-98298000D01*
X137924073Y-97240399D02*
X135677601Y-97240399D01*
X144160176Y-98298000D02*
X142748000Y-98298000D01*
X142240000Y-98806000D02*
X139489674Y-98806000D01*
X142748000Y-98298000D02*
X142240000Y-98806000D01*
X139489674Y-98806000D02*
X137924073Y-97240399D01*
D26*
X158153100Y-96621600D02*
X153962100Y-96621600D01*
X165011100Y-94843600D02*
X164376100Y-94843600D01*
X150660100Y-99923600D02*
X150660100Y-100680527D01*
X164376100Y-94843600D02*
X163106100Y-96113600D01*
X150660100Y-100680527D02*
X150051375Y-101289252D01*
X150051375Y-101289252D02*
X150051375Y-101774661D01*
X150051375Y-101774661D02*
X149310230Y-102515806D01*
X146982249Y-100187824D02*
X146050000Y-100187824D01*
X158661100Y-96113600D02*
X158153100Y-96621600D01*
X153962100Y-96621600D02*
X150660100Y-99923600D01*
X163106100Y-96113600D02*
X158661100Y-96113600D01*
D24*
X149310230Y-102515806D02*
X148309194Y-102515806D01*
X148028388Y-102235000D02*
X148028388Y-102181388D01*
X148309194Y-102515806D02*
X148028388Y-102235000D01*
X148028388Y-102181388D02*
X147828000Y-101981000D01*
X147828000Y-101981000D02*
X147828000Y-100965000D01*
X147050824Y-100187824D02*
X146982249Y-100187824D01*
X147828000Y-100965000D02*
X147050824Y-100187824D01*
G04 #@! TO.N,/D5*
X156932750Y-98367164D02*
X156932750Y-97996900D01*
X155085999Y-100213915D02*
X155321000Y-99978914D01*
X155085999Y-100311001D02*
X155085999Y-100213915D01*
X154686000Y-100711000D02*
X155085999Y-100311001D01*
X155212999Y-100086915D02*
X155321000Y-99978914D01*
X155321000Y-99978914D02*
X156932750Y-98367164D01*
D26*
G04 #@! TO.N,/D6*
X159169100Y-94843600D02*
X159931100Y-94843600D01*
X159169100Y-94843600D02*
X157899100Y-96113600D01*
X157899100Y-96113600D02*
X153708100Y-96113600D01*
X153708100Y-96113600D02*
X153200100Y-96621600D01*
X153200100Y-96621600D02*
X151422100Y-96621600D01*
X151422100Y-96621600D02*
X150406100Y-97637600D01*
X150406100Y-97637600D02*
X149517100Y-97637600D01*
X149517100Y-97637600D02*
X149390100Y-97764600D01*
D24*
G04 #@! TO.N,/D9*
X152332750Y-103505000D02*
X152654000Y-103505000D01*
X150478791Y-111106037D02*
X150478791Y-105358959D01*
X150478791Y-105358959D02*
X152332750Y-103505000D01*
X152654000Y-103505000D02*
X153416000Y-103505000D01*
X153797000Y-103124000D02*
X153797000Y-101727000D01*
X153416000Y-103505000D02*
X153797000Y-103124000D01*
D26*
G04 #@! TO.N,/D10*
X149390100Y-100177600D02*
X149390100Y-99034600D01*
X149390100Y-99034600D02*
X148501100Y-98145600D01*
X148501100Y-98145600D02*
X148501100Y-97383600D01*
X148501100Y-97383600D02*
X149263100Y-96621600D01*
X149263100Y-96621600D02*
X150660100Y-96621600D01*
X150660100Y-96621600D02*
X151168100Y-96113600D01*
X151168100Y-96113600D02*
X152819100Y-96113600D01*
X152819100Y-96113600D02*
X153962100Y-94970600D01*
X153962100Y-94970600D02*
X154724100Y-94970600D01*
X154724100Y-94970600D02*
X154851100Y-94843600D01*
G04 #@! TO.N,/D11*
X147358100Y-97129600D02*
X147739100Y-96748600D01*
X147739100Y-96748600D02*
X148374100Y-96748600D01*
X148374100Y-96748600D02*
X149009100Y-96113600D01*
X149009100Y-96113600D02*
X150406100Y-96113600D01*
X150406100Y-96113600D02*
X151676100Y-94843600D01*
X151676100Y-94843600D02*
X152311100Y-94843600D01*
G04 #@! TO.N,/D12*
X149771100Y-94843600D02*
X149263100Y-94843600D01*
X149263100Y-94843600D02*
X147866100Y-96240600D01*
X147866100Y-96240600D02*
X146850100Y-96240600D01*
X146850100Y-96240600D02*
X146469100Y-96621600D01*
X146469100Y-96621600D02*
X146469100Y-98145600D01*
X146469100Y-98145600D02*
X147231100Y-98907600D01*
X147231100Y-98907600D02*
X148120100Y-98907600D01*
X148120100Y-98907600D02*
X148247100Y-99034600D01*
G04 #@! TO.N,Net-(R2-Pad2)*
X130721100Y-113512600D02*
X129451100Y-112242600D01*
D24*
X130213100Y-102108000D02*
X129451100Y-102870000D01*
D26*
X129451100Y-112242600D02*
X129451100Y-102870000D01*
D24*
X135414312Y-102108000D02*
X135596113Y-101926199D01*
X135596113Y-101926199D02*
X136049312Y-101473000D01*
X130302000Y-102108000D02*
X135414312Y-102108000D01*
D26*
G04 #@! TO.N,/SWDIO*
X142151100Y-109321600D02*
X142113000Y-109359700D01*
X142113000Y-109359700D02*
X142113000Y-109854998D01*
X142113000Y-109994700D02*
X142113000Y-109854998D01*
X141008100Y-111099600D02*
X142113000Y-109994700D01*
G04 #@! TO.N,/SWCLK*
X141479541Y-109005941D02*
X141932740Y-108552742D01*
X139385882Y-111099600D02*
X141479541Y-109005941D01*
X138468100Y-111099600D02*
X139385882Y-111099600D01*
D24*
G04 #@! TO.N,/FLASH_CS*
X162941000Y-99314000D02*
X162306000Y-99949000D01*
X159491178Y-104892411D02*
X158691178Y-104892411D01*
X162306000Y-99949000D02*
X162306000Y-100330000D01*
X162990000Y-99314000D02*
X162941000Y-99314000D01*
X162306000Y-100330000D02*
X161544000Y-101092000D01*
X161544000Y-101092000D02*
X161544000Y-102839589D01*
X161544000Y-102839589D02*
X159491178Y-104892411D01*
X151882981Y-105781981D02*
X151882981Y-105027771D01*
X152197052Y-104713700D02*
X152597051Y-104313701D01*
X152351739Y-106043844D02*
X152144844Y-106043844D01*
X152144844Y-106043844D02*
X151882981Y-105781981D01*
X151882981Y-105027771D02*
X152197052Y-104713700D01*
X152479895Y-106172000D02*
X152582813Y-106159182D01*
X152582813Y-106159182D02*
X152351739Y-106043844D01*
X156140588Y-106643001D02*
X155228409Y-106643001D01*
X154744590Y-106159182D02*
X152582813Y-106159182D01*
X155228409Y-106643001D02*
X154744590Y-106159182D01*
X158691178Y-104892411D02*
X157891178Y-104892411D01*
X157891178Y-104892411D02*
X156140588Y-106643001D01*
G04 #@! TO.N,/D2_FLASHMISO*
X157891178Y-103622411D02*
X158691178Y-103622411D01*
X156210000Y-101403685D02*
X156210000Y-100838000D01*
X156210000Y-102491233D02*
X156210000Y-101403685D01*
X157341178Y-103622411D02*
X156210000Y-102491233D01*
X158691178Y-103622411D02*
X157341178Y-103622411D01*
G04 #@! TO.N,/D3_FLASHSCK*
X166116012Y-109982000D02*
X156458089Y-109982000D01*
X155768288Y-110671801D02*
X155315089Y-111125000D01*
X156458089Y-109982000D02*
X155768288Y-110671801D01*
X162215993Y-105700993D02*
X162215993Y-104107596D01*
X165227000Y-107569000D02*
X164084000Y-107569000D01*
X164084000Y-107569000D02*
X162215993Y-105700993D01*
X163971178Y-102352411D02*
X165321178Y-102352411D01*
X162215993Y-104107596D02*
X163971178Y-102352411D01*
G04 #@! TO.N,/D4_FLASHMOSI*
X159823685Y-106172000D02*
X159258000Y-106172000D01*
X161765988Y-105188012D02*
X160782000Y-106172000D01*
X160782000Y-106172000D02*
X159823685Y-106172000D01*
X165321178Y-101082411D02*
X164521178Y-101082411D01*
X161765988Y-103837601D02*
X161765988Y-105188012D01*
X164521178Y-101082411D02*
X161765988Y-103837601D01*
G04 #@! TO.N,/TXD_RST*
X142748000Y-104775000D02*
X142807095Y-104775000D01*
X144466904Y-106493904D02*
X142748000Y-104775000D01*
X144525999Y-108711999D02*
X144525999Y-106493904D01*
X145034000Y-109220000D02*
X144525999Y-108711999D01*
X153304578Y-107493846D02*
X151713154Y-107493846D01*
X144525999Y-106493904D02*
X144466904Y-106493904D01*
X154882612Y-108204000D02*
X154086519Y-107407907D01*
X151713154Y-107493846D02*
X151257000Y-107950000D01*
X158115000Y-108204000D02*
X154882612Y-108204000D01*
X151257000Y-107950000D02*
X151256999Y-111760001D01*
X151256999Y-111760001D02*
X151003000Y-112014000D01*
X158623000Y-107696000D02*
X158115000Y-108204000D01*
X150426415Y-112014000D02*
X150267402Y-111854987D01*
X148463000Y-109220000D02*
X145034000Y-109220000D01*
X151003000Y-112014000D02*
X150426415Y-112014000D01*
X149606001Y-111451239D02*
X149606000Y-110363000D01*
X154086519Y-107407907D02*
X153390517Y-107407907D01*
X150267402Y-111854987D02*
X150009749Y-111854987D01*
X153390517Y-107407907D02*
X153304578Y-107493846D01*
X150009749Y-111854987D02*
X149606001Y-111451239D01*
X149606000Y-110363000D02*
X148463000Y-109220000D01*
G04 #@! TO.N,/RXD_IRQ*
X142076001Y-105627001D02*
X141986000Y-105537000D01*
X142678002Y-105537000D02*
X141986000Y-105537000D01*
X143821307Y-106680305D02*
X142678002Y-105537000D01*
X151707010Y-108515990D02*
X151707010Y-111946400D01*
X153738518Y-108132908D02*
X153172833Y-108132908D01*
X152234217Y-107988783D02*
X151707010Y-108515990D01*
X153028708Y-107988783D02*
X152234217Y-107988783D01*
X150298004Y-112522000D02*
X150081002Y-112304998D01*
X151707010Y-111946400D02*
X151131410Y-112522000D01*
X150081002Y-112304998D02*
X149769998Y-112304998D01*
X153172833Y-108132908D02*
X153028708Y-107988783D01*
X149769998Y-112304998D02*
X149155990Y-111690990D01*
X149155990Y-111690990D02*
X149155990Y-110674990D01*
X149155990Y-110674990D02*
X148264990Y-109783990D01*
X148264990Y-109783990D02*
X144835990Y-109783990D01*
X144835990Y-109783990D02*
X144075990Y-109023990D01*
X151131410Y-112522000D02*
X150298004Y-112522000D01*
X144075990Y-109023990D02*
X144075990Y-106934000D01*
X143822295Y-106680305D02*
X143821307Y-106680305D01*
X144075990Y-106934000D02*
X143822295Y-106680305D01*
G04 #@! TO.N,Net-(U31-Pad20)*
X161661631Y-107501946D02*
X161728685Y-107569000D01*
X161095946Y-107501946D02*
X161661631Y-107501946D01*
X161728685Y-107569000D02*
X162560000Y-107569000D01*
G04 #@! TO.N,Net-(J32-Pad1)*
X171036999Y-101675001D02*
X171112000Y-101600000D01*
X171036999Y-106604999D02*
X171036999Y-101675001D01*
X171112000Y-106680000D02*
X171036999Y-106604999D01*
X171112000Y-101600000D02*
X172212000Y-101600000D01*
X172212000Y-106680000D02*
X171112000Y-106680000D01*
G04 #@! TD*
D26*
G04 #@! TO.N,GND*
G36*
X137730938Y-113646542D02*
X137703000Y-113786997D01*
X137703000Y-113930203D01*
X137730938Y-114070658D01*
X137735141Y-114080805D01*
X137582229Y-113995163D01*
X137344457Y-113917898D01*
X137096180Y-113888504D01*
X136846939Y-113908112D01*
X136606312Y-113975968D01*
X136383548Y-114089464D01*
X136341842Y-114117331D01*
X136263356Y-114320500D01*
X137071100Y-115128245D01*
X137085242Y-115114102D01*
X137120598Y-115149458D01*
X137106455Y-115163600D01*
X137914200Y-115971344D01*
X138117369Y-115892858D01*
X138239537Y-115674729D01*
X138316802Y-115436957D01*
X138346196Y-115188680D01*
X138326588Y-114939439D01*
X138258732Y-114698812D01*
X138178492Y-114541321D01*
X138217942Y-114557662D01*
X138358397Y-114585600D01*
X138501603Y-114585600D01*
X138610392Y-114563961D01*
X138578513Y-114611671D01*
X138490678Y-114823724D01*
X138445900Y-115048838D01*
X138445900Y-115278362D01*
X138490678Y-115503476D01*
X138578513Y-115715529D01*
X138706030Y-115906372D01*
X138868328Y-116068670D01*
X139059171Y-116196187D01*
X139144663Y-116231599D01*
X137767837Y-116231599D01*
X137800358Y-116209869D01*
X137878844Y-116006700D01*
X137071100Y-115198955D01*
X136263356Y-116006700D01*
X136341842Y-116209869D01*
X136380641Y-116231599D01*
X134997537Y-116231599D01*
X135083029Y-116196187D01*
X135273872Y-116068670D01*
X135436170Y-115906372D01*
X135563687Y-115715529D01*
X135651522Y-115503476D01*
X135696300Y-115278362D01*
X135696300Y-115138520D01*
X135796004Y-115138520D01*
X135815612Y-115387761D01*
X135883468Y-115628388D01*
X135996964Y-115851152D01*
X136024831Y-115892858D01*
X136228000Y-115971344D01*
X137035745Y-115163600D01*
X136228000Y-114355856D01*
X136024831Y-114434342D01*
X135902663Y-114652471D01*
X135825398Y-114890243D01*
X135796004Y-115138520D01*
X135696300Y-115138520D01*
X135696300Y-115048838D01*
X135651522Y-114823724D01*
X135563687Y-114611671D01*
X135475725Y-114480027D01*
X136370153Y-113585600D01*
X137756181Y-113585600D01*
X137730938Y-113646542D01*
X137730938Y-113646542D01*
G37*
X137730938Y-113646542D02*
X137703000Y-113786997D01*
X137703000Y-113930203D01*
X137730938Y-114070658D01*
X137735141Y-114080805D01*
X137582229Y-113995163D01*
X137344457Y-113917898D01*
X137096180Y-113888504D01*
X136846939Y-113908112D01*
X136606312Y-113975968D01*
X136383548Y-114089464D01*
X136341842Y-114117331D01*
X136263356Y-114320500D01*
X137071100Y-115128245D01*
X137085242Y-115114102D01*
X137120598Y-115149458D01*
X137106455Y-115163600D01*
X137914200Y-115971344D01*
X138117369Y-115892858D01*
X138239537Y-115674729D01*
X138316802Y-115436957D01*
X138346196Y-115188680D01*
X138326588Y-114939439D01*
X138258732Y-114698812D01*
X138178492Y-114541321D01*
X138217942Y-114557662D01*
X138358397Y-114585600D01*
X138501603Y-114585600D01*
X138610392Y-114563961D01*
X138578513Y-114611671D01*
X138490678Y-114823724D01*
X138445900Y-115048838D01*
X138445900Y-115278362D01*
X138490678Y-115503476D01*
X138578513Y-115715529D01*
X138706030Y-115906372D01*
X138868328Y-116068670D01*
X139059171Y-116196187D01*
X139144663Y-116231599D01*
X137767837Y-116231599D01*
X137800358Y-116209869D01*
X137878844Y-116006700D01*
X137071100Y-115198955D01*
X136263356Y-116006700D01*
X136341842Y-116209869D01*
X136380641Y-116231599D01*
X134997537Y-116231599D01*
X135083029Y-116196187D01*
X135273872Y-116068670D01*
X135436170Y-115906372D01*
X135563687Y-115715529D01*
X135651522Y-115503476D01*
X135696300Y-115278362D01*
X135696300Y-115138520D01*
X135796004Y-115138520D01*
X135815612Y-115387761D01*
X135883468Y-115628388D01*
X135996964Y-115851152D01*
X136024831Y-115892858D01*
X136228000Y-115971344D01*
X137035745Y-115163600D01*
X136228000Y-114355856D01*
X136024831Y-114434342D01*
X135902663Y-114652471D01*
X135825398Y-114890243D01*
X135796004Y-115138520D01*
X135696300Y-115138520D01*
X135696300Y-115048838D01*
X135651522Y-114823724D01*
X135563687Y-114611671D01*
X135475725Y-114480027D01*
X136370153Y-113585600D01*
X137756181Y-113585600D01*
X137730938Y-113646542D01*
G36*
X171234100Y-94536600D02*
X171205779Y-94536600D01*
X170901106Y-94597204D01*
X170614111Y-94716081D01*
X170355821Y-94888664D01*
X170136164Y-95108321D01*
X169963581Y-95366611D01*
X169844704Y-95653606D01*
X169784100Y-95958279D01*
X169784100Y-96268921D01*
X169844704Y-96573594D01*
X169963581Y-96860589D01*
X170136164Y-97118879D01*
X170355821Y-97338536D01*
X170614111Y-97511119D01*
X170901106Y-97629996D01*
X171205779Y-97690600D01*
X171234100Y-97690600D01*
X171234100Y-100447583D01*
X171179450Y-100476794D01*
X171129657Y-100517657D01*
X171088794Y-100567450D01*
X171058430Y-100624257D01*
X171039732Y-100685897D01*
X171033418Y-100750000D01*
X171033418Y-101153553D01*
X171023393Y-101154540D01*
X170938190Y-101180386D01*
X170859667Y-101222357D01*
X170790841Y-101278841D01*
X170776680Y-101296097D01*
X170733093Y-101339683D01*
X170715841Y-101353842D01*
X170664925Y-101415883D01*
X170659357Y-101422668D01*
X170617385Y-101501192D01*
X170591539Y-101586394D01*
X170582812Y-101675001D01*
X170585000Y-101697216D01*
X170585000Y-102967623D01*
X170522000Y-102961418D01*
X168822000Y-102961418D01*
X168757897Y-102967732D01*
X168696257Y-102986430D01*
X168639450Y-103016794D01*
X168589657Y-103057657D01*
X168548794Y-103107450D01*
X168518430Y-103164257D01*
X168499732Y-103225897D01*
X168493418Y-103290000D01*
X168493418Y-104990000D01*
X168499732Y-105054103D01*
X168518430Y-105115743D01*
X168548794Y-105172550D01*
X168589657Y-105222343D01*
X168639450Y-105263206D01*
X168696257Y-105293570D01*
X168757897Y-105312268D01*
X168822000Y-105318582D01*
X170522000Y-105318582D01*
X170584999Y-105312377D01*
X170584999Y-105937178D01*
X170508291Y-105843709D01*
X170329070Y-105696626D01*
X170124597Y-105587333D01*
X169902732Y-105520031D01*
X169729812Y-105503000D01*
X169614188Y-105503000D01*
X169441268Y-105520031D01*
X169219403Y-105587333D01*
X169014930Y-105696626D01*
X168835709Y-105843709D01*
X168688626Y-106022930D01*
X168579333Y-106227403D01*
X168512031Y-106449268D01*
X168489306Y-106680000D01*
X168512031Y-106910732D01*
X168579333Y-107132597D01*
X168688626Y-107337070D01*
X168835709Y-107516291D01*
X169014930Y-107663374D01*
X169219403Y-107772667D01*
X169441268Y-107839969D01*
X169614188Y-107857000D01*
X169729812Y-107857000D01*
X169902732Y-107839969D01*
X170124597Y-107772667D01*
X170329070Y-107663374D01*
X170508291Y-107516291D01*
X170655374Y-107337070D01*
X170764667Y-107132597D01*
X170801808Y-107010159D01*
X170859667Y-107057643D01*
X170938190Y-107099614D01*
X171023393Y-107125460D01*
X171033418Y-107126447D01*
X171033418Y-107530000D01*
X171039732Y-107594103D01*
X171058430Y-107655743D01*
X171088794Y-107712550D01*
X171129657Y-107762343D01*
X171179450Y-107803206D01*
X171234100Y-107832417D01*
X171234100Y-108556260D01*
X171228626Y-108562930D01*
X171119333Y-108767403D01*
X171052031Y-108989268D01*
X171029306Y-109220000D01*
X171052031Y-109450732D01*
X171119333Y-109672597D01*
X171228626Y-109877070D01*
X171234100Y-109883740D01*
X171234100Y-112291200D01*
X171116879Y-112291200D01*
X170812206Y-112351804D01*
X170525211Y-112470681D01*
X170266921Y-112643264D01*
X170047264Y-112862921D01*
X169874681Y-113121211D01*
X169755804Y-113408206D01*
X169695200Y-113712879D01*
X169695200Y-114023521D01*
X169755804Y-114328194D01*
X169874681Y-114615189D01*
X170047264Y-114873479D01*
X170266921Y-115093136D01*
X170525211Y-115265719D01*
X170812206Y-115384596D01*
X171116879Y-115445200D01*
X171234100Y-115445200D01*
X171234100Y-116231599D01*
X168017537Y-116231599D01*
X168103029Y-116196187D01*
X168293872Y-116068670D01*
X168456170Y-115906372D01*
X168583687Y-115715529D01*
X168671522Y-115503476D01*
X168716300Y-115278362D01*
X168716300Y-115048838D01*
X168671522Y-114823724D01*
X168583687Y-114611671D01*
X168456170Y-114420828D01*
X168293872Y-114258530D01*
X168103029Y-114131013D01*
X167890976Y-114043178D01*
X167665862Y-113998400D01*
X167436338Y-113998400D01*
X167211224Y-114043178D01*
X166999171Y-114131013D01*
X166808328Y-114258530D01*
X166646030Y-114420828D01*
X166518513Y-114611671D01*
X166430678Y-114823724D01*
X166385900Y-115048838D01*
X166385900Y-115278362D01*
X166430678Y-115503476D01*
X166518513Y-115715529D01*
X166646030Y-115906372D01*
X166808328Y-116068670D01*
X166999171Y-116196187D01*
X167084663Y-116231599D01*
X165477537Y-116231599D01*
X165563029Y-116196187D01*
X165753872Y-116068670D01*
X165916170Y-115906372D01*
X166043687Y-115715529D01*
X166131522Y-115503476D01*
X166176300Y-115278362D01*
X166176300Y-115048838D01*
X166131522Y-114823724D01*
X166043687Y-114611671D01*
X165916170Y-114420828D01*
X165753872Y-114258530D01*
X165563029Y-114131013D01*
X165350976Y-114043178D01*
X165125862Y-113998400D01*
X164896338Y-113998400D01*
X164671224Y-114043178D01*
X164573294Y-114083742D01*
X163502307Y-113012755D01*
X163488092Y-112995434D01*
X163418962Y-112938700D01*
X163340092Y-112896543D01*
X163254512Y-112870583D01*
X163187808Y-112864013D01*
X163187801Y-112864013D01*
X163165513Y-112861818D01*
X163143225Y-112864013D01*
X161025506Y-112864013D01*
X161057717Y-112786248D01*
X161085655Y-112645793D01*
X161085655Y-112502587D01*
X161057717Y-112362132D01*
X161002914Y-112229826D01*
X160923353Y-112110754D01*
X160822091Y-112009492D01*
X160812295Y-112002946D01*
X160804115Y-111919897D01*
X160778269Y-111834695D01*
X160761032Y-111802447D01*
X160736298Y-111756172D01*
X160679814Y-111687346D01*
X160662561Y-111673187D01*
X160228472Y-111239099D01*
X160214308Y-111221840D01*
X160145482Y-111165356D01*
X160130960Y-111157594D01*
X163114407Y-111157594D01*
X163798420Y-111379262D01*
X163835741Y-111469364D01*
X163915302Y-111588436D01*
X164016564Y-111689698D01*
X164135636Y-111769259D01*
X164267942Y-111824062D01*
X164408397Y-111852000D01*
X164551603Y-111852000D01*
X164692058Y-111824062D01*
X164824364Y-111769259D01*
X164943436Y-111689698D01*
X165044698Y-111588436D01*
X165124259Y-111469364D01*
X165179062Y-111337058D01*
X165207000Y-111196603D01*
X165207000Y-111053397D01*
X165179062Y-110912942D01*
X165124259Y-110780636D01*
X165044698Y-110661564D01*
X164943436Y-110560302D01*
X164824364Y-110480741D01*
X164711521Y-110434000D01*
X165543673Y-110434000D01*
X165551314Y-110445436D01*
X165652576Y-110546698D01*
X165771648Y-110626259D01*
X165903954Y-110681062D01*
X166044409Y-110709000D01*
X166187615Y-110709000D01*
X166328070Y-110681062D01*
X166460376Y-110626259D01*
X166579448Y-110546698D01*
X166680710Y-110445436D01*
X166760271Y-110326364D01*
X166815074Y-110194058D01*
X166843012Y-110053603D01*
X166843012Y-109910397D01*
X166815074Y-109769942D01*
X166760271Y-109637636D01*
X166680710Y-109518564D01*
X166579448Y-109417302D01*
X166460376Y-109337741D01*
X166328070Y-109282938D01*
X166187615Y-109255000D01*
X166044409Y-109255000D01*
X165903954Y-109282938D01*
X165771648Y-109337741D01*
X165652576Y-109417302D01*
X165551314Y-109518564D01*
X165543673Y-109530000D01*
X156480294Y-109530000D01*
X156458089Y-109527813D01*
X156369481Y-109536540D01*
X156284279Y-109562386D01*
X156205756Y-109604357D01*
X156136930Y-109660841D01*
X156122770Y-109678095D01*
X156028071Y-109772794D01*
X156048000Y-109672603D01*
X156048000Y-109529397D01*
X156020062Y-109388942D01*
X155965259Y-109256636D01*
X155885698Y-109137564D01*
X155784436Y-109036302D01*
X155665364Y-108956741D01*
X155533058Y-108901938D01*
X155392603Y-108874000D01*
X155249397Y-108874000D01*
X155108942Y-108901938D01*
X155079285Y-108914222D01*
X155055217Y-108793225D01*
X154998376Y-108656000D01*
X158092795Y-108656000D01*
X158115000Y-108658187D01*
X158137205Y-108656000D01*
X158203607Y-108649460D01*
X158288810Y-108623614D01*
X158367333Y-108581643D01*
X158436159Y-108525159D01*
X158450323Y-108507900D01*
X158537907Y-108420317D01*
X158551397Y-108423000D01*
X158694603Y-108423000D01*
X158835058Y-108395062D01*
X158967364Y-108340259D01*
X159086436Y-108260698D01*
X159187698Y-108159436D01*
X159267259Y-108040364D01*
X159306472Y-107945694D01*
X159958688Y-108597911D01*
X159972844Y-108615160D01*
X160041670Y-108671644D01*
X160120193Y-108713615D01*
X160179060Y-108731472D01*
X160205395Y-108739461D01*
X160294002Y-108748188D01*
X160316207Y-108746001D01*
X165552796Y-108746001D01*
X165575001Y-108748188D01*
X165597206Y-108746001D01*
X165663608Y-108739461D01*
X165748811Y-108713615D01*
X165827334Y-108671644D01*
X165896160Y-108615160D01*
X165910324Y-108597901D01*
X166155991Y-108352235D01*
X166326943Y-108352235D01*
X166334584Y-108363671D01*
X166435846Y-108464933D01*
X166554918Y-108544494D01*
X166687224Y-108599297D01*
X166827679Y-108627235D01*
X166970885Y-108627235D01*
X167111340Y-108599297D01*
X167243646Y-108544494D01*
X167362718Y-108464933D01*
X167463980Y-108363671D01*
X167543541Y-108244599D01*
X167598344Y-108112293D01*
X167626282Y-107971838D01*
X167626282Y-107828632D01*
X167598344Y-107688177D01*
X167543541Y-107555871D01*
X167463980Y-107436799D01*
X167362718Y-107335537D01*
X167243646Y-107255976D01*
X167111340Y-107201173D01*
X166970885Y-107173235D01*
X166827679Y-107173235D01*
X166687224Y-107201173D01*
X166554918Y-107255976D01*
X166435846Y-107335537D01*
X166334584Y-107436799D01*
X166326943Y-107448235D01*
X165990971Y-107448235D01*
X165968766Y-107446048D01*
X165944266Y-107448461D01*
X165926062Y-107356942D01*
X165871259Y-107224636D01*
X165791698Y-107105564D01*
X165690436Y-107004302D01*
X165571364Y-106924741D01*
X165439058Y-106869938D01*
X165298603Y-106842000D01*
X165155397Y-106842000D01*
X165014942Y-106869938D01*
X164882636Y-106924741D01*
X164763564Y-107004302D01*
X164662302Y-107105564D01*
X164654661Y-107117000D01*
X164271224Y-107117000D01*
X162667993Y-105513770D01*
X162667993Y-105194819D01*
X162728936Y-105220062D01*
X162869391Y-105248000D01*
X163012597Y-105248000D01*
X163153052Y-105220062D01*
X163285358Y-105165259D01*
X163404430Y-105085698D01*
X163505692Y-104984436D01*
X163585253Y-104865364D01*
X163640056Y-104733058D01*
X163667994Y-104592603D01*
X163667994Y-104543816D01*
X163678485Y-104533325D01*
X163698716Y-104516722D01*
X163764972Y-104435988D01*
X163780997Y-104406007D01*
X164012681Y-104174324D01*
X164038628Y-104195617D01*
X164095435Y-104225981D01*
X164157075Y-104244679D01*
X164221178Y-104250993D01*
X164790978Y-104250993D01*
X164790979Y-104263829D01*
X164221178Y-104263829D01*
X164157075Y-104270143D01*
X164095435Y-104288841D01*
X164038628Y-104319205D01*
X163988835Y-104360068D01*
X163947972Y-104409861D01*
X163917608Y-104466668D01*
X163898910Y-104528308D01*
X163892596Y-104592411D01*
X163892596Y-105192411D01*
X163898910Y-105256514D01*
X163917608Y-105318154D01*
X163947972Y-105374961D01*
X163988835Y-105424754D01*
X164038628Y-105465617D01*
X164095435Y-105495981D01*
X164157075Y-105514679D01*
X164221178Y-105520993D01*
X166421178Y-105520993D01*
X166485281Y-105514679D01*
X166546921Y-105495981D01*
X166603728Y-105465617D01*
X166653521Y-105424754D01*
X166694384Y-105374961D01*
X166724748Y-105318154D01*
X166743446Y-105256514D01*
X166749760Y-105192411D01*
X166749760Y-104592411D01*
X166743446Y-104528308D01*
X166724748Y-104466668D01*
X166694384Y-104409861D01*
X166653521Y-104360068D01*
X166603728Y-104319205D01*
X166546921Y-104288841D01*
X166485281Y-104270143D01*
X166421178Y-104263829D01*
X165851378Y-104263829D01*
X165851378Y-104250993D01*
X166421178Y-104250993D01*
X166485281Y-104244679D01*
X166546921Y-104225981D01*
X166603728Y-104195617D01*
X166653521Y-104154754D01*
X166694384Y-104104961D01*
X166724748Y-104048154D01*
X166743446Y-103986514D01*
X166746730Y-103953175D01*
X166758433Y-103943570D01*
X166772597Y-103926311D01*
X167435905Y-103263004D01*
X167453159Y-103248844D01*
X167509643Y-103180018D01*
X167551614Y-103101495D01*
X167567226Y-103050029D01*
X167577460Y-103016293D01*
X167585640Y-102933244D01*
X167595436Y-102926698D01*
X167696698Y-102825436D01*
X167776259Y-102706364D01*
X167831062Y-102574058D01*
X167859000Y-102433603D01*
X167859000Y-102290397D01*
X167831062Y-102149942D01*
X167776259Y-102017636D01*
X167696698Y-101898564D01*
X167595436Y-101797302D01*
X167584000Y-101789661D01*
X167584000Y-100930436D01*
X167586187Y-100908231D01*
X167577460Y-100819623D01*
X167551614Y-100734421D01*
X167544192Y-100720536D01*
X167509643Y-100655898D01*
X167453159Y-100587072D01*
X167435906Y-100572913D01*
X165048091Y-98185099D01*
X165033927Y-98167840D01*
X164965101Y-98111356D01*
X164886578Y-98069385D01*
X164801375Y-98043539D01*
X164734973Y-98036999D01*
X164712768Y-98034812D01*
X164690563Y-98036999D01*
X162187206Y-98036999D01*
X162165001Y-98034812D01*
X162076393Y-98043539D01*
X162033334Y-98056601D01*
X161991191Y-98069385D01*
X161912668Y-98111356D01*
X161843842Y-98167840D01*
X161829682Y-98185094D01*
X161529358Y-98485418D01*
X161211233Y-98485418D01*
X161175329Y-98449514D01*
X161158722Y-98429278D01*
X161077988Y-98363022D01*
X160985880Y-98313789D01*
X160885937Y-98283472D01*
X160808043Y-98275800D01*
X160808040Y-98275800D01*
X160782000Y-98273235D01*
X160755960Y-98275800D01*
X158104934Y-98275800D01*
X158070436Y-98241302D01*
X157951364Y-98161741D01*
X157819058Y-98106938D01*
X157710637Y-98085372D01*
X157712950Y-98073743D01*
X157712950Y-97920057D01*
X157682967Y-97769324D01*
X157624154Y-97627337D01*
X157594930Y-97583600D01*
X158384812Y-97583600D01*
X158407100Y-97585795D01*
X158429388Y-97583600D01*
X158429395Y-97583600D01*
X158496099Y-97577030D01*
X158581679Y-97551070D01*
X158660549Y-97508913D01*
X158729679Y-97452179D01*
X158743894Y-97434858D01*
X159103153Y-97075600D01*
X165750812Y-97075600D01*
X165773100Y-97077795D01*
X165795388Y-97075600D01*
X165795395Y-97075600D01*
X165862099Y-97069030D01*
X165947679Y-97043070D01*
X166026549Y-97000913D01*
X166095679Y-96944179D01*
X166109894Y-96926858D01*
X167113294Y-95923458D01*
X167211224Y-95964022D01*
X167436338Y-96008800D01*
X167665862Y-96008800D01*
X167890976Y-95964022D01*
X168103029Y-95876187D01*
X168293872Y-95748670D01*
X168456170Y-95586372D01*
X168583687Y-95395529D01*
X168671522Y-95183476D01*
X168716300Y-94958362D01*
X168716300Y-94728838D01*
X168671522Y-94503724D01*
X168583687Y-94291671D01*
X168456170Y-94100828D01*
X168293872Y-93938530D01*
X168103029Y-93811013D01*
X168017537Y-93775601D01*
X171234100Y-93775601D01*
X171234100Y-94536600D01*
X171234100Y-94536600D01*
G37*
X171234100Y-94536600D02*
X171205779Y-94536600D01*
X170901106Y-94597204D01*
X170614111Y-94716081D01*
X170355821Y-94888664D01*
X170136164Y-95108321D01*
X169963581Y-95366611D01*
X169844704Y-95653606D01*
X169784100Y-95958279D01*
X169784100Y-96268921D01*
X169844704Y-96573594D01*
X169963581Y-96860589D01*
X170136164Y-97118879D01*
X170355821Y-97338536D01*
X170614111Y-97511119D01*
X170901106Y-97629996D01*
X171205779Y-97690600D01*
X171234100Y-97690600D01*
X171234100Y-100447583D01*
X171179450Y-100476794D01*
X171129657Y-100517657D01*
X171088794Y-100567450D01*
X171058430Y-100624257D01*
X171039732Y-100685897D01*
X171033418Y-100750000D01*
X171033418Y-101153553D01*
X171023393Y-101154540D01*
X170938190Y-101180386D01*
X170859667Y-101222357D01*
X170790841Y-101278841D01*
X170776680Y-101296097D01*
X170733093Y-101339683D01*
X170715841Y-101353842D01*
X170664925Y-101415883D01*
X170659357Y-101422668D01*
X170617385Y-101501192D01*
X170591539Y-101586394D01*
X170582812Y-101675001D01*
X170585000Y-101697216D01*
X170585000Y-102967623D01*
X170522000Y-102961418D01*
X168822000Y-102961418D01*
X168757897Y-102967732D01*
X168696257Y-102986430D01*
X168639450Y-103016794D01*
X168589657Y-103057657D01*
X168548794Y-103107450D01*
X168518430Y-103164257D01*
X168499732Y-103225897D01*
X168493418Y-103290000D01*
X168493418Y-104990000D01*
X168499732Y-105054103D01*
X168518430Y-105115743D01*
X168548794Y-105172550D01*
X168589657Y-105222343D01*
X168639450Y-105263206D01*
X168696257Y-105293570D01*
X168757897Y-105312268D01*
X168822000Y-105318582D01*
X170522000Y-105318582D01*
X170584999Y-105312377D01*
X170584999Y-105937178D01*
X170508291Y-105843709D01*
X170329070Y-105696626D01*
X170124597Y-105587333D01*
X169902732Y-105520031D01*
X169729812Y-105503000D01*
X169614188Y-105503000D01*
X169441268Y-105520031D01*
X169219403Y-105587333D01*
X169014930Y-105696626D01*
X168835709Y-105843709D01*
X168688626Y-106022930D01*
X168579333Y-106227403D01*
X168512031Y-106449268D01*
X168489306Y-106680000D01*
X168512031Y-106910732D01*
X168579333Y-107132597D01*
X168688626Y-107337070D01*
X168835709Y-107516291D01*
X169014930Y-107663374D01*
X169219403Y-107772667D01*
X169441268Y-107839969D01*
X169614188Y-107857000D01*
X169729812Y-107857000D01*
X169902732Y-107839969D01*
X170124597Y-107772667D01*
X170329070Y-107663374D01*
X170508291Y-107516291D01*
X170655374Y-107337070D01*
X170764667Y-107132597D01*
X170801808Y-107010159D01*
X170859667Y-107057643D01*
X170938190Y-107099614D01*
X171023393Y-107125460D01*
X171033418Y-107126447D01*
X171033418Y-107530000D01*
X171039732Y-107594103D01*
X171058430Y-107655743D01*
X171088794Y-107712550D01*
X171129657Y-107762343D01*
X171179450Y-107803206D01*
X171234100Y-107832417D01*
X171234100Y-108556260D01*
X171228626Y-108562930D01*
X171119333Y-108767403D01*
X171052031Y-108989268D01*
X171029306Y-109220000D01*
X171052031Y-109450732D01*
X171119333Y-109672597D01*
X171228626Y-109877070D01*
X171234100Y-109883740D01*
X171234100Y-112291200D01*
X171116879Y-112291200D01*
X170812206Y-112351804D01*
X170525211Y-112470681D01*
X170266921Y-112643264D01*
X170047264Y-112862921D01*
X169874681Y-113121211D01*
X169755804Y-113408206D01*
X169695200Y-113712879D01*
X169695200Y-114023521D01*
X169755804Y-114328194D01*
X169874681Y-114615189D01*
X170047264Y-114873479D01*
X170266921Y-115093136D01*
X170525211Y-115265719D01*
X170812206Y-115384596D01*
X171116879Y-115445200D01*
X171234100Y-115445200D01*
X171234100Y-116231599D01*
X168017537Y-116231599D01*
X168103029Y-116196187D01*
X168293872Y-116068670D01*
X168456170Y-115906372D01*
X168583687Y-115715529D01*
X168671522Y-115503476D01*
X168716300Y-115278362D01*
X168716300Y-115048838D01*
X168671522Y-114823724D01*
X168583687Y-114611671D01*
X168456170Y-114420828D01*
X168293872Y-114258530D01*
X168103029Y-114131013D01*
X167890976Y-114043178D01*
X167665862Y-113998400D01*
X167436338Y-113998400D01*
X167211224Y-114043178D01*
X166999171Y-114131013D01*
X166808328Y-114258530D01*
X166646030Y-114420828D01*
X166518513Y-114611671D01*
X166430678Y-114823724D01*
X166385900Y-115048838D01*
X166385900Y-115278362D01*
X166430678Y-115503476D01*
X166518513Y-115715529D01*
X166646030Y-115906372D01*
X166808328Y-116068670D01*
X166999171Y-116196187D01*
X167084663Y-116231599D01*
X165477537Y-116231599D01*
X165563029Y-116196187D01*
X165753872Y-116068670D01*
X165916170Y-115906372D01*
X166043687Y-115715529D01*
X166131522Y-115503476D01*
X166176300Y-115278362D01*
X166176300Y-115048838D01*
X166131522Y-114823724D01*
X166043687Y-114611671D01*
X165916170Y-114420828D01*
X165753872Y-114258530D01*
X165563029Y-114131013D01*
X165350976Y-114043178D01*
X165125862Y-113998400D01*
X164896338Y-113998400D01*
X164671224Y-114043178D01*
X164573294Y-114083742D01*
X163502307Y-113012755D01*
X163488092Y-112995434D01*
X163418962Y-112938700D01*
X163340092Y-112896543D01*
X163254512Y-112870583D01*
X163187808Y-112864013D01*
X163187801Y-112864013D01*
X163165513Y-112861818D01*
X163143225Y-112864013D01*
X161025506Y-112864013D01*
X161057717Y-112786248D01*
X161085655Y-112645793D01*
X161085655Y-112502587D01*
X161057717Y-112362132D01*
X161002914Y-112229826D01*
X160923353Y-112110754D01*
X160822091Y-112009492D01*
X160812295Y-112002946D01*
X160804115Y-111919897D01*
X160778269Y-111834695D01*
X160761032Y-111802447D01*
X160736298Y-111756172D01*
X160679814Y-111687346D01*
X160662561Y-111673187D01*
X160228472Y-111239099D01*
X160214308Y-111221840D01*
X160145482Y-111165356D01*
X160130960Y-111157594D01*
X163114407Y-111157594D01*
X163798420Y-111379262D01*
X163835741Y-111469364D01*
X163915302Y-111588436D01*
X164016564Y-111689698D01*
X164135636Y-111769259D01*
X164267942Y-111824062D01*
X164408397Y-111852000D01*
X164551603Y-111852000D01*
X164692058Y-111824062D01*
X164824364Y-111769259D01*
X164943436Y-111689698D01*
X165044698Y-111588436D01*
X165124259Y-111469364D01*
X165179062Y-111337058D01*
X165207000Y-111196603D01*
X165207000Y-111053397D01*
X165179062Y-110912942D01*
X165124259Y-110780636D01*
X165044698Y-110661564D01*
X164943436Y-110560302D01*
X164824364Y-110480741D01*
X164711521Y-110434000D01*
X165543673Y-110434000D01*
X165551314Y-110445436D01*
X165652576Y-110546698D01*
X165771648Y-110626259D01*
X165903954Y-110681062D01*
X166044409Y-110709000D01*
X166187615Y-110709000D01*
X166328070Y-110681062D01*
X166460376Y-110626259D01*
X166579448Y-110546698D01*
X166680710Y-110445436D01*
X166760271Y-110326364D01*
X166815074Y-110194058D01*
X166843012Y-110053603D01*
X166843012Y-109910397D01*
X166815074Y-109769942D01*
X166760271Y-109637636D01*
X166680710Y-109518564D01*
X166579448Y-109417302D01*
X166460376Y-109337741D01*
X166328070Y-109282938D01*
X166187615Y-109255000D01*
X166044409Y-109255000D01*
X165903954Y-109282938D01*
X165771648Y-109337741D01*
X165652576Y-109417302D01*
X165551314Y-109518564D01*
X165543673Y-109530000D01*
X156480294Y-109530000D01*
X156458089Y-109527813D01*
X156369481Y-109536540D01*
X156284279Y-109562386D01*
X156205756Y-109604357D01*
X156136930Y-109660841D01*
X156122770Y-109678095D01*
X156028071Y-109772794D01*
X156048000Y-109672603D01*
X156048000Y-109529397D01*
X156020062Y-109388942D01*
X155965259Y-109256636D01*
X155885698Y-109137564D01*
X155784436Y-109036302D01*
X155665364Y-108956741D01*
X155533058Y-108901938D01*
X155392603Y-108874000D01*
X155249397Y-108874000D01*
X155108942Y-108901938D01*
X155079285Y-108914222D01*
X155055217Y-108793225D01*
X154998376Y-108656000D01*
X158092795Y-108656000D01*
X158115000Y-108658187D01*
X158137205Y-108656000D01*
X158203607Y-108649460D01*
X158288810Y-108623614D01*
X158367333Y-108581643D01*
X158436159Y-108525159D01*
X158450323Y-108507900D01*
X158537907Y-108420317D01*
X158551397Y-108423000D01*
X158694603Y-108423000D01*
X158835058Y-108395062D01*
X158967364Y-108340259D01*
X159086436Y-108260698D01*
X159187698Y-108159436D01*
X159267259Y-108040364D01*
X159306472Y-107945694D01*
X159958688Y-108597911D01*
X159972844Y-108615160D01*
X160041670Y-108671644D01*
X160120193Y-108713615D01*
X160179060Y-108731472D01*
X160205395Y-108739461D01*
X160294002Y-108748188D01*
X160316207Y-108746001D01*
X165552796Y-108746001D01*
X165575001Y-108748188D01*
X165597206Y-108746001D01*
X165663608Y-108739461D01*
X165748811Y-108713615D01*
X165827334Y-108671644D01*
X165896160Y-108615160D01*
X165910324Y-108597901D01*
X166155991Y-108352235D01*
X166326943Y-108352235D01*
X166334584Y-108363671D01*
X166435846Y-108464933D01*
X166554918Y-108544494D01*
X166687224Y-108599297D01*
X166827679Y-108627235D01*
X166970885Y-108627235D01*
X167111340Y-108599297D01*
X167243646Y-108544494D01*
X167362718Y-108464933D01*
X167463980Y-108363671D01*
X167543541Y-108244599D01*
X167598344Y-108112293D01*
X167626282Y-107971838D01*
X167626282Y-107828632D01*
X167598344Y-107688177D01*
X167543541Y-107555871D01*
X167463980Y-107436799D01*
X167362718Y-107335537D01*
X167243646Y-107255976D01*
X167111340Y-107201173D01*
X166970885Y-107173235D01*
X166827679Y-107173235D01*
X166687224Y-107201173D01*
X166554918Y-107255976D01*
X166435846Y-107335537D01*
X166334584Y-107436799D01*
X166326943Y-107448235D01*
X165990971Y-107448235D01*
X165968766Y-107446048D01*
X165944266Y-107448461D01*
X165926062Y-107356942D01*
X165871259Y-107224636D01*
X165791698Y-107105564D01*
X165690436Y-107004302D01*
X165571364Y-106924741D01*
X165439058Y-106869938D01*
X165298603Y-106842000D01*
X165155397Y-106842000D01*
X165014942Y-106869938D01*
X164882636Y-106924741D01*
X164763564Y-107004302D01*
X164662302Y-107105564D01*
X164654661Y-107117000D01*
X164271224Y-107117000D01*
X162667993Y-105513770D01*
X162667993Y-105194819D01*
X162728936Y-105220062D01*
X162869391Y-105248000D01*
X163012597Y-105248000D01*
X163153052Y-105220062D01*
X163285358Y-105165259D01*
X163404430Y-105085698D01*
X163505692Y-104984436D01*
X163585253Y-104865364D01*
X163640056Y-104733058D01*
X163667994Y-104592603D01*
X163667994Y-104543816D01*
X163678485Y-104533325D01*
X163698716Y-104516722D01*
X163764972Y-104435988D01*
X163780997Y-104406007D01*
X164012681Y-104174324D01*
X164038628Y-104195617D01*
X164095435Y-104225981D01*
X164157075Y-104244679D01*
X164221178Y-104250993D01*
X164790978Y-104250993D01*
X164790979Y-104263829D01*
X164221178Y-104263829D01*
X164157075Y-104270143D01*
X164095435Y-104288841D01*
X164038628Y-104319205D01*
X163988835Y-104360068D01*
X163947972Y-104409861D01*
X163917608Y-104466668D01*
X163898910Y-104528308D01*
X163892596Y-104592411D01*
X163892596Y-105192411D01*
X163898910Y-105256514D01*
X163917608Y-105318154D01*
X163947972Y-105374961D01*
X163988835Y-105424754D01*
X164038628Y-105465617D01*
X164095435Y-105495981D01*
X164157075Y-105514679D01*
X164221178Y-105520993D01*
X166421178Y-105520993D01*
X166485281Y-105514679D01*
X166546921Y-105495981D01*
X166603728Y-105465617D01*
X166653521Y-105424754D01*
X166694384Y-105374961D01*
X166724748Y-105318154D01*
X166743446Y-105256514D01*
X166749760Y-105192411D01*
X166749760Y-104592411D01*
X166743446Y-104528308D01*
X166724748Y-104466668D01*
X166694384Y-104409861D01*
X166653521Y-104360068D01*
X166603728Y-104319205D01*
X166546921Y-104288841D01*
X166485281Y-104270143D01*
X166421178Y-104263829D01*
X165851378Y-104263829D01*
X165851378Y-104250993D01*
X166421178Y-104250993D01*
X166485281Y-104244679D01*
X166546921Y-104225981D01*
X166603728Y-104195617D01*
X166653521Y-104154754D01*
X166694384Y-104104961D01*
X166724748Y-104048154D01*
X166743446Y-103986514D01*
X166746730Y-103953175D01*
X166758433Y-103943570D01*
X166772597Y-103926311D01*
X167435905Y-103263004D01*
X167453159Y-103248844D01*
X167509643Y-103180018D01*
X167551614Y-103101495D01*
X167567226Y-103050029D01*
X167577460Y-103016293D01*
X167585640Y-102933244D01*
X167595436Y-102926698D01*
X167696698Y-102825436D01*
X167776259Y-102706364D01*
X167831062Y-102574058D01*
X167859000Y-102433603D01*
X167859000Y-102290397D01*
X167831062Y-102149942D01*
X167776259Y-102017636D01*
X167696698Y-101898564D01*
X167595436Y-101797302D01*
X167584000Y-101789661D01*
X167584000Y-100930436D01*
X167586187Y-100908231D01*
X167577460Y-100819623D01*
X167551614Y-100734421D01*
X167544192Y-100720536D01*
X167509643Y-100655898D01*
X167453159Y-100587072D01*
X167435906Y-100572913D01*
X165048091Y-98185099D01*
X165033927Y-98167840D01*
X164965101Y-98111356D01*
X164886578Y-98069385D01*
X164801375Y-98043539D01*
X164734973Y-98036999D01*
X164712768Y-98034812D01*
X164690563Y-98036999D01*
X162187206Y-98036999D01*
X162165001Y-98034812D01*
X162076393Y-98043539D01*
X162033334Y-98056601D01*
X161991191Y-98069385D01*
X161912668Y-98111356D01*
X161843842Y-98167840D01*
X161829682Y-98185094D01*
X161529358Y-98485418D01*
X161211233Y-98485418D01*
X161175329Y-98449514D01*
X161158722Y-98429278D01*
X161077988Y-98363022D01*
X160985880Y-98313789D01*
X160885937Y-98283472D01*
X160808043Y-98275800D01*
X160808040Y-98275800D01*
X160782000Y-98273235D01*
X160755960Y-98275800D01*
X158104934Y-98275800D01*
X158070436Y-98241302D01*
X157951364Y-98161741D01*
X157819058Y-98106938D01*
X157710637Y-98085372D01*
X157712950Y-98073743D01*
X157712950Y-97920057D01*
X157682967Y-97769324D01*
X157624154Y-97627337D01*
X157594930Y-97583600D01*
X158384812Y-97583600D01*
X158407100Y-97585795D01*
X158429388Y-97583600D01*
X158429395Y-97583600D01*
X158496099Y-97577030D01*
X158581679Y-97551070D01*
X158660549Y-97508913D01*
X158729679Y-97452179D01*
X158743894Y-97434858D01*
X159103153Y-97075600D01*
X165750812Y-97075600D01*
X165773100Y-97077795D01*
X165795388Y-97075600D01*
X165795395Y-97075600D01*
X165862099Y-97069030D01*
X165947679Y-97043070D01*
X166026549Y-97000913D01*
X166095679Y-96944179D01*
X166109894Y-96926858D01*
X167113294Y-95923458D01*
X167211224Y-95964022D01*
X167436338Y-96008800D01*
X167665862Y-96008800D01*
X167890976Y-95964022D01*
X168103029Y-95876187D01*
X168293872Y-95748670D01*
X168456170Y-95586372D01*
X168583687Y-95395529D01*
X168671522Y-95183476D01*
X168716300Y-94958362D01*
X168716300Y-94728838D01*
X168671522Y-94503724D01*
X168583687Y-94291671D01*
X168456170Y-94100828D01*
X168293872Y-93938530D01*
X168103029Y-93811013D01*
X168017537Y-93775601D01*
X171234100Y-93775601D01*
X171234100Y-94536600D01*
G36*
X127048752Y-93856579D02*
X126940079Y-93965252D01*
X126854696Y-94093037D01*
X126795883Y-94235024D01*
X126765900Y-94385757D01*
X126765900Y-94539443D01*
X126767768Y-94548832D01*
X126553877Y-94405915D01*
X126203185Y-94260653D01*
X125830893Y-94186600D01*
X125451307Y-94186600D01*
X125079015Y-94260653D01*
X124728323Y-94405915D01*
X124412709Y-94616801D01*
X124144301Y-94885209D01*
X123933415Y-95200823D01*
X123788153Y-95551515D01*
X123714100Y-95923807D01*
X123714100Y-96303393D01*
X123788153Y-96675685D01*
X123933415Y-97026377D01*
X124144301Y-97341991D01*
X124412709Y-97610399D01*
X124728323Y-97821285D01*
X125079015Y-97966547D01*
X125451307Y-98040600D01*
X125830893Y-98040600D01*
X126203185Y-97966547D01*
X126553877Y-97821285D01*
X126869491Y-97610399D01*
X127137899Y-97341991D01*
X127348785Y-97026377D01*
X127494047Y-96675685D01*
X127568100Y-96303393D01*
X127568100Y-95952152D01*
X128187208Y-96571261D01*
X128201421Y-96588579D01*
X128218737Y-96602790D01*
X128218738Y-96602791D01*
X128239600Y-96619912D01*
X128270551Y-96645313D01*
X128349421Y-96687470D01*
X128435001Y-96713430D01*
X128501705Y-96720000D01*
X128501714Y-96720000D01*
X128523999Y-96722195D01*
X128546284Y-96720000D01*
X143798995Y-96720000D01*
X143819301Y-96718000D01*
X144745100Y-96718000D01*
X144745101Y-98243702D01*
X144495499Y-97994100D01*
X144481335Y-97976841D01*
X144412509Y-97920357D01*
X144333986Y-97878386D01*
X144248783Y-97852540D01*
X144182381Y-97846000D01*
X144160176Y-97843813D01*
X144137971Y-97846000D01*
X142770202Y-97846000D01*
X142747999Y-97843813D01*
X142725796Y-97846000D01*
X142725795Y-97846000D01*
X142659393Y-97852540D01*
X142574190Y-97878386D01*
X142495667Y-97920357D01*
X142426841Y-97976841D01*
X142412685Y-97994090D01*
X142052776Y-98354000D01*
X139676899Y-98354000D01*
X138259396Y-96936499D01*
X138245232Y-96919240D01*
X138176406Y-96862756D01*
X138097883Y-96820785D01*
X138012680Y-96794939D01*
X137946278Y-96788399D01*
X137924073Y-96786212D01*
X137901868Y-96788399D01*
X135699805Y-96788399D01*
X135677600Y-96786212D01*
X135588993Y-96794939D01*
X135569163Y-96800955D01*
X135503791Y-96820785D01*
X135425268Y-96862756D01*
X135356442Y-96919240D01*
X135342286Y-96936489D01*
X135048099Y-97230677D01*
X135030841Y-97244841D01*
X134974357Y-97313668D01*
X134936978Y-97383600D01*
X134932386Y-97392191D01*
X134906540Y-97477393D01*
X134897813Y-97566000D01*
X134900000Y-97588205D01*
X134900000Y-97806465D01*
X134869450Y-97822794D01*
X134852000Y-97837114D01*
X134834550Y-97822794D01*
X134777743Y-97792430D01*
X134716103Y-97773732D01*
X134652000Y-97767418D01*
X134052000Y-97767418D01*
X133987897Y-97773732D01*
X133926257Y-97792430D01*
X133869450Y-97822794D01*
X133852000Y-97837114D01*
X133834550Y-97822794D01*
X133777743Y-97792430D01*
X133716103Y-97773732D01*
X133652000Y-97767418D01*
X133052000Y-97767418D01*
X132987897Y-97773732D01*
X132950578Y-97785052D01*
X132926747Y-97761221D01*
X132856155Y-97714053D01*
X132777718Y-97681563D01*
X132694450Y-97665000D01*
X132484750Y-97665000D01*
X132377000Y-97772750D01*
X132377000Y-98846000D01*
X132397000Y-98846000D01*
X132397000Y-98896000D01*
X132377000Y-98896000D01*
X132377000Y-99969250D01*
X132484750Y-100077000D01*
X132694450Y-100077000D01*
X132777718Y-100060437D01*
X132820176Y-100042850D01*
X132819235Y-100052400D01*
X132821800Y-100078440D01*
X132821800Y-100078442D01*
X132829472Y-100156336D01*
X132859789Y-100256279D01*
X132909022Y-100348388D01*
X132975278Y-100429122D01*
X132995514Y-100445729D01*
X133522874Y-100973090D01*
X133539477Y-100993321D01*
X133620211Y-101059577D01*
X133712319Y-101108810D01*
X133812262Y-101139127D01*
X133890156Y-101146799D01*
X133890159Y-101146799D01*
X133916199Y-101149364D01*
X133942239Y-101146799D01*
X135339947Y-101146799D01*
X135299095Y-101245424D01*
X135269112Y-101396157D01*
X135269112Y-101549843D01*
X135279752Y-101603336D01*
X135227088Y-101656000D01*
X130279795Y-101656000D01*
X130257550Y-101658191D01*
X130213100Y-101653813D01*
X130124492Y-101662540D01*
X130039290Y-101688386D01*
X129960767Y-101730358D01*
X129909189Y-101772687D01*
X129161614Y-102520263D01*
X129128522Y-102547421D01*
X129071788Y-102616551D01*
X129029631Y-102695421D01*
X129003671Y-102781001D01*
X128997101Y-102847705D01*
X128997101Y-102868091D01*
X128996913Y-102870000D01*
X128997101Y-102871909D01*
X128997101Y-107430217D01*
X128856998Y-107352582D01*
X128663568Y-107290694D01*
X128461782Y-107267730D01*
X128259392Y-107284575D01*
X128110660Y-107327245D01*
X128146050Y-107274280D01*
X128197084Y-107151074D01*
X128223100Y-107020279D01*
X128223100Y-106886921D01*
X128197084Y-106756126D01*
X128146050Y-106632920D01*
X128071960Y-106522037D01*
X127977663Y-106427740D01*
X127866780Y-106353650D01*
X127743574Y-106302616D01*
X127612779Y-106276600D01*
X127479421Y-106276600D01*
X127348626Y-106302616D01*
X127225420Y-106353650D01*
X127114537Y-106427740D01*
X127020240Y-106522037D01*
X126946150Y-106632920D01*
X126895116Y-106756126D01*
X126869100Y-106886921D01*
X126869100Y-106922600D01*
X125778850Y-106922600D01*
X125671100Y-107030350D01*
X125671100Y-107976599D01*
X125621100Y-107976599D01*
X125621100Y-107030350D01*
X125513350Y-106922600D01*
X124353650Y-106922600D01*
X124270382Y-106939163D01*
X124191945Y-106971653D01*
X124121353Y-107018821D01*
X124061320Y-107078854D01*
X124014153Y-107149445D01*
X123981663Y-107227882D01*
X123965100Y-107311150D01*
X123965100Y-108470850D01*
X124072850Y-108578600D01*
X124818371Y-108578600D01*
X124818937Y-108599864D01*
X124818860Y-108600448D01*
X124818794Y-108602918D01*
X124818290Y-108628600D01*
X124072850Y-108628600D01*
X123965100Y-108736350D01*
X123965100Y-109896050D01*
X123981663Y-109979318D01*
X124014153Y-110057755D01*
X124061320Y-110128346D01*
X124121353Y-110188379D01*
X124191945Y-110235547D01*
X124270382Y-110268037D01*
X124353650Y-110284600D01*
X125513350Y-110284600D01*
X125621100Y-110176850D01*
X125621100Y-109230601D01*
X125671100Y-109230601D01*
X125671100Y-110176850D01*
X125778850Y-110284600D01*
X126938550Y-110284600D01*
X127021818Y-110268037D01*
X127100255Y-110235547D01*
X127170847Y-110188379D01*
X127230880Y-110128346D01*
X127278047Y-110057755D01*
X127310537Y-109979318D01*
X127327100Y-109896050D01*
X127327100Y-108736350D01*
X127219350Y-108628600D01*
X126473829Y-108628600D01*
X126473263Y-108607336D01*
X126473340Y-108606752D01*
X126473406Y-108604282D01*
X126473910Y-108578600D01*
X127219350Y-108578600D01*
X127327100Y-108470850D01*
X127327100Y-107595668D01*
X127348626Y-107604584D01*
X127479421Y-107630600D01*
X127612779Y-107630600D01*
X127717010Y-107609868D01*
X127772295Y-107665153D01*
X127593517Y-107715064D01*
X127495082Y-107892702D01*
X127433194Y-108086132D01*
X127410230Y-108287918D01*
X127427075Y-108490308D01*
X127483080Y-108685523D01*
X127576093Y-108866060D01*
X127593517Y-108892136D01*
X127772297Y-108942048D01*
X128410745Y-108303600D01*
X128396603Y-108289458D01*
X128431958Y-108254103D01*
X128446100Y-108268245D01*
X128460243Y-108254103D01*
X128495598Y-108289458D01*
X128481455Y-108303600D01*
X128495598Y-108317743D01*
X128460243Y-108353098D01*
X128446100Y-108338955D01*
X127807652Y-108977403D01*
X127857564Y-109156183D01*
X128035202Y-109254618D01*
X128228632Y-109316506D01*
X128430418Y-109339470D01*
X128632808Y-109322625D01*
X128828023Y-109266620D01*
X128997100Y-109179511D01*
X128997100Y-112220312D01*
X128994905Y-112242600D01*
X128997100Y-112264888D01*
X128997100Y-112264894D01*
X129001906Y-112313687D01*
X129003670Y-112331599D01*
X129022479Y-112393605D01*
X129029630Y-112417178D01*
X129071787Y-112496048D01*
X129128521Y-112565179D01*
X129145842Y-112579394D01*
X129951071Y-113384624D01*
X129940900Y-113435757D01*
X129940900Y-113589443D01*
X129970883Y-113740176D01*
X130029696Y-113882163D01*
X130115079Y-114009948D01*
X130223752Y-114118621D01*
X130351537Y-114204004D01*
X130493524Y-114262817D01*
X130644257Y-114292800D01*
X130797943Y-114292800D01*
X130948676Y-114262817D01*
X131090663Y-114204004D01*
X131218448Y-114118621D01*
X131327121Y-114009948D01*
X131412504Y-113882163D01*
X131460900Y-113765324D01*
X131460900Y-114122012D01*
X131439171Y-114131013D01*
X131248328Y-114258530D01*
X131086030Y-114420828D01*
X130958513Y-114611671D01*
X130870678Y-114823724D01*
X130825900Y-115048838D01*
X130825900Y-115278362D01*
X130870678Y-115503476D01*
X130958513Y-115715529D01*
X131086030Y-115906372D01*
X131248328Y-116068670D01*
X131439171Y-116196187D01*
X131524663Y-116231599D01*
X129917537Y-116231599D01*
X130003029Y-116196187D01*
X130193872Y-116068670D01*
X130356170Y-115906372D01*
X130483687Y-115715529D01*
X130571522Y-115503476D01*
X130616300Y-115278362D01*
X130616300Y-115048838D01*
X130571522Y-114823724D01*
X130483687Y-114611671D01*
X130356170Y-114420828D01*
X130193872Y-114258530D01*
X130003029Y-114131013D01*
X129790976Y-114043178D01*
X129565862Y-113998400D01*
X129336338Y-113998400D01*
X129111224Y-114043178D01*
X128899171Y-114131013D01*
X128708328Y-114258530D01*
X128546030Y-114420828D01*
X128418513Y-114611671D01*
X128330678Y-114823724D01*
X128285900Y-115048838D01*
X128285900Y-115278362D01*
X128330678Y-115503476D01*
X128418513Y-115715529D01*
X128546030Y-115906372D01*
X128708328Y-116068670D01*
X128899171Y-116196187D01*
X128984663Y-116231599D01*
X125650980Y-116231599D01*
X125187166Y-116186122D01*
X124750521Y-116054290D01*
X124347807Y-115840162D01*
X123994348Y-115551887D01*
X123703613Y-115200449D01*
X123486677Y-114799233D01*
X123351802Y-114363524D01*
X123303126Y-113900400D01*
X123303101Y-113893180D01*
X123303101Y-113703807D01*
X123714100Y-113703807D01*
X123714100Y-114083393D01*
X123788153Y-114455685D01*
X123933415Y-114806377D01*
X124144301Y-115121991D01*
X124412709Y-115390399D01*
X124728323Y-115601285D01*
X125079015Y-115746547D01*
X125451307Y-115820600D01*
X125830893Y-115820600D01*
X126203185Y-115746547D01*
X126553877Y-115601285D01*
X126869491Y-115390399D01*
X127137899Y-115121991D01*
X127348785Y-114806377D01*
X127494047Y-114455685D01*
X127568100Y-114083393D01*
X127568100Y-113703807D01*
X127494047Y-113331515D01*
X127348785Y-112980823D01*
X127137899Y-112665209D01*
X126869491Y-112396801D01*
X126553877Y-112185915D01*
X126203185Y-112040653D01*
X125830893Y-111966600D01*
X125451307Y-111966600D01*
X125079015Y-112040653D01*
X124728323Y-112185915D01*
X124412709Y-112396801D01*
X124144301Y-112665209D01*
X123933415Y-112980823D01*
X123788153Y-113331515D01*
X123714100Y-113703807D01*
X123303101Y-113703807D01*
X123303101Y-107627270D01*
X123744925Y-107185448D01*
X123752627Y-107179127D01*
X123777870Y-107148369D01*
X123796627Y-107113276D01*
X123808178Y-107075199D01*
X123811101Y-107045520D01*
X123811101Y-107045511D01*
X123812077Y-107035601D01*
X123811101Y-107025691D01*
X123811101Y-102981509D01*
X123812077Y-102971599D01*
X123811101Y-102961689D01*
X123811101Y-102961680D01*
X123808178Y-102932001D01*
X123796627Y-102893924D01*
X123777870Y-102858831D01*
X123752627Y-102828073D01*
X123744926Y-102821753D01*
X123303101Y-102379930D01*
X123303101Y-100111150D01*
X123965100Y-100111150D01*
X123965100Y-101270850D01*
X124072850Y-101378600D01*
X124819099Y-101378600D01*
X124819099Y-101428600D01*
X124072850Y-101428600D01*
X123965100Y-101536350D01*
X123965100Y-102696050D01*
X123981663Y-102779318D01*
X124014153Y-102857755D01*
X124061320Y-102928346D01*
X124121353Y-102988379D01*
X124191945Y-103035547D01*
X124270382Y-103068037D01*
X124353650Y-103084600D01*
X125513350Y-103084600D01*
X125621100Y-102976850D01*
X125621100Y-102030601D01*
X125671100Y-102030601D01*
X125671100Y-102976850D01*
X125778850Y-103084600D01*
X126869100Y-103084600D01*
X126869100Y-103120279D01*
X126895116Y-103251074D01*
X126946150Y-103374280D01*
X127020240Y-103485163D01*
X127114537Y-103579460D01*
X127225420Y-103653550D01*
X127348626Y-103704584D01*
X127479421Y-103730600D01*
X127612779Y-103730600D01*
X127743574Y-103704584D01*
X127866780Y-103653550D01*
X127977663Y-103579460D01*
X128071960Y-103485163D01*
X128146050Y-103374280D01*
X128197084Y-103251074D01*
X128223100Y-103120279D01*
X128223100Y-102986921D01*
X128197084Y-102856126D01*
X128146050Y-102732920D01*
X128109645Y-102678436D01*
X128228632Y-102716506D01*
X128430418Y-102739470D01*
X128632808Y-102722625D01*
X128828023Y-102666620D01*
X129008560Y-102573607D01*
X129034636Y-102556183D01*
X129084548Y-102377403D01*
X128446100Y-101738955D01*
X128431958Y-101753098D01*
X128396603Y-101717743D01*
X128410745Y-101703600D01*
X128481455Y-101703600D01*
X129119903Y-102342048D01*
X129298683Y-102292136D01*
X129397118Y-102114498D01*
X129459006Y-101921068D01*
X129481970Y-101719282D01*
X129465125Y-101516892D01*
X129409120Y-101321677D01*
X129316107Y-101141140D01*
X129298683Y-101115064D01*
X129119903Y-101065152D01*
X128481455Y-101703600D01*
X128410745Y-101703600D01*
X127772297Y-101065152D01*
X127593517Y-101115064D01*
X127495082Y-101292702D01*
X127433194Y-101486132D01*
X127410230Y-101687918D01*
X127427075Y-101890308D01*
X127483080Y-102085523D01*
X127576093Y-102266060D01*
X127593517Y-102292136D01*
X127772295Y-102342047D01*
X127717010Y-102397332D01*
X127612779Y-102376600D01*
X127479421Y-102376600D01*
X127348626Y-102402616D01*
X127327100Y-102411532D01*
X127327100Y-101536350D01*
X127219350Y-101428600D01*
X126473101Y-101428600D01*
X126473101Y-101378600D01*
X127219350Y-101378600D01*
X127327100Y-101270850D01*
X127327100Y-101029797D01*
X127807652Y-101029797D01*
X128446100Y-101668245D01*
X129084548Y-101029797D01*
X129034636Y-100851017D01*
X128856998Y-100752582D01*
X128663568Y-100690694D01*
X128461782Y-100667730D01*
X128259392Y-100684575D01*
X128064177Y-100740580D01*
X127883640Y-100833593D01*
X127857564Y-100851017D01*
X127807652Y-101029797D01*
X127327100Y-101029797D01*
X127327100Y-100111150D01*
X127310537Y-100027882D01*
X127278047Y-99949445D01*
X127230880Y-99878854D01*
X127170847Y-99818821D01*
X127100255Y-99771653D01*
X127021818Y-99739163D01*
X126938550Y-99722600D01*
X125778850Y-99722600D01*
X125671100Y-99830350D01*
X125671100Y-100776599D01*
X125621100Y-100776599D01*
X125621100Y-99830350D01*
X125513350Y-99722600D01*
X124353650Y-99722600D01*
X124270382Y-99739163D01*
X124191945Y-99771653D01*
X124121353Y-99818821D01*
X124061320Y-99878854D01*
X124014153Y-99949445D01*
X123981663Y-100027882D01*
X123965100Y-100111150D01*
X123303101Y-100111150D01*
X123303101Y-99003750D01*
X131621000Y-99003750D01*
X131621000Y-99688450D01*
X131637563Y-99771718D01*
X131670053Y-99850155D01*
X131717220Y-99920746D01*
X131777253Y-99980779D01*
X131847845Y-100027947D01*
X131926282Y-100060437D01*
X132009550Y-100077000D01*
X132219250Y-100077000D01*
X132327000Y-99969250D01*
X132327000Y-98896000D01*
X131728750Y-98896000D01*
X131621000Y-99003750D01*
X123303101Y-99003750D01*
X123303101Y-98053550D01*
X131621000Y-98053550D01*
X131621000Y-98738250D01*
X131728750Y-98846000D01*
X132327000Y-98846000D01*
X132327000Y-97772750D01*
X132219250Y-97665000D01*
X132009550Y-97665000D01*
X131926282Y-97681563D01*
X131847845Y-97714053D01*
X131777253Y-97761221D01*
X131717220Y-97821254D01*
X131670053Y-97891845D01*
X131637563Y-97970282D01*
X131621000Y-98053550D01*
X123303101Y-98053550D01*
X123303101Y-96123480D01*
X123348578Y-95659671D01*
X123480409Y-95223025D01*
X123694536Y-94820310D01*
X123982811Y-94466849D01*
X124334249Y-94176115D01*
X124735467Y-93959177D01*
X125171177Y-93824302D01*
X125634300Y-93775626D01*
X125641520Y-93775601D01*
X127169944Y-93775601D01*
X127048752Y-93856579D01*
X127048752Y-93856579D01*
G37*
X127048752Y-93856579D02*
X126940079Y-93965252D01*
X126854696Y-94093037D01*
X126795883Y-94235024D01*
X126765900Y-94385757D01*
X126765900Y-94539443D01*
X126767768Y-94548832D01*
X126553877Y-94405915D01*
X126203185Y-94260653D01*
X125830893Y-94186600D01*
X125451307Y-94186600D01*
X125079015Y-94260653D01*
X124728323Y-94405915D01*
X124412709Y-94616801D01*
X124144301Y-94885209D01*
X123933415Y-95200823D01*
X123788153Y-95551515D01*
X123714100Y-95923807D01*
X123714100Y-96303393D01*
X123788153Y-96675685D01*
X123933415Y-97026377D01*
X124144301Y-97341991D01*
X124412709Y-97610399D01*
X124728323Y-97821285D01*
X125079015Y-97966547D01*
X125451307Y-98040600D01*
X125830893Y-98040600D01*
X126203185Y-97966547D01*
X126553877Y-97821285D01*
X126869491Y-97610399D01*
X127137899Y-97341991D01*
X127348785Y-97026377D01*
X127494047Y-96675685D01*
X127568100Y-96303393D01*
X127568100Y-95952152D01*
X128187208Y-96571261D01*
X128201421Y-96588579D01*
X128218737Y-96602790D01*
X128218738Y-96602791D01*
X128239600Y-96619912D01*
X128270551Y-96645313D01*
X128349421Y-96687470D01*
X128435001Y-96713430D01*
X128501705Y-96720000D01*
X128501714Y-96720000D01*
X128523999Y-96722195D01*
X128546284Y-96720000D01*
X143798995Y-96720000D01*
X143819301Y-96718000D01*
X144745100Y-96718000D01*
X144745101Y-98243702D01*
X144495499Y-97994100D01*
X144481335Y-97976841D01*
X144412509Y-97920357D01*
X144333986Y-97878386D01*
X144248783Y-97852540D01*
X144182381Y-97846000D01*
X144160176Y-97843813D01*
X144137971Y-97846000D01*
X142770202Y-97846000D01*
X142747999Y-97843813D01*
X142725796Y-97846000D01*
X142725795Y-97846000D01*
X142659393Y-97852540D01*
X142574190Y-97878386D01*
X142495667Y-97920357D01*
X142426841Y-97976841D01*
X142412685Y-97994090D01*
X142052776Y-98354000D01*
X139676899Y-98354000D01*
X138259396Y-96936499D01*
X138245232Y-96919240D01*
X138176406Y-96862756D01*
X138097883Y-96820785D01*
X138012680Y-96794939D01*
X137946278Y-96788399D01*
X137924073Y-96786212D01*
X137901868Y-96788399D01*
X135699805Y-96788399D01*
X135677600Y-96786212D01*
X135588993Y-96794939D01*
X135569163Y-96800955D01*
X135503791Y-96820785D01*
X135425268Y-96862756D01*
X135356442Y-96919240D01*
X135342286Y-96936489D01*
X135048099Y-97230677D01*
X135030841Y-97244841D01*
X134974357Y-97313668D01*
X134936978Y-97383600D01*
X134932386Y-97392191D01*
X134906540Y-97477393D01*
X134897813Y-97566000D01*
X134900000Y-97588205D01*
X134900000Y-97806465D01*
X134869450Y-97822794D01*
X134852000Y-97837114D01*
X134834550Y-97822794D01*
X134777743Y-97792430D01*
X134716103Y-97773732D01*
X134652000Y-97767418D01*
X134052000Y-97767418D01*
X133987897Y-97773732D01*
X133926257Y-97792430D01*
X133869450Y-97822794D01*
X133852000Y-97837114D01*
X133834550Y-97822794D01*
X133777743Y-97792430D01*
X133716103Y-97773732D01*
X133652000Y-97767418D01*
X133052000Y-97767418D01*
X132987897Y-97773732D01*
X132950578Y-97785052D01*
X132926747Y-97761221D01*
X132856155Y-97714053D01*
X132777718Y-97681563D01*
X132694450Y-97665000D01*
X132484750Y-97665000D01*
X132377000Y-97772750D01*
X132377000Y-98846000D01*
X132397000Y-98846000D01*
X132397000Y-98896000D01*
X132377000Y-98896000D01*
X132377000Y-99969250D01*
X132484750Y-100077000D01*
X132694450Y-100077000D01*
X132777718Y-100060437D01*
X132820176Y-100042850D01*
X132819235Y-100052400D01*
X132821800Y-100078440D01*
X132821800Y-100078442D01*
X132829472Y-100156336D01*
X132859789Y-100256279D01*
X132909022Y-100348388D01*
X132975278Y-100429122D01*
X132995514Y-100445729D01*
X133522874Y-100973090D01*
X133539477Y-100993321D01*
X133620211Y-101059577D01*
X133712319Y-101108810D01*
X133812262Y-101139127D01*
X133890156Y-101146799D01*
X133890159Y-101146799D01*
X133916199Y-101149364D01*
X133942239Y-101146799D01*
X135339947Y-101146799D01*
X135299095Y-101245424D01*
X135269112Y-101396157D01*
X135269112Y-101549843D01*
X135279752Y-101603336D01*
X135227088Y-101656000D01*
X130279795Y-101656000D01*
X130257550Y-101658191D01*
X130213100Y-101653813D01*
X130124492Y-101662540D01*
X130039290Y-101688386D01*
X129960767Y-101730358D01*
X129909189Y-101772687D01*
X129161614Y-102520263D01*
X129128522Y-102547421D01*
X129071788Y-102616551D01*
X129029631Y-102695421D01*
X129003671Y-102781001D01*
X128997101Y-102847705D01*
X128997101Y-102868091D01*
X128996913Y-102870000D01*
X128997101Y-102871909D01*
X128997101Y-107430217D01*
X128856998Y-107352582D01*
X128663568Y-107290694D01*
X128461782Y-107267730D01*
X128259392Y-107284575D01*
X128110660Y-107327245D01*
X128146050Y-107274280D01*
X128197084Y-107151074D01*
X128223100Y-107020279D01*
X128223100Y-106886921D01*
X128197084Y-106756126D01*
X128146050Y-106632920D01*
X128071960Y-106522037D01*
X127977663Y-106427740D01*
X127866780Y-106353650D01*
X127743574Y-106302616D01*
X127612779Y-106276600D01*
X127479421Y-106276600D01*
X127348626Y-106302616D01*
X127225420Y-106353650D01*
X127114537Y-106427740D01*
X127020240Y-106522037D01*
X126946150Y-106632920D01*
X126895116Y-106756126D01*
X126869100Y-106886921D01*
X126869100Y-106922600D01*
X125778850Y-106922600D01*
X125671100Y-107030350D01*
X125671100Y-107976599D01*
X125621100Y-107976599D01*
X125621100Y-107030350D01*
X125513350Y-106922600D01*
X124353650Y-106922600D01*
X124270382Y-106939163D01*
X124191945Y-106971653D01*
X124121353Y-107018821D01*
X124061320Y-107078854D01*
X124014153Y-107149445D01*
X123981663Y-107227882D01*
X123965100Y-107311150D01*
X123965100Y-108470850D01*
X124072850Y-108578600D01*
X124818371Y-108578600D01*
X124818937Y-108599864D01*
X124818860Y-108600448D01*
X124818794Y-108602918D01*
X124818290Y-108628600D01*
X124072850Y-108628600D01*
X123965100Y-108736350D01*
X123965100Y-109896050D01*
X123981663Y-109979318D01*
X124014153Y-110057755D01*
X124061320Y-110128346D01*
X124121353Y-110188379D01*
X124191945Y-110235547D01*
X124270382Y-110268037D01*
X124353650Y-110284600D01*
X125513350Y-110284600D01*
X125621100Y-110176850D01*
X125621100Y-109230601D01*
X125671100Y-109230601D01*
X125671100Y-110176850D01*
X125778850Y-110284600D01*
X126938550Y-110284600D01*
X127021818Y-110268037D01*
X127100255Y-110235547D01*
X127170847Y-110188379D01*
X127230880Y-110128346D01*
X127278047Y-110057755D01*
X127310537Y-109979318D01*
X127327100Y-109896050D01*
X127327100Y-108736350D01*
X127219350Y-108628600D01*
X126473829Y-108628600D01*
X126473263Y-108607336D01*
X126473340Y-108606752D01*
X126473406Y-108604282D01*
X126473910Y-108578600D01*
X127219350Y-108578600D01*
X127327100Y-108470850D01*
X127327100Y-107595668D01*
X127348626Y-107604584D01*
X127479421Y-107630600D01*
X127612779Y-107630600D01*
X127717010Y-107609868D01*
X127772295Y-107665153D01*
X127593517Y-107715064D01*
X127495082Y-107892702D01*
X127433194Y-108086132D01*
X127410230Y-108287918D01*
X127427075Y-108490308D01*
X127483080Y-108685523D01*
X127576093Y-108866060D01*
X127593517Y-108892136D01*
X127772297Y-108942048D01*
X128410745Y-108303600D01*
X128396603Y-108289458D01*
X128431958Y-108254103D01*
X128446100Y-108268245D01*
X128460243Y-108254103D01*
X128495598Y-108289458D01*
X128481455Y-108303600D01*
X128495598Y-108317743D01*
X128460243Y-108353098D01*
X128446100Y-108338955D01*
X127807652Y-108977403D01*
X127857564Y-109156183D01*
X128035202Y-109254618D01*
X128228632Y-109316506D01*
X128430418Y-109339470D01*
X128632808Y-109322625D01*
X128828023Y-109266620D01*
X128997100Y-109179511D01*
X128997100Y-112220312D01*
X128994905Y-112242600D01*
X128997100Y-112264888D01*
X128997100Y-112264894D01*
X129001906Y-112313687D01*
X129003670Y-112331599D01*
X129022479Y-112393605D01*
X129029630Y-112417178D01*
X129071787Y-112496048D01*
X129128521Y-112565179D01*
X129145842Y-112579394D01*
X129951071Y-113384624D01*
X129940900Y-113435757D01*
X129940900Y-113589443D01*
X129970883Y-113740176D01*
X130029696Y-113882163D01*
X130115079Y-114009948D01*
X130223752Y-114118621D01*
X130351537Y-114204004D01*
X130493524Y-114262817D01*
X130644257Y-114292800D01*
X130797943Y-114292800D01*
X130948676Y-114262817D01*
X131090663Y-114204004D01*
X131218448Y-114118621D01*
X131327121Y-114009948D01*
X131412504Y-113882163D01*
X131460900Y-113765324D01*
X131460900Y-114122012D01*
X131439171Y-114131013D01*
X131248328Y-114258530D01*
X131086030Y-114420828D01*
X130958513Y-114611671D01*
X130870678Y-114823724D01*
X130825900Y-115048838D01*
X130825900Y-115278362D01*
X130870678Y-115503476D01*
X130958513Y-115715529D01*
X131086030Y-115906372D01*
X131248328Y-116068670D01*
X131439171Y-116196187D01*
X131524663Y-116231599D01*
X129917537Y-116231599D01*
X130003029Y-116196187D01*
X130193872Y-116068670D01*
X130356170Y-115906372D01*
X130483687Y-115715529D01*
X130571522Y-115503476D01*
X130616300Y-115278362D01*
X130616300Y-115048838D01*
X130571522Y-114823724D01*
X130483687Y-114611671D01*
X130356170Y-114420828D01*
X130193872Y-114258530D01*
X130003029Y-114131013D01*
X129790976Y-114043178D01*
X129565862Y-113998400D01*
X129336338Y-113998400D01*
X129111224Y-114043178D01*
X128899171Y-114131013D01*
X128708328Y-114258530D01*
X128546030Y-114420828D01*
X128418513Y-114611671D01*
X128330678Y-114823724D01*
X128285900Y-115048838D01*
X128285900Y-115278362D01*
X128330678Y-115503476D01*
X128418513Y-115715529D01*
X128546030Y-115906372D01*
X128708328Y-116068670D01*
X128899171Y-116196187D01*
X128984663Y-116231599D01*
X125650980Y-116231599D01*
X125187166Y-116186122D01*
X124750521Y-116054290D01*
X124347807Y-115840162D01*
X123994348Y-115551887D01*
X123703613Y-115200449D01*
X123486677Y-114799233D01*
X123351802Y-114363524D01*
X123303126Y-113900400D01*
X123303101Y-113893180D01*
X123303101Y-113703807D01*
X123714100Y-113703807D01*
X123714100Y-114083393D01*
X123788153Y-114455685D01*
X123933415Y-114806377D01*
X124144301Y-115121991D01*
X124412709Y-115390399D01*
X124728323Y-115601285D01*
X125079015Y-115746547D01*
X125451307Y-115820600D01*
X125830893Y-115820600D01*
X126203185Y-115746547D01*
X126553877Y-115601285D01*
X126869491Y-115390399D01*
X127137899Y-115121991D01*
X127348785Y-114806377D01*
X127494047Y-114455685D01*
X127568100Y-114083393D01*
X127568100Y-113703807D01*
X127494047Y-113331515D01*
X127348785Y-112980823D01*
X127137899Y-112665209D01*
X126869491Y-112396801D01*
X126553877Y-112185915D01*
X126203185Y-112040653D01*
X125830893Y-111966600D01*
X125451307Y-111966600D01*
X125079015Y-112040653D01*
X124728323Y-112185915D01*
X124412709Y-112396801D01*
X124144301Y-112665209D01*
X123933415Y-112980823D01*
X123788153Y-113331515D01*
X123714100Y-113703807D01*
X123303101Y-113703807D01*
X123303101Y-107627270D01*
X123744925Y-107185448D01*
X123752627Y-107179127D01*
X123777870Y-107148369D01*
X123796627Y-107113276D01*
X123808178Y-107075199D01*
X123811101Y-107045520D01*
X123811101Y-107045511D01*
X123812077Y-107035601D01*
X123811101Y-107025691D01*
X123811101Y-102981509D01*
X123812077Y-102971599D01*
X123811101Y-102961689D01*
X123811101Y-102961680D01*
X123808178Y-102932001D01*
X123796627Y-102893924D01*
X123777870Y-102858831D01*
X123752627Y-102828073D01*
X123744926Y-102821753D01*
X123303101Y-102379930D01*
X123303101Y-100111150D01*
X123965100Y-100111150D01*
X123965100Y-101270850D01*
X124072850Y-101378600D01*
X124819099Y-101378600D01*
X124819099Y-101428600D01*
X124072850Y-101428600D01*
X123965100Y-101536350D01*
X123965100Y-102696050D01*
X123981663Y-102779318D01*
X124014153Y-102857755D01*
X124061320Y-102928346D01*
X124121353Y-102988379D01*
X124191945Y-103035547D01*
X124270382Y-103068037D01*
X124353650Y-103084600D01*
X125513350Y-103084600D01*
X125621100Y-102976850D01*
X125621100Y-102030601D01*
X125671100Y-102030601D01*
X125671100Y-102976850D01*
X125778850Y-103084600D01*
X126869100Y-103084600D01*
X126869100Y-103120279D01*
X126895116Y-103251074D01*
X126946150Y-103374280D01*
X127020240Y-103485163D01*
X127114537Y-103579460D01*
X127225420Y-103653550D01*
X127348626Y-103704584D01*
X127479421Y-103730600D01*
X127612779Y-103730600D01*
X127743574Y-103704584D01*
X127866780Y-103653550D01*
X127977663Y-103579460D01*
X128071960Y-103485163D01*
X128146050Y-103374280D01*
X128197084Y-103251074D01*
X128223100Y-103120279D01*
X128223100Y-102986921D01*
X128197084Y-102856126D01*
X128146050Y-102732920D01*
X128109645Y-102678436D01*
X128228632Y-102716506D01*
X128430418Y-102739470D01*
X128632808Y-102722625D01*
X128828023Y-102666620D01*
X129008560Y-102573607D01*
X129034636Y-102556183D01*
X129084548Y-102377403D01*
X128446100Y-101738955D01*
X128431958Y-101753098D01*
X128396603Y-101717743D01*
X128410745Y-101703600D01*
X128481455Y-101703600D01*
X129119903Y-102342048D01*
X129298683Y-102292136D01*
X129397118Y-102114498D01*
X129459006Y-101921068D01*
X129481970Y-101719282D01*
X129465125Y-101516892D01*
X129409120Y-101321677D01*
X129316107Y-101141140D01*
X129298683Y-101115064D01*
X129119903Y-101065152D01*
X128481455Y-101703600D01*
X128410745Y-101703600D01*
X127772297Y-101065152D01*
X127593517Y-101115064D01*
X127495082Y-101292702D01*
X127433194Y-101486132D01*
X127410230Y-101687918D01*
X127427075Y-101890308D01*
X127483080Y-102085523D01*
X127576093Y-102266060D01*
X127593517Y-102292136D01*
X127772295Y-102342047D01*
X127717010Y-102397332D01*
X127612779Y-102376600D01*
X127479421Y-102376600D01*
X127348626Y-102402616D01*
X127327100Y-102411532D01*
X127327100Y-101536350D01*
X127219350Y-101428600D01*
X126473101Y-101428600D01*
X126473101Y-101378600D01*
X127219350Y-101378600D01*
X127327100Y-101270850D01*
X127327100Y-101029797D01*
X127807652Y-101029797D01*
X128446100Y-101668245D01*
X129084548Y-101029797D01*
X129034636Y-100851017D01*
X128856998Y-100752582D01*
X128663568Y-100690694D01*
X128461782Y-100667730D01*
X128259392Y-100684575D01*
X128064177Y-100740580D01*
X127883640Y-100833593D01*
X127857564Y-100851017D01*
X127807652Y-101029797D01*
X127327100Y-101029797D01*
X127327100Y-100111150D01*
X127310537Y-100027882D01*
X127278047Y-99949445D01*
X127230880Y-99878854D01*
X127170847Y-99818821D01*
X127100255Y-99771653D01*
X127021818Y-99739163D01*
X126938550Y-99722600D01*
X125778850Y-99722600D01*
X125671100Y-99830350D01*
X125671100Y-100776599D01*
X125621100Y-100776599D01*
X125621100Y-99830350D01*
X125513350Y-99722600D01*
X124353650Y-99722600D01*
X124270382Y-99739163D01*
X124191945Y-99771653D01*
X124121353Y-99818821D01*
X124061320Y-99878854D01*
X124014153Y-99949445D01*
X123981663Y-100027882D01*
X123965100Y-100111150D01*
X123303101Y-100111150D01*
X123303101Y-99003750D01*
X131621000Y-99003750D01*
X131621000Y-99688450D01*
X131637563Y-99771718D01*
X131670053Y-99850155D01*
X131717220Y-99920746D01*
X131777253Y-99980779D01*
X131847845Y-100027947D01*
X131926282Y-100060437D01*
X132009550Y-100077000D01*
X132219250Y-100077000D01*
X132327000Y-99969250D01*
X132327000Y-98896000D01*
X131728750Y-98896000D01*
X131621000Y-99003750D01*
X123303101Y-99003750D01*
X123303101Y-98053550D01*
X131621000Y-98053550D01*
X131621000Y-98738250D01*
X131728750Y-98846000D01*
X132327000Y-98846000D01*
X132327000Y-97772750D01*
X132219250Y-97665000D01*
X132009550Y-97665000D01*
X131926282Y-97681563D01*
X131847845Y-97714053D01*
X131777253Y-97761221D01*
X131717220Y-97821254D01*
X131670053Y-97891845D01*
X131637563Y-97970282D01*
X131621000Y-98053550D01*
X123303101Y-98053550D01*
X123303101Y-96123480D01*
X123348578Y-95659671D01*
X123480409Y-95223025D01*
X123694536Y-94820310D01*
X123982811Y-94466849D01*
X124334249Y-94176115D01*
X124735467Y-93959177D01*
X125171177Y-93824302D01*
X125634300Y-93775626D01*
X125641520Y-93775601D01*
X127169944Y-93775601D01*
X127048752Y-93856579D01*
G36*
X125671100Y-101378600D02*
X126119099Y-101378600D01*
X126119099Y-101428600D01*
X125671100Y-101428600D01*
X125671100Y-101676599D01*
X125621100Y-101676599D01*
X125621100Y-101428600D01*
X125173101Y-101428600D01*
X125173101Y-101378600D01*
X125621100Y-101378600D01*
X125621100Y-101130601D01*
X125671100Y-101130601D01*
X125671100Y-101378600D01*
X125671100Y-101378600D01*
G37*
X125671100Y-101378600D02*
X126119099Y-101378600D01*
X126119099Y-101428600D01*
X125671100Y-101428600D01*
X125671100Y-101676599D01*
X125621100Y-101676599D01*
X125621100Y-101428600D01*
X125173101Y-101428600D01*
X125173101Y-101378600D01*
X125621100Y-101378600D01*
X125621100Y-101130601D01*
X125671100Y-101130601D01*
X125671100Y-101378600D01*
G36*
X139617564Y-106216902D02*
X139516302Y-106318164D01*
X139436741Y-106437236D01*
X139381938Y-106569542D01*
X139354000Y-106709997D01*
X139354000Y-106853203D01*
X139381938Y-106993658D01*
X139436741Y-107125964D01*
X139516302Y-107245036D01*
X139617564Y-107346298D01*
X139736636Y-107425859D01*
X139868942Y-107480662D01*
X140009397Y-107508600D01*
X140152603Y-107508600D01*
X140166093Y-107505917D01*
X140533081Y-107872905D01*
X140547241Y-107890159D01*
X140616067Y-107946643D01*
X140676903Y-107979160D01*
X140694590Y-107988614D01*
X140779792Y-108014460D01*
X140868400Y-108023187D01*
X140890605Y-108021000D01*
X141361113Y-108021000D01*
X141326719Y-108055394D01*
X141241336Y-108183179D01*
X141182523Y-108325166D01*
X141152540Y-108475899D01*
X141152540Y-108629585D01*
X141162711Y-108680718D01*
X139355060Y-110488370D01*
X139230774Y-110336926D01*
X139067329Y-110202791D01*
X138880856Y-110103119D01*
X138678522Y-110041742D01*
X138468101Y-110021017D01*
X138468099Y-110021017D01*
X138257678Y-110041742D01*
X138055344Y-110103119D01*
X137868871Y-110202791D01*
X137705426Y-110336926D01*
X137571291Y-110500371D01*
X137471619Y-110686844D01*
X137410242Y-110889178D01*
X137389517Y-111099599D01*
X137389517Y-111099601D01*
X137410242Y-111310022D01*
X137471619Y-111512356D01*
X137571291Y-111698829D01*
X137705426Y-111862274D01*
X137832305Y-111966400D01*
X134684143Y-111966400D01*
X134658100Y-111963835D01*
X134554162Y-111974072D01*
X134523845Y-111983269D01*
X134454220Y-112004389D01*
X134362112Y-112053622D01*
X134281378Y-112119878D01*
X134264776Y-112140108D01*
X132521300Y-113883585D01*
X132521300Y-111601041D01*
X132523865Y-111575001D01*
X132520677Y-111542636D01*
X132515064Y-111485647D01*
X132599676Y-111468817D01*
X132741663Y-111410004D01*
X132869448Y-111324621D01*
X132978121Y-111215948D01*
X133007085Y-111172600D01*
X133988112Y-111172600D01*
X134010400Y-111174795D01*
X134032688Y-111172600D01*
X134032695Y-111172600D01*
X134099399Y-111166030D01*
X134184979Y-111140070D01*
X134263849Y-111097913D01*
X134332979Y-111041179D01*
X134347195Y-111023857D01*
X139164880Y-106206173D01*
X139265822Y-106206173D01*
X139286128Y-106204173D01*
X139636614Y-106204173D01*
X139617564Y-106216902D01*
X139617564Y-106216902D01*
G37*
X139617564Y-106216902D02*
X139516302Y-106318164D01*
X139436741Y-106437236D01*
X139381938Y-106569542D01*
X139354000Y-106709997D01*
X139354000Y-106853203D01*
X139381938Y-106993658D01*
X139436741Y-107125964D01*
X139516302Y-107245036D01*
X139617564Y-107346298D01*
X139736636Y-107425859D01*
X139868942Y-107480662D01*
X140009397Y-107508600D01*
X140152603Y-107508600D01*
X140166093Y-107505917D01*
X140533081Y-107872905D01*
X140547241Y-107890159D01*
X140616067Y-107946643D01*
X140676903Y-107979160D01*
X140694590Y-107988614D01*
X140779792Y-108014460D01*
X140868400Y-108023187D01*
X140890605Y-108021000D01*
X141361113Y-108021000D01*
X141326719Y-108055394D01*
X141241336Y-108183179D01*
X141182523Y-108325166D01*
X141152540Y-108475899D01*
X141152540Y-108629585D01*
X141162711Y-108680718D01*
X139355060Y-110488370D01*
X139230774Y-110336926D01*
X139067329Y-110202791D01*
X138880856Y-110103119D01*
X138678522Y-110041742D01*
X138468101Y-110021017D01*
X138468099Y-110021017D01*
X138257678Y-110041742D01*
X138055344Y-110103119D01*
X137868871Y-110202791D01*
X137705426Y-110336926D01*
X137571291Y-110500371D01*
X137471619Y-110686844D01*
X137410242Y-110889178D01*
X137389517Y-111099599D01*
X137389517Y-111099601D01*
X137410242Y-111310022D01*
X137471619Y-111512356D01*
X137571291Y-111698829D01*
X137705426Y-111862274D01*
X137832305Y-111966400D01*
X134684143Y-111966400D01*
X134658100Y-111963835D01*
X134554162Y-111974072D01*
X134523845Y-111983269D01*
X134454220Y-112004389D01*
X134362112Y-112053622D01*
X134281378Y-112119878D01*
X134264776Y-112140108D01*
X132521300Y-113883585D01*
X132521300Y-111601041D01*
X132523865Y-111575001D01*
X132520677Y-111542636D01*
X132515064Y-111485647D01*
X132599676Y-111468817D01*
X132741663Y-111410004D01*
X132869448Y-111324621D01*
X132978121Y-111215948D01*
X133007085Y-111172600D01*
X133988112Y-111172600D01*
X134010400Y-111174795D01*
X134032688Y-111172600D01*
X134032695Y-111172600D01*
X134099399Y-111166030D01*
X134184979Y-111140070D01*
X134263849Y-111097913D01*
X134332979Y-111041179D01*
X134347195Y-111023857D01*
X139164880Y-106206173D01*
X139265822Y-106206173D01*
X139286128Y-106204173D01*
X139636614Y-106204173D01*
X139617564Y-106216902D01*
G36*
X156241346Y-97627337D02*
X156182533Y-97769324D01*
X156152550Y-97920057D01*
X156152550Y-98073743D01*
X156182533Y-98224476D01*
X156241346Y-98366463D01*
X156262527Y-98398163D01*
X155017094Y-99643597D01*
X155017089Y-99643601D01*
X154939830Y-99720861D01*
X154782098Y-99878593D01*
X154764840Y-99892756D01*
X154708356Y-99961582D01*
X154696373Y-99984000D01*
X154614397Y-99984000D01*
X154473942Y-100011938D01*
X154341636Y-100066741D01*
X154222564Y-100146302D01*
X154121302Y-100247564D01*
X154041741Y-100366636D01*
X153986938Y-100498942D01*
X153959000Y-100639397D01*
X153959000Y-100782603D01*
X153986938Y-100923058D01*
X154034797Y-101038599D01*
X154009058Y-101027938D01*
X153868603Y-101000000D01*
X153725397Y-101000000D01*
X153584942Y-101027938D01*
X153452636Y-101082741D01*
X153333564Y-101162302D01*
X153232302Y-101263564D01*
X153152741Y-101382636D01*
X153097938Y-101514942D01*
X153070000Y-101655397D01*
X153070000Y-101798603D01*
X153097938Y-101939058D01*
X153152741Y-102071364D01*
X153232302Y-102190436D01*
X153333564Y-102291698D01*
X153345001Y-102299340D01*
X153345000Y-102936776D01*
X153228776Y-103053000D01*
X152354955Y-103053000D01*
X152332750Y-103050813D01*
X152244142Y-103059540D01*
X152210910Y-103069621D01*
X152158940Y-103085386D01*
X152080417Y-103127357D01*
X152011591Y-103183841D01*
X151997431Y-103201095D01*
X150174887Y-105023640D01*
X150157633Y-105037800D01*
X150103593Y-105103648D01*
X150101149Y-105106626D01*
X150059177Y-105185150D01*
X150033331Y-105270352D01*
X150024604Y-105358959D01*
X150026792Y-105381174D01*
X150026791Y-110193071D01*
X150025614Y-110189190D01*
X149983642Y-110110666D01*
X149941313Y-110059088D01*
X149941309Y-110059084D01*
X149927158Y-110041841D01*
X149909915Y-110027690D01*
X148798323Y-108916100D01*
X148784159Y-108898841D01*
X148715333Y-108842357D01*
X148636810Y-108800386D01*
X148551607Y-108774540D01*
X148489865Y-108768459D01*
X148463000Y-108765813D01*
X148440795Y-108768000D01*
X145221224Y-108768000D01*
X144977999Y-108524776D01*
X144977999Y-106516109D01*
X144980186Y-106493904D01*
X144971459Y-106405297D01*
X144945613Y-106320094D01*
X144903642Y-106241571D01*
X144847158Y-106172745D01*
X144778332Y-106116261D01*
X144699809Y-106074290D01*
X144680726Y-106068501D01*
X143472317Y-104860093D01*
X143475000Y-104846603D01*
X143475000Y-104703397D01*
X143447062Y-104562942D01*
X143392259Y-104430636D01*
X143312698Y-104311564D01*
X143211436Y-104210302D01*
X143092364Y-104130741D01*
X142960058Y-104075938D01*
X142819603Y-104048000D01*
X142676397Y-104048000D01*
X142535942Y-104075938D01*
X142403636Y-104130741D01*
X142284564Y-104210302D01*
X142183302Y-104311564D01*
X142103741Y-104430636D01*
X142048938Y-104562942D01*
X142021000Y-104703397D01*
X142021000Y-104810000D01*
X141914397Y-104810000D01*
X141773942Y-104837938D01*
X141641636Y-104892741D01*
X141522564Y-104972302D01*
X141421302Y-105073564D01*
X141341741Y-105192636D01*
X141286938Y-105324942D01*
X141259000Y-105465397D01*
X141259000Y-105608603D01*
X141286938Y-105749058D01*
X141341741Y-105881364D01*
X141403638Y-105974000D01*
X141069052Y-105974000D01*
X140543323Y-105448273D01*
X140529159Y-105431014D01*
X140460333Y-105374530D01*
X140381810Y-105332559D01*
X140296607Y-105306713D01*
X140230205Y-105300173D01*
X140208000Y-105297986D01*
X140185795Y-105300173D01*
X139286128Y-105300173D01*
X139265822Y-105298173D01*
X138999114Y-105298173D01*
X138976826Y-105295978D01*
X138954538Y-105298173D01*
X138954532Y-105298173D01*
X138897128Y-105303827D01*
X138887827Y-105304743D01*
X138867909Y-105310785D01*
X138802248Y-105330703D01*
X138723378Y-105372860D01*
X138654248Y-105429594D01*
X138640037Y-105446910D01*
X133822348Y-110264600D01*
X133007085Y-110264600D01*
X132978121Y-110221252D01*
X132869448Y-110112579D01*
X132741663Y-110027196D01*
X132599676Y-109968383D01*
X132448943Y-109938400D01*
X132295257Y-109938400D01*
X132144524Y-109968383D01*
X132002537Y-110027196D01*
X131874752Y-110112579D01*
X131766079Y-110221252D01*
X131680696Y-110349037D01*
X131632151Y-110466236D01*
X130648899Y-109482985D01*
X130648899Y-107998965D01*
X130747524Y-108039817D01*
X130898257Y-108069800D01*
X131051943Y-108069800D01*
X131101293Y-108059984D01*
X131105720Y-108065378D01*
X131123036Y-108079589D01*
X131123037Y-108079590D01*
X131131223Y-108086308D01*
X131174850Y-108122112D01*
X131236671Y-108155156D01*
X131253720Y-108164269D01*
X131339299Y-108190229D01*
X131348600Y-108191145D01*
X131406004Y-108196799D01*
X131406010Y-108196799D01*
X131428298Y-108198994D01*
X131450586Y-108196799D01*
X135579613Y-108196799D01*
X135601901Y-108198994D01*
X135624189Y-108196799D01*
X135624196Y-108196799D01*
X135690900Y-108190229D01*
X135776480Y-108164269D01*
X135855350Y-108122112D01*
X135924480Y-108065378D01*
X135938696Y-108048056D01*
X140819515Y-103167238D01*
X143690576Y-103167238D01*
X143712864Y-103169433D01*
X143735152Y-103167238D01*
X143735159Y-103167238D01*
X143801863Y-103160668D01*
X143887443Y-103134708D01*
X143915106Y-103119922D01*
X143969393Y-103114575D01*
X144054596Y-103088729D01*
X144133119Y-103046758D01*
X144201945Y-102990274D01*
X144205570Y-102985857D01*
X144257142Y-102996116D01*
X144410828Y-102996116D01*
X144561561Y-102966133D01*
X144703548Y-102907320D01*
X144831333Y-102821937D01*
X144940006Y-102713264D01*
X145025389Y-102585479D01*
X145049900Y-102526303D01*
X145049901Y-103834547D01*
X145047335Y-103860600D01*
X145057572Y-103964537D01*
X145087889Y-104064480D01*
X145137122Y-104156588D01*
X145203378Y-104237322D01*
X145284112Y-104303578D01*
X145376220Y-104352811D01*
X145476163Y-104383128D01*
X145554057Y-104390800D01*
X145554058Y-104390800D01*
X145580100Y-104393365D01*
X145606143Y-104390800D01*
X149331295Y-104390800D01*
X149357335Y-104393365D01*
X149383375Y-104390800D01*
X149383378Y-104390800D01*
X149461272Y-104383128D01*
X149561215Y-104352811D01*
X149653323Y-104303578D01*
X149734057Y-104237322D01*
X149750664Y-104217086D01*
X151392090Y-102575661D01*
X151412321Y-102559058D01*
X151478577Y-102478324D01*
X151527810Y-102386216D01*
X151555528Y-102294842D01*
X151558127Y-102286274D01*
X151568364Y-102182336D01*
X151565799Y-102156293D01*
X151565799Y-101916542D01*
X151855358Y-101626983D01*
X151874855Y-101635059D01*
X152025588Y-101665042D01*
X152179274Y-101665042D01*
X152330007Y-101635059D01*
X152471994Y-101576246D01*
X152599779Y-101490863D01*
X152708452Y-101382190D01*
X152793835Y-101254405D01*
X152852648Y-101112418D01*
X152882631Y-100961685D01*
X152882631Y-100807999D01*
X152852648Y-100657266D01*
X152793835Y-100515279D01*
X152708452Y-100387494D01*
X152599779Y-100278821D01*
X152471994Y-100193438D01*
X152330007Y-100134625D01*
X152179274Y-100104642D01*
X152025588Y-100104642D01*
X151874855Y-100134625D01*
X151837763Y-100149989D01*
X154404153Y-97583600D01*
X156270570Y-97583600D01*
X156241346Y-97627337D01*
X156241346Y-97627337D01*
G37*
X156241346Y-97627337D02*
X156182533Y-97769324D01*
X156152550Y-97920057D01*
X156152550Y-98073743D01*
X156182533Y-98224476D01*
X156241346Y-98366463D01*
X156262527Y-98398163D01*
X155017094Y-99643597D01*
X155017089Y-99643601D01*
X154939830Y-99720861D01*
X154782098Y-99878593D01*
X154764840Y-99892756D01*
X154708356Y-99961582D01*
X154696373Y-99984000D01*
X154614397Y-99984000D01*
X154473942Y-100011938D01*
X154341636Y-100066741D01*
X154222564Y-100146302D01*
X154121302Y-100247564D01*
X154041741Y-100366636D01*
X153986938Y-100498942D01*
X153959000Y-100639397D01*
X153959000Y-100782603D01*
X153986938Y-100923058D01*
X154034797Y-101038599D01*
X154009058Y-101027938D01*
X153868603Y-101000000D01*
X153725397Y-101000000D01*
X153584942Y-101027938D01*
X153452636Y-101082741D01*
X153333564Y-101162302D01*
X153232302Y-101263564D01*
X153152741Y-101382636D01*
X153097938Y-101514942D01*
X153070000Y-101655397D01*
X153070000Y-101798603D01*
X153097938Y-101939058D01*
X153152741Y-102071364D01*
X153232302Y-102190436D01*
X153333564Y-102291698D01*
X153345001Y-102299340D01*
X153345000Y-102936776D01*
X153228776Y-103053000D01*
X152354955Y-103053000D01*
X152332750Y-103050813D01*
X152244142Y-103059540D01*
X152210910Y-103069621D01*
X152158940Y-103085386D01*
X152080417Y-103127357D01*
X152011591Y-103183841D01*
X151997431Y-103201095D01*
X150174887Y-105023640D01*
X150157633Y-105037800D01*
X150103593Y-105103648D01*
X150101149Y-105106626D01*
X150059177Y-105185150D01*
X150033331Y-105270352D01*
X150024604Y-105358959D01*
X150026792Y-105381174D01*
X150026791Y-110193071D01*
X150025614Y-110189190D01*
X149983642Y-110110666D01*
X149941313Y-110059088D01*
X149941309Y-110059084D01*
X149927158Y-110041841D01*
X149909915Y-110027690D01*
X148798323Y-108916100D01*
X148784159Y-108898841D01*
X148715333Y-108842357D01*
X148636810Y-108800386D01*
X148551607Y-108774540D01*
X148489865Y-108768459D01*
X148463000Y-108765813D01*
X148440795Y-108768000D01*
X145221224Y-108768000D01*
X144977999Y-108524776D01*
X144977999Y-106516109D01*
X144980186Y-106493904D01*
X144971459Y-106405297D01*
X144945613Y-106320094D01*
X144903642Y-106241571D01*
X144847158Y-106172745D01*
X144778332Y-106116261D01*
X144699809Y-106074290D01*
X144680726Y-106068501D01*
X143472317Y-104860093D01*
X143475000Y-104846603D01*
X143475000Y-104703397D01*
X143447062Y-104562942D01*
X143392259Y-104430636D01*
X143312698Y-104311564D01*
X143211436Y-104210302D01*
X143092364Y-104130741D01*
X142960058Y-104075938D01*
X142819603Y-104048000D01*
X142676397Y-104048000D01*
X142535942Y-104075938D01*
X142403636Y-104130741D01*
X142284564Y-104210302D01*
X142183302Y-104311564D01*
X142103741Y-104430636D01*
X142048938Y-104562942D01*
X142021000Y-104703397D01*
X142021000Y-104810000D01*
X141914397Y-104810000D01*
X141773942Y-104837938D01*
X141641636Y-104892741D01*
X141522564Y-104972302D01*
X141421302Y-105073564D01*
X141341741Y-105192636D01*
X141286938Y-105324942D01*
X141259000Y-105465397D01*
X141259000Y-105608603D01*
X141286938Y-105749058D01*
X141341741Y-105881364D01*
X141403638Y-105974000D01*
X141069052Y-105974000D01*
X140543323Y-105448273D01*
X140529159Y-105431014D01*
X140460333Y-105374530D01*
X140381810Y-105332559D01*
X140296607Y-105306713D01*
X140230205Y-105300173D01*
X140208000Y-105297986D01*
X140185795Y-105300173D01*
X139286128Y-105300173D01*
X139265822Y-105298173D01*
X138999114Y-105298173D01*
X138976826Y-105295978D01*
X138954538Y-105298173D01*
X138954532Y-105298173D01*
X138897128Y-105303827D01*
X138887827Y-105304743D01*
X138867909Y-105310785D01*
X138802248Y-105330703D01*
X138723378Y-105372860D01*
X138654248Y-105429594D01*
X138640037Y-105446910D01*
X133822348Y-110264600D01*
X133007085Y-110264600D01*
X132978121Y-110221252D01*
X132869448Y-110112579D01*
X132741663Y-110027196D01*
X132599676Y-109968383D01*
X132448943Y-109938400D01*
X132295257Y-109938400D01*
X132144524Y-109968383D01*
X132002537Y-110027196D01*
X131874752Y-110112579D01*
X131766079Y-110221252D01*
X131680696Y-110349037D01*
X131632151Y-110466236D01*
X130648899Y-109482985D01*
X130648899Y-107998965D01*
X130747524Y-108039817D01*
X130898257Y-108069800D01*
X131051943Y-108069800D01*
X131101293Y-108059984D01*
X131105720Y-108065378D01*
X131123036Y-108079589D01*
X131123037Y-108079590D01*
X131131223Y-108086308D01*
X131174850Y-108122112D01*
X131236671Y-108155156D01*
X131253720Y-108164269D01*
X131339299Y-108190229D01*
X131348600Y-108191145D01*
X131406004Y-108196799D01*
X131406010Y-108196799D01*
X131428298Y-108198994D01*
X131450586Y-108196799D01*
X135579613Y-108196799D01*
X135601901Y-108198994D01*
X135624189Y-108196799D01*
X135624196Y-108196799D01*
X135690900Y-108190229D01*
X135776480Y-108164269D01*
X135855350Y-108122112D01*
X135924480Y-108065378D01*
X135938696Y-108048056D01*
X140819515Y-103167238D01*
X143690576Y-103167238D01*
X143712864Y-103169433D01*
X143735152Y-103167238D01*
X143735159Y-103167238D01*
X143801863Y-103160668D01*
X143887443Y-103134708D01*
X143915106Y-103119922D01*
X143969393Y-103114575D01*
X144054596Y-103088729D01*
X144133119Y-103046758D01*
X144201945Y-102990274D01*
X144205570Y-102985857D01*
X144257142Y-102996116D01*
X144410828Y-102996116D01*
X144561561Y-102966133D01*
X144703548Y-102907320D01*
X144831333Y-102821937D01*
X144940006Y-102713264D01*
X145025389Y-102585479D01*
X145049900Y-102526303D01*
X145049901Y-103834547D01*
X145047335Y-103860600D01*
X145057572Y-103964537D01*
X145087889Y-104064480D01*
X145137122Y-104156588D01*
X145203378Y-104237322D01*
X145284112Y-104303578D01*
X145376220Y-104352811D01*
X145476163Y-104383128D01*
X145554057Y-104390800D01*
X145554058Y-104390800D01*
X145580100Y-104393365D01*
X145606143Y-104390800D01*
X149331295Y-104390800D01*
X149357335Y-104393365D01*
X149383375Y-104390800D01*
X149383378Y-104390800D01*
X149461272Y-104383128D01*
X149561215Y-104352811D01*
X149653323Y-104303578D01*
X149734057Y-104237322D01*
X149750664Y-104217086D01*
X151392090Y-102575661D01*
X151412321Y-102559058D01*
X151478577Y-102478324D01*
X151527810Y-102386216D01*
X151555528Y-102294842D01*
X151558127Y-102286274D01*
X151568364Y-102182336D01*
X151565799Y-102156293D01*
X151565799Y-101916542D01*
X151855358Y-101626983D01*
X151874855Y-101635059D01*
X152025588Y-101665042D01*
X152179274Y-101665042D01*
X152330007Y-101635059D01*
X152471994Y-101576246D01*
X152599779Y-101490863D01*
X152708452Y-101382190D01*
X152793835Y-101254405D01*
X152852648Y-101112418D01*
X152882631Y-100961685D01*
X152882631Y-100807999D01*
X152852648Y-100657266D01*
X152793835Y-100515279D01*
X152708452Y-100387494D01*
X152599779Y-100278821D01*
X152471994Y-100193438D01*
X152330007Y-100134625D01*
X152179274Y-100104642D01*
X152025588Y-100104642D01*
X151874855Y-100134625D01*
X151837763Y-100149989D01*
X154404153Y-97583600D01*
X156270570Y-97583600D01*
X156241346Y-97627337D01*
G36*
X125671100Y-108578600D02*
X126119840Y-108578600D01*
X126119472Y-108597330D01*
X126119648Y-108599574D01*
X126119113Y-108605841D01*
X126119162Y-108608311D01*
X126119702Y-108628600D01*
X125671100Y-108628600D01*
X125671100Y-108876599D01*
X125621100Y-108876599D01*
X125621100Y-108628600D01*
X125172360Y-108628600D01*
X125172728Y-108609870D01*
X125172552Y-108607627D01*
X125173087Y-108601360D01*
X125173038Y-108598889D01*
X125172498Y-108578600D01*
X125621100Y-108578600D01*
X125621100Y-108330601D01*
X125671100Y-108330601D01*
X125671100Y-108578600D01*
X125671100Y-108578600D01*
G37*
X125671100Y-108578600D02*
X126119840Y-108578600D01*
X126119472Y-108597330D01*
X126119648Y-108599574D01*
X126119113Y-108605841D01*
X126119162Y-108608311D01*
X126119702Y-108628600D01*
X125671100Y-108628600D01*
X125671100Y-108876599D01*
X125621100Y-108876599D01*
X125621100Y-108628600D01*
X125172360Y-108628600D01*
X125172728Y-108609870D01*
X125172552Y-108607627D01*
X125173087Y-108601360D01*
X125173038Y-108598889D01*
X125172498Y-108578600D01*
X125621100Y-108578600D01*
X125621100Y-108330601D01*
X125671100Y-108330601D01*
X125671100Y-108578600D01*
G36*
X143813537Y-101123004D02*
X143955524Y-101181817D01*
X144106257Y-101211800D01*
X144259943Y-101211800D01*
X144327122Y-101198437D01*
X144617592Y-101488908D01*
X144561561Y-101465699D01*
X144410828Y-101435716D01*
X144257142Y-101435716D01*
X144106409Y-101465699D01*
X143964422Y-101524512D01*
X143940429Y-101540543D01*
X143870368Y-101435689D01*
X143761695Y-101327016D01*
X143633910Y-101241633D01*
X143491923Y-101182820D01*
X143341190Y-101152837D01*
X143187504Y-101152837D01*
X143036771Y-101182820D01*
X142894784Y-101241633D01*
X142766999Y-101327016D01*
X142658326Y-101435689D01*
X142629362Y-101479037D01*
X140671951Y-101479037D01*
X140649663Y-101476842D01*
X140627375Y-101479037D01*
X140627368Y-101479037D01*
X140569084Y-101484778D01*
X140560663Y-101485607D01*
X140491712Y-101506523D01*
X140475084Y-101511567D01*
X140396214Y-101553724D01*
X140357629Y-101585390D01*
X140345034Y-101595727D01*
X140327084Y-101610458D01*
X140312873Y-101627774D01*
X139541828Y-102398819D01*
X139541828Y-102386757D01*
X139511845Y-102236024D01*
X139453032Y-102094037D01*
X139367649Y-101966252D01*
X139258976Y-101857579D01*
X139131191Y-101772196D01*
X138989204Y-101713383D01*
X138838471Y-101683400D01*
X138684785Y-101683400D01*
X138534052Y-101713383D01*
X138392065Y-101772196D01*
X138264280Y-101857579D01*
X138155607Y-101966252D01*
X138070224Y-102094037D01*
X138011411Y-102236024D01*
X137981428Y-102386757D01*
X137981428Y-102493985D01*
X137951941Y-102523472D01*
X137951936Y-102523476D01*
X136510013Y-103965400D01*
X133199269Y-103965400D01*
X133123448Y-103889579D01*
X132995663Y-103804196D01*
X132853676Y-103745383D01*
X132702943Y-103715400D01*
X132549257Y-103715400D01*
X132398524Y-103745383D01*
X132256537Y-103804196D01*
X132128752Y-103889579D01*
X132020079Y-103998252D01*
X131934696Y-104126037D01*
X131875883Y-104268024D01*
X131845900Y-104418757D01*
X131845900Y-104572443D01*
X131875883Y-104723176D01*
X131934696Y-104865163D01*
X132020079Y-104992948D01*
X132128752Y-105101621D01*
X132256537Y-105187004D01*
X132398524Y-105245817D01*
X132549257Y-105275800D01*
X132702943Y-105275800D01*
X132853676Y-105245817D01*
X132995663Y-105187004D01*
X133123448Y-105101621D01*
X133199269Y-105025800D01*
X136703588Y-105025800D01*
X136729628Y-105028365D01*
X136755668Y-105025800D01*
X136755671Y-105025800D01*
X136833565Y-105018128D01*
X136933508Y-104987811D01*
X136975032Y-104965616D01*
X135486048Y-106454600D01*
X132052153Y-106454600D01*
X131745129Y-106147576D01*
X131755300Y-106096443D01*
X131755300Y-105942757D01*
X131725317Y-105792024D01*
X131666504Y-105650037D01*
X131581121Y-105522252D01*
X131472448Y-105413579D01*
X131344663Y-105328196D01*
X131202676Y-105269383D01*
X131051943Y-105239400D01*
X130898257Y-105239400D01*
X130747524Y-105269383D01*
X130648899Y-105310235D01*
X130648899Y-103780916D01*
X131137617Y-103292199D01*
X136606961Y-103292199D01*
X136633001Y-103294764D01*
X136659041Y-103292199D01*
X136659044Y-103292199D01*
X136736938Y-103284527D01*
X136836881Y-103254210D01*
X136928989Y-103204977D01*
X137009723Y-103138721D01*
X137026330Y-103118485D01*
X137055815Y-103089000D01*
X137104603Y-103089000D01*
X137245058Y-103061062D01*
X137377364Y-103006259D01*
X137496436Y-102926698D01*
X137597698Y-102825436D01*
X137677259Y-102706364D01*
X137732062Y-102574058D01*
X137760000Y-102433603D01*
X137760000Y-102290397D01*
X137732062Y-102149942D01*
X137677259Y-102017636D01*
X137597698Y-101898564D01*
X137563200Y-101864066D01*
X137563200Y-101481616D01*
X137652796Y-101481616D01*
X137678836Y-101484181D01*
X137704876Y-101481616D01*
X137704879Y-101481616D01*
X137782773Y-101473944D01*
X137882716Y-101443627D01*
X137974824Y-101394394D01*
X138055558Y-101328138D01*
X138072165Y-101307902D01*
X138265868Y-101114200D01*
X143800361Y-101114200D01*
X143813537Y-101123004D01*
X143813537Y-101123004D01*
G37*
X143813537Y-101123004D02*
X143955524Y-101181817D01*
X144106257Y-101211800D01*
X144259943Y-101211800D01*
X144327122Y-101198437D01*
X144617592Y-101488908D01*
X144561561Y-101465699D01*
X144410828Y-101435716D01*
X144257142Y-101435716D01*
X144106409Y-101465699D01*
X143964422Y-101524512D01*
X143940429Y-101540543D01*
X143870368Y-101435689D01*
X143761695Y-101327016D01*
X143633910Y-101241633D01*
X143491923Y-101182820D01*
X143341190Y-101152837D01*
X143187504Y-101152837D01*
X143036771Y-101182820D01*
X142894784Y-101241633D01*
X142766999Y-101327016D01*
X142658326Y-101435689D01*
X142629362Y-101479037D01*
X140671951Y-101479037D01*
X140649663Y-101476842D01*
X140627375Y-101479037D01*
X140627368Y-101479037D01*
X140569084Y-101484778D01*
X140560663Y-101485607D01*
X140491712Y-101506523D01*
X140475084Y-101511567D01*
X140396214Y-101553724D01*
X140357629Y-101585390D01*
X140345034Y-101595727D01*
X140327084Y-101610458D01*
X140312873Y-101627774D01*
X139541828Y-102398819D01*
X139541828Y-102386757D01*
X139511845Y-102236024D01*
X139453032Y-102094037D01*
X139367649Y-101966252D01*
X139258976Y-101857579D01*
X139131191Y-101772196D01*
X138989204Y-101713383D01*
X138838471Y-101683400D01*
X138684785Y-101683400D01*
X138534052Y-101713383D01*
X138392065Y-101772196D01*
X138264280Y-101857579D01*
X138155607Y-101966252D01*
X138070224Y-102094037D01*
X138011411Y-102236024D01*
X137981428Y-102386757D01*
X137981428Y-102493985D01*
X137951941Y-102523472D01*
X137951936Y-102523476D01*
X136510013Y-103965400D01*
X133199269Y-103965400D01*
X133123448Y-103889579D01*
X132995663Y-103804196D01*
X132853676Y-103745383D01*
X132702943Y-103715400D01*
X132549257Y-103715400D01*
X132398524Y-103745383D01*
X132256537Y-103804196D01*
X132128752Y-103889579D01*
X132020079Y-103998252D01*
X131934696Y-104126037D01*
X131875883Y-104268024D01*
X131845900Y-104418757D01*
X131845900Y-104572443D01*
X131875883Y-104723176D01*
X131934696Y-104865163D01*
X132020079Y-104992948D01*
X132128752Y-105101621D01*
X132256537Y-105187004D01*
X132398524Y-105245817D01*
X132549257Y-105275800D01*
X132702943Y-105275800D01*
X132853676Y-105245817D01*
X132995663Y-105187004D01*
X133123448Y-105101621D01*
X133199269Y-105025800D01*
X136703588Y-105025800D01*
X136729628Y-105028365D01*
X136755668Y-105025800D01*
X136755671Y-105025800D01*
X136833565Y-105018128D01*
X136933508Y-104987811D01*
X136975032Y-104965616D01*
X135486048Y-106454600D01*
X132052153Y-106454600D01*
X131745129Y-106147576D01*
X131755300Y-106096443D01*
X131755300Y-105942757D01*
X131725317Y-105792024D01*
X131666504Y-105650037D01*
X131581121Y-105522252D01*
X131472448Y-105413579D01*
X131344663Y-105328196D01*
X131202676Y-105269383D01*
X131051943Y-105239400D01*
X130898257Y-105239400D01*
X130747524Y-105269383D01*
X130648899Y-105310235D01*
X130648899Y-103780916D01*
X131137617Y-103292199D01*
X136606961Y-103292199D01*
X136633001Y-103294764D01*
X136659041Y-103292199D01*
X136659044Y-103292199D01*
X136736938Y-103284527D01*
X136836881Y-103254210D01*
X136928989Y-103204977D01*
X137009723Y-103138721D01*
X137026330Y-103118485D01*
X137055815Y-103089000D01*
X137104603Y-103089000D01*
X137245058Y-103061062D01*
X137377364Y-103006259D01*
X137496436Y-102926698D01*
X137597698Y-102825436D01*
X137677259Y-102706364D01*
X137732062Y-102574058D01*
X137760000Y-102433603D01*
X137760000Y-102290397D01*
X137732062Y-102149942D01*
X137677259Y-102017636D01*
X137597698Y-101898564D01*
X137563200Y-101864066D01*
X137563200Y-101481616D01*
X137652796Y-101481616D01*
X137678836Y-101484181D01*
X137704876Y-101481616D01*
X137704879Y-101481616D01*
X137782773Y-101473944D01*
X137882716Y-101443627D01*
X137974824Y-101394394D01*
X138055558Y-101328138D01*
X138072165Y-101307902D01*
X138265868Y-101114200D01*
X143800361Y-101114200D01*
X143813537Y-101123004D01*
G36*
X161320528Y-103748994D02*
X161311801Y-103837601D01*
X161313988Y-103859806D01*
X161313989Y-105000786D01*
X160594777Y-105720000D01*
X159830339Y-105720000D01*
X159822698Y-105708564D01*
X159721436Y-105607302D01*
X159602364Y-105527741D01*
X159586073Y-105520993D01*
X159791178Y-105520993D01*
X159855281Y-105514679D01*
X159916921Y-105495981D01*
X159973728Y-105465617D01*
X160023521Y-105424754D01*
X160064384Y-105374961D01*
X160094748Y-105318154D01*
X160113446Y-105256514D01*
X160119760Y-105192411D01*
X160119760Y-104903052D01*
X161340867Y-103681946D01*
X161320528Y-103748994D01*
X161320528Y-103748994D01*
G37*
X161320528Y-103748994D02*
X161311801Y-103837601D01*
X161313988Y-103859806D01*
X161313989Y-105000786D01*
X160594777Y-105720000D01*
X159830339Y-105720000D01*
X159822698Y-105708564D01*
X159721436Y-105607302D01*
X159602364Y-105527741D01*
X159586073Y-105520993D01*
X159791178Y-105520993D01*
X159855281Y-105514679D01*
X159916921Y-105495981D01*
X159973728Y-105465617D01*
X160023521Y-105424754D01*
X160064384Y-105374961D01*
X160094748Y-105318154D01*
X160113446Y-105256514D01*
X160119760Y-105192411D01*
X160119760Y-104903052D01*
X161340867Y-103681946D01*
X161320528Y-103748994D01*
G36*
X156962741Y-99150364D02*
X157042302Y-99269436D01*
X157143564Y-99370698D01*
X157262636Y-99450259D01*
X157394942Y-99505062D01*
X157535397Y-99533000D01*
X157678603Y-99533000D01*
X157819058Y-99505062D01*
X157951364Y-99450259D01*
X158070436Y-99370698D01*
X158104934Y-99336200D01*
X160411418Y-99336200D01*
X160411418Y-99814000D01*
X160417732Y-99878103D01*
X160436430Y-99939743D01*
X160466794Y-99996550D01*
X160507657Y-100046343D01*
X160557450Y-100087206D01*
X160614257Y-100117570D01*
X160675897Y-100136268D01*
X160740000Y-100142582D01*
X160838000Y-100142582D01*
X160838000Y-100273738D01*
X160222178Y-100889560D01*
X160222178Y-100739961D01*
X160205615Y-100656693D01*
X160173125Y-100578256D01*
X160125957Y-100507664D01*
X160065924Y-100447631D01*
X159995333Y-100400464D01*
X159916896Y-100367974D01*
X159833628Y-100351411D01*
X158823928Y-100351411D01*
X158716178Y-100459161D01*
X158716178Y-101057411D01*
X158736178Y-101057411D01*
X158736178Y-101107411D01*
X158716178Y-101107411D01*
X158716178Y-101127411D01*
X158666178Y-101127411D01*
X158666178Y-101107411D01*
X157267928Y-101107411D01*
X157160178Y-101215161D01*
X157160178Y-101424861D01*
X157176741Y-101508129D01*
X157209231Y-101586566D01*
X157256399Y-101657158D01*
X157316432Y-101717191D01*
X157387023Y-101764358D01*
X157414845Y-101775882D01*
X157408628Y-101779205D01*
X157358835Y-101820068D01*
X157317972Y-101869861D01*
X157287608Y-101926668D01*
X157268910Y-101988308D01*
X157262596Y-102052411D01*
X157262596Y-102652411D01*
X157268910Y-102716514D01*
X157287608Y-102778154D01*
X157317972Y-102834961D01*
X157358835Y-102884754D01*
X157408628Y-102925617D01*
X157465435Y-102955981D01*
X157527075Y-102974679D01*
X157591178Y-102980993D01*
X159791178Y-102980993D01*
X159855281Y-102974679D01*
X159916921Y-102955981D01*
X159973728Y-102925617D01*
X160023521Y-102884754D01*
X160064384Y-102834961D01*
X160094748Y-102778154D01*
X160113446Y-102716514D01*
X160119760Y-102652411D01*
X160119760Y-102270425D01*
X161092000Y-101298186D01*
X161092001Y-102652364D01*
X160119760Y-103624606D01*
X160119760Y-103322411D01*
X160113446Y-103258308D01*
X160094748Y-103196668D01*
X160064384Y-103139861D01*
X160023521Y-103090068D01*
X159973728Y-103049205D01*
X159916921Y-103018841D01*
X159855281Y-103000143D01*
X159791178Y-102993829D01*
X157591178Y-102993829D01*
X157527075Y-103000143D01*
X157465435Y-103018841D01*
X157408628Y-103049205D01*
X157407842Y-103049850D01*
X156662000Y-102304010D01*
X156662000Y-101410339D01*
X156673436Y-101402698D01*
X156774698Y-101301436D01*
X156854259Y-101182364D01*
X156909062Y-101050058D01*
X156937000Y-100909603D01*
X156937000Y-100766397D01*
X156931742Y-100739961D01*
X157160178Y-100739961D01*
X157160178Y-100949661D01*
X157267928Y-101057411D01*
X158666178Y-101057411D01*
X158666178Y-100459161D01*
X158558428Y-100351411D01*
X157548728Y-100351411D01*
X157465460Y-100367974D01*
X157387023Y-100400464D01*
X157316432Y-100447631D01*
X157256399Y-100507664D01*
X157209231Y-100578256D01*
X157176741Y-100656693D01*
X157160178Y-100739961D01*
X156931742Y-100739961D01*
X156909062Y-100625942D01*
X156854259Y-100493636D01*
X156774698Y-100374564D01*
X156673436Y-100273302D01*
X156554364Y-100193741D01*
X156422058Y-100138938D01*
X156281603Y-100111000D01*
X156138397Y-100111000D01*
X155997942Y-100138938D01*
X155865636Y-100193741D01*
X155746564Y-100273302D01*
X155645302Y-100374564D01*
X155565741Y-100493636D01*
X155510938Y-100625942D01*
X155483000Y-100766397D01*
X155483000Y-100909603D01*
X155510938Y-101050058D01*
X155565741Y-101182364D01*
X155645302Y-101301436D01*
X155746564Y-101402698D01*
X155758000Y-101410339D01*
X155758000Y-101425889D01*
X155758001Y-101425899D01*
X155758000Y-102469028D01*
X155755813Y-102491233D01*
X155764540Y-102579840D01*
X155778070Y-102624441D01*
X155790386Y-102665042D01*
X155832357Y-102743565D01*
X155888841Y-102812392D01*
X155906100Y-102826556D01*
X156321399Y-103241856D01*
X156291074Y-103238869D01*
X156268869Y-103236682D01*
X156246664Y-103238869D01*
X154295299Y-103238869D01*
X154273094Y-103236682D01*
X154233989Y-103240533D01*
X154242405Y-103212788D01*
X154242460Y-103212608D01*
X154251187Y-103124001D01*
X154249000Y-103101796D01*
X154249000Y-102299339D01*
X154260436Y-102291698D01*
X154361698Y-102190436D01*
X154441259Y-102071364D01*
X154496062Y-101939058D01*
X154524000Y-101798603D01*
X154524000Y-101655397D01*
X154496062Y-101514942D01*
X154448203Y-101399401D01*
X154473942Y-101410062D01*
X154614397Y-101438000D01*
X154757603Y-101438000D01*
X154898058Y-101410062D01*
X155030364Y-101355259D01*
X155149436Y-101275698D01*
X155250698Y-101174436D01*
X155330259Y-101055364D01*
X155385062Y-100923058D01*
X155413000Y-100782603D01*
X155413000Y-100639397D01*
X155410702Y-100627842D01*
X155463642Y-100563334D01*
X155505613Y-100484811D01*
X155513380Y-100459206D01*
X155527945Y-100411192D01*
X155584495Y-100354642D01*
X155656313Y-100282825D01*
X155656317Y-100282820D01*
X156911787Y-99027351D01*
X156962741Y-99150364D01*
X156962741Y-99150364D01*
G37*
X156962741Y-99150364D02*
X157042302Y-99269436D01*
X157143564Y-99370698D01*
X157262636Y-99450259D01*
X157394942Y-99505062D01*
X157535397Y-99533000D01*
X157678603Y-99533000D01*
X157819058Y-99505062D01*
X157951364Y-99450259D01*
X158070436Y-99370698D01*
X158104934Y-99336200D01*
X160411418Y-99336200D01*
X160411418Y-99814000D01*
X160417732Y-99878103D01*
X160436430Y-99939743D01*
X160466794Y-99996550D01*
X160507657Y-100046343D01*
X160557450Y-100087206D01*
X160614257Y-100117570D01*
X160675897Y-100136268D01*
X160740000Y-100142582D01*
X160838000Y-100142582D01*
X160838000Y-100273738D01*
X160222178Y-100889560D01*
X160222178Y-100739961D01*
X160205615Y-100656693D01*
X160173125Y-100578256D01*
X160125957Y-100507664D01*
X160065924Y-100447631D01*
X159995333Y-100400464D01*
X159916896Y-100367974D01*
X159833628Y-100351411D01*
X158823928Y-100351411D01*
X158716178Y-100459161D01*
X158716178Y-101057411D01*
X158736178Y-101057411D01*
X158736178Y-101107411D01*
X158716178Y-101107411D01*
X158716178Y-101127411D01*
X158666178Y-101127411D01*
X158666178Y-101107411D01*
X157267928Y-101107411D01*
X157160178Y-101215161D01*
X157160178Y-101424861D01*
X157176741Y-101508129D01*
X157209231Y-101586566D01*
X157256399Y-101657158D01*
X157316432Y-101717191D01*
X157387023Y-101764358D01*
X157414845Y-101775882D01*
X157408628Y-101779205D01*
X157358835Y-101820068D01*
X157317972Y-101869861D01*
X157287608Y-101926668D01*
X157268910Y-101988308D01*
X157262596Y-102052411D01*
X157262596Y-102652411D01*
X157268910Y-102716514D01*
X157287608Y-102778154D01*
X157317972Y-102834961D01*
X157358835Y-102884754D01*
X157408628Y-102925617D01*
X157465435Y-102955981D01*
X157527075Y-102974679D01*
X157591178Y-102980993D01*
X159791178Y-102980993D01*
X159855281Y-102974679D01*
X159916921Y-102955981D01*
X159973728Y-102925617D01*
X160023521Y-102884754D01*
X160064384Y-102834961D01*
X160094748Y-102778154D01*
X160113446Y-102716514D01*
X160119760Y-102652411D01*
X160119760Y-102270425D01*
X161092000Y-101298186D01*
X161092001Y-102652364D01*
X160119760Y-103624606D01*
X160119760Y-103322411D01*
X160113446Y-103258308D01*
X160094748Y-103196668D01*
X160064384Y-103139861D01*
X160023521Y-103090068D01*
X159973728Y-103049205D01*
X159916921Y-103018841D01*
X159855281Y-103000143D01*
X159791178Y-102993829D01*
X157591178Y-102993829D01*
X157527075Y-103000143D01*
X157465435Y-103018841D01*
X157408628Y-103049205D01*
X157407842Y-103049850D01*
X156662000Y-102304010D01*
X156662000Y-101410339D01*
X156673436Y-101402698D01*
X156774698Y-101301436D01*
X156854259Y-101182364D01*
X156909062Y-101050058D01*
X156937000Y-100909603D01*
X156937000Y-100766397D01*
X156931742Y-100739961D01*
X157160178Y-100739961D01*
X157160178Y-100949661D01*
X157267928Y-101057411D01*
X158666178Y-101057411D01*
X158666178Y-100459161D01*
X158558428Y-100351411D01*
X157548728Y-100351411D01*
X157465460Y-100367974D01*
X157387023Y-100400464D01*
X157316432Y-100447631D01*
X157256399Y-100507664D01*
X157209231Y-100578256D01*
X157176741Y-100656693D01*
X157160178Y-100739961D01*
X156931742Y-100739961D01*
X156909062Y-100625942D01*
X156854259Y-100493636D01*
X156774698Y-100374564D01*
X156673436Y-100273302D01*
X156554364Y-100193741D01*
X156422058Y-100138938D01*
X156281603Y-100111000D01*
X156138397Y-100111000D01*
X155997942Y-100138938D01*
X155865636Y-100193741D01*
X155746564Y-100273302D01*
X155645302Y-100374564D01*
X155565741Y-100493636D01*
X155510938Y-100625942D01*
X155483000Y-100766397D01*
X155483000Y-100909603D01*
X155510938Y-101050058D01*
X155565741Y-101182364D01*
X155645302Y-101301436D01*
X155746564Y-101402698D01*
X155758000Y-101410339D01*
X155758000Y-101425889D01*
X155758001Y-101425899D01*
X155758000Y-102469028D01*
X155755813Y-102491233D01*
X155764540Y-102579840D01*
X155778070Y-102624441D01*
X155790386Y-102665042D01*
X155832357Y-102743565D01*
X155888841Y-102812392D01*
X155906100Y-102826556D01*
X156321399Y-103241856D01*
X156291074Y-103238869D01*
X156268869Y-103236682D01*
X156246664Y-103238869D01*
X154295299Y-103238869D01*
X154273094Y-103236682D01*
X154233989Y-103240533D01*
X154242405Y-103212788D01*
X154242460Y-103212608D01*
X154251187Y-103124001D01*
X154249000Y-103101796D01*
X154249000Y-102299339D01*
X154260436Y-102291698D01*
X154361698Y-102190436D01*
X154441259Y-102071364D01*
X154496062Y-101939058D01*
X154524000Y-101798603D01*
X154524000Y-101655397D01*
X154496062Y-101514942D01*
X154448203Y-101399401D01*
X154473942Y-101410062D01*
X154614397Y-101438000D01*
X154757603Y-101438000D01*
X154898058Y-101410062D01*
X155030364Y-101355259D01*
X155149436Y-101275698D01*
X155250698Y-101174436D01*
X155330259Y-101055364D01*
X155385062Y-100923058D01*
X155413000Y-100782603D01*
X155413000Y-100639397D01*
X155410702Y-100627842D01*
X155463642Y-100563334D01*
X155505613Y-100484811D01*
X155513380Y-100459206D01*
X155527945Y-100411192D01*
X155584495Y-100354642D01*
X155656313Y-100282825D01*
X155656317Y-100282820D01*
X156911787Y-99027351D01*
X156962741Y-99150364D01*
G04 #@! TD*
M02*
