G04 #@! TF.GenerationSoftware,KiCad,Pcbnew,5.0.2-bee76a0~70~ubuntu18.04.1*
G04 #@! TF.CreationDate,2019-01-06T16:40:52-06:00*
G04 #@! TF.ProjectId,Adafruit Feather M0 RFMxx,41646166-7275-4697-9420-466561746865,rev?*
G04 #@! TF.SameCoordinates,Original*
G04 #@! TF.FileFunction,Copper,L2,Bot*
G04 #@! TF.FilePolarity,Positive*
%FSLAX46Y46*%
G04 Gerber Fmt 4.6, Leading zero omitted, Abs format (unit mm)*
G04 Created by KiCad (PCBNEW 5.0.2-bee76a0~70~ubuntu18.04.1) date Sun 06 Jan 2019 04:40:52 PM CST*
%MOMM*%
%LPD*%
G01*
G04 APERTURE LIST*
G04 #@! TA.AperFunction,ComponentPad*
%ADD10C,3.200000*%
G04 #@! TD*
G04 #@! TA.AperFunction,ComponentPad*
%ADD11C,1.200000*%
G04 #@! TD*
G04 #@! TA.AperFunction,ComponentPad*
%ADD12R,2.500000X2.500000*%
G04 #@! TD*
G04 #@! TA.AperFunction,ComponentPad*
%ADD13C,1.676400*%
G04 #@! TD*
G04 #@! TA.AperFunction,Conductor*
%ADD14C,0.100000*%
G04 #@! TD*
G04 #@! TA.AperFunction,SMDPad,CuDef*
%ADD15C,1.500000*%
G04 #@! TD*
G04 #@! TA.AperFunction,SMDPad,CuDef*
%ADD16R,0.800000X1.000000*%
G04 #@! TD*
G04 #@! TA.AperFunction,SMDPad,CuDef*
%ADD17R,2.200000X1.050000*%
G04 #@! TD*
G04 #@! TA.AperFunction,SMDPad,CuDef*
%ADD18R,0.600000X1.550000*%
G04 #@! TD*
G04 #@! TA.AperFunction,SMDPad,CuDef*
%ADD19R,1.200000X1.800000*%
G04 #@! TD*
G04 #@! TA.AperFunction,ViaPad*
%ADD20C,0.906400*%
G04 #@! TD*
G04 #@! TA.AperFunction,ViaPad*
%ADD21C,0.800000*%
G04 #@! TD*
G04 #@! TA.AperFunction,Conductor*
%ADD22C,0.250000*%
G04 #@! TD*
G04 #@! TA.AperFunction,Conductor*
%ADD23C,0.406400*%
G04 #@! TD*
G04 #@! TA.AperFunction,Conductor*
%ADD24C,0.254000*%
G04 #@! TD*
G04 APERTURE END LIST*
D10*
G04 #@! TO.P,U$31,P$1*
G04 #@! TO.N,N/C*
X125641100Y-96113600D03*
G04 #@! TD*
G04 #@! TO.P,U$32,P$1*
G04 #@! TO.N,N/C*
X125641100Y-113893600D03*
G04 #@! TD*
D11*
G04 #@! TO.P,X3,SPRT@2*
G04 #@! TO.N,GND*
X128446100Y-108303600D03*
G04 #@! TO.P,X3,SPRT@1*
X128446100Y-101703600D03*
D12*
G04 #@! TO.P,X3,SPRT@3*
X125646100Y-101403600D03*
G04 #@! TO.P,X3,SPRT@4*
X125646100Y-108603600D03*
G04 #@! TD*
D13*
G04 #@! TO.P,JP1,16*
G04 #@! TO.N,/~RESET*
X129451100Y-115163600D03*
G04 #@! TO.P,JP1,15*
G04 #@! TO.N,+3V3*
X131991100Y-115163600D03*
G04 #@! TO.P,JP1,14*
G04 #@! TO.N,/AREF*
X134531100Y-115163600D03*
G04 #@! TO.P,JP1,13*
G04 #@! TO.N,GND*
X137071100Y-115163600D03*
G04 #@! TO.P,JP1,12*
G04 #@! TO.N,/A0*
X139611100Y-115163600D03*
G04 #@! TO.P,JP1,11*
G04 #@! TO.N,/A1*
X142151100Y-115163600D03*
G04 #@! TO.P,JP1,10*
G04 #@! TO.N,/A2*
X144691100Y-115163600D03*
G04 #@! TO.P,JP1,9*
G04 #@! TO.N,/A3*
X147231100Y-115163600D03*
G04 #@! TO.P,JP1,8*
G04 #@! TO.N,/A4*
X149771100Y-115163600D03*
G04 #@! TO.P,JP1,7*
G04 #@! TO.N,/A5*
X152311100Y-115163600D03*
G04 #@! TO.P,JP1,6*
G04 #@! TO.N,/SCK*
X154851100Y-115163600D03*
G04 #@! TO.P,JP1,5*
G04 #@! TO.N,/MOSI*
X157391100Y-115163600D03*
G04 #@! TO.P,JP1,4*
G04 #@! TO.N,/MISO*
X159931100Y-115163600D03*
G04 #@! TO.P,JP1,3*
G04 #@! TO.N,/D0*
X162471100Y-115163600D03*
G04 #@! TO.P,JP1,2*
G04 #@! TO.N,/D1*
X165011100Y-115163600D03*
G04 #@! TO.P,JP1,1*
G04 #@! TO.N,/DIO1*
X167551100Y-115163600D03*
G04 #@! TD*
G04 #@! TO.P,JP3,12*
G04 #@! TO.N,/SDA*
X167551100Y-94843600D03*
G04 #@! TO.P,JP3,11*
G04 #@! TO.N,/SCL*
X165011100Y-94843600D03*
G04 #@! TO.P,JP3,10*
G04 #@! TO.N,/D5*
X162471100Y-94843600D03*
G04 #@! TO.P,JP3,9*
G04 #@! TO.N,/D6*
X159931100Y-94843600D03*
G04 #@! TO.P,JP3,8*
G04 #@! TO.N,/D9*
X157391100Y-94843600D03*
G04 #@! TO.P,JP3,7*
G04 #@! TO.N,/D10*
X154851100Y-94843600D03*
G04 #@! TO.P,JP3,6*
G04 #@! TO.N,/D11*
X152311100Y-94843600D03*
G04 #@! TO.P,JP3,5*
G04 #@! TO.N,/D12*
X149771100Y-94843600D03*
G04 #@! TO.P,JP3,4*
G04 #@! TO.N,/D13*
X147231100Y-94843600D03*
G04 #@! TO.P,JP3,3*
G04 #@! TO.N,VBUS*
X144691100Y-94843600D03*
G04 #@! TO.P,JP3,2*
G04 #@! TO.N,/EN*
X142151100Y-94843600D03*
G04 #@! TO.P,JP3,1*
G04 #@! TO.N,VBAT*
X139611100Y-94843600D03*
G04 #@! TD*
D14*
G04 #@! TO.N,/SWCLK*
G04 #@! TO.C,TP1*
G36*
X138541614Y-110353210D02*
X138614419Y-110364010D01*
X138685815Y-110381894D01*
X138755114Y-110406689D01*
X138821649Y-110438158D01*
X138884779Y-110475997D01*
X138943896Y-110519841D01*
X138998431Y-110569269D01*
X139047859Y-110623804D01*
X139091703Y-110682921D01*
X139129542Y-110746051D01*
X139161011Y-110812586D01*
X139185806Y-110881885D01*
X139203690Y-110953281D01*
X139214490Y-111026086D01*
X139218101Y-111099599D01*
X139218101Y-111099601D01*
X139214490Y-111173114D01*
X139203690Y-111245919D01*
X139185806Y-111317315D01*
X139161011Y-111386614D01*
X139129542Y-111453149D01*
X139091703Y-111516279D01*
X139047859Y-111575396D01*
X138998431Y-111629931D01*
X138943896Y-111679359D01*
X138884779Y-111723203D01*
X138821649Y-111761042D01*
X138755114Y-111792511D01*
X138685815Y-111817306D01*
X138614419Y-111835190D01*
X138541614Y-111845990D01*
X138468101Y-111849601D01*
X138468099Y-111849601D01*
X138394586Y-111845990D01*
X138321781Y-111835190D01*
X138250385Y-111817306D01*
X138181086Y-111792511D01*
X138114551Y-111761042D01*
X138051421Y-111723203D01*
X137992304Y-111679359D01*
X137937769Y-111629931D01*
X137888341Y-111575396D01*
X137844497Y-111516279D01*
X137806658Y-111453149D01*
X137775189Y-111386614D01*
X137750394Y-111317315D01*
X137732510Y-111245919D01*
X137721710Y-111173114D01*
X137718099Y-111099601D01*
X137718099Y-111099599D01*
X137721710Y-111026086D01*
X137732510Y-110953281D01*
X137750394Y-110881885D01*
X137775189Y-110812586D01*
X137806658Y-110746051D01*
X137844497Y-110682921D01*
X137888341Y-110623804D01*
X137937769Y-110569269D01*
X137992304Y-110519841D01*
X138051421Y-110475997D01*
X138114551Y-110438158D01*
X138181086Y-110406689D01*
X138250385Y-110381894D01*
X138321781Y-110364010D01*
X138394586Y-110353210D01*
X138468099Y-110349599D01*
X138468101Y-110349599D01*
X138541614Y-110353210D01*
X138541614Y-110353210D01*
G37*
D15*
G04 #@! TD*
G04 #@! TO.P,TP1,P$1*
G04 #@! TO.N,/SWCLK*
X138468100Y-111099600D03*
D14*
G04 #@! TO.N,/SWDIO*
G04 #@! TO.C,TP2*
G36*
X141081614Y-110353210D02*
X141154419Y-110364010D01*
X141225815Y-110381894D01*
X141295114Y-110406689D01*
X141361649Y-110438158D01*
X141424779Y-110475997D01*
X141483896Y-110519841D01*
X141538431Y-110569269D01*
X141587859Y-110623804D01*
X141631703Y-110682921D01*
X141669542Y-110746051D01*
X141701011Y-110812586D01*
X141725806Y-110881885D01*
X141743690Y-110953281D01*
X141754490Y-111026086D01*
X141758101Y-111099599D01*
X141758101Y-111099601D01*
X141754490Y-111173114D01*
X141743690Y-111245919D01*
X141725806Y-111317315D01*
X141701011Y-111386614D01*
X141669542Y-111453149D01*
X141631703Y-111516279D01*
X141587859Y-111575396D01*
X141538431Y-111629931D01*
X141483896Y-111679359D01*
X141424779Y-111723203D01*
X141361649Y-111761042D01*
X141295114Y-111792511D01*
X141225815Y-111817306D01*
X141154419Y-111835190D01*
X141081614Y-111845990D01*
X141008101Y-111849601D01*
X141008099Y-111849601D01*
X140934586Y-111845990D01*
X140861781Y-111835190D01*
X140790385Y-111817306D01*
X140721086Y-111792511D01*
X140654551Y-111761042D01*
X140591421Y-111723203D01*
X140532304Y-111679359D01*
X140477769Y-111629931D01*
X140428341Y-111575396D01*
X140384497Y-111516279D01*
X140346658Y-111453149D01*
X140315189Y-111386614D01*
X140290394Y-111317315D01*
X140272510Y-111245919D01*
X140261710Y-111173114D01*
X140258099Y-111099601D01*
X140258099Y-111099599D01*
X140261710Y-111026086D01*
X140272510Y-110953281D01*
X140290394Y-110881885D01*
X140315189Y-110812586D01*
X140346658Y-110746051D01*
X140384497Y-110682921D01*
X140428341Y-110623804D01*
X140477769Y-110569269D01*
X140532304Y-110519841D01*
X140591421Y-110475997D01*
X140654551Y-110438158D01*
X140721086Y-110406689D01*
X140790385Y-110381894D01*
X140861781Y-110364010D01*
X140934586Y-110353210D01*
X141008099Y-110349599D01*
X141008101Y-110349599D01*
X141081614Y-110353210D01*
X141081614Y-110353210D01*
G37*
D15*
G04 #@! TD*
G04 #@! TO.P,TP2,P$1*
G04 #@! TO.N,/SWDIO*
X141008100Y-111099600D03*
D13*
G04 #@! TO.P,JP2,1*
G04 #@! TO.N,Net-(JP2-Pad1)*
X172631100Y-111353600D03*
G04 #@! TD*
D16*
G04 #@! TO.P,X4,3*
G04 #@! TO.N,Net-(JP2-Pad1)*
X170219100Y-111353600D03*
D17*
G04 #@! TO.P,X4,2*
G04 #@! TO.N,GND*
X168694100Y-109978600D03*
G04 #@! TO.P,X4,1*
X168694100Y-112728600D03*
G04 #@! TD*
D13*
G04 #@! TO.P,JP5,3*
G04 #@! TO.N,/DIO2*
X172631100Y-98653600D03*
G04 #@! TO.P,JP5,2*
G04 #@! TO.N,/DIO3*
X172631100Y-101193600D03*
G04 #@! TO.P,JP5,1*
G04 #@! TO.N,/DIO5*
X172631100Y-103733600D03*
G04 #@! TD*
D18*
G04 #@! TO.P,JP7,1*
G04 #@! TO.N,GND*
X132352000Y-98871000D03*
G04 #@! TO.P,JP7,2*
G04 #@! TO.N,+3V3*
X133352000Y-98871000D03*
G04 #@! TO.P,JP7,3*
G04 #@! TO.N,/SDA*
X134352000Y-98871000D03*
G04 #@! TO.P,JP7,4*
G04 #@! TO.N,/SCL*
X135352000Y-98871000D03*
D19*
G04 #@! TO.P,JP7,5*
G04 #@! TO.N,N/C*
X131052000Y-94996000D03*
G04 #@! TO.P,JP7,6*
X136652000Y-94996000D03*
G04 #@! TD*
D20*
G04 #@! TO.N,GND*
X125514100Y-105003600D03*
X132753100Y-105892600D03*
X136944100Y-110845600D03*
X132372100Y-109194600D03*
X142151100Y-103733600D03*
X141262100Y-98018600D03*
X145453100Y-106781600D03*
X147231100Y-105003600D03*
X149009100Y-106908600D03*
X146469100Y-108559600D03*
X131483100Y-100812600D03*
X152565100Y-111607600D03*
X155867100Y-98526600D03*
X168694100Y-108432600D03*
X166281100Y-108940600D03*
X168567100Y-114020600D03*
X166281100Y-112496600D03*
X165519100Y-104241600D03*
X163106100Y-102082600D03*
X161836100Y-103860600D03*
X162217100Y-111480600D03*
X162217100Y-107289600D03*
X165900100Y-100304600D03*
X168313100Y-98653600D03*
X169202100Y-96240600D03*
X160820100Y-98272600D03*
X164630100Y-97764600D03*
X160820100Y-100431600D03*
X158788100Y-100812600D03*
X160566100Y-102336600D03*
X164249100Y-111607600D03*
X164249100Y-108686600D03*
X162090100Y-109448600D03*
X166154100Y-106527600D03*
X166154100Y-110972600D03*
X163995100Y-105511600D03*
X132334000Y-97282000D03*
G04 #@! TO.N,+3V3*
X145326100Y-113004600D03*
X139484100Y-106781600D03*
X137037915Y-100951416D03*
X144183100Y-100431600D03*
X151935685Y-100799851D03*
G04 #@! TO.N,VBUS*
X132626100Y-104495600D03*
X138722100Y-102463600D03*
G04 #@! TO.N,VBAT*
X137565318Y-98033382D03*
X143167100Y-99161600D03*
G04 #@! TO.N,/AREF*
X146088100Y-111734600D03*
G04 #@! TO.N,/D13*
X127546100Y-94462600D03*
X149737143Y-101574600D03*
G04 #@! TO.N,/~RESET*
X132372100Y-110718600D03*
X142659100Y-104876600D03*
G04 #@! TO.N,/D+*
X130975100Y-107289600D03*
X144310100Y-102209600D03*
G04 #@! TO.N,/D-*
X130975100Y-106019600D03*
X143167100Y-101955600D03*
G04 #@! TO.N,/A5*
X143294100Y-110591600D03*
D21*
G04 #@! TO.N,/SCK*
X155829000Y-106934000D03*
X156210008Y-103987600D03*
D20*
G04 #@! TO.N,/MOSI*
X156502100Y-102082600D03*
X152126109Y-107236956D03*
D21*
G04 #@! TO.N,/MISO*
X155575000Y-101092000D03*
X152586200Y-105672913D03*
D20*
G04 #@! TO.N,/D0*
X152617059Y-108475335D03*
G04 #@! TO.N,/D1*
X155740100Y-108940600D03*
G04 #@! TO.N,/DIO1*
X167170100Y-103098600D03*
G04 #@! TO.N,/SDA*
X146811994Y-101346000D03*
G04 #@! TO.N,/SCL*
X146050000Y-100187824D03*
G04 #@! TO.N,/D5*
X159296100Y-97510600D03*
X152809686Y-102844134D03*
G04 #@! TO.N,/D6*
X149390100Y-97764600D03*
G04 #@! TO.N,/D9*
X150533100Y-111226600D03*
X152357976Y-101822503D03*
G04 #@! TO.N,/D10*
X149390100Y-100177600D03*
G04 #@! TO.N,/D11*
X147358100Y-97129600D03*
G04 #@! TO.N,/D12*
X148247100Y-99034600D03*
G04 #@! TO.N,Net-(R2-Pad2)*
X130721100Y-113512600D03*
X136397996Y-102108000D03*
G04 #@! TO.N,/SWDIO*
X142024100Y-109321600D03*
G04 #@! TO.N,/SWCLK*
X142151100Y-108178600D03*
D21*
G04 #@! TO.N,/D2*
X152062523Y-103543389D03*
G04 #@! TO.N,Net-(U$4-Pad22)*
X152085588Y-104669459D03*
D20*
G04 #@! TO.N,/D3_IRQ*
X156629100Y-110972600D03*
X168694100Y-101955600D03*
G04 #@! TO.N,/DIO5*
X156883100Y-109448600D03*
X168821100Y-103098600D03*
G04 #@! TO.N,/DIO3*
X168694100Y-105130600D03*
G04 #@! TD*
D22*
G04 #@! TO.N,GND*
X132334000Y-98853000D02*
X132352000Y-98871000D01*
X132334000Y-97282000D02*
X132334000Y-98853000D01*
D23*
G04 #@! TO.N,+3V3*
X144564100Y-110718600D02*
X146600100Y-110718600D01*
X146600100Y-110718600D02*
X147231100Y-111349600D01*
X147231100Y-111349600D02*
X147231100Y-112623600D01*
X147231100Y-112623600D02*
X146850100Y-113004600D01*
X146850100Y-113004600D02*
X145326100Y-113004600D01*
X144310100Y-100431600D02*
X145580100Y-101701600D01*
X145580100Y-101701600D02*
X145580100Y-103860600D01*
X145580100Y-103860600D02*
X145580100Y-104876600D01*
X145580100Y-104876600D02*
X144437100Y-106019600D01*
X144437100Y-106019600D02*
X143167100Y-106019600D01*
X143167100Y-106019600D02*
X140373100Y-106019600D01*
X140373100Y-106019600D02*
X139484100Y-106908600D01*
X139484100Y-106908600D02*
X139484100Y-106781600D01*
X143167100Y-106019600D02*
X143167100Y-109448600D01*
X143167100Y-109448600D02*
X142278100Y-110337600D01*
X142278100Y-110337600D02*
X142278100Y-110972600D01*
X142278100Y-110972600D02*
X142786100Y-111480600D01*
X142786100Y-111480600D02*
X142913100Y-111607600D01*
X142913100Y-111607600D02*
X143675100Y-111607600D01*
X143675100Y-111607600D02*
X144564100Y-110718600D01*
X131991100Y-115163600D02*
X134658100Y-112496600D01*
X134658100Y-112496600D02*
X141897100Y-112496600D01*
X141897100Y-112496600D02*
X142786100Y-111607600D01*
X142786100Y-111607600D02*
X142786100Y-111480600D01*
X144183100Y-100431600D02*
X143663284Y-100951416D01*
X137678836Y-100951416D02*
X137037915Y-100951416D01*
D24*
X144310100Y-100431600D02*
X144183100Y-100431600D01*
D23*
X143663284Y-100951416D02*
X137678836Y-100951416D01*
X137037915Y-100951416D02*
X133717416Y-100951416D01*
X133352000Y-100586000D02*
X133352000Y-98871000D01*
X133717416Y-100951416D02*
X133352000Y-100586000D01*
X150024569Y-103987600D02*
X151501575Y-102510594D01*
X145580100Y-103860600D02*
X145707100Y-103987600D01*
X151501575Y-101233961D02*
X151935685Y-100799851D01*
X145707100Y-103987600D02*
X150024569Y-103987600D01*
X151501575Y-102510594D02*
X151501575Y-101233961D01*
G04 #@! TO.N,VBUS*
X136944100Y-103733600D02*
X138214100Y-102463600D01*
X132626100Y-104495600D02*
X133388100Y-103733600D01*
X133388100Y-103733600D02*
X136944100Y-103733600D01*
X138214100Y-102463600D02*
X138722100Y-102463600D01*
G04 #@! TO.N,VBAT*
X143167100Y-99161600D02*
X138693537Y-99161600D01*
X138693537Y-99161600D02*
X137565318Y-98033382D01*
D24*
G04 #@! TO.N,/AREF*
X134531100Y-114655600D02*
X134531100Y-115163600D01*
X146088100Y-111734600D02*
X144818100Y-111734600D01*
X144818100Y-111734600D02*
X143421100Y-113131600D01*
X143421100Y-113131600D02*
X136182100Y-113131600D01*
X136182100Y-113131600D02*
X134531100Y-114782600D01*
X134531100Y-114782600D02*
X134531100Y-115163600D01*
G04 #@! TO.N,/D13*
X145199100Y-96367600D02*
X146723100Y-94843600D01*
X146723100Y-94843600D02*
X147231100Y-94843600D01*
X128778000Y-96520000D02*
X127546100Y-95288100D01*
X127546100Y-95288100D02*
X127546100Y-94462600D01*
X144030700Y-96520000D02*
X128778000Y-96520000D01*
D22*
X144736238Y-96520000D02*
X145199100Y-96520000D01*
X144030700Y-96520000D02*
X144736238Y-96520000D01*
D24*
X145199100Y-96520000D02*
X145199100Y-96367600D01*
X149063901Y-101121401D02*
X149283944Y-101121401D01*
X145199100Y-96520000D02*
X145199100Y-98272600D01*
X146342100Y-99415600D02*
X147358100Y-99415600D01*
X147358100Y-99415600D02*
X149063901Y-101121401D01*
X149283944Y-101121401D02*
X149737143Y-101574600D01*
X145199100Y-98272600D02*
X146342100Y-99415600D01*
G04 #@! TO.N,/~RESET*
X133134100Y-109956600D02*
X132372100Y-110718600D01*
X136817100Y-109956600D02*
X137706100Y-109067600D01*
X137706100Y-109067600D02*
X137706100Y-107289600D01*
X137706100Y-107289600D02*
X139611100Y-105384600D01*
X139611100Y-105384600D02*
X142151100Y-105384600D01*
X142151100Y-105384600D02*
X142659100Y-104876600D01*
X136817100Y-109956600D02*
X133134100Y-109956600D01*
G04 #@! TO.N,/D+*
X131229100Y-107543600D02*
X135801100Y-107543600D01*
X130975100Y-107289600D02*
X131229100Y-107543600D01*
X135801100Y-107543600D02*
X140500100Y-102844600D01*
X140500100Y-102844600D02*
X143675100Y-102844600D01*
X143675100Y-102844600D02*
X144310100Y-102209600D01*
G04 #@! TO.N,/D-*
X131864100Y-106908600D02*
X135674100Y-106908600D01*
X140627100Y-101955600D02*
X143167100Y-101955600D01*
X135674100Y-106908600D02*
X140627100Y-101955600D01*
X130975100Y-106019600D02*
X131864100Y-106908600D01*
G04 #@! TO.N,/A5*
X143294100Y-110591600D02*
X143929100Y-109956600D01*
X143929100Y-109956600D02*
X147231100Y-109956600D01*
X147231100Y-109956600D02*
X148374100Y-111099600D01*
X148374100Y-111099600D02*
X148374100Y-112623600D01*
X148374100Y-112623600D02*
X149644100Y-113893600D01*
X149644100Y-113893600D02*
X150279100Y-113893600D01*
X150279100Y-113893600D02*
X151549100Y-115163600D01*
X151549100Y-115163600D02*
X152311100Y-115163600D01*
D22*
G04 #@! TO.N,/SCK*
X155829000Y-104368608D02*
X156210008Y-103987600D01*
X155829000Y-106934000D02*
X155829000Y-104368608D01*
D24*
G04 #@! TO.N,/MOSI*
X156955299Y-107264663D02*
X156523962Y-107696000D01*
X156955299Y-102535799D02*
X156955299Y-107264663D01*
X153226074Y-107696000D02*
X152767030Y-107236956D01*
X156502100Y-102082600D02*
X156955299Y-102535799D01*
X156523962Y-107696000D02*
X153226074Y-107696000D01*
X152767030Y-107236956D02*
X152126109Y-107236956D01*
D22*
G04 #@! TO.N,/MISO*
X155575000Y-102684113D02*
X152986199Y-105272914D01*
X155575000Y-101092000D02*
X155575000Y-102684113D01*
X152986199Y-105272914D02*
X152586200Y-105672913D01*
D24*
G04 #@! TO.N,/D0*
X152617059Y-109116256D02*
X152617059Y-108475335D01*
X156121100Y-113385600D02*
X152617059Y-109881559D01*
X160693100Y-113385600D02*
X156121100Y-113385600D01*
X152617059Y-109881559D02*
X152617059Y-109116256D01*
X162471100Y-115163600D02*
X160693100Y-113385600D01*
G04 #@! TO.N,/D1*
X155740100Y-108940600D02*
X155740100Y-111734600D01*
X155740100Y-111734600D02*
X156502100Y-112496600D01*
X156502100Y-112496600D02*
X162979100Y-112496600D01*
X162979100Y-112496600D02*
X165011100Y-114528600D01*
X165011100Y-114528600D02*
X165011100Y-115163600D01*
G04 #@! TO.N,/DIO1*
X167170100Y-103098600D02*
X167170100Y-114782600D01*
X167170100Y-114782600D02*
X167551100Y-115163600D01*
D22*
G04 #@! TO.N,/SDA*
X134388998Y-98907998D02*
X134352000Y-98871000D01*
X143404438Y-100076000D02*
X134896998Y-100076000D01*
X145971501Y-101346000D02*
X144961301Y-100335800D01*
X134896998Y-100076000D02*
X134388998Y-99568000D01*
X144961301Y-100335800D02*
X144961301Y-100058063D01*
X134388998Y-99568000D02*
X134388998Y-98907998D01*
X144556637Y-99653399D02*
X143827039Y-99653399D01*
X144961301Y-100058063D02*
X144556637Y-99653399D01*
X146811994Y-101346000D02*
X145971501Y-101346000D01*
X143827039Y-99653399D02*
X143404438Y-100076000D01*
D24*
X146811994Y-101986921D02*
X146811994Y-101346000D01*
X150971364Y-100374336D02*
X150971364Y-102290974D01*
X167551100Y-94843600D02*
X165773100Y-96621600D01*
X149909738Y-103352600D02*
X148092779Y-103352600D01*
X165773100Y-96621600D02*
X158915100Y-96621600D01*
X148092779Y-103352600D02*
X146811994Y-102071815D01*
X158915100Y-96621600D02*
X158407100Y-97129600D01*
X146811994Y-102071815D02*
X146811994Y-101986921D01*
X158407100Y-97129600D02*
X154216100Y-97129600D01*
X150971364Y-102290974D02*
X149909738Y-103352600D01*
X154216100Y-97129600D02*
X150971364Y-100374336D01*
D22*
G04 #@! TO.N,/SCL*
X135352000Y-97566000D02*
X135352000Y-98871000D01*
X135677601Y-97240399D02*
X135352000Y-97566000D01*
X146050000Y-100187824D02*
X143102575Y-97240399D01*
X143102575Y-97240399D02*
X135677601Y-97240399D01*
D24*
X165011100Y-94843600D02*
X164376100Y-94843600D01*
X150517353Y-102098347D02*
X150025100Y-102590600D01*
X158153100Y-96621600D02*
X153962100Y-96621600D01*
X147993100Y-100812600D02*
X147368324Y-100187824D01*
X164376100Y-94843600D02*
X163106100Y-96113600D01*
X147368324Y-100187824D02*
X146050000Y-100187824D01*
X150517353Y-100066347D02*
X150517353Y-102098347D01*
X163106100Y-96113600D02*
X158661100Y-96113600D01*
X150025100Y-102590600D02*
X147993100Y-102590600D01*
X153962100Y-96621600D02*
X150517353Y-100066347D01*
X147993100Y-102590600D02*
X147993100Y-100812600D01*
X158661100Y-96113600D02*
X158153100Y-96621600D01*
G04 #@! TO.N,/D5*
X158528179Y-97637600D02*
X154470100Y-97637600D01*
X154470100Y-97637600D02*
X153327100Y-98780600D01*
X153262885Y-102390935D02*
X152809686Y-102844134D01*
X153327100Y-102326720D02*
X153262885Y-102390935D01*
X153327100Y-98780600D02*
X153327100Y-102326720D01*
X158655179Y-97510600D02*
X158528179Y-97637600D01*
X159296100Y-97510600D02*
X158655179Y-97510600D01*
G04 #@! TO.N,/D6*
X159169100Y-94843600D02*
X159931100Y-94843600D01*
X159169100Y-94843600D02*
X157899100Y-96113600D01*
X157899100Y-96113600D02*
X153708100Y-96113600D01*
X153708100Y-96113600D02*
X153200100Y-96621600D01*
X153200100Y-96621600D02*
X151422100Y-96621600D01*
X151422100Y-96621600D02*
X150406100Y-97637600D01*
X150406100Y-97637600D02*
X149517100Y-97637600D01*
X149517100Y-97637600D02*
X149390100Y-97764600D01*
G04 #@! TO.N,/D9*
X152038924Y-102141555D02*
X152357976Y-101822503D01*
X152038924Y-102723075D02*
X152038924Y-102141555D01*
X150533100Y-104228900D02*
X152038924Y-102723075D01*
X150533100Y-111226600D02*
X150533100Y-104228900D01*
G04 #@! TO.N,/D10*
X149390100Y-100177600D02*
X149390100Y-99034600D01*
X149390100Y-99034600D02*
X148501100Y-98145600D01*
X148501100Y-98145600D02*
X148501100Y-97383600D01*
X148501100Y-97383600D02*
X149263100Y-96621600D01*
X149263100Y-96621600D02*
X150660100Y-96621600D01*
X150660100Y-96621600D02*
X151168100Y-96113600D01*
X151168100Y-96113600D02*
X152819100Y-96113600D01*
X152819100Y-96113600D02*
X153962100Y-94970600D01*
X153962100Y-94970600D02*
X154724100Y-94970600D01*
X154724100Y-94970600D02*
X154851100Y-94843600D01*
G04 #@! TO.N,/D11*
X147358100Y-97129600D02*
X147739100Y-96748600D01*
X147739100Y-96748600D02*
X148374100Y-96748600D01*
X148374100Y-96748600D02*
X149009100Y-96113600D01*
X149009100Y-96113600D02*
X150406100Y-96113600D01*
X150406100Y-96113600D02*
X151676100Y-94843600D01*
X151676100Y-94843600D02*
X152311100Y-94843600D01*
G04 #@! TO.N,/D12*
X149771100Y-94843600D02*
X149263100Y-94843600D01*
X149263100Y-94843600D02*
X147866100Y-96240600D01*
X147866100Y-96240600D02*
X146850100Y-96240600D01*
X146850100Y-96240600D02*
X146469100Y-96621600D01*
X146469100Y-96621600D02*
X146469100Y-98145600D01*
X146469100Y-98145600D02*
X147231100Y-98907600D01*
X147231100Y-98907600D02*
X148120100Y-98907600D01*
X148120100Y-98907600D02*
X148247100Y-99034600D01*
G04 #@! TO.N,Net-(R2-Pad2)*
X130721100Y-113512600D02*
X129451100Y-112242600D01*
D22*
X136397996Y-102108000D02*
X130302000Y-102108000D01*
X130213100Y-102108000D02*
X129451100Y-102870000D01*
D24*
X129451100Y-112242600D02*
X129451100Y-102870000D01*
G04 #@! TO.N,/SWDIO*
X142024100Y-109321600D02*
X142151100Y-109321600D01*
X141008100Y-111099600D02*
X141008100Y-110337600D01*
X141008100Y-110337600D02*
X142024100Y-109321600D01*
G04 #@! TO.N,/SWCLK*
X142151100Y-108178600D02*
X142024100Y-108305600D01*
X142024100Y-108305600D02*
X141262100Y-108305600D01*
X141262100Y-108305600D02*
X138468100Y-111099600D01*
G04 #@! TO.N,/D3_IRQ*
X168694100Y-101955600D02*
X167932100Y-101193600D01*
X167932100Y-101193600D02*
X166916100Y-101193600D01*
X166916100Y-101193600D02*
X157137100Y-110972600D01*
X157137100Y-110972600D02*
X156629100Y-110972600D01*
D23*
G04 #@! TO.N,Net-(JP2-Pad1)*
X170219100Y-111353600D02*
X172631100Y-111353600D01*
D24*
G04 #@! TO.N,/DIO5*
X156883100Y-109448600D02*
X157899100Y-109448600D01*
X157899100Y-109448600D02*
X166916100Y-100431600D01*
X166916100Y-100431600D02*
X168821100Y-100431600D01*
X168821100Y-100431600D02*
X169583100Y-101193600D01*
X169583100Y-101193600D02*
X169583100Y-102336600D01*
X169583100Y-102336600D02*
X168821100Y-103098600D01*
G04 #@! TO.N,/DIO3*
X172631100Y-101193600D02*
X168694100Y-105130600D01*
G04 #@! TD*
G04 #@! TO.N,GND*
G36*
X171234100Y-101948548D02*
X168822077Y-104360571D01*
X168770943Y-104350400D01*
X168617257Y-104350400D01*
X168466524Y-104380383D01*
X168324537Y-104439196D01*
X168196752Y-104524579D01*
X168088079Y-104633252D01*
X168002696Y-104761037D01*
X167943883Y-104903024D01*
X167913900Y-105053757D01*
X167913900Y-105207443D01*
X167943883Y-105358176D01*
X168002696Y-105500163D01*
X168088079Y-105627948D01*
X168196752Y-105736621D01*
X168324537Y-105822004D01*
X168466524Y-105880817D01*
X168617257Y-105910800D01*
X168770943Y-105910800D01*
X168921676Y-105880817D01*
X169063663Y-105822004D01*
X169191448Y-105736621D01*
X169300121Y-105627948D01*
X169385504Y-105500163D01*
X169444317Y-105358176D01*
X169474300Y-105207443D01*
X169474300Y-105053757D01*
X169464129Y-105002623D01*
X171234100Y-103232652D01*
X171234100Y-110823400D01*
X170944707Y-110823400D01*
X170941368Y-110789497D01*
X170922670Y-110727857D01*
X170892306Y-110671050D01*
X170851443Y-110621257D01*
X170801650Y-110580394D01*
X170744843Y-110550030D01*
X170683203Y-110531332D01*
X170619100Y-110525018D01*
X170225100Y-110525018D01*
X170225100Y-110111350D01*
X170117350Y-110003600D01*
X168719100Y-110003600D01*
X168719100Y-110826850D01*
X168826850Y-110934600D01*
X169490518Y-110934600D01*
X169490518Y-111772600D01*
X168826850Y-111772600D01*
X168719100Y-111880350D01*
X168719100Y-112703600D01*
X170117350Y-112703600D01*
X170225100Y-112595850D01*
X170225100Y-112182182D01*
X170619100Y-112182182D01*
X170683203Y-112175868D01*
X170744843Y-112157170D01*
X170801650Y-112126806D01*
X170851443Y-112085943D01*
X170892306Y-112036150D01*
X170922670Y-111979343D01*
X170941368Y-111917703D01*
X170944707Y-111883800D01*
X171234100Y-111883800D01*
X171234100Y-116231599D01*
X168017537Y-116231599D01*
X168103029Y-116196187D01*
X168293872Y-116068670D01*
X168456170Y-115906372D01*
X168583687Y-115715529D01*
X168671522Y-115503476D01*
X168716300Y-115278362D01*
X168716300Y-115048838D01*
X168671522Y-114823724D01*
X168583687Y-114611671D01*
X168456170Y-114420828D01*
X168293872Y-114258530D01*
X168103029Y-114131013D01*
X167890976Y-114043178D01*
X167665862Y-113998400D01*
X167624100Y-113998400D01*
X167624100Y-113684600D01*
X168561350Y-113684600D01*
X168669100Y-113576850D01*
X168669100Y-112753600D01*
X168719100Y-112753600D01*
X168719100Y-113576850D01*
X168826850Y-113684600D01*
X169836550Y-113684600D01*
X169919818Y-113668037D01*
X169998255Y-113635547D01*
X170068847Y-113588379D01*
X170128880Y-113528346D01*
X170176047Y-113457755D01*
X170208537Y-113379318D01*
X170225100Y-113296050D01*
X170225100Y-112861350D01*
X170117350Y-112753600D01*
X168719100Y-112753600D01*
X168669100Y-112753600D01*
X168649100Y-112753600D01*
X168649100Y-112703600D01*
X168669100Y-112703600D01*
X168669100Y-111880350D01*
X168561350Y-111772600D01*
X167624100Y-111772600D01*
X167624100Y-110934600D01*
X168561350Y-110934600D01*
X168669100Y-110826850D01*
X168669100Y-110003600D01*
X168649100Y-110003600D01*
X168649100Y-109953600D01*
X168669100Y-109953600D01*
X168669100Y-109130350D01*
X168719100Y-109130350D01*
X168719100Y-109953600D01*
X170117350Y-109953600D01*
X170225100Y-109845850D01*
X170225100Y-109411150D01*
X170208537Y-109327882D01*
X170176047Y-109249445D01*
X170128880Y-109178854D01*
X170068847Y-109118821D01*
X169998255Y-109071653D01*
X169919818Y-109039163D01*
X169836550Y-109022600D01*
X168826850Y-109022600D01*
X168719100Y-109130350D01*
X168669100Y-109130350D01*
X168561350Y-109022600D01*
X167624100Y-109022600D01*
X167624100Y-103733585D01*
X167667448Y-103704621D01*
X167776121Y-103595948D01*
X167861504Y-103468163D01*
X167920317Y-103326176D01*
X167950300Y-103175443D01*
X167950300Y-103021757D01*
X167920317Y-102871024D01*
X167861504Y-102729037D01*
X167776121Y-102601252D01*
X167667448Y-102492579D01*
X167539663Y-102407196D01*
X167397676Y-102348383D01*
X167246943Y-102318400D01*
X167093257Y-102318400D01*
X166942524Y-102348383D01*
X166800537Y-102407196D01*
X166672752Y-102492579D01*
X166564079Y-102601252D01*
X166478696Y-102729037D01*
X166419883Y-102871024D01*
X166389900Y-103021757D01*
X166389900Y-103175443D01*
X166419883Y-103326176D01*
X166478696Y-103468163D01*
X166564079Y-103595948D01*
X166672752Y-103704621D01*
X166716100Y-103733585D01*
X166716101Y-114350757D01*
X166646030Y-114420828D01*
X166518513Y-114611671D01*
X166430678Y-114823724D01*
X166385900Y-115048838D01*
X166385900Y-115278362D01*
X166430678Y-115503476D01*
X166518513Y-115715529D01*
X166646030Y-115906372D01*
X166808328Y-116068670D01*
X166999171Y-116196187D01*
X167084663Y-116231599D01*
X165477537Y-116231599D01*
X165563029Y-116196187D01*
X165753872Y-116068670D01*
X165916170Y-115906372D01*
X166043687Y-115715529D01*
X166131522Y-115503476D01*
X166176300Y-115278362D01*
X166176300Y-115048838D01*
X166131522Y-114823724D01*
X166043687Y-114611671D01*
X165916170Y-114420828D01*
X165753872Y-114258530D01*
X165563029Y-114131013D01*
X165350976Y-114043178D01*
X165125862Y-113998400D01*
X165122953Y-113998400D01*
X163315894Y-112191342D01*
X163301679Y-112174021D01*
X163232549Y-112117287D01*
X163153679Y-112075130D01*
X163068099Y-112049170D01*
X163001395Y-112042600D01*
X163001388Y-112042600D01*
X162979100Y-112040405D01*
X162956812Y-112042600D01*
X156690153Y-112042600D01*
X156348340Y-111700787D01*
X156401524Y-111722817D01*
X156552257Y-111752800D01*
X156705943Y-111752800D01*
X156856676Y-111722817D01*
X156998663Y-111664004D01*
X157126448Y-111578621D01*
X157235121Y-111469948D01*
X157279248Y-111403908D01*
X157311679Y-111394070D01*
X157390549Y-111351913D01*
X157459679Y-111295179D01*
X157473895Y-111277857D01*
X167104153Y-101647600D01*
X167744048Y-101647600D01*
X167924071Y-101827624D01*
X167913900Y-101878757D01*
X167913900Y-102032443D01*
X167943883Y-102183176D01*
X168002696Y-102325163D01*
X168088079Y-102452948D01*
X168196752Y-102561621D01*
X168231495Y-102584836D01*
X168215079Y-102601252D01*
X168129696Y-102729037D01*
X168070883Y-102871024D01*
X168040900Y-103021757D01*
X168040900Y-103175443D01*
X168070883Y-103326176D01*
X168129696Y-103468163D01*
X168215079Y-103595948D01*
X168323752Y-103704621D01*
X168451537Y-103790004D01*
X168593524Y-103848817D01*
X168744257Y-103878800D01*
X168897943Y-103878800D01*
X169048676Y-103848817D01*
X169190663Y-103790004D01*
X169318448Y-103704621D01*
X169427121Y-103595948D01*
X169512504Y-103468163D01*
X169571317Y-103326176D01*
X169601300Y-103175443D01*
X169601300Y-103021757D01*
X169591129Y-102970624D01*
X169888363Y-102673390D01*
X169905679Y-102659179D01*
X169962413Y-102590049D01*
X170004570Y-102511179D01*
X170015994Y-102473520D01*
X170030530Y-102425600D01*
X170032225Y-102408391D01*
X170037100Y-102358895D01*
X170037100Y-102358888D01*
X170039295Y-102336600D01*
X170037100Y-102314312D01*
X170037100Y-101215888D01*
X170039295Y-101193600D01*
X170037100Y-101171312D01*
X170037100Y-101171305D01*
X170031201Y-101111417D01*
X170030530Y-101104600D01*
X170004570Y-101019021D01*
X169997222Y-101005274D01*
X169962413Y-100940151D01*
X169905679Y-100871021D01*
X169888362Y-100856809D01*
X169157894Y-100126342D01*
X169143679Y-100109021D01*
X169074549Y-100052287D01*
X168995679Y-100010130D01*
X168910099Y-99984170D01*
X168843395Y-99977600D01*
X168843388Y-99977600D01*
X168821100Y-99975405D01*
X168798812Y-99977600D01*
X166938388Y-99977600D01*
X166916100Y-99975405D01*
X166893812Y-99977600D01*
X166893805Y-99977600D01*
X166835521Y-99983341D01*
X166827100Y-99984170D01*
X166773310Y-100000487D01*
X166741521Y-100010130D01*
X166662651Y-100052287D01*
X166593521Y-100109021D01*
X166579310Y-100126337D01*
X157711048Y-108994600D01*
X157518085Y-108994600D01*
X157489121Y-108951252D01*
X157380448Y-108842579D01*
X157252663Y-108757196D01*
X157110676Y-108698383D01*
X156959943Y-108668400D01*
X156806257Y-108668400D01*
X156655524Y-108698383D01*
X156513537Y-108757196D01*
X156500797Y-108765709D01*
X156490317Y-108713024D01*
X156431504Y-108571037D01*
X156346121Y-108443252D01*
X156237448Y-108334579D01*
X156109663Y-108249196D01*
X155967676Y-108190383D01*
X155816943Y-108160400D01*
X155663257Y-108160400D01*
X155512524Y-108190383D01*
X155370537Y-108249196D01*
X155242752Y-108334579D01*
X155134079Y-108443252D01*
X155048696Y-108571037D01*
X154989883Y-108713024D01*
X154959900Y-108863757D01*
X154959900Y-109017443D01*
X154989883Y-109168176D01*
X155048696Y-109310163D01*
X155134079Y-109437948D01*
X155242752Y-109546621D01*
X155286100Y-109575585D01*
X155286101Y-111712302D01*
X155283905Y-111734600D01*
X155292670Y-111823599D01*
X155318630Y-111909178D01*
X155338254Y-111945891D01*
X155355261Y-111977708D01*
X153071059Y-109693507D01*
X153071059Y-109110320D01*
X153114407Y-109081356D01*
X153223080Y-108972683D01*
X153308463Y-108844898D01*
X153367276Y-108702911D01*
X153397259Y-108552178D01*
X153397259Y-108398492D01*
X153367276Y-108247759D01*
X153326783Y-108150000D01*
X156501674Y-108150000D01*
X156523962Y-108152195D01*
X156546250Y-108150000D01*
X156546257Y-108150000D01*
X156612961Y-108143430D01*
X156698541Y-108117470D01*
X156777411Y-108075313D01*
X156846541Y-108018579D01*
X156860756Y-108001258D01*
X157260562Y-107601453D01*
X157277878Y-107587242D01*
X157334612Y-107518112D01*
X157376769Y-107439242D01*
X157392428Y-107387621D01*
X157402729Y-107353663D01*
X157404013Y-107340622D01*
X157409299Y-107286958D01*
X157409299Y-107286951D01*
X157411494Y-107264663D01*
X157409299Y-107242375D01*
X157409299Y-102558086D01*
X157411494Y-102535798D01*
X157409299Y-102513510D01*
X157409299Y-102513504D01*
X157402729Y-102446800D01*
X157395814Y-102424002D01*
X157376769Y-102361220D01*
X157363062Y-102335576D01*
X157334612Y-102282350D01*
X157306094Y-102247601D01*
X157292090Y-102230537D01*
X157292089Y-102230536D01*
X157277878Y-102213220D01*
X157272484Y-102208793D01*
X157282300Y-102159443D01*
X157282300Y-102005757D01*
X157252317Y-101855024D01*
X157193504Y-101713037D01*
X157108121Y-101585252D01*
X156999448Y-101476579D01*
X156871663Y-101391196D01*
X156729676Y-101332383D01*
X156578943Y-101302400D01*
X156425257Y-101302400D01*
X156274524Y-101332383D01*
X156259804Y-101338480D01*
X156274062Y-101304058D01*
X156302000Y-101163603D01*
X156302000Y-101020397D01*
X156274062Y-100879942D01*
X156219259Y-100747636D01*
X156139698Y-100628564D01*
X156038436Y-100527302D01*
X155919364Y-100447741D01*
X155787058Y-100392938D01*
X155646603Y-100365000D01*
X155503397Y-100365000D01*
X155362942Y-100392938D01*
X155230636Y-100447741D01*
X155111564Y-100527302D01*
X155010302Y-100628564D01*
X154930741Y-100747636D01*
X154875938Y-100879942D01*
X154848000Y-101020397D01*
X154848000Y-101163603D01*
X154875938Y-101304058D01*
X154930741Y-101436364D01*
X155010302Y-101555436D01*
X155111564Y-101656698D01*
X155123000Y-101664339D01*
X155123001Y-102496887D01*
X152796141Y-104823749D01*
X152812588Y-104741062D01*
X152812588Y-104597856D01*
X152784650Y-104457401D01*
X152729847Y-104325095D01*
X152650286Y-104206023D01*
X152549024Y-104104761D01*
X152537191Y-104096855D01*
X152627221Y-104006825D01*
X152706782Y-103887753D01*
X152761585Y-103755447D01*
X152787665Y-103624334D01*
X152886529Y-103624334D01*
X153037262Y-103594351D01*
X153179249Y-103535538D01*
X153307034Y-103450155D01*
X153415707Y-103341482D01*
X153501090Y-103213697D01*
X153559903Y-103071710D01*
X153589886Y-102920977D01*
X153589886Y-102767291D01*
X153579715Y-102716158D01*
X153599676Y-102696197D01*
X153599681Y-102696191D01*
X153632357Y-102663515D01*
X153649679Y-102649299D01*
X153706413Y-102580169D01*
X153748570Y-102501299D01*
X153774530Y-102415719D01*
X153781100Y-102349015D01*
X153781100Y-102349008D01*
X153783295Y-102326720D01*
X153781100Y-102304432D01*
X153781100Y-98968652D01*
X154658153Y-98091600D01*
X158505891Y-98091600D01*
X158528179Y-98093795D01*
X158550467Y-98091600D01*
X158550474Y-98091600D01*
X158617178Y-98085030D01*
X158702758Y-98059070D01*
X158727810Y-98045679D01*
X158798752Y-98116621D01*
X158926537Y-98202004D01*
X159068524Y-98260817D01*
X159219257Y-98290800D01*
X159372943Y-98290800D01*
X159523676Y-98260817D01*
X159665663Y-98202004D01*
X159793448Y-98116621D01*
X159902121Y-98007948D01*
X159987504Y-97880163D01*
X160046317Y-97738176D01*
X160076300Y-97587443D01*
X160076300Y-97433757D01*
X160046317Y-97283024D01*
X159987504Y-97141037D01*
X159943781Y-97075600D01*
X165750812Y-97075600D01*
X165773100Y-97077795D01*
X165795388Y-97075600D01*
X165795395Y-97075600D01*
X165862099Y-97069030D01*
X165947679Y-97043070D01*
X166026549Y-97000913D01*
X166095679Y-96944179D01*
X166109894Y-96926858D01*
X167113294Y-95923458D01*
X167211224Y-95964022D01*
X167436338Y-96008800D01*
X167665862Y-96008800D01*
X167890976Y-95964022D01*
X168103029Y-95876187D01*
X168293872Y-95748670D01*
X168456170Y-95586372D01*
X168583687Y-95395529D01*
X168671522Y-95183476D01*
X168716300Y-94958362D01*
X168716300Y-94728838D01*
X168671522Y-94503724D01*
X168583687Y-94291671D01*
X168456170Y-94100828D01*
X168293872Y-93938530D01*
X168103029Y-93811013D01*
X168017537Y-93775601D01*
X171234100Y-93775601D01*
X171234100Y-101948548D01*
X171234100Y-101948548D01*
G37*
X171234100Y-101948548D02*
X168822077Y-104360571D01*
X168770943Y-104350400D01*
X168617257Y-104350400D01*
X168466524Y-104380383D01*
X168324537Y-104439196D01*
X168196752Y-104524579D01*
X168088079Y-104633252D01*
X168002696Y-104761037D01*
X167943883Y-104903024D01*
X167913900Y-105053757D01*
X167913900Y-105207443D01*
X167943883Y-105358176D01*
X168002696Y-105500163D01*
X168088079Y-105627948D01*
X168196752Y-105736621D01*
X168324537Y-105822004D01*
X168466524Y-105880817D01*
X168617257Y-105910800D01*
X168770943Y-105910800D01*
X168921676Y-105880817D01*
X169063663Y-105822004D01*
X169191448Y-105736621D01*
X169300121Y-105627948D01*
X169385504Y-105500163D01*
X169444317Y-105358176D01*
X169474300Y-105207443D01*
X169474300Y-105053757D01*
X169464129Y-105002623D01*
X171234100Y-103232652D01*
X171234100Y-110823400D01*
X170944707Y-110823400D01*
X170941368Y-110789497D01*
X170922670Y-110727857D01*
X170892306Y-110671050D01*
X170851443Y-110621257D01*
X170801650Y-110580394D01*
X170744843Y-110550030D01*
X170683203Y-110531332D01*
X170619100Y-110525018D01*
X170225100Y-110525018D01*
X170225100Y-110111350D01*
X170117350Y-110003600D01*
X168719100Y-110003600D01*
X168719100Y-110826850D01*
X168826850Y-110934600D01*
X169490518Y-110934600D01*
X169490518Y-111772600D01*
X168826850Y-111772600D01*
X168719100Y-111880350D01*
X168719100Y-112703600D01*
X170117350Y-112703600D01*
X170225100Y-112595850D01*
X170225100Y-112182182D01*
X170619100Y-112182182D01*
X170683203Y-112175868D01*
X170744843Y-112157170D01*
X170801650Y-112126806D01*
X170851443Y-112085943D01*
X170892306Y-112036150D01*
X170922670Y-111979343D01*
X170941368Y-111917703D01*
X170944707Y-111883800D01*
X171234100Y-111883800D01*
X171234100Y-116231599D01*
X168017537Y-116231599D01*
X168103029Y-116196187D01*
X168293872Y-116068670D01*
X168456170Y-115906372D01*
X168583687Y-115715529D01*
X168671522Y-115503476D01*
X168716300Y-115278362D01*
X168716300Y-115048838D01*
X168671522Y-114823724D01*
X168583687Y-114611671D01*
X168456170Y-114420828D01*
X168293872Y-114258530D01*
X168103029Y-114131013D01*
X167890976Y-114043178D01*
X167665862Y-113998400D01*
X167624100Y-113998400D01*
X167624100Y-113684600D01*
X168561350Y-113684600D01*
X168669100Y-113576850D01*
X168669100Y-112753600D01*
X168719100Y-112753600D01*
X168719100Y-113576850D01*
X168826850Y-113684600D01*
X169836550Y-113684600D01*
X169919818Y-113668037D01*
X169998255Y-113635547D01*
X170068847Y-113588379D01*
X170128880Y-113528346D01*
X170176047Y-113457755D01*
X170208537Y-113379318D01*
X170225100Y-113296050D01*
X170225100Y-112861350D01*
X170117350Y-112753600D01*
X168719100Y-112753600D01*
X168669100Y-112753600D01*
X168649100Y-112753600D01*
X168649100Y-112703600D01*
X168669100Y-112703600D01*
X168669100Y-111880350D01*
X168561350Y-111772600D01*
X167624100Y-111772600D01*
X167624100Y-110934600D01*
X168561350Y-110934600D01*
X168669100Y-110826850D01*
X168669100Y-110003600D01*
X168649100Y-110003600D01*
X168649100Y-109953600D01*
X168669100Y-109953600D01*
X168669100Y-109130350D01*
X168719100Y-109130350D01*
X168719100Y-109953600D01*
X170117350Y-109953600D01*
X170225100Y-109845850D01*
X170225100Y-109411150D01*
X170208537Y-109327882D01*
X170176047Y-109249445D01*
X170128880Y-109178854D01*
X170068847Y-109118821D01*
X169998255Y-109071653D01*
X169919818Y-109039163D01*
X169836550Y-109022600D01*
X168826850Y-109022600D01*
X168719100Y-109130350D01*
X168669100Y-109130350D01*
X168561350Y-109022600D01*
X167624100Y-109022600D01*
X167624100Y-103733585D01*
X167667448Y-103704621D01*
X167776121Y-103595948D01*
X167861504Y-103468163D01*
X167920317Y-103326176D01*
X167950300Y-103175443D01*
X167950300Y-103021757D01*
X167920317Y-102871024D01*
X167861504Y-102729037D01*
X167776121Y-102601252D01*
X167667448Y-102492579D01*
X167539663Y-102407196D01*
X167397676Y-102348383D01*
X167246943Y-102318400D01*
X167093257Y-102318400D01*
X166942524Y-102348383D01*
X166800537Y-102407196D01*
X166672752Y-102492579D01*
X166564079Y-102601252D01*
X166478696Y-102729037D01*
X166419883Y-102871024D01*
X166389900Y-103021757D01*
X166389900Y-103175443D01*
X166419883Y-103326176D01*
X166478696Y-103468163D01*
X166564079Y-103595948D01*
X166672752Y-103704621D01*
X166716100Y-103733585D01*
X166716101Y-114350757D01*
X166646030Y-114420828D01*
X166518513Y-114611671D01*
X166430678Y-114823724D01*
X166385900Y-115048838D01*
X166385900Y-115278362D01*
X166430678Y-115503476D01*
X166518513Y-115715529D01*
X166646030Y-115906372D01*
X166808328Y-116068670D01*
X166999171Y-116196187D01*
X167084663Y-116231599D01*
X165477537Y-116231599D01*
X165563029Y-116196187D01*
X165753872Y-116068670D01*
X165916170Y-115906372D01*
X166043687Y-115715529D01*
X166131522Y-115503476D01*
X166176300Y-115278362D01*
X166176300Y-115048838D01*
X166131522Y-114823724D01*
X166043687Y-114611671D01*
X165916170Y-114420828D01*
X165753872Y-114258530D01*
X165563029Y-114131013D01*
X165350976Y-114043178D01*
X165125862Y-113998400D01*
X165122953Y-113998400D01*
X163315894Y-112191342D01*
X163301679Y-112174021D01*
X163232549Y-112117287D01*
X163153679Y-112075130D01*
X163068099Y-112049170D01*
X163001395Y-112042600D01*
X163001388Y-112042600D01*
X162979100Y-112040405D01*
X162956812Y-112042600D01*
X156690153Y-112042600D01*
X156348340Y-111700787D01*
X156401524Y-111722817D01*
X156552257Y-111752800D01*
X156705943Y-111752800D01*
X156856676Y-111722817D01*
X156998663Y-111664004D01*
X157126448Y-111578621D01*
X157235121Y-111469948D01*
X157279248Y-111403908D01*
X157311679Y-111394070D01*
X157390549Y-111351913D01*
X157459679Y-111295179D01*
X157473895Y-111277857D01*
X167104153Y-101647600D01*
X167744048Y-101647600D01*
X167924071Y-101827624D01*
X167913900Y-101878757D01*
X167913900Y-102032443D01*
X167943883Y-102183176D01*
X168002696Y-102325163D01*
X168088079Y-102452948D01*
X168196752Y-102561621D01*
X168231495Y-102584836D01*
X168215079Y-102601252D01*
X168129696Y-102729037D01*
X168070883Y-102871024D01*
X168040900Y-103021757D01*
X168040900Y-103175443D01*
X168070883Y-103326176D01*
X168129696Y-103468163D01*
X168215079Y-103595948D01*
X168323752Y-103704621D01*
X168451537Y-103790004D01*
X168593524Y-103848817D01*
X168744257Y-103878800D01*
X168897943Y-103878800D01*
X169048676Y-103848817D01*
X169190663Y-103790004D01*
X169318448Y-103704621D01*
X169427121Y-103595948D01*
X169512504Y-103468163D01*
X169571317Y-103326176D01*
X169601300Y-103175443D01*
X169601300Y-103021757D01*
X169591129Y-102970624D01*
X169888363Y-102673390D01*
X169905679Y-102659179D01*
X169962413Y-102590049D01*
X170004570Y-102511179D01*
X170015994Y-102473520D01*
X170030530Y-102425600D01*
X170032225Y-102408391D01*
X170037100Y-102358895D01*
X170037100Y-102358888D01*
X170039295Y-102336600D01*
X170037100Y-102314312D01*
X170037100Y-101215888D01*
X170039295Y-101193600D01*
X170037100Y-101171312D01*
X170037100Y-101171305D01*
X170031201Y-101111417D01*
X170030530Y-101104600D01*
X170004570Y-101019021D01*
X169997222Y-101005274D01*
X169962413Y-100940151D01*
X169905679Y-100871021D01*
X169888362Y-100856809D01*
X169157894Y-100126342D01*
X169143679Y-100109021D01*
X169074549Y-100052287D01*
X168995679Y-100010130D01*
X168910099Y-99984170D01*
X168843395Y-99977600D01*
X168843388Y-99977600D01*
X168821100Y-99975405D01*
X168798812Y-99977600D01*
X166938388Y-99977600D01*
X166916100Y-99975405D01*
X166893812Y-99977600D01*
X166893805Y-99977600D01*
X166835521Y-99983341D01*
X166827100Y-99984170D01*
X166773310Y-100000487D01*
X166741521Y-100010130D01*
X166662651Y-100052287D01*
X166593521Y-100109021D01*
X166579310Y-100126337D01*
X157711048Y-108994600D01*
X157518085Y-108994600D01*
X157489121Y-108951252D01*
X157380448Y-108842579D01*
X157252663Y-108757196D01*
X157110676Y-108698383D01*
X156959943Y-108668400D01*
X156806257Y-108668400D01*
X156655524Y-108698383D01*
X156513537Y-108757196D01*
X156500797Y-108765709D01*
X156490317Y-108713024D01*
X156431504Y-108571037D01*
X156346121Y-108443252D01*
X156237448Y-108334579D01*
X156109663Y-108249196D01*
X155967676Y-108190383D01*
X155816943Y-108160400D01*
X155663257Y-108160400D01*
X155512524Y-108190383D01*
X155370537Y-108249196D01*
X155242752Y-108334579D01*
X155134079Y-108443252D01*
X155048696Y-108571037D01*
X154989883Y-108713024D01*
X154959900Y-108863757D01*
X154959900Y-109017443D01*
X154989883Y-109168176D01*
X155048696Y-109310163D01*
X155134079Y-109437948D01*
X155242752Y-109546621D01*
X155286100Y-109575585D01*
X155286101Y-111712302D01*
X155283905Y-111734600D01*
X155292670Y-111823599D01*
X155318630Y-111909178D01*
X155338254Y-111945891D01*
X155355261Y-111977708D01*
X153071059Y-109693507D01*
X153071059Y-109110320D01*
X153114407Y-109081356D01*
X153223080Y-108972683D01*
X153308463Y-108844898D01*
X153367276Y-108702911D01*
X153397259Y-108552178D01*
X153397259Y-108398492D01*
X153367276Y-108247759D01*
X153326783Y-108150000D01*
X156501674Y-108150000D01*
X156523962Y-108152195D01*
X156546250Y-108150000D01*
X156546257Y-108150000D01*
X156612961Y-108143430D01*
X156698541Y-108117470D01*
X156777411Y-108075313D01*
X156846541Y-108018579D01*
X156860756Y-108001258D01*
X157260562Y-107601453D01*
X157277878Y-107587242D01*
X157334612Y-107518112D01*
X157376769Y-107439242D01*
X157392428Y-107387621D01*
X157402729Y-107353663D01*
X157404013Y-107340622D01*
X157409299Y-107286958D01*
X157409299Y-107286951D01*
X157411494Y-107264663D01*
X157409299Y-107242375D01*
X157409299Y-102558086D01*
X157411494Y-102535798D01*
X157409299Y-102513510D01*
X157409299Y-102513504D01*
X157402729Y-102446800D01*
X157395814Y-102424002D01*
X157376769Y-102361220D01*
X157363062Y-102335576D01*
X157334612Y-102282350D01*
X157306094Y-102247601D01*
X157292090Y-102230537D01*
X157292089Y-102230536D01*
X157277878Y-102213220D01*
X157272484Y-102208793D01*
X157282300Y-102159443D01*
X157282300Y-102005757D01*
X157252317Y-101855024D01*
X157193504Y-101713037D01*
X157108121Y-101585252D01*
X156999448Y-101476579D01*
X156871663Y-101391196D01*
X156729676Y-101332383D01*
X156578943Y-101302400D01*
X156425257Y-101302400D01*
X156274524Y-101332383D01*
X156259804Y-101338480D01*
X156274062Y-101304058D01*
X156302000Y-101163603D01*
X156302000Y-101020397D01*
X156274062Y-100879942D01*
X156219259Y-100747636D01*
X156139698Y-100628564D01*
X156038436Y-100527302D01*
X155919364Y-100447741D01*
X155787058Y-100392938D01*
X155646603Y-100365000D01*
X155503397Y-100365000D01*
X155362942Y-100392938D01*
X155230636Y-100447741D01*
X155111564Y-100527302D01*
X155010302Y-100628564D01*
X154930741Y-100747636D01*
X154875938Y-100879942D01*
X154848000Y-101020397D01*
X154848000Y-101163603D01*
X154875938Y-101304058D01*
X154930741Y-101436364D01*
X155010302Y-101555436D01*
X155111564Y-101656698D01*
X155123000Y-101664339D01*
X155123001Y-102496887D01*
X152796141Y-104823749D01*
X152812588Y-104741062D01*
X152812588Y-104597856D01*
X152784650Y-104457401D01*
X152729847Y-104325095D01*
X152650286Y-104206023D01*
X152549024Y-104104761D01*
X152537191Y-104096855D01*
X152627221Y-104006825D01*
X152706782Y-103887753D01*
X152761585Y-103755447D01*
X152787665Y-103624334D01*
X152886529Y-103624334D01*
X153037262Y-103594351D01*
X153179249Y-103535538D01*
X153307034Y-103450155D01*
X153415707Y-103341482D01*
X153501090Y-103213697D01*
X153559903Y-103071710D01*
X153589886Y-102920977D01*
X153589886Y-102767291D01*
X153579715Y-102716158D01*
X153599676Y-102696197D01*
X153599681Y-102696191D01*
X153632357Y-102663515D01*
X153649679Y-102649299D01*
X153706413Y-102580169D01*
X153748570Y-102501299D01*
X153774530Y-102415719D01*
X153781100Y-102349015D01*
X153781100Y-102349008D01*
X153783295Y-102326720D01*
X153781100Y-102304432D01*
X153781100Y-98968652D01*
X154658153Y-98091600D01*
X158505891Y-98091600D01*
X158528179Y-98093795D01*
X158550467Y-98091600D01*
X158550474Y-98091600D01*
X158617178Y-98085030D01*
X158702758Y-98059070D01*
X158727810Y-98045679D01*
X158798752Y-98116621D01*
X158926537Y-98202004D01*
X159068524Y-98260817D01*
X159219257Y-98290800D01*
X159372943Y-98290800D01*
X159523676Y-98260817D01*
X159665663Y-98202004D01*
X159793448Y-98116621D01*
X159902121Y-98007948D01*
X159987504Y-97880163D01*
X160046317Y-97738176D01*
X160076300Y-97587443D01*
X160076300Y-97433757D01*
X160046317Y-97283024D01*
X159987504Y-97141037D01*
X159943781Y-97075600D01*
X165750812Y-97075600D01*
X165773100Y-97077795D01*
X165795388Y-97075600D01*
X165795395Y-97075600D01*
X165862099Y-97069030D01*
X165947679Y-97043070D01*
X166026549Y-97000913D01*
X166095679Y-96944179D01*
X166109894Y-96926858D01*
X167113294Y-95923458D01*
X167211224Y-95964022D01*
X167436338Y-96008800D01*
X167665862Y-96008800D01*
X167890976Y-95964022D01*
X168103029Y-95876187D01*
X168293872Y-95748670D01*
X168456170Y-95586372D01*
X168583687Y-95395529D01*
X168671522Y-95183476D01*
X168716300Y-94958362D01*
X168716300Y-94728838D01*
X168671522Y-94503724D01*
X168583687Y-94291671D01*
X168456170Y-94100828D01*
X168293872Y-93938530D01*
X168103029Y-93811013D01*
X168017537Y-93775601D01*
X171234100Y-93775601D01*
X171234100Y-101948548D01*
G36*
X147920100Y-111287653D02*
X147920101Y-112601302D01*
X147917905Y-112623600D01*
X147926670Y-112712599D01*
X147952630Y-112798178D01*
X147952631Y-112798179D01*
X147994788Y-112877049D01*
X148051522Y-112946179D01*
X148068838Y-112960390D01*
X149233518Y-114125070D01*
X149219171Y-114131013D01*
X149028328Y-114258530D01*
X148866030Y-114420828D01*
X148738513Y-114611671D01*
X148650678Y-114823724D01*
X148605900Y-115048838D01*
X148605900Y-115278362D01*
X148650678Y-115503476D01*
X148738513Y-115715529D01*
X148866030Y-115906372D01*
X149028328Y-116068670D01*
X149219171Y-116196187D01*
X149304663Y-116231599D01*
X147697537Y-116231599D01*
X147783029Y-116196187D01*
X147973872Y-116068670D01*
X148136170Y-115906372D01*
X148263687Y-115715529D01*
X148351522Y-115503476D01*
X148396300Y-115278362D01*
X148396300Y-115048838D01*
X148351522Y-114823724D01*
X148263687Y-114611671D01*
X148136170Y-114420828D01*
X147973872Y-114258530D01*
X147783029Y-114131013D01*
X147570976Y-114043178D01*
X147345862Y-113998400D01*
X147116338Y-113998400D01*
X146891224Y-114043178D01*
X146679171Y-114131013D01*
X146488328Y-114258530D01*
X146326030Y-114420828D01*
X146198513Y-114611671D01*
X146110678Y-114823724D01*
X146065900Y-115048838D01*
X146065900Y-115278362D01*
X146110678Y-115503476D01*
X146198513Y-115715529D01*
X146326030Y-115906372D01*
X146488328Y-116068670D01*
X146679171Y-116196187D01*
X146764663Y-116231599D01*
X145157537Y-116231599D01*
X145243029Y-116196187D01*
X145433872Y-116068670D01*
X145596170Y-115906372D01*
X145723687Y-115715529D01*
X145811522Y-115503476D01*
X145856300Y-115278362D01*
X145856300Y-115048838D01*
X145811522Y-114823724D01*
X145723687Y-114611671D01*
X145596170Y-114420828D01*
X145433872Y-114258530D01*
X145243029Y-114131013D01*
X145030976Y-114043178D01*
X144805862Y-113998400D01*
X144576338Y-113998400D01*
X144351224Y-114043178D01*
X144139171Y-114131013D01*
X143948328Y-114258530D01*
X143786030Y-114420828D01*
X143658513Y-114611671D01*
X143570678Y-114823724D01*
X143525900Y-115048838D01*
X143525900Y-115278362D01*
X143570678Y-115503476D01*
X143658513Y-115715529D01*
X143786030Y-115906372D01*
X143948328Y-116068670D01*
X144139171Y-116196187D01*
X144224663Y-116231599D01*
X142617537Y-116231599D01*
X142703029Y-116196187D01*
X142893872Y-116068670D01*
X143056170Y-115906372D01*
X143183687Y-115715529D01*
X143271522Y-115503476D01*
X143316300Y-115278362D01*
X143316300Y-115048838D01*
X143271522Y-114823724D01*
X143183687Y-114611671D01*
X143056170Y-114420828D01*
X142893872Y-114258530D01*
X142703029Y-114131013D01*
X142490976Y-114043178D01*
X142265862Y-113998400D01*
X142036338Y-113998400D01*
X141811224Y-114043178D01*
X141599171Y-114131013D01*
X141408328Y-114258530D01*
X141246030Y-114420828D01*
X141118513Y-114611671D01*
X141030678Y-114823724D01*
X140985900Y-115048838D01*
X140985900Y-115278362D01*
X141030678Y-115503476D01*
X141118513Y-115715529D01*
X141246030Y-115906372D01*
X141408328Y-116068670D01*
X141599171Y-116196187D01*
X141684663Y-116231599D01*
X140077537Y-116231599D01*
X140163029Y-116196187D01*
X140353872Y-116068670D01*
X140516170Y-115906372D01*
X140643687Y-115715529D01*
X140731522Y-115503476D01*
X140776300Y-115278362D01*
X140776300Y-115048838D01*
X140731522Y-114823724D01*
X140643687Y-114611671D01*
X140516170Y-114420828D01*
X140353872Y-114258530D01*
X140163029Y-114131013D01*
X139950976Y-114043178D01*
X139725862Y-113998400D01*
X139496338Y-113998400D01*
X139271224Y-114043178D01*
X139059171Y-114131013D01*
X138868328Y-114258530D01*
X138706030Y-114420828D01*
X138578513Y-114611671D01*
X138490678Y-114823724D01*
X138445900Y-115048838D01*
X138445900Y-115278362D01*
X138490678Y-115503476D01*
X138578513Y-115715529D01*
X138706030Y-115906372D01*
X138868328Y-116068670D01*
X139059171Y-116196187D01*
X139144663Y-116231599D01*
X137767837Y-116231599D01*
X137800358Y-116209869D01*
X137878844Y-116006700D01*
X137071100Y-115198955D01*
X136263356Y-116006700D01*
X136341842Y-116209869D01*
X136380641Y-116231599D01*
X134997537Y-116231599D01*
X135083029Y-116196187D01*
X135273872Y-116068670D01*
X135436170Y-115906372D01*
X135563687Y-115715529D01*
X135651522Y-115503476D01*
X135696300Y-115278362D01*
X135696300Y-115138520D01*
X135796004Y-115138520D01*
X135815612Y-115387761D01*
X135883468Y-115628388D01*
X135996964Y-115851152D01*
X136024831Y-115892858D01*
X136228000Y-115971344D01*
X137035745Y-115163600D01*
X137106455Y-115163600D01*
X137914200Y-115971344D01*
X138117369Y-115892858D01*
X138239537Y-115674729D01*
X138316802Y-115436957D01*
X138346196Y-115188680D01*
X138326588Y-114939439D01*
X138258732Y-114698812D01*
X138145236Y-114476048D01*
X138117369Y-114434342D01*
X137914200Y-114355856D01*
X137106455Y-115163600D01*
X137035745Y-115163600D01*
X136228000Y-114355856D01*
X136024831Y-114434342D01*
X135902663Y-114652471D01*
X135825398Y-114890243D01*
X135796004Y-115138520D01*
X135696300Y-115138520D01*
X135696300Y-115048838D01*
X135651522Y-114823724D01*
X135563687Y-114611671D01*
X135475725Y-114480027D01*
X135635252Y-114320500D01*
X136263356Y-114320500D01*
X137071100Y-115128245D01*
X137878844Y-114320500D01*
X137800358Y-114117331D01*
X137582229Y-113995163D01*
X137344457Y-113917898D01*
X137096180Y-113888504D01*
X136846939Y-113908112D01*
X136606312Y-113975968D01*
X136383548Y-114089464D01*
X136341842Y-114117331D01*
X136263356Y-114320500D01*
X135635252Y-114320500D01*
X136370153Y-113585600D01*
X143398812Y-113585600D01*
X143421100Y-113587795D01*
X143443388Y-113585600D01*
X143443395Y-113585600D01*
X143510099Y-113579030D01*
X143595679Y-113553070D01*
X143674549Y-113510913D01*
X143743679Y-113454179D01*
X143757894Y-113436858D01*
X145006153Y-112188600D01*
X145453115Y-112188600D01*
X145482079Y-112231948D01*
X145492307Y-112242176D01*
X145402943Y-112224400D01*
X145249257Y-112224400D01*
X145098524Y-112254383D01*
X144956537Y-112313196D01*
X144828752Y-112398579D01*
X144720079Y-112507252D01*
X144634696Y-112635037D01*
X144575883Y-112777024D01*
X144545900Y-112927757D01*
X144545900Y-113081443D01*
X144575883Y-113232176D01*
X144634696Y-113374163D01*
X144720079Y-113501948D01*
X144828752Y-113610621D01*
X144956537Y-113696004D01*
X145098524Y-113754817D01*
X145249257Y-113784800D01*
X145402943Y-113784800D01*
X145553676Y-113754817D01*
X145695663Y-113696004D01*
X145823448Y-113610621D01*
X145899269Y-113534800D01*
X146824060Y-113534800D01*
X146850100Y-113537365D01*
X146876140Y-113534800D01*
X146876143Y-113534800D01*
X146954037Y-113527128D01*
X147053980Y-113496811D01*
X147146088Y-113447578D01*
X147226822Y-113381322D01*
X147243429Y-113361086D01*
X147587591Y-113016925D01*
X147607822Y-113000322D01*
X147674078Y-112919588D01*
X147716952Y-112839377D01*
X147723310Y-112827482D01*
X147732199Y-112798179D01*
X147753628Y-112727537D01*
X147761300Y-112649643D01*
X147761300Y-112649641D01*
X147763865Y-112623601D01*
X147761300Y-112597561D01*
X147761300Y-111375643D01*
X147763865Y-111349600D01*
X147753628Y-111245662D01*
X147736318Y-111188599D01*
X147723311Y-111145720D01*
X147674078Y-111053612D01*
X147619247Y-110986800D01*
X147920100Y-111287653D01*
X147920100Y-111287653D01*
G37*
X147920100Y-111287653D02*
X147920101Y-112601302D01*
X147917905Y-112623600D01*
X147926670Y-112712599D01*
X147952630Y-112798178D01*
X147952631Y-112798179D01*
X147994788Y-112877049D01*
X148051522Y-112946179D01*
X148068838Y-112960390D01*
X149233518Y-114125070D01*
X149219171Y-114131013D01*
X149028328Y-114258530D01*
X148866030Y-114420828D01*
X148738513Y-114611671D01*
X148650678Y-114823724D01*
X148605900Y-115048838D01*
X148605900Y-115278362D01*
X148650678Y-115503476D01*
X148738513Y-115715529D01*
X148866030Y-115906372D01*
X149028328Y-116068670D01*
X149219171Y-116196187D01*
X149304663Y-116231599D01*
X147697537Y-116231599D01*
X147783029Y-116196187D01*
X147973872Y-116068670D01*
X148136170Y-115906372D01*
X148263687Y-115715529D01*
X148351522Y-115503476D01*
X148396300Y-115278362D01*
X148396300Y-115048838D01*
X148351522Y-114823724D01*
X148263687Y-114611671D01*
X148136170Y-114420828D01*
X147973872Y-114258530D01*
X147783029Y-114131013D01*
X147570976Y-114043178D01*
X147345862Y-113998400D01*
X147116338Y-113998400D01*
X146891224Y-114043178D01*
X146679171Y-114131013D01*
X146488328Y-114258530D01*
X146326030Y-114420828D01*
X146198513Y-114611671D01*
X146110678Y-114823724D01*
X146065900Y-115048838D01*
X146065900Y-115278362D01*
X146110678Y-115503476D01*
X146198513Y-115715529D01*
X146326030Y-115906372D01*
X146488328Y-116068670D01*
X146679171Y-116196187D01*
X146764663Y-116231599D01*
X145157537Y-116231599D01*
X145243029Y-116196187D01*
X145433872Y-116068670D01*
X145596170Y-115906372D01*
X145723687Y-115715529D01*
X145811522Y-115503476D01*
X145856300Y-115278362D01*
X145856300Y-115048838D01*
X145811522Y-114823724D01*
X145723687Y-114611671D01*
X145596170Y-114420828D01*
X145433872Y-114258530D01*
X145243029Y-114131013D01*
X145030976Y-114043178D01*
X144805862Y-113998400D01*
X144576338Y-113998400D01*
X144351224Y-114043178D01*
X144139171Y-114131013D01*
X143948328Y-114258530D01*
X143786030Y-114420828D01*
X143658513Y-114611671D01*
X143570678Y-114823724D01*
X143525900Y-115048838D01*
X143525900Y-115278362D01*
X143570678Y-115503476D01*
X143658513Y-115715529D01*
X143786030Y-115906372D01*
X143948328Y-116068670D01*
X144139171Y-116196187D01*
X144224663Y-116231599D01*
X142617537Y-116231599D01*
X142703029Y-116196187D01*
X142893872Y-116068670D01*
X143056170Y-115906372D01*
X143183687Y-115715529D01*
X143271522Y-115503476D01*
X143316300Y-115278362D01*
X143316300Y-115048838D01*
X143271522Y-114823724D01*
X143183687Y-114611671D01*
X143056170Y-114420828D01*
X142893872Y-114258530D01*
X142703029Y-114131013D01*
X142490976Y-114043178D01*
X142265862Y-113998400D01*
X142036338Y-113998400D01*
X141811224Y-114043178D01*
X141599171Y-114131013D01*
X141408328Y-114258530D01*
X141246030Y-114420828D01*
X141118513Y-114611671D01*
X141030678Y-114823724D01*
X140985900Y-115048838D01*
X140985900Y-115278362D01*
X141030678Y-115503476D01*
X141118513Y-115715529D01*
X141246030Y-115906372D01*
X141408328Y-116068670D01*
X141599171Y-116196187D01*
X141684663Y-116231599D01*
X140077537Y-116231599D01*
X140163029Y-116196187D01*
X140353872Y-116068670D01*
X140516170Y-115906372D01*
X140643687Y-115715529D01*
X140731522Y-115503476D01*
X140776300Y-115278362D01*
X140776300Y-115048838D01*
X140731522Y-114823724D01*
X140643687Y-114611671D01*
X140516170Y-114420828D01*
X140353872Y-114258530D01*
X140163029Y-114131013D01*
X139950976Y-114043178D01*
X139725862Y-113998400D01*
X139496338Y-113998400D01*
X139271224Y-114043178D01*
X139059171Y-114131013D01*
X138868328Y-114258530D01*
X138706030Y-114420828D01*
X138578513Y-114611671D01*
X138490678Y-114823724D01*
X138445900Y-115048838D01*
X138445900Y-115278362D01*
X138490678Y-115503476D01*
X138578513Y-115715529D01*
X138706030Y-115906372D01*
X138868328Y-116068670D01*
X139059171Y-116196187D01*
X139144663Y-116231599D01*
X137767837Y-116231599D01*
X137800358Y-116209869D01*
X137878844Y-116006700D01*
X137071100Y-115198955D01*
X136263356Y-116006700D01*
X136341842Y-116209869D01*
X136380641Y-116231599D01*
X134997537Y-116231599D01*
X135083029Y-116196187D01*
X135273872Y-116068670D01*
X135436170Y-115906372D01*
X135563687Y-115715529D01*
X135651522Y-115503476D01*
X135696300Y-115278362D01*
X135696300Y-115138520D01*
X135796004Y-115138520D01*
X135815612Y-115387761D01*
X135883468Y-115628388D01*
X135996964Y-115851152D01*
X136024831Y-115892858D01*
X136228000Y-115971344D01*
X137035745Y-115163600D01*
X137106455Y-115163600D01*
X137914200Y-115971344D01*
X138117369Y-115892858D01*
X138239537Y-115674729D01*
X138316802Y-115436957D01*
X138346196Y-115188680D01*
X138326588Y-114939439D01*
X138258732Y-114698812D01*
X138145236Y-114476048D01*
X138117369Y-114434342D01*
X137914200Y-114355856D01*
X137106455Y-115163600D01*
X137035745Y-115163600D01*
X136228000Y-114355856D01*
X136024831Y-114434342D01*
X135902663Y-114652471D01*
X135825398Y-114890243D01*
X135796004Y-115138520D01*
X135696300Y-115138520D01*
X135696300Y-115048838D01*
X135651522Y-114823724D01*
X135563687Y-114611671D01*
X135475725Y-114480027D01*
X135635252Y-114320500D01*
X136263356Y-114320500D01*
X137071100Y-115128245D01*
X137878844Y-114320500D01*
X137800358Y-114117331D01*
X137582229Y-113995163D01*
X137344457Y-113917898D01*
X137096180Y-113888504D01*
X136846939Y-113908112D01*
X136606312Y-113975968D01*
X136383548Y-114089464D01*
X136341842Y-114117331D01*
X136263356Y-114320500D01*
X135635252Y-114320500D01*
X136370153Y-113585600D01*
X143398812Y-113585600D01*
X143421100Y-113587795D01*
X143443388Y-113585600D01*
X143443395Y-113585600D01*
X143510099Y-113579030D01*
X143595679Y-113553070D01*
X143674549Y-113510913D01*
X143743679Y-113454179D01*
X143757894Y-113436858D01*
X145006153Y-112188600D01*
X145453115Y-112188600D01*
X145482079Y-112231948D01*
X145492307Y-112242176D01*
X145402943Y-112224400D01*
X145249257Y-112224400D01*
X145098524Y-112254383D01*
X144956537Y-112313196D01*
X144828752Y-112398579D01*
X144720079Y-112507252D01*
X144634696Y-112635037D01*
X144575883Y-112777024D01*
X144545900Y-112927757D01*
X144545900Y-113081443D01*
X144575883Y-113232176D01*
X144634696Y-113374163D01*
X144720079Y-113501948D01*
X144828752Y-113610621D01*
X144956537Y-113696004D01*
X145098524Y-113754817D01*
X145249257Y-113784800D01*
X145402943Y-113784800D01*
X145553676Y-113754817D01*
X145695663Y-113696004D01*
X145823448Y-113610621D01*
X145899269Y-113534800D01*
X146824060Y-113534800D01*
X146850100Y-113537365D01*
X146876140Y-113534800D01*
X146876143Y-113534800D01*
X146954037Y-113527128D01*
X147053980Y-113496811D01*
X147146088Y-113447578D01*
X147226822Y-113381322D01*
X147243429Y-113361086D01*
X147587591Y-113016925D01*
X147607822Y-113000322D01*
X147674078Y-112919588D01*
X147716952Y-112839377D01*
X147723310Y-112827482D01*
X147732199Y-112798179D01*
X147753628Y-112727537D01*
X147761300Y-112649643D01*
X147761300Y-112649641D01*
X147763865Y-112623601D01*
X147761300Y-112597561D01*
X147761300Y-111375643D01*
X147763865Y-111349600D01*
X147753628Y-111245662D01*
X147736318Y-111188599D01*
X147723311Y-111145720D01*
X147674078Y-111053612D01*
X147619247Y-110986800D01*
X147920100Y-111287653D01*
G36*
X127048752Y-93856579D02*
X126940079Y-93965252D01*
X126854696Y-94093037D01*
X126795883Y-94235024D01*
X126765900Y-94385757D01*
X126765900Y-94539443D01*
X126767768Y-94548832D01*
X126553877Y-94405915D01*
X126203185Y-94260653D01*
X125830893Y-94186600D01*
X125451307Y-94186600D01*
X125079015Y-94260653D01*
X124728323Y-94405915D01*
X124412709Y-94616801D01*
X124144301Y-94885209D01*
X123933415Y-95200823D01*
X123788153Y-95551515D01*
X123714100Y-95923807D01*
X123714100Y-96303393D01*
X123788153Y-96675685D01*
X123933415Y-97026377D01*
X124144301Y-97341991D01*
X124412709Y-97610399D01*
X124728323Y-97821285D01*
X125079015Y-97966547D01*
X125451307Y-98040600D01*
X125830893Y-98040600D01*
X126203185Y-97966547D01*
X126553877Y-97821285D01*
X126869491Y-97610399D01*
X127137899Y-97341991D01*
X127348785Y-97026377D01*
X127494047Y-96675685D01*
X127568100Y-96303393D01*
X127568100Y-95952152D01*
X128441210Y-96825263D01*
X128455421Y-96842579D01*
X128524551Y-96899313D01*
X128599949Y-96939614D01*
X128603421Y-96941470D01*
X128689000Y-96967430D01*
X128697421Y-96968259D01*
X128755705Y-96974000D01*
X128755712Y-96974000D01*
X128778000Y-96976195D01*
X128800288Y-96974000D01*
X135304775Y-96974000D01*
X135048099Y-97230677D01*
X135030841Y-97244841D01*
X134974357Y-97313668D01*
X134936978Y-97383600D01*
X134932386Y-97392191D01*
X134906540Y-97477393D01*
X134897813Y-97566000D01*
X134900000Y-97588205D01*
X134900000Y-97806465D01*
X134869450Y-97822794D01*
X134852000Y-97837114D01*
X134834550Y-97822794D01*
X134777743Y-97792430D01*
X134716103Y-97773732D01*
X134652000Y-97767418D01*
X134052000Y-97767418D01*
X133987897Y-97773732D01*
X133926257Y-97792430D01*
X133869450Y-97822794D01*
X133852000Y-97837114D01*
X133834550Y-97822794D01*
X133777743Y-97792430D01*
X133716103Y-97773732D01*
X133652000Y-97767418D01*
X133052000Y-97767418D01*
X132987897Y-97773732D01*
X132950578Y-97785052D01*
X132926747Y-97761221D01*
X132856155Y-97714053D01*
X132777718Y-97681563D01*
X132694450Y-97665000D01*
X132484750Y-97665000D01*
X132377000Y-97772750D01*
X132377000Y-98846000D01*
X132397000Y-98846000D01*
X132397000Y-98896000D01*
X132377000Y-98896000D01*
X132377000Y-99969250D01*
X132484750Y-100077000D01*
X132694450Y-100077000D01*
X132777718Y-100060437D01*
X132821800Y-100042177D01*
X132821800Y-100559960D01*
X132819235Y-100586000D01*
X132821800Y-100612040D01*
X132821800Y-100612042D01*
X132829472Y-100689936D01*
X132859789Y-100789879D01*
X132909022Y-100881988D01*
X132975278Y-100962722D01*
X132995513Y-100979329D01*
X133324095Y-101307912D01*
X133340694Y-101328138D01*
X133360919Y-101344736D01*
X133360922Y-101344739D01*
X133397612Y-101374849D01*
X133421428Y-101394394D01*
X133513536Y-101443627D01*
X133613479Y-101473944D01*
X133691373Y-101481616D01*
X133691375Y-101481616D01*
X133717415Y-101484181D01*
X133743455Y-101481616D01*
X135931123Y-101481616D01*
X135900648Y-101501979D01*
X135791975Y-101610652D01*
X135761675Y-101656000D01*
X130279795Y-101656000D01*
X130257550Y-101658191D01*
X130213100Y-101653813D01*
X130124492Y-101662540D01*
X130039290Y-101688386D01*
X129960767Y-101730358D01*
X129909189Y-101772687D01*
X129161614Y-102520263D01*
X129128522Y-102547421D01*
X129071788Y-102616551D01*
X129029631Y-102695421D01*
X129003671Y-102781001D01*
X128997101Y-102847705D01*
X128997101Y-102868091D01*
X128996913Y-102870000D01*
X128997101Y-102871909D01*
X128997101Y-107430217D01*
X128856998Y-107352582D01*
X128663568Y-107290694D01*
X128461782Y-107267730D01*
X128259392Y-107284575D01*
X128110660Y-107327245D01*
X128146050Y-107274280D01*
X128197084Y-107151074D01*
X128223100Y-107020279D01*
X128223100Y-106886921D01*
X128197084Y-106756126D01*
X128146050Y-106632920D01*
X128071960Y-106522037D01*
X127977663Y-106427740D01*
X127866780Y-106353650D01*
X127743574Y-106302616D01*
X127612779Y-106276600D01*
X127479421Y-106276600D01*
X127348626Y-106302616D01*
X127225420Y-106353650D01*
X127114537Y-106427740D01*
X127020240Y-106522037D01*
X126946150Y-106632920D01*
X126895116Y-106756126D01*
X126869100Y-106886921D01*
X126869100Y-106922600D01*
X125778850Y-106922600D01*
X125671100Y-107030350D01*
X125671100Y-107976599D01*
X125621100Y-107976599D01*
X125621100Y-107030350D01*
X125513350Y-106922600D01*
X124353650Y-106922600D01*
X124270382Y-106939163D01*
X124191945Y-106971653D01*
X124121353Y-107018821D01*
X124061320Y-107078854D01*
X124014153Y-107149445D01*
X123981663Y-107227882D01*
X123965100Y-107311150D01*
X123965100Y-108470850D01*
X124072850Y-108578600D01*
X124818371Y-108578600D01*
X124818937Y-108599864D01*
X124818860Y-108600448D01*
X124818794Y-108602918D01*
X124818290Y-108628600D01*
X124072850Y-108628600D01*
X123965100Y-108736350D01*
X123965100Y-109896050D01*
X123981663Y-109979318D01*
X124014153Y-110057755D01*
X124061320Y-110128346D01*
X124121353Y-110188379D01*
X124191945Y-110235547D01*
X124270382Y-110268037D01*
X124353650Y-110284600D01*
X125513350Y-110284600D01*
X125621100Y-110176850D01*
X125621100Y-109230601D01*
X125671100Y-109230601D01*
X125671100Y-110176850D01*
X125778850Y-110284600D01*
X126938550Y-110284600D01*
X127021818Y-110268037D01*
X127100255Y-110235547D01*
X127170847Y-110188379D01*
X127230880Y-110128346D01*
X127278047Y-110057755D01*
X127310537Y-109979318D01*
X127327100Y-109896050D01*
X127327100Y-108736350D01*
X127219350Y-108628600D01*
X126473829Y-108628600D01*
X126473263Y-108607336D01*
X126473340Y-108606752D01*
X126473406Y-108604282D01*
X126473910Y-108578600D01*
X127219350Y-108578600D01*
X127327100Y-108470850D01*
X127327100Y-107595668D01*
X127348626Y-107604584D01*
X127479421Y-107630600D01*
X127612779Y-107630600D01*
X127717010Y-107609868D01*
X127772295Y-107665153D01*
X127593517Y-107715064D01*
X127495082Y-107892702D01*
X127433194Y-108086132D01*
X127410230Y-108287918D01*
X127427075Y-108490308D01*
X127483080Y-108685523D01*
X127576093Y-108866060D01*
X127593517Y-108892136D01*
X127772297Y-108942048D01*
X128410745Y-108303600D01*
X128396603Y-108289458D01*
X128431958Y-108254103D01*
X128446100Y-108268245D01*
X128460243Y-108254103D01*
X128495598Y-108289458D01*
X128481455Y-108303600D01*
X128495598Y-108317743D01*
X128460243Y-108353098D01*
X128446100Y-108338955D01*
X127807652Y-108977403D01*
X127857564Y-109156183D01*
X128035202Y-109254618D01*
X128228632Y-109316506D01*
X128430418Y-109339470D01*
X128632808Y-109322625D01*
X128828023Y-109266620D01*
X128997100Y-109179511D01*
X128997100Y-112220312D01*
X128994905Y-112242600D01*
X128997100Y-112264888D01*
X128997100Y-112264894D01*
X129002727Y-112322021D01*
X129003670Y-112331599D01*
X129023449Y-112396801D01*
X129029630Y-112417178D01*
X129071787Y-112496048D01*
X129128521Y-112565179D01*
X129145842Y-112579394D01*
X129951071Y-113384624D01*
X129940900Y-113435757D01*
X129940900Y-113589443D01*
X129970883Y-113740176D01*
X130029696Y-113882163D01*
X130115079Y-114009948D01*
X130223752Y-114118621D01*
X130351537Y-114204004D01*
X130493524Y-114262817D01*
X130644257Y-114292800D01*
X130797943Y-114292800D01*
X130948676Y-114262817D01*
X131090663Y-114204004D01*
X131218448Y-114118621D01*
X131327121Y-114009948D01*
X131412504Y-113882163D01*
X131471317Y-113740176D01*
X131501300Y-113589443D01*
X131501300Y-113435757D01*
X131471317Y-113285024D01*
X131412504Y-113143037D01*
X131327121Y-113015252D01*
X131218448Y-112906579D01*
X131090663Y-112821196D01*
X130948676Y-112762383D01*
X130797943Y-112732400D01*
X130644257Y-112732400D01*
X130593124Y-112742571D01*
X129905100Y-112054548D01*
X129905100Y-103055223D01*
X130400324Y-102560000D01*
X135761675Y-102560000D01*
X135791975Y-102605348D01*
X135900648Y-102714021D01*
X136028433Y-102799404D01*
X136170420Y-102858217D01*
X136321153Y-102888200D01*
X136474839Y-102888200D01*
X136625572Y-102858217D01*
X136767559Y-102799404D01*
X136895344Y-102714021D01*
X137004017Y-102605348D01*
X137089400Y-102477563D01*
X137148213Y-102335576D01*
X137178196Y-102184843D01*
X137178196Y-102031157D01*
X137148213Y-101880424D01*
X137089400Y-101738437D01*
X137084842Y-101731616D01*
X137114758Y-101731616D01*
X137265491Y-101701633D01*
X137407478Y-101642820D01*
X137535263Y-101557437D01*
X137611084Y-101481616D01*
X142545468Y-101481616D01*
X142532115Y-101501600D01*
X140649388Y-101501600D01*
X140627100Y-101499405D01*
X140604812Y-101501600D01*
X140604805Y-101501600D01*
X140546521Y-101507341D01*
X140538100Y-101508170D01*
X140466304Y-101529949D01*
X140452521Y-101534130D01*
X140373651Y-101576287D01*
X140304521Y-101633021D01*
X140290310Y-101650337D01*
X139502300Y-102438347D01*
X139502300Y-102386757D01*
X139472317Y-102236024D01*
X139413504Y-102094037D01*
X139328121Y-101966252D01*
X139219448Y-101857579D01*
X139091663Y-101772196D01*
X138949676Y-101713383D01*
X138798943Y-101683400D01*
X138645257Y-101683400D01*
X138494524Y-101713383D01*
X138352537Y-101772196D01*
X138224752Y-101857579D01*
X138144656Y-101937675D01*
X138110163Y-101941072D01*
X138010220Y-101971389D01*
X137918112Y-102020622D01*
X137837378Y-102086878D01*
X137820775Y-102107109D01*
X136724485Y-103203400D01*
X133414143Y-103203400D01*
X133388100Y-103200835D01*
X133284162Y-103211072D01*
X133253845Y-103220269D01*
X133184220Y-103241389D01*
X133092112Y-103290622D01*
X133011378Y-103356878D01*
X132994776Y-103377108D01*
X132656484Y-103715400D01*
X132549257Y-103715400D01*
X132398524Y-103745383D01*
X132256537Y-103804196D01*
X132128752Y-103889579D01*
X132020079Y-103998252D01*
X131934696Y-104126037D01*
X131875883Y-104268024D01*
X131845900Y-104418757D01*
X131845900Y-104572443D01*
X131875883Y-104723176D01*
X131934696Y-104865163D01*
X132020079Y-104992948D01*
X132128752Y-105101621D01*
X132256537Y-105187004D01*
X132398524Y-105245817D01*
X132549257Y-105275800D01*
X132702943Y-105275800D01*
X132853676Y-105245817D01*
X132995663Y-105187004D01*
X133123448Y-105101621D01*
X133232121Y-104992948D01*
X133317504Y-104865163D01*
X133376317Y-104723176D01*
X133406300Y-104572443D01*
X133406300Y-104465216D01*
X133607716Y-104263800D01*
X136918060Y-104263800D01*
X136944100Y-104266365D01*
X136970140Y-104263800D01*
X136970143Y-104263800D01*
X137048037Y-104256128D01*
X137147980Y-104225811D01*
X137240088Y-104176578D01*
X137320822Y-104110322D01*
X137337429Y-104090086D01*
X138304565Y-103122950D01*
X138352537Y-103155004D01*
X138494524Y-103213817D01*
X138645257Y-103243800D01*
X138696847Y-103243800D01*
X135486048Y-106454600D01*
X132052153Y-106454600D01*
X131745129Y-106147576D01*
X131755300Y-106096443D01*
X131755300Y-105942757D01*
X131725317Y-105792024D01*
X131666504Y-105650037D01*
X131581121Y-105522252D01*
X131472448Y-105413579D01*
X131344663Y-105328196D01*
X131202676Y-105269383D01*
X131051943Y-105239400D01*
X130898257Y-105239400D01*
X130747524Y-105269383D01*
X130605537Y-105328196D01*
X130477752Y-105413579D01*
X130369079Y-105522252D01*
X130283696Y-105650037D01*
X130224883Y-105792024D01*
X130194900Y-105942757D01*
X130194900Y-106096443D01*
X130224883Y-106247176D01*
X130283696Y-106389163D01*
X130369079Y-106516948D01*
X130477752Y-106625621D01*
X130521122Y-106654600D01*
X130477752Y-106683579D01*
X130369079Y-106792252D01*
X130283696Y-106920037D01*
X130224883Y-107062024D01*
X130194900Y-107212757D01*
X130194900Y-107366443D01*
X130224883Y-107517176D01*
X130283696Y-107659163D01*
X130369079Y-107786948D01*
X130477752Y-107895621D01*
X130605537Y-107981004D01*
X130747524Y-108039817D01*
X130898257Y-108069800D01*
X131051943Y-108069800D01*
X131202676Y-108039817D01*
X131304597Y-107997600D01*
X135778812Y-107997600D01*
X135801100Y-107999795D01*
X135823388Y-107997600D01*
X135823395Y-107997600D01*
X135890099Y-107991030D01*
X135975679Y-107965070D01*
X136054549Y-107922913D01*
X136123679Y-107866179D01*
X136137895Y-107848857D01*
X140688153Y-103298600D01*
X143652812Y-103298600D01*
X143675100Y-103300795D01*
X143697388Y-103298600D01*
X143697395Y-103298600D01*
X143764099Y-103292030D01*
X143849679Y-103266070D01*
X143928549Y-103223913D01*
X143997679Y-103167179D01*
X144011894Y-103149858D01*
X144182124Y-102979629D01*
X144233257Y-102989800D01*
X144386943Y-102989800D01*
X144537676Y-102959817D01*
X144679663Y-102901004D01*
X144807448Y-102815621D01*
X144916121Y-102706948D01*
X145001504Y-102579163D01*
X145049900Y-102462324D01*
X145049901Y-103834548D01*
X145049900Y-103834557D01*
X145047335Y-103860600D01*
X145049900Y-103886641D01*
X145049901Y-104656983D01*
X144217485Y-105489400D01*
X143193142Y-105489400D01*
X143167100Y-105486835D01*
X143147209Y-105488794D01*
X143156448Y-105482621D01*
X143265121Y-105373948D01*
X143350504Y-105246163D01*
X143409317Y-105104176D01*
X143439300Y-104953443D01*
X143439300Y-104799757D01*
X143409317Y-104649024D01*
X143350504Y-104507037D01*
X143265121Y-104379252D01*
X143156448Y-104270579D01*
X143028663Y-104185196D01*
X142886676Y-104126383D01*
X142735943Y-104096400D01*
X142582257Y-104096400D01*
X142431524Y-104126383D01*
X142289537Y-104185196D01*
X142161752Y-104270579D01*
X142053079Y-104379252D01*
X141967696Y-104507037D01*
X141908883Y-104649024D01*
X141878900Y-104799757D01*
X141878900Y-104930600D01*
X139633388Y-104930600D01*
X139611100Y-104928405D01*
X139588812Y-104930600D01*
X139588805Y-104930600D01*
X139530521Y-104936341D01*
X139522100Y-104937170D01*
X139468455Y-104953443D01*
X139436521Y-104963130D01*
X139357651Y-105005287D01*
X139288521Y-105062021D01*
X139274310Y-105079337D01*
X137400839Y-106952809D01*
X137383522Y-106967021D01*
X137326788Y-107036151D01*
X137305916Y-107075199D01*
X137284630Y-107115022D01*
X137258670Y-107200601D01*
X137249905Y-107289600D01*
X137252101Y-107311898D01*
X137252100Y-108879547D01*
X136629048Y-109502600D01*
X133156388Y-109502600D01*
X133134100Y-109500405D01*
X133111812Y-109502600D01*
X133111805Y-109502600D01*
X133053521Y-109508341D01*
X133045100Y-109509170D01*
X132991455Y-109525443D01*
X132959521Y-109535130D01*
X132880651Y-109577287D01*
X132811521Y-109634021D01*
X132797310Y-109651337D01*
X132500076Y-109948571D01*
X132448943Y-109938400D01*
X132295257Y-109938400D01*
X132144524Y-109968383D01*
X132002537Y-110027196D01*
X131874752Y-110112579D01*
X131766079Y-110221252D01*
X131680696Y-110349037D01*
X131621883Y-110491024D01*
X131591900Y-110641757D01*
X131591900Y-110795443D01*
X131621883Y-110946176D01*
X131680696Y-111088163D01*
X131766079Y-111215948D01*
X131874752Y-111324621D01*
X132002537Y-111410004D01*
X132144524Y-111468817D01*
X132295257Y-111498800D01*
X132448943Y-111498800D01*
X132599676Y-111468817D01*
X132741663Y-111410004D01*
X132869448Y-111324621D01*
X132978121Y-111215948D01*
X133063504Y-111088163D01*
X133122317Y-110946176D01*
X133152300Y-110795443D01*
X133152300Y-110641757D01*
X133142129Y-110590624D01*
X133322153Y-110410600D01*
X136794812Y-110410600D01*
X136817100Y-110412795D01*
X136839388Y-110410600D01*
X136839395Y-110410600D01*
X136906099Y-110404030D01*
X136991679Y-110378070D01*
X137070549Y-110335913D01*
X137139679Y-110279179D01*
X137153894Y-110261858D01*
X138011364Y-109404389D01*
X138028679Y-109390179D01*
X138085413Y-109321049D01*
X138127570Y-109242179D01*
X138131201Y-109230208D01*
X138153530Y-109156600D01*
X138155977Y-109131753D01*
X138160100Y-109089895D01*
X138160100Y-109089888D01*
X138162295Y-109067600D01*
X138160100Y-109045312D01*
X138160100Y-107477652D01*
X138716411Y-106921341D01*
X138733883Y-107009176D01*
X138792696Y-107151163D01*
X138878079Y-107278948D01*
X138986752Y-107387621D01*
X139114537Y-107473004D01*
X139256524Y-107531817D01*
X139407257Y-107561800D01*
X139560943Y-107561800D01*
X139711676Y-107531817D01*
X139853663Y-107473004D01*
X139981448Y-107387621D01*
X140090121Y-107278948D01*
X140175504Y-107151163D01*
X140234317Y-107009176D01*
X140259390Y-106883125D01*
X140592716Y-106549800D01*
X142636900Y-106549800D01*
X142636900Y-107564863D01*
X142520663Y-107487196D01*
X142378676Y-107428383D01*
X142227943Y-107398400D01*
X142074257Y-107398400D01*
X141923524Y-107428383D01*
X141781537Y-107487196D01*
X141653752Y-107572579D01*
X141545079Y-107681252D01*
X141459696Y-107809037D01*
X141442066Y-107851600D01*
X141284388Y-107851600D01*
X141262100Y-107849405D01*
X141239812Y-107851600D01*
X141239805Y-107851600D01*
X141181521Y-107857341D01*
X141173100Y-107858170D01*
X141132193Y-107870579D01*
X141087521Y-107884130D01*
X141008651Y-107926287D01*
X140939521Y-107983021D01*
X140925310Y-108000337D01*
X138836104Y-110089544D01*
X138678522Y-110041742D01*
X138468101Y-110021017D01*
X138468099Y-110021017D01*
X138257678Y-110041742D01*
X138055344Y-110103119D01*
X137868871Y-110202791D01*
X137705426Y-110336926D01*
X137571291Y-110500371D01*
X137471619Y-110686844D01*
X137410242Y-110889178D01*
X137389517Y-111099599D01*
X137389517Y-111099601D01*
X137410242Y-111310022D01*
X137471619Y-111512356D01*
X137571291Y-111698829D01*
X137705426Y-111862274D01*
X137832305Y-111966400D01*
X134684143Y-111966400D01*
X134658100Y-111963835D01*
X134554162Y-111974072D01*
X134523845Y-111983269D01*
X134454220Y-112004389D01*
X134362112Y-112053622D01*
X134281378Y-112119878D01*
X134264776Y-112140108D01*
X132352706Y-114052179D01*
X132330976Y-114043178D01*
X132105862Y-113998400D01*
X131876338Y-113998400D01*
X131651224Y-114043178D01*
X131439171Y-114131013D01*
X131248328Y-114258530D01*
X131086030Y-114420828D01*
X130958513Y-114611671D01*
X130870678Y-114823724D01*
X130825900Y-115048838D01*
X130825900Y-115278362D01*
X130870678Y-115503476D01*
X130958513Y-115715529D01*
X131086030Y-115906372D01*
X131248328Y-116068670D01*
X131439171Y-116196187D01*
X131524663Y-116231599D01*
X129917537Y-116231599D01*
X130003029Y-116196187D01*
X130193872Y-116068670D01*
X130356170Y-115906372D01*
X130483687Y-115715529D01*
X130571522Y-115503476D01*
X130616300Y-115278362D01*
X130616300Y-115048838D01*
X130571522Y-114823724D01*
X130483687Y-114611671D01*
X130356170Y-114420828D01*
X130193872Y-114258530D01*
X130003029Y-114131013D01*
X129790976Y-114043178D01*
X129565862Y-113998400D01*
X129336338Y-113998400D01*
X129111224Y-114043178D01*
X128899171Y-114131013D01*
X128708328Y-114258530D01*
X128546030Y-114420828D01*
X128418513Y-114611671D01*
X128330678Y-114823724D01*
X128285900Y-115048838D01*
X128285900Y-115278362D01*
X128330678Y-115503476D01*
X128418513Y-115715529D01*
X128546030Y-115906372D01*
X128708328Y-116068670D01*
X128899171Y-116196187D01*
X128984663Y-116231599D01*
X125650980Y-116231599D01*
X125187166Y-116186122D01*
X124750521Y-116054290D01*
X124347807Y-115840162D01*
X123994348Y-115551887D01*
X123703613Y-115200449D01*
X123486677Y-114799233D01*
X123351802Y-114363524D01*
X123303126Y-113900400D01*
X123303101Y-113893180D01*
X123303101Y-113703807D01*
X123714100Y-113703807D01*
X123714100Y-114083393D01*
X123788153Y-114455685D01*
X123933415Y-114806377D01*
X124144301Y-115121991D01*
X124412709Y-115390399D01*
X124728323Y-115601285D01*
X125079015Y-115746547D01*
X125451307Y-115820600D01*
X125830893Y-115820600D01*
X126203185Y-115746547D01*
X126553877Y-115601285D01*
X126869491Y-115390399D01*
X127137899Y-115121991D01*
X127348785Y-114806377D01*
X127494047Y-114455685D01*
X127568100Y-114083393D01*
X127568100Y-113703807D01*
X127494047Y-113331515D01*
X127348785Y-112980823D01*
X127137899Y-112665209D01*
X126869491Y-112396801D01*
X126553877Y-112185915D01*
X126203185Y-112040653D01*
X125830893Y-111966600D01*
X125451307Y-111966600D01*
X125079015Y-112040653D01*
X124728323Y-112185915D01*
X124412709Y-112396801D01*
X124144301Y-112665209D01*
X123933415Y-112980823D01*
X123788153Y-113331515D01*
X123714100Y-113703807D01*
X123303101Y-113703807D01*
X123303101Y-107627270D01*
X123744925Y-107185448D01*
X123752627Y-107179127D01*
X123777870Y-107148369D01*
X123796627Y-107113276D01*
X123808178Y-107075199D01*
X123811101Y-107045520D01*
X123811101Y-107045511D01*
X123812077Y-107035601D01*
X123811101Y-107025691D01*
X123811101Y-102981509D01*
X123812077Y-102971599D01*
X123811101Y-102961689D01*
X123811101Y-102961680D01*
X123808178Y-102932001D01*
X123796627Y-102893924D01*
X123777870Y-102858831D01*
X123765808Y-102844134D01*
X123758950Y-102835777D01*
X123758948Y-102835775D01*
X123752627Y-102828073D01*
X123744926Y-102821753D01*
X123303101Y-102379930D01*
X123303101Y-100111150D01*
X123965100Y-100111150D01*
X123965100Y-101270850D01*
X124072850Y-101378600D01*
X124819099Y-101378600D01*
X124819099Y-101428600D01*
X124072850Y-101428600D01*
X123965100Y-101536350D01*
X123965100Y-102696050D01*
X123981663Y-102779318D01*
X124014153Y-102857755D01*
X124061320Y-102928346D01*
X124121353Y-102988379D01*
X124191945Y-103035547D01*
X124270382Y-103068037D01*
X124353650Y-103084600D01*
X125513350Y-103084600D01*
X125621100Y-102976850D01*
X125621100Y-102030601D01*
X125671100Y-102030601D01*
X125671100Y-102976850D01*
X125778850Y-103084600D01*
X126869100Y-103084600D01*
X126869100Y-103120279D01*
X126895116Y-103251074D01*
X126946150Y-103374280D01*
X127020240Y-103485163D01*
X127114537Y-103579460D01*
X127225420Y-103653550D01*
X127348626Y-103704584D01*
X127479421Y-103730600D01*
X127612779Y-103730600D01*
X127743574Y-103704584D01*
X127866780Y-103653550D01*
X127977663Y-103579460D01*
X128071960Y-103485163D01*
X128146050Y-103374280D01*
X128197084Y-103251074D01*
X128223100Y-103120279D01*
X128223100Y-102986921D01*
X128197084Y-102856126D01*
X128146050Y-102732920D01*
X128109645Y-102678436D01*
X128228632Y-102716506D01*
X128430418Y-102739470D01*
X128632808Y-102722625D01*
X128828023Y-102666620D01*
X129008560Y-102573607D01*
X129034636Y-102556183D01*
X129084548Y-102377403D01*
X128446100Y-101738955D01*
X128431958Y-101753098D01*
X128396603Y-101717743D01*
X128410745Y-101703600D01*
X128481455Y-101703600D01*
X129119903Y-102342048D01*
X129298683Y-102292136D01*
X129397118Y-102114498D01*
X129459006Y-101921068D01*
X129481970Y-101719282D01*
X129465125Y-101516892D01*
X129409120Y-101321677D01*
X129316107Y-101141140D01*
X129298683Y-101115064D01*
X129119903Y-101065152D01*
X128481455Y-101703600D01*
X128410745Y-101703600D01*
X127772297Y-101065152D01*
X127593517Y-101115064D01*
X127495082Y-101292702D01*
X127433194Y-101486132D01*
X127410230Y-101687918D01*
X127427075Y-101890308D01*
X127483080Y-102085523D01*
X127576093Y-102266060D01*
X127593517Y-102292136D01*
X127772295Y-102342047D01*
X127717010Y-102397332D01*
X127612779Y-102376600D01*
X127479421Y-102376600D01*
X127348626Y-102402616D01*
X127327100Y-102411532D01*
X127327100Y-101536350D01*
X127219350Y-101428600D01*
X126473101Y-101428600D01*
X126473101Y-101378600D01*
X127219350Y-101378600D01*
X127327100Y-101270850D01*
X127327100Y-101029797D01*
X127807652Y-101029797D01*
X128446100Y-101668245D01*
X129084548Y-101029797D01*
X129034636Y-100851017D01*
X128856998Y-100752582D01*
X128663568Y-100690694D01*
X128461782Y-100667730D01*
X128259392Y-100684575D01*
X128064177Y-100740580D01*
X127883640Y-100833593D01*
X127857564Y-100851017D01*
X127807652Y-101029797D01*
X127327100Y-101029797D01*
X127327100Y-100111150D01*
X127310537Y-100027882D01*
X127278047Y-99949445D01*
X127230880Y-99878854D01*
X127170847Y-99818821D01*
X127100255Y-99771653D01*
X127021818Y-99739163D01*
X126938550Y-99722600D01*
X125778850Y-99722600D01*
X125671100Y-99830350D01*
X125671100Y-100776599D01*
X125621100Y-100776599D01*
X125621100Y-99830350D01*
X125513350Y-99722600D01*
X124353650Y-99722600D01*
X124270382Y-99739163D01*
X124191945Y-99771653D01*
X124121353Y-99818821D01*
X124061320Y-99878854D01*
X124014153Y-99949445D01*
X123981663Y-100027882D01*
X123965100Y-100111150D01*
X123303101Y-100111150D01*
X123303101Y-99003750D01*
X131621000Y-99003750D01*
X131621000Y-99688450D01*
X131637563Y-99771718D01*
X131670053Y-99850155D01*
X131717220Y-99920746D01*
X131777253Y-99980779D01*
X131847845Y-100027947D01*
X131926282Y-100060437D01*
X132009550Y-100077000D01*
X132219250Y-100077000D01*
X132327000Y-99969250D01*
X132327000Y-98896000D01*
X131728750Y-98896000D01*
X131621000Y-99003750D01*
X123303101Y-99003750D01*
X123303101Y-98053550D01*
X131621000Y-98053550D01*
X131621000Y-98738250D01*
X131728750Y-98846000D01*
X132327000Y-98846000D01*
X132327000Y-97772750D01*
X132219250Y-97665000D01*
X132009550Y-97665000D01*
X131926282Y-97681563D01*
X131847845Y-97714053D01*
X131777253Y-97761221D01*
X131717220Y-97821254D01*
X131670053Y-97891845D01*
X131637563Y-97970282D01*
X131621000Y-98053550D01*
X123303101Y-98053550D01*
X123303101Y-96123480D01*
X123348578Y-95659671D01*
X123480409Y-95223025D01*
X123694536Y-94820310D01*
X123982811Y-94466849D01*
X124334249Y-94176115D01*
X124735467Y-93959177D01*
X125171177Y-93824302D01*
X125634300Y-93775626D01*
X125641520Y-93775601D01*
X127169944Y-93775601D01*
X127048752Y-93856579D01*
X127048752Y-93856579D01*
G37*
X127048752Y-93856579D02*
X126940079Y-93965252D01*
X126854696Y-94093037D01*
X126795883Y-94235024D01*
X126765900Y-94385757D01*
X126765900Y-94539443D01*
X126767768Y-94548832D01*
X126553877Y-94405915D01*
X126203185Y-94260653D01*
X125830893Y-94186600D01*
X125451307Y-94186600D01*
X125079015Y-94260653D01*
X124728323Y-94405915D01*
X124412709Y-94616801D01*
X124144301Y-94885209D01*
X123933415Y-95200823D01*
X123788153Y-95551515D01*
X123714100Y-95923807D01*
X123714100Y-96303393D01*
X123788153Y-96675685D01*
X123933415Y-97026377D01*
X124144301Y-97341991D01*
X124412709Y-97610399D01*
X124728323Y-97821285D01*
X125079015Y-97966547D01*
X125451307Y-98040600D01*
X125830893Y-98040600D01*
X126203185Y-97966547D01*
X126553877Y-97821285D01*
X126869491Y-97610399D01*
X127137899Y-97341991D01*
X127348785Y-97026377D01*
X127494047Y-96675685D01*
X127568100Y-96303393D01*
X127568100Y-95952152D01*
X128441210Y-96825263D01*
X128455421Y-96842579D01*
X128524551Y-96899313D01*
X128599949Y-96939614D01*
X128603421Y-96941470D01*
X128689000Y-96967430D01*
X128697421Y-96968259D01*
X128755705Y-96974000D01*
X128755712Y-96974000D01*
X128778000Y-96976195D01*
X128800288Y-96974000D01*
X135304775Y-96974000D01*
X135048099Y-97230677D01*
X135030841Y-97244841D01*
X134974357Y-97313668D01*
X134936978Y-97383600D01*
X134932386Y-97392191D01*
X134906540Y-97477393D01*
X134897813Y-97566000D01*
X134900000Y-97588205D01*
X134900000Y-97806465D01*
X134869450Y-97822794D01*
X134852000Y-97837114D01*
X134834550Y-97822794D01*
X134777743Y-97792430D01*
X134716103Y-97773732D01*
X134652000Y-97767418D01*
X134052000Y-97767418D01*
X133987897Y-97773732D01*
X133926257Y-97792430D01*
X133869450Y-97822794D01*
X133852000Y-97837114D01*
X133834550Y-97822794D01*
X133777743Y-97792430D01*
X133716103Y-97773732D01*
X133652000Y-97767418D01*
X133052000Y-97767418D01*
X132987897Y-97773732D01*
X132950578Y-97785052D01*
X132926747Y-97761221D01*
X132856155Y-97714053D01*
X132777718Y-97681563D01*
X132694450Y-97665000D01*
X132484750Y-97665000D01*
X132377000Y-97772750D01*
X132377000Y-98846000D01*
X132397000Y-98846000D01*
X132397000Y-98896000D01*
X132377000Y-98896000D01*
X132377000Y-99969250D01*
X132484750Y-100077000D01*
X132694450Y-100077000D01*
X132777718Y-100060437D01*
X132821800Y-100042177D01*
X132821800Y-100559960D01*
X132819235Y-100586000D01*
X132821800Y-100612040D01*
X132821800Y-100612042D01*
X132829472Y-100689936D01*
X132859789Y-100789879D01*
X132909022Y-100881988D01*
X132975278Y-100962722D01*
X132995513Y-100979329D01*
X133324095Y-101307912D01*
X133340694Y-101328138D01*
X133360919Y-101344736D01*
X133360922Y-101344739D01*
X133397612Y-101374849D01*
X133421428Y-101394394D01*
X133513536Y-101443627D01*
X133613479Y-101473944D01*
X133691373Y-101481616D01*
X133691375Y-101481616D01*
X133717415Y-101484181D01*
X133743455Y-101481616D01*
X135931123Y-101481616D01*
X135900648Y-101501979D01*
X135791975Y-101610652D01*
X135761675Y-101656000D01*
X130279795Y-101656000D01*
X130257550Y-101658191D01*
X130213100Y-101653813D01*
X130124492Y-101662540D01*
X130039290Y-101688386D01*
X129960767Y-101730358D01*
X129909189Y-101772687D01*
X129161614Y-102520263D01*
X129128522Y-102547421D01*
X129071788Y-102616551D01*
X129029631Y-102695421D01*
X129003671Y-102781001D01*
X128997101Y-102847705D01*
X128997101Y-102868091D01*
X128996913Y-102870000D01*
X128997101Y-102871909D01*
X128997101Y-107430217D01*
X128856998Y-107352582D01*
X128663568Y-107290694D01*
X128461782Y-107267730D01*
X128259392Y-107284575D01*
X128110660Y-107327245D01*
X128146050Y-107274280D01*
X128197084Y-107151074D01*
X128223100Y-107020279D01*
X128223100Y-106886921D01*
X128197084Y-106756126D01*
X128146050Y-106632920D01*
X128071960Y-106522037D01*
X127977663Y-106427740D01*
X127866780Y-106353650D01*
X127743574Y-106302616D01*
X127612779Y-106276600D01*
X127479421Y-106276600D01*
X127348626Y-106302616D01*
X127225420Y-106353650D01*
X127114537Y-106427740D01*
X127020240Y-106522037D01*
X126946150Y-106632920D01*
X126895116Y-106756126D01*
X126869100Y-106886921D01*
X126869100Y-106922600D01*
X125778850Y-106922600D01*
X125671100Y-107030350D01*
X125671100Y-107976599D01*
X125621100Y-107976599D01*
X125621100Y-107030350D01*
X125513350Y-106922600D01*
X124353650Y-106922600D01*
X124270382Y-106939163D01*
X124191945Y-106971653D01*
X124121353Y-107018821D01*
X124061320Y-107078854D01*
X124014153Y-107149445D01*
X123981663Y-107227882D01*
X123965100Y-107311150D01*
X123965100Y-108470850D01*
X124072850Y-108578600D01*
X124818371Y-108578600D01*
X124818937Y-108599864D01*
X124818860Y-108600448D01*
X124818794Y-108602918D01*
X124818290Y-108628600D01*
X124072850Y-108628600D01*
X123965100Y-108736350D01*
X123965100Y-109896050D01*
X123981663Y-109979318D01*
X124014153Y-110057755D01*
X124061320Y-110128346D01*
X124121353Y-110188379D01*
X124191945Y-110235547D01*
X124270382Y-110268037D01*
X124353650Y-110284600D01*
X125513350Y-110284600D01*
X125621100Y-110176850D01*
X125621100Y-109230601D01*
X125671100Y-109230601D01*
X125671100Y-110176850D01*
X125778850Y-110284600D01*
X126938550Y-110284600D01*
X127021818Y-110268037D01*
X127100255Y-110235547D01*
X127170847Y-110188379D01*
X127230880Y-110128346D01*
X127278047Y-110057755D01*
X127310537Y-109979318D01*
X127327100Y-109896050D01*
X127327100Y-108736350D01*
X127219350Y-108628600D01*
X126473829Y-108628600D01*
X126473263Y-108607336D01*
X126473340Y-108606752D01*
X126473406Y-108604282D01*
X126473910Y-108578600D01*
X127219350Y-108578600D01*
X127327100Y-108470850D01*
X127327100Y-107595668D01*
X127348626Y-107604584D01*
X127479421Y-107630600D01*
X127612779Y-107630600D01*
X127717010Y-107609868D01*
X127772295Y-107665153D01*
X127593517Y-107715064D01*
X127495082Y-107892702D01*
X127433194Y-108086132D01*
X127410230Y-108287918D01*
X127427075Y-108490308D01*
X127483080Y-108685523D01*
X127576093Y-108866060D01*
X127593517Y-108892136D01*
X127772297Y-108942048D01*
X128410745Y-108303600D01*
X128396603Y-108289458D01*
X128431958Y-108254103D01*
X128446100Y-108268245D01*
X128460243Y-108254103D01*
X128495598Y-108289458D01*
X128481455Y-108303600D01*
X128495598Y-108317743D01*
X128460243Y-108353098D01*
X128446100Y-108338955D01*
X127807652Y-108977403D01*
X127857564Y-109156183D01*
X128035202Y-109254618D01*
X128228632Y-109316506D01*
X128430418Y-109339470D01*
X128632808Y-109322625D01*
X128828023Y-109266620D01*
X128997100Y-109179511D01*
X128997100Y-112220312D01*
X128994905Y-112242600D01*
X128997100Y-112264888D01*
X128997100Y-112264894D01*
X129002727Y-112322021D01*
X129003670Y-112331599D01*
X129023449Y-112396801D01*
X129029630Y-112417178D01*
X129071787Y-112496048D01*
X129128521Y-112565179D01*
X129145842Y-112579394D01*
X129951071Y-113384624D01*
X129940900Y-113435757D01*
X129940900Y-113589443D01*
X129970883Y-113740176D01*
X130029696Y-113882163D01*
X130115079Y-114009948D01*
X130223752Y-114118621D01*
X130351537Y-114204004D01*
X130493524Y-114262817D01*
X130644257Y-114292800D01*
X130797943Y-114292800D01*
X130948676Y-114262817D01*
X131090663Y-114204004D01*
X131218448Y-114118621D01*
X131327121Y-114009948D01*
X131412504Y-113882163D01*
X131471317Y-113740176D01*
X131501300Y-113589443D01*
X131501300Y-113435757D01*
X131471317Y-113285024D01*
X131412504Y-113143037D01*
X131327121Y-113015252D01*
X131218448Y-112906579D01*
X131090663Y-112821196D01*
X130948676Y-112762383D01*
X130797943Y-112732400D01*
X130644257Y-112732400D01*
X130593124Y-112742571D01*
X129905100Y-112054548D01*
X129905100Y-103055223D01*
X130400324Y-102560000D01*
X135761675Y-102560000D01*
X135791975Y-102605348D01*
X135900648Y-102714021D01*
X136028433Y-102799404D01*
X136170420Y-102858217D01*
X136321153Y-102888200D01*
X136474839Y-102888200D01*
X136625572Y-102858217D01*
X136767559Y-102799404D01*
X136895344Y-102714021D01*
X137004017Y-102605348D01*
X137089400Y-102477563D01*
X137148213Y-102335576D01*
X137178196Y-102184843D01*
X137178196Y-102031157D01*
X137148213Y-101880424D01*
X137089400Y-101738437D01*
X137084842Y-101731616D01*
X137114758Y-101731616D01*
X137265491Y-101701633D01*
X137407478Y-101642820D01*
X137535263Y-101557437D01*
X137611084Y-101481616D01*
X142545468Y-101481616D01*
X142532115Y-101501600D01*
X140649388Y-101501600D01*
X140627100Y-101499405D01*
X140604812Y-101501600D01*
X140604805Y-101501600D01*
X140546521Y-101507341D01*
X140538100Y-101508170D01*
X140466304Y-101529949D01*
X140452521Y-101534130D01*
X140373651Y-101576287D01*
X140304521Y-101633021D01*
X140290310Y-101650337D01*
X139502300Y-102438347D01*
X139502300Y-102386757D01*
X139472317Y-102236024D01*
X139413504Y-102094037D01*
X139328121Y-101966252D01*
X139219448Y-101857579D01*
X139091663Y-101772196D01*
X138949676Y-101713383D01*
X138798943Y-101683400D01*
X138645257Y-101683400D01*
X138494524Y-101713383D01*
X138352537Y-101772196D01*
X138224752Y-101857579D01*
X138144656Y-101937675D01*
X138110163Y-101941072D01*
X138010220Y-101971389D01*
X137918112Y-102020622D01*
X137837378Y-102086878D01*
X137820775Y-102107109D01*
X136724485Y-103203400D01*
X133414143Y-103203400D01*
X133388100Y-103200835D01*
X133284162Y-103211072D01*
X133253845Y-103220269D01*
X133184220Y-103241389D01*
X133092112Y-103290622D01*
X133011378Y-103356878D01*
X132994776Y-103377108D01*
X132656484Y-103715400D01*
X132549257Y-103715400D01*
X132398524Y-103745383D01*
X132256537Y-103804196D01*
X132128752Y-103889579D01*
X132020079Y-103998252D01*
X131934696Y-104126037D01*
X131875883Y-104268024D01*
X131845900Y-104418757D01*
X131845900Y-104572443D01*
X131875883Y-104723176D01*
X131934696Y-104865163D01*
X132020079Y-104992948D01*
X132128752Y-105101621D01*
X132256537Y-105187004D01*
X132398524Y-105245817D01*
X132549257Y-105275800D01*
X132702943Y-105275800D01*
X132853676Y-105245817D01*
X132995663Y-105187004D01*
X133123448Y-105101621D01*
X133232121Y-104992948D01*
X133317504Y-104865163D01*
X133376317Y-104723176D01*
X133406300Y-104572443D01*
X133406300Y-104465216D01*
X133607716Y-104263800D01*
X136918060Y-104263800D01*
X136944100Y-104266365D01*
X136970140Y-104263800D01*
X136970143Y-104263800D01*
X137048037Y-104256128D01*
X137147980Y-104225811D01*
X137240088Y-104176578D01*
X137320822Y-104110322D01*
X137337429Y-104090086D01*
X138304565Y-103122950D01*
X138352537Y-103155004D01*
X138494524Y-103213817D01*
X138645257Y-103243800D01*
X138696847Y-103243800D01*
X135486048Y-106454600D01*
X132052153Y-106454600D01*
X131745129Y-106147576D01*
X131755300Y-106096443D01*
X131755300Y-105942757D01*
X131725317Y-105792024D01*
X131666504Y-105650037D01*
X131581121Y-105522252D01*
X131472448Y-105413579D01*
X131344663Y-105328196D01*
X131202676Y-105269383D01*
X131051943Y-105239400D01*
X130898257Y-105239400D01*
X130747524Y-105269383D01*
X130605537Y-105328196D01*
X130477752Y-105413579D01*
X130369079Y-105522252D01*
X130283696Y-105650037D01*
X130224883Y-105792024D01*
X130194900Y-105942757D01*
X130194900Y-106096443D01*
X130224883Y-106247176D01*
X130283696Y-106389163D01*
X130369079Y-106516948D01*
X130477752Y-106625621D01*
X130521122Y-106654600D01*
X130477752Y-106683579D01*
X130369079Y-106792252D01*
X130283696Y-106920037D01*
X130224883Y-107062024D01*
X130194900Y-107212757D01*
X130194900Y-107366443D01*
X130224883Y-107517176D01*
X130283696Y-107659163D01*
X130369079Y-107786948D01*
X130477752Y-107895621D01*
X130605537Y-107981004D01*
X130747524Y-108039817D01*
X130898257Y-108069800D01*
X131051943Y-108069800D01*
X131202676Y-108039817D01*
X131304597Y-107997600D01*
X135778812Y-107997600D01*
X135801100Y-107999795D01*
X135823388Y-107997600D01*
X135823395Y-107997600D01*
X135890099Y-107991030D01*
X135975679Y-107965070D01*
X136054549Y-107922913D01*
X136123679Y-107866179D01*
X136137895Y-107848857D01*
X140688153Y-103298600D01*
X143652812Y-103298600D01*
X143675100Y-103300795D01*
X143697388Y-103298600D01*
X143697395Y-103298600D01*
X143764099Y-103292030D01*
X143849679Y-103266070D01*
X143928549Y-103223913D01*
X143997679Y-103167179D01*
X144011894Y-103149858D01*
X144182124Y-102979629D01*
X144233257Y-102989800D01*
X144386943Y-102989800D01*
X144537676Y-102959817D01*
X144679663Y-102901004D01*
X144807448Y-102815621D01*
X144916121Y-102706948D01*
X145001504Y-102579163D01*
X145049900Y-102462324D01*
X145049901Y-103834548D01*
X145049900Y-103834557D01*
X145047335Y-103860600D01*
X145049900Y-103886641D01*
X145049901Y-104656983D01*
X144217485Y-105489400D01*
X143193142Y-105489400D01*
X143167100Y-105486835D01*
X143147209Y-105488794D01*
X143156448Y-105482621D01*
X143265121Y-105373948D01*
X143350504Y-105246163D01*
X143409317Y-105104176D01*
X143439300Y-104953443D01*
X143439300Y-104799757D01*
X143409317Y-104649024D01*
X143350504Y-104507037D01*
X143265121Y-104379252D01*
X143156448Y-104270579D01*
X143028663Y-104185196D01*
X142886676Y-104126383D01*
X142735943Y-104096400D01*
X142582257Y-104096400D01*
X142431524Y-104126383D01*
X142289537Y-104185196D01*
X142161752Y-104270579D01*
X142053079Y-104379252D01*
X141967696Y-104507037D01*
X141908883Y-104649024D01*
X141878900Y-104799757D01*
X141878900Y-104930600D01*
X139633388Y-104930600D01*
X139611100Y-104928405D01*
X139588812Y-104930600D01*
X139588805Y-104930600D01*
X139530521Y-104936341D01*
X139522100Y-104937170D01*
X139468455Y-104953443D01*
X139436521Y-104963130D01*
X139357651Y-105005287D01*
X139288521Y-105062021D01*
X139274310Y-105079337D01*
X137400839Y-106952809D01*
X137383522Y-106967021D01*
X137326788Y-107036151D01*
X137305916Y-107075199D01*
X137284630Y-107115022D01*
X137258670Y-107200601D01*
X137249905Y-107289600D01*
X137252101Y-107311898D01*
X137252100Y-108879547D01*
X136629048Y-109502600D01*
X133156388Y-109502600D01*
X133134100Y-109500405D01*
X133111812Y-109502600D01*
X133111805Y-109502600D01*
X133053521Y-109508341D01*
X133045100Y-109509170D01*
X132991455Y-109525443D01*
X132959521Y-109535130D01*
X132880651Y-109577287D01*
X132811521Y-109634021D01*
X132797310Y-109651337D01*
X132500076Y-109948571D01*
X132448943Y-109938400D01*
X132295257Y-109938400D01*
X132144524Y-109968383D01*
X132002537Y-110027196D01*
X131874752Y-110112579D01*
X131766079Y-110221252D01*
X131680696Y-110349037D01*
X131621883Y-110491024D01*
X131591900Y-110641757D01*
X131591900Y-110795443D01*
X131621883Y-110946176D01*
X131680696Y-111088163D01*
X131766079Y-111215948D01*
X131874752Y-111324621D01*
X132002537Y-111410004D01*
X132144524Y-111468817D01*
X132295257Y-111498800D01*
X132448943Y-111498800D01*
X132599676Y-111468817D01*
X132741663Y-111410004D01*
X132869448Y-111324621D01*
X132978121Y-111215948D01*
X133063504Y-111088163D01*
X133122317Y-110946176D01*
X133152300Y-110795443D01*
X133152300Y-110641757D01*
X133142129Y-110590624D01*
X133322153Y-110410600D01*
X136794812Y-110410600D01*
X136817100Y-110412795D01*
X136839388Y-110410600D01*
X136839395Y-110410600D01*
X136906099Y-110404030D01*
X136991679Y-110378070D01*
X137070549Y-110335913D01*
X137139679Y-110279179D01*
X137153894Y-110261858D01*
X138011364Y-109404389D01*
X138028679Y-109390179D01*
X138085413Y-109321049D01*
X138127570Y-109242179D01*
X138131201Y-109230208D01*
X138153530Y-109156600D01*
X138155977Y-109131753D01*
X138160100Y-109089895D01*
X138160100Y-109089888D01*
X138162295Y-109067600D01*
X138160100Y-109045312D01*
X138160100Y-107477652D01*
X138716411Y-106921341D01*
X138733883Y-107009176D01*
X138792696Y-107151163D01*
X138878079Y-107278948D01*
X138986752Y-107387621D01*
X139114537Y-107473004D01*
X139256524Y-107531817D01*
X139407257Y-107561800D01*
X139560943Y-107561800D01*
X139711676Y-107531817D01*
X139853663Y-107473004D01*
X139981448Y-107387621D01*
X140090121Y-107278948D01*
X140175504Y-107151163D01*
X140234317Y-107009176D01*
X140259390Y-106883125D01*
X140592716Y-106549800D01*
X142636900Y-106549800D01*
X142636900Y-107564863D01*
X142520663Y-107487196D01*
X142378676Y-107428383D01*
X142227943Y-107398400D01*
X142074257Y-107398400D01*
X141923524Y-107428383D01*
X141781537Y-107487196D01*
X141653752Y-107572579D01*
X141545079Y-107681252D01*
X141459696Y-107809037D01*
X141442066Y-107851600D01*
X141284388Y-107851600D01*
X141262100Y-107849405D01*
X141239812Y-107851600D01*
X141239805Y-107851600D01*
X141181521Y-107857341D01*
X141173100Y-107858170D01*
X141132193Y-107870579D01*
X141087521Y-107884130D01*
X141008651Y-107926287D01*
X140939521Y-107983021D01*
X140925310Y-108000337D01*
X138836104Y-110089544D01*
X138678522Y-110041742D01*
X138468101Y-110021017D01*
X138468099Y-110021017D01*
X138257678Y-110041742D01*
X138055344Y-110103119D01*
X137868871Y-110202791D01*
X137705426Y-110336926D01*
X137571291Y-110500371D01*
X137471619Y-110686844D01*
X137410242Y-110889178D01*
X137389517Y-111099599D01*
X137389517Y-111099601D01*
X137410242Y-111310022D01*
X137471619Y-111512356D01*
X137571291Y-111698829D01*
X137705426Y-111862274D01*
X137832305Y-111966400D01*
X134684143Y-111966400D01*
X134658100Y-111963835D01*
X134554162Y-111974072D01*
X134523845Y-111983269D01*
X134454220Y-112004389D01*
X134362112Y-112053622D01*
X134281378Y-112119878D01*
X134264776Y-112140108D01*
X132352706Y-114052179D01*
X132330976Y-114043178D01*
X132105862Y-113998400D01*
X131876338Y-113998400D01*
X131651224Y-114043178D01*
X131439171Y-114131013D01*
X131248328Y-114258530D01*
X131086030Y-114420828D01*
X130958513Y-114611671D01*
X130870678Y-114823724D01*
X130825900Y-115048838D01*
X130825900Y-115278362D01*
X130870678Y-115503476D01*
X130958513Y-115715529D01*
X131086030Y-115906372D01*
X131248328Y-116068670D01*
X131439171Y-116196187D01*
X131524663Y-116231599D01*
X129917537Y-116231599D01*
X130003029Y-116196187D01*
X130193872Y-116068670D01*
X130356170Y-115906372D01*
X130483687Y-115715529D01*
X130571522Y-115503476D01*
X130616300Y-115278362D01*
X130616300Y-115048838D01*
X130571522Y-114823724D01*
X130483687Y-114611671D01*
X130356170Y-114420828D01*
X130193872Y-114258530D01*
X130003029Y-114131013D01*
X129790976Y-114043178D01*
X129565862Y-113998400D01*
X129336338Y-113998400D01*
X129111224Y-114043178D01*
X128899171Y-114131013D01*
X128708328Y-114258530D01*
X128546030Y-114420828D01*
X128418513Y-114611671D01*
X128330678Y-114823724D01*
X128285900Y-115048838D01*
X128285900Y-115278362D01*
X128330678Y-115503476D01*
X128418513Y-115715529D01*
X128546030Y-115906372D01*
X128708328Y-116068670D01*
X128899171Y-116196187D01*
X128984663Y-116231599D01*
X125650980Y-116231599D01*
X125187166Y-116186122D01*
X124750521Y-116054290D01*
X124347807Y-115840162D01*
X123994348Y-115551887D01*
X123703613Y-115200449D01*
X123486677Y-114799233D01*
X123351802Y-114363524D01*
X123303126Y-113900400D01*
X123303101Y-113893180D01*
X123303101Y-113703807D01*
X123714100Y-113703807D01*
X123714100Y-114083393D01*
X123788153Y-114455685D01*
X123933415Y-114806377D01*
X124144301Y-115121991D01*
X124412709Y-115390399D01*
X124728323Y-115601285D01*
X125079015Y-115746547D01*
X125451307Y-115820600D01*
X125830893Y-115820600D01*
X126203185Y-115746547D01*
X126553877Y-115601285D01*
X126869491Y-115390399D01*
X127137899Y-115121991D01*
X127348785Y-114806377D01*
X127494047Y-114455685D01*
X127568100Y-114083393D01*
X127568100Y-113703807D01*
X127494047Y-113331515D01*
X127348785Y-112980823D01*
X127137899Y-112665209D01*
X126869491Y-112396801D01*
X126553877Y-112185915D01*
X126203185Y-112040653D01*
X125830893Y-111966600D01*
X125451307Y-111966600D01*
X125079015Y-112040653D01*
X124728323Y-112185915D01*
X124412709Y-112396801D01*
X124144301Y-112665209D01*
X123933415Y-112980823D01*
X123788153Y-113331515D01*
X123714100Y-113703807D01*
X123303101Y-113703807D01*
X123303101Y-107627270D01*
X123744925Y-107185448D01*
X123752627Y-107179127D01*
X123777870Y-107148369D01*
X123796627Y-107113276D01*
X123808178Y-107075199D01*
X123811101Y-107045520D01*
X123811101Y-107045511D01*
X123812077Y-107035601D01*
X123811101Y-107025691D01*
X123811101Y-102981509D01*
X123812077Y-102971599D01*
X123811101Y-102961689D01*
X123811101Y-102961680D01*
X123808178Y-102932001D01*
X123796627Y-102893924D01*
X123777870Y-102858831D01*
X123765808Y-102844134D01*
X123758950Y-102835777D01*
X123758948Y-102835775D01*
X123752627Y-102828073D01*
X123744926Y-102821753D01*
X123303101Y-102379930D01*
X123303101Y-100111150D01*
X123965100Y-100111150D01*
X123965100Y-101270850D01*
X124072850Y-101378600D01*
X124819099Y-101378600D01*
X124819099Y-101428600D01*
X124072850Y-101428600D01*
X123965100Y-101536350D01*
X123965100Y-102696050D01*
X123981663Y-102779318D01*
X124014153Y-102857755D01*
X124061320Y-102928346D01*
X124121353Y-102988379D01*
X124191945Y-103035547D01*
X124270382Y-103068037D01*
X124353650Y-103084600D01*
X125513350Y-103084600D01*
X125621100Y-102976850D01*
X125621100Y-102030601D01*
X125671100Y-102030601D01*
X125671100Y-102976850D01*
X125778850Y-103084600D01*
X126869100Y-103084600D01*
X126869100Y-103120279D01*
X126895116Y-103251074D01*
X126946150Y-103374280D01*
X127020240Y-103485163D01*
X127114537Y-103579460D01*
X127225420Y-103653550D01*
X127348626Y-103704584D01*
X127479421Y-103730600D01*
X127612779Y-103730600D01*
X127743574Y-103704584D01*
X127866780Y-103653550D01*
X127977663Y-103579460D01*
X128071960Y-103485163D01*
X128146050Y-103374280D01*
X128197084Y-103251074D01*
X128223100Y-103120279D01*
X128223100Y-102986921D01*
X128197084Y-102856126D01*
X128146050Y-102732920D01*
X128109645Y-102678436D01*
X128228632Y-102716506D01*
X128430418Y-102739470D01*
X128632808Y-102722625D01*
X128828023Y-102666620D01*
X129008560Y-102573607D01*
X129034636Y-102556183D01*
X129084548Y-102377403D01*
X128446100Y-101738955D01*
X128431958Y-101753098D01*
X128396603Y-101717743D01*
X128410745Y-101703600D01*
X128481455Y-101703600D01*
X129119903Y-102342048D01*
X129298683Y-102292136D01*
X129397118Y-102114498D01*
X129459006Y-101921068D01*
X129481970Y-101719282D01*
X129465125Y-101516892D01*
X129409120Y-101321677D01*
X129316107Y-101141140D01*
X129298683Y-101115064D01*
X129119903Y-101065152D01*
X128481455Y-101703600D01*
X128410745Y-101703600D01*
X127772297Y-101065152D01*
X127593517Y-101115064D01*
X127495082Y-101292702D01*
X127433194Y-101486132D01*
X127410230Y-101687918D01*
X127427075Y-101890308D01*
X127483080Y-102085523D01*
X127576093Y-102266060D01*
X127593517Y-102292136D01*
X127772295Y-102342047D01*
X127717010Y-102397332D01*
X127612779Y-102376600D01*
X127479421Y-102376600D01*
X127348626Y-102402616D01*
X127327100Y-102411532D01*
X127327100Y-101536350D01*
X127219350Y-101428600D01*
X126473101Y-101428600D01*
X126473101Y-101378600D01*
X127219350Y-101378600D01*
X127327100Y-101270850D01*
X127327100Y-101029797D01*
X127807652Y-101029797D01*
X128446100Y-101668245D01*
X129084548Y-101029797D01*
X129034636Y-100851017D01*
X128856998Y-100752582D01*
X128663568Y-100690694D01*
X128461782Y-100667730D01*
X128259392Y-100684575D01*
X128064177Y-100740580D01*
X127883640Y-100833593D01*
X127857564Y-100851017D01*
X127807652Y-101029797D01*
X127327100Y-101029797D01*
X127327100Y-100111150D01*
X127310537Y-100027882D01*
X127278047Y-99949445D01*
X127230880Y-99878854D01*
X127170847Y-99818821D01*
X127100255Y-99771653D01*
X127021818Y-99739163D01*
X126938550Y-99722600D01*
X125778850Y-99722600D01*
X125671100Y-99830350D01*
X125671100Y-100776599D01*
X125621100Y-100776599D01*
X125621100Y-99830350D01*
X125513350Y-99722600D01*
X124353650Y-99722600D01*
X124270382Y-99739163D01*
X124191945Y-99771653D01*
X124121353Y-99818821D01*
X124061320Y-99878854D01*
X124014153Y-99949445D01*
X123981663Y-100027882D01*
X123965100Y-100111150D01*
X123303101Y-100111150D01*
X123303101Y-99003750D01*
X131621000Y-99003750D01*
X131621000Y-99688450D01*
X131637563Y-99771718D01*
X131670053Y-99850155D01*
X131717220Y-99920746D01*
X131777253Y-99980779D01*
X131847845Y-100027947D01*
X131926282Y-100060437D01*
X132009550Y-100077000D01*
X132219250Y-100077000D01*
X132327000Y-99969250D01*
X132327000Y-98896000D01*
X131728750Y-98896000D01*
X131621000Y-99003750D01*
X123303101Y-99003750D01*
X123303101Y-98053550D01*
X131621000Y-98053550D01*
X131621000Y-98738250D01*
X131728750Y-98846000D01*
X132327000Y-98846000D01*
X132327000Y-97772750D01*
X132219250Y-97665000D01*
X132009550Y-97665000D01*
X131926282Y-97681563D01*
X131847845Y-97714053D01*
X131777253Y-97761221D01*
X131717220Y-97821254D01*
X131670053Y-97891845D01*
X131637563Y-97970282D01*
X131621000Y-98053550D01*
X123303101Y-98053550D01*
X123303101Y-96123480D01*
X123348578Y-95659671D01*
X123480409Y-95223025D01*
X123694536Y-94820310D01*
X123982811Y-94466849D01*
X124334249Y-94176115D01*
X124735467Y-93959177D01*
X125171177Y-93824302D01*
X125634300Y-93775626D01*
X125641520Y-93775601D01*
X127169944Y-93775601D01*
X127048752Y-93856579D01*
G36*
X125671100Y-101378600D02*
X126119099Y-101378600D01*
X126119099Y-101428600D01*
X125671100Y-101428600D01*
X125671100Y-101676599D01*
X125621100Y-101676599D01*
X125621100Y-101428600D01*
X125173101Y-101428600D01*
X125173101Y-101378600D01*
X125621100Y-101378600D01*
X125621100Y-101130601D01*
X125671100Y-101130601D01*
X125671100Y-101378600D01*
X125671100Y-101378600D01*
G37*
X125671100Y-101378600D02*
X126119099Y-101378600D01*
X126119099Y-101428600D01*
X125671100Y-101428600D01*
X125671100Y-101676599D01*
X125621100Y-101676599D01*
X125621100Y-101428600D01*
X125173101Y-101428600D01*
X125173101Y-101378600D01*
X125621100Y-101378600D01*
X125621100Y-101130601D01*
X125671100Y-101130601D01*
X125671100Y-101378600D01*
G36*
X156132537Y-102774004D02*
X156274524Y-102832817D01*
X156425257Y-102862800D01*
X156501299Y-102862800D01*
X156501299Y-103321357D01*
X156422066Y-103288538D01*
X156281611Y-103260600D01*
X156138405Y-103260600D01*
X155997950Y-103288538D01*
X155865644Y-103343341D01*
X155746572Y-103422902D01*
X155645310Y-103524164D01*
X155565749Y-103643236D01*
X155510946Y-103775542D01*
X155483008Y-103915997D01*
X155483008Y-104059203D01*
X155485971Y-104074099D01*
X155451358Y-104116275D01*
X155409386Y-104194799D01*
X155383540Y-104280001D01*
X155374813Y-104368608D01*
X155377001Y-104390823D01*
X155377000Y-106361661D01*
X155365564Y-106369302D01*
X155264302Y-106470564D01*
X155184741Y-106589636D01*
X155129938Y-106721942D01*
X155102000Y-106862397D01*
X155102000Y-107005603D01*
X155129938Y-107146058D01*
X155169679Y-107242000D01*
X153414127Y-107242000D01*
X153103824Y-106931698D01*
X153089609Y-106914377D01*
X153020479Y-106857643D01*
X152941609Y-106815486D01*
X152856029Y-106789526D01*
X152789325Y-106782956D01*
X152789318Y-106782956D01*
X152767030Y-106780761D01*
X152760085Y-106781445D01*
X152732130Y-106739608D01*
X152623457Y-106630935D01*
X152495672Y-106545552D01*
X152353685Y-106486739D01*
X152202952Y-106456756D01*
X152049266Y-106456756D01*
X151898533Y-106486739D01*
X151756546Y-106545552D01*
X151628761Y-106630935D01*
X151520088Y-106739608D01*
X151434705Y-106867393D01*
X151375892Y-107009380D01*
X151345909Y-107160113D01*
X151345909Y-107313799D01*
X151375892Y-107464532D01*
X151434705Y-107606519D01*
X151520088Y-107734304D01*
X151628761Y-107842977D01*
X151756546Y-107928360D01*
X151898533Y-107987173D01*
X151992421Y-108005849D01*
X151925655Y-108105772D01*
X151866842Y-108247759D01*
X151836859Y-108398492D01*
X151836859Y-108552178D01*
X151866842Y-108702911D01*
X151925655Y-108844898D01*
X152011038Y-108972683D01*
X152119711Y-109081356D01*
X152163059Y-109110320D01*
X152163059Y-109138550D01*
X152163060Y-109138560D01*
X152163059Y-109859271D01*
X152160864Y-109881559D01*
X152163059Y-109903847D01*
X152163059Y-109903853D01*
X152165400Y-109927621D01*
X152169629Y-109970558D01*
X152174186Y-109985579D01*
X152195589Y-110056137D01*
X152237746Y-110135007D01*
X152294480Y-110204138D01*
X152311801Y-110218353D01*
X155784308Y-113690861D01*
X155798521Y-113708179D01*
X155815837Y-113722390D01*
X155815838Y-113722391D01*
X155834804Y-113737956D01*
X155867651Y-113764913D01*
X155941900Y-113804600D01*
X155946521Y-113807070D01*
X156032100Y-113833030D01*
X156041401Y-113833946D01*
X156098805Y-113839600D01*
X156098811Y-113839600D01*
X156121099Y-113841795D01*
X156143387Y-113839600D01*
X160505048Y-113839600D01*
X161391242Y-114725794D01*
X161350678Y-114823724D01*
X161305900Y-115048838D01*
X161305900Y-115278362D01*
X161350678Y-115503476D01*
X161438513Y-115715529D01*
X161566030Y-115906372D01*
X161728328Y-116068670D01*
X161919171Y-116196187D01*
X162004663Y-116231599D01*
X160397537Y-116231599D01*
X160483029Y-116196187D01*
X160673872Y-116068670D01*
X160836170Y-115906372D01*
X160963687Y-115715529D01*
X161051522Y-115503476D01*
X161096300Y-115278362D01*
X161096300Y-115048838D01*
X161051522Y-114823724D01*
X160963687Y-114611671D01*
X160836170Y-114420828D01*
X160673872Y-114258530D01*
X160483029Y-114131013D01*
X160270976Y-114043178D01*
X160045862Y-113998400D01*
X159816338Y-113998400D01*
X159591224Y-114043178D01*
X159379171Y-114131013D01*
X159188328Y-114258530D01*
X159026030Y-114420828D01*
X158898513Y-114611671D01*
X158810678Y-114823724D01*
X158765900Y-115048838D01*
X158765900Y-115278362D01*
X158810678Y-115503476D01*
X158898513Y-115715529D01*
X159026030Y-115906372D01*
X159188328Y-116068670D01*
X159379171Y-116196187D01*
X159464663Y-116231599D01*
X157857537Y-116231599D01*
X157943029Y-116196187D01*
X158133872Y-116068670D01*
X158296170Y-115906372D01*
X158423687Y-115715529D01*
X158511522Y-115503476D01*
X158556300Y-115278362D01*
X158556300Y-115048838D01*
X158511522Y-114823724D01*
X158423687Y-114611671D01*
X158296170Y-114420828D01*
X158133872Y-114258530D01*
X157943029Y-114131013D01*
X157730976Y-114043178D01*
X157505862Y-113998400D01*
X157276338Y-113998400D01*
X157051224Y-114043178D01*
X156839171Y-114131013D01*
X156648328Y-114258530D01*
X156486030Y-114420828D01*
X156358513Y-114611671D01*
X156270678Y-114823724D01*
X156225900Y-115048838D01*
X156225900Y-115278362D01*
X156270678Y-115503476D01*
X156358513Y-115715529D01*
X156486030Y-115906372D01*
X156648328Y-116068670D01*
X156839171Y-116196187D01*
X156924663Y-116231599D01*
X155317537Y-116231599D01*
X155403029Y-116196187D01*
X155593872Y-116068670D01*
X155756170Y-115906372D01*
X155883687Y-115715529D01*
X155971522Y-115503476D01*
X156016300Y-115278362D01*
X156016300Y-115048838D01*
X155971522Y-114823724D01*
X155883687Y-114611671D01*
X155756170Y-114420828D01*
X155593872Y-114258530D01*
X155403029Y-114131013D01*
X155190976Y-114043178D01*
X154965862Y-113998400D01*
X154736338Y-113998400D01*
X154511224Y-114043178D01*
X154299171Y-114131013D01*
X154108328Y-114258530D01*
X153946030Y-114420828D01*
X153818513Y-114611671D01*
X153730678Y-114823724D01*
X153685900Y-115048838D01*
X153685900Y-115278362D01*
X153730678Y-115503476D01*
X153818513Y-115715529D01*
X153946030Y-115906372D01*
X154108328Y-116068670D01*
X154299171Y-116196187D01*
X154384663Y-116231599D01*
X152777537Y-116231599D01*
X152863029Y-116196187D01*
X153053872Y-116068670D01*
X153216170Y-115906372D01*
X153343687Y-115715529D01*
X153431522Y-115503476D01*
X153476300Y-115278362D01*
X153476300Y-115048838D01*
X153431522Y-114823724D01*
X153343687Y-114611671D01*
X153216170Y-114420828D01*
X153053872Y-114258530D01*
X152863029Y-114131013D01*
X152650976Y-114043178D01*
X152425862Y-113998400D01*
X152196338Y-113998400D01*
X151971224Y-114043178D01*
X151759171Y-114131013D01*
X151568328Y-114258530D01*
X151427205Y-114399653D01*
X150615894Y-113588342D01*
X150601679Y-113571021D01*
X150532549Y-113514287D01*
X150453679Y-113472130D01*
X150368099Y-113446170D01*
X150301395Y-113439600D01*
X150301388Y-113439600D01*
X150279100Y-113437405D01*
X150256812Y-113439600D01*
X149832153Y-113439600D01*
X148828100Y-112435548D01*
X148828100Y-111121887D01*
X148830295Y-111099599D01*
X148828100Y-111077311D01*
X148828100Y-111077305D01*
X148821530Y-111010601D01*
X148816224Y-110993107D01*
X148795570Y-110925021D01*
X148789775Y-110914179D01*
X148753413Y-110846151D01*
X148713914Y-110798022D01*
X148710891Y-110794338D01*
X148710890Y-110794337D01*
X148696679Y-110777021D01*
X148679364Y-110762811D01*
X147567894Y-109651342D01*
X147553679Y-109634021D01*
X147484549Y-109577287D01*
X147405679Y-109535130D01*
X147320099Y-109509170D01*
X147253395Y-109502600D01*
X147253388Y-109502600D01*
X147231100Y-109500405D01*
X147208812Y-109502600D01*
X143951388Y-109502600D01*
X143929100Y-109500405D01*
X143906812Y-109502600D01*
X143906805Y-109502600D01*
X143848521Y-109508341D01*
X143840100Y-109509170D01*
X143786455Y-109525443D01*
X143754521Y-109535130D01*
X143683372Y-109573160D01*
X143689628Y-109552537D01*
X143697300Y-109474643D01*
X143697300Y-109474640D01*
X143699865Y-109448600D01*
X143697300Y-109422560D01*
X143697300Y-106549800D01*
X144411060Y-106549800D01*
X144437100Y-106552365D01*
X144463140Y-106549800D01*
X144463143Y-106549800D01*
X144541037Y-106542128D01*
X144640980Y-106511811D01*
X144733088Y-106462578D01*
X144813822Y-106396322D01*
X144830429Y-106376086D01*
X145936591Y-105269925D01*
X145956822Y-105253322D01*
X146023078Y-105172588D01*
X146072311Y-105080480D01*
X146102628Y-104980537D01*
X146110300Y-104902643D01*
X146110300Y-104902641D01*
X146112865Y-104876601D01*
X146110300Y-104850561D01*
X146110300Y-104517800D01*
X149998529Y-104517800D01*
X150024569Y-104520365D01*
X150050609Y-104517800D01*
X150050612Y-104517800D01*
X150079101Y-104514994D01*
X150079100Y-110591615D01*
X150035752Y-110620579D01*
X149927079Y-110729252D01*
X149841696Y-110857037D01*
X149782883Y-110999024D01*
X149752900Y-111149757D01*
X149752900Y-111303443D01*
X149782883Y-111454176D01*
X149841696Y-111596163D01*
X149927079Y-111723948D01*
X150035752Y-111832621D01*
X150163537Y-111918004D01*
X150305524Y-111976817D01*
X150456257Y-112006800D01*
X150609943Y-112006800D01*
X150760676Y-111976817D01*
X150902663Y-111918004D01*
X151030448Y-111832621D01*
X151139121Y-111723948D01*
X151224504Y-111596163D01*
X151283317Y-111454176D01*
X151313300Y-111303443D01*
X151313300Y-111149757D01*
X151283317Y-110999024D01*
X151224504Y-110857037D01*
X151139121Y-110729252D01*
X151030448Y-110620579D01*
X150987100Y-110591615D01*
X150987100Y-104416952D01*
X151457531Y-103946521D01*
X151497825Y-104006825D01*
X151599087Y-104108087D01*
X151610920Y-104115993D01*
X151520890Y-104206023D01*
X151441329Y-104325095D01*
X151386526Y-104457401D01*
X151358588Y-104597856D01*
X151358588Y-104741062D01*
X151386526Y-104881517D01*
X151441329Y-105013823D01*
X151520890Y-105132895D01*
X151622152Y-105234157D01*
X151741224Y-105313718D01*
X151873530Y-105368521D01*
X151921437Y-105378050D01*
X151887138Y-105460855D01*
X151859200Y-105601310D01*
X151859200Y-105744516D01*
X151887138Y-105884971D01*
X151941941Y-106017277D01*
X152021502Y-106136349D01*
X152122764Y-106237611D01*
X152241836Y-106317172D01*
X152374142Y-106371975D01*
X152514597Y-106399913D01*
X152657803Y-106399913D01*
X152798258Y-106371975D01*
X152930564Y-106317172D01*
X153049636Y-106237611D01*
X153150898Y-106136349D01*
X153230459Y-106017277D01*
X153285262Y-105884971D01*
X153313200Y-105744516D01*
X153313200Y-105601310D01*
X153310517Y-105587820D01*
X153321512Y-105576825D01*
X153321516Y-105576820D01*
X155878911Y-103019427D01*
X155896159Y-103005272D01*
X155952643Y-102936446D01*
X155994614Y-102857923D01*
X156020460Y-102772720D01*
X156027000Y-102706318D01*
X156027000Y-102706317D01*
X156027262Y-102703661D01*
X156132537Y-102774004D01*
X156132537Y-102774004D01*
G37*
X156132537Y-102774004D02*
X156274524Y-102832817D01*
X156425257Y-102862800D01*
X156501299Y-102862800D01*
X156501299Y-103321357D01*
X156422066Y-103288538D01*
X156281611Y-103260600D01*
X156138405Y-103260600D01*
X155997950Y-103288538D01*
X155865644Y-103343341D01*
X155746572Y-103422902D01*
X155645310Y-103524164D01*
X155565749Y-103643236D01*
X155510946Y-103775542D01*
X155483008Y-103915997D01*
X155483008Y-104059203D01*
X155485971Y-104074099D01*
X155451358Y-104116275D01*
X155409386Y-104194799D01*
X155383540Y-104280001D01*
X155374813Y-104368608D01*
X155377001Y-104390823D01*
X155377000Y-106361661D01*
X155365564Y-106369302D01*
X155264302Y-106470564D01*
X155184741Y-106589636D01*
X155129938Y-106721942D01*
X155102000Y-106862397D01*
X155102000Y-107005603D01*
X155129938Y-107146058D01*
X155169679Y-107242000D01*
X153414127Y-107242000D01*
X153103824Y-106931698D01*
X153089609Y-106914377D01*
X153020479Y-106857643D01*
X152941609Y-106815486D01*
X152856029Y-106789526D01*
X152789325Y-106782956D01*
X152789318Y-106782956D01*
X152767030Y-106780761D01*
X152760085Y-106781445D01*
X152732130Y-106739608D01*
X152623457Y-106630935D01*
X152495672Y-106545552D01*
X152353685Y-106486739D01*
X152202952Y-106456756D01*
X152049266Y-106456756D01*
X151898533Y-106486739D01*
X151756546Y-106545552D01*
X151628761Y-106630935D01*
X151520088Y-106739608D01*
X151434705Y-106867393D01*
X151375892Y-107009380D01*
X151345909Y-107160113D01*
X151345909Y-107313799D01*
X151375892Y-107464532D01*
X151434705Y-107606519D01*
X151520088Y-107734304D01*
X151628761Y-107842977D01*
X151756546Y-107928360D01*
X151898533Y-107987173D01*
X151992421Y-108005849D01*
X151925655Y-108105772D01*
X151866842Y-108247759D01*
X151836859Y-108398492D01*
X151836859Y-108552178D01*
X151866842Y-108702911D01*
X151925655Y-108844898D01*
X152011038Y-108972683D01*
X152119711Y-109081356D01*
X152163059Y-109110320D01*
X152163059Y-109138550D01*
X152163060Y-109138560D01*
X152163059Y-109859271D01*
X152160864Y-109881559D01*
X152163059Y-109903847D01*
X152163059Y-109903853D01*
X152165400Y-109927621D01*
X152169629Y-109970558D01*
X152174186Y-109985579D01*
X152195589Y-110056137D01*
X152237746Y-110135007D01*
X152294480Y-110204138D01*
X152311801Y-110218353D01*
X155784308Y-113690861D01*
X155798521Y-113708179D01*
X155815837Y-113722390D01*
X155815838Y-113722391D01*
X155834804Y-113737956D01*
X155867651Y-113764913D01*
X155941900Y-113804600D01*
X155946521Y-113807070D01*
X156032100Y-113833030D01*
X156041401Y-113833946D01*
X156098805Y-113839600D01*
X156098811Y-113839600D01*
X156121099Y-113841795D01*
X156143387Y-113839600D01*
X160505048Y-113839600D01*
X161391242Y-114725794D01*
X161350678Y-114823724D01*
X161305900Y-115048838D01*
X161305900Y-115278362D01*
X161350678Y-115503476D01*
X161438513Y-115715529D01*
X161566030Y-115906372D01*
X161728328Y-116068670D01*
X161919171Y-116196187D01*
X162004663Y-116231599D01*
X160397537Y-116231599D01*
X160483029Y-116196187D01*
X160673872Y-116068670D01*
X160836170Y-115906372D01*
X160963687Y-115715529D01*
X161051522Y-115503476D01*
X161096300Y-115278362D01*
X161096300Y-115048838D01*
X161051522Y-114823724D01*
X160963687Y-114611671D01*
X160836170Y-114420828D01*
X160673872Y-114258530D01*
X160483029Y-114131013D01*
X160270976Y-114043178D01*
X160045862Y-113998400D01*
X159816338Y-113998400D01*
X159591224Y-114043178D01*
X159379171Y-114131013D01*
X159188328Y-114258530D01*
X159026030Y-114420828D01*
X158898513Y-114611671D01*
X158810678Y-114823724D01*
X158765900Y-115048838D01*
X158765900Y-115278362D01*
X158810678Y-115503476D01*
X158898513Y-115715529D01*
X159026030Y-115906372D01*
X159188328Y-116068670D01*
X159379171Y-116196187D01*
X159464663Y-116231599D01*
X157857537Y-116231599D01*
X157943029Y-116196187D01*
X158133872Y-116068670D01*
X158296170Y-115906372D01*
X158423687Y-115715529D01*
X158511522Y-115503476D01*
X158556300Y-115278362D01*
X158556300Y-115048838D01*
X158511522Y-114823724D01*
X158423687Y-114611671D01*
X158296170Y-114420828D01*
X158133872Y-114258530D01*
X157943029Y-114131013D01*
X157730976Y-114043178D01*
X157505862Y-113998400D01*
X157276338Y-113998400D01*
X157051224Y-114043178D01*
X156839171Y-114131013D01*
X156648328Y-114258530D01*
X156486030Y-114420828D01*
X156358513Y-114611671D01*
X156270678Y-114823724D01*
X156225900Y-115048838D01*
X156225900Y-115278362D01*
X156270678Y-115503476D01*
X156358513Y-115715529D01*
X156486030Y-115906372D01*
X156648328Y-116068670D01*
X156839171Y-116196187D01*
X156924663Y-116231599D01*
X155317537Y-116231599D01*
X155403029Y-116196187D01*
X155593872Y-116068670D01*
X155756170Y-115906372D01*
X155883687Y-115715529D01*
X155971522Y-115503476D01*
X156016300Y-115278362D01*
X156016300Y-115048838D01*
X155971522Y-114823724D01*
X155883687Y-114611671D01*
X155756170Y-114420828D01*
X155593872Y-114258530D01*
X155403029Y-114131013D01*
X155190976Y-114043178D01*
X154965862Y-113998400D01*
X154736338Y-113998400D01*
X154511224Y-114043178D01*
X154299171Y-114131013D01*
X154108328Y-114258530D01*
X153946030Y-114420828D01*
X153818513Y-114611671D01*
X153730678Y-114823724D01*
X153685900Y-115048838D01*
X153685900Y-115278362D01*
X153730678Y-115503476D01*
X153818513Y-115715529D01*
X153946030Y-115906372D01*
X154108328Y-116068670D01*
X154299171Y-116196187D01*
X154384663Y-116231599D01*
X152777537Y-116231599D01*
X152863029Y-116196187D01*
X153053872Y-116068670D01*
X153216170Y-115906372D01*
X153343687Y-115715529D01*
X153431522Y-115503476D01*
X153476300Y-115278362D01*
X153476300Y-115048838D01*
X153431522Y-114823724D01*
X153343687Y-114611671D01*
X153216170Y-114420828D01*
X153053872Y-114258530D01*
X152863029Y-114131013D01*
X152650976Y-114043178D01*
X152425862Y-113998400D01*
X152196338Y-113998400D01*
X151971224Y-114043178D01*
X151759171Y-114131013D01*
X151568328Y-114258530D01*
X151427205Y-114399653D01*
X150615894Y-113588342D01*
X150601679Y-113571021D01*
X150532549Y-113514287D01*
X150453679Y-113472130D01*
X150368099Y-113446170D01*
X150301395Y-113439600D01*
X150301388Y-113439600D01*
X150279100Y-113437405D01*
X150256812Y-113439600D01*
X149832153Y-113439600D01*
X148828100Y-112435548D01*
X148828100Y-111121887D01*
X148830295Y-111099599D01*
X148828100Y-111077311D01*
X148828100Y-111077305D01*
X148821530Y-111010601D01*
X148816224Y-110993107D01*
X148795570Y-110925021D01*
X148789775Y-110914179D01*
X148753413Y-110846151D01*
X148713914Y-110798022D01*
X148710891Y-110794338D01*
X148710890Y-110794337D01*
X148696679Y-110777021D01*
X148679364Y-110762811D01*
X147567894Y-109651342D01*
X147553679Y-109634021D01*
X147484549Y-109577287D01*
X147405679Y-109535130D01*
X147320099Y-109509170D01*
X147253395Y-109502600D01*
X147253388Y-109502600D01*
X147231100Y-109500405D01*
X147208812Y-109502600D01*
X143951388Y-109502600D01*
X143929100Y-109500405D01*
X143906812Y-109502600D01*
X143906805Y-109502600D01*
X143848521Y-109508341D01*
X143840100Y-109509170D01*
X143786455Y-109525443D01*
X143754521Y-109535130D01*
X143683372Y-109573160D01*
X143689628Y-109552537D01*
X143697300Y-109474643D01*
X143697300Y-109474640D01*
X143699865Y-109448600D01*
X143697300Y-109422560D01*
X143697300Y-106549800D01*
X144411060Y-106549800D01*
X144437100Y-106552365D01*
X144463140Y-106549800D01*
X144463143Y-106549800D01*
X144541037Y-106542128D01*
X144640980Y-106511811D01*
X144733088Y-106462578D01*
X144813822Y-106396322D01*
X144830429Y-106376086D01*
X145936591Y-105269925D01*
X145956822Y-105253322D01*
X146023078Y-105172588D01*
X146072311Y-105080480D01*
X146102628Y-104980537D01*
X146110300Y-104902643D01*
X146110300Y-104902641D01*
X146112865Y-104876601D01*
X146110300Y-104850561D01*
X146110300Y-104517800D01*
X149998529Y-104517800D01*
X150024569Y-104520365D01*
X150050609Y-104517800D01*
X150050612Y-104517800D01*
X150079101Y-104514994D01*
X150079100Y-110591615D01*
X150035752Y-110620579D01*
X149927079Y-110729252D01*
X149841696Y-110857037D01*
X149782883Y-110999024D01*
X149752900Y-111149757D01*
X149752900Y-111303443D01*
X149782883Y-111454176D01*
X149841696Y-111596163D01*
X149927079Y-111723948D01*
X150035752Y-111832621D01*
X150163537Y-111918004D01*
X150305524Y-111976817D01*
X150456257Y-112006800D01*
X150609943Y-112006800D01*
X150760676Y-111976817D01*
X150902663Y-111918004D01*
X151030448Y-111832621D01*
X151139121Y-111723948D01*
X151224504Y-111596163D01*
X151283317Y-111454176D01*
X151313300Y-111303443D01*
X151313300Y-111149757D01*
X151283317Y-110999024D01*
X151224504Y-110857037D01*
X151139121Y-110729252D01*
X151030448Y-110620579D01*
X150987100Y-110591615D01*
X150987100Y-104416952D01*
X151457531Y-103946521D01*
X151497825Y-104006825D01*
X151599087Y-104108087D01*
X151610920Y-104115993D01*
X151520890Y-104206023D01*
X151441329Y-104325095D01*
X151386526Y-104457401D01*
X151358588Y-104597856D01*
X151358588Y-104741062D01*
X151386526Y-104881517D01*
X151441329Y-105013823D01*
X151520890Y-105132895D01*
X151622152Y-105234157D01*
X151741224Y-105313718D01*
X151873530Y-105368521D01*
X151921437Y-105378050D01*
X151887138Y-105460855D01*
X151859200Y-105601310D01*
X151859200Y-105744516D01*
X151887138Y-105884971D01*
X151941941Y-106017277D01*
X152021502Y-106136349D01*
X152122764Y-106237611D01*
X152241836Y-106317172D01*
X152374142Y-106371975D01*
X152514597Y-106399913D01*
X152657803Y-106399913D01*
X152798258Y-106371975D01*
X152930564Y-106317172D01*
X153049636Y-106237611D01*
X153150898Y-106136349D01*
X153230459Y-106017277D01*
X153285262Y-105884971D01*
X153313200Y-105744516D01*
X153313200Y-105601310D01*
X153310517Y-105587820D01*
X153321512Y-105576825D01*
X153321516Y-105576820D01*
X155878911Y-103019427D01*
X155896159Y-103005272D01*
X155952643Y-102936446D01*
X155994614Y-102857923D01*
X156020460Y-102772720D01*
X156027000Y-102706318D01*
X156027000Y-102706317D01*
X156027262Y-102703661D01*
X156132537Y-102774004D01*
G36*
X125671100Y-108578600D02*
X126119840Y-108578600D01*
X126119472Y-108597330D01*
X126119648Y-108599574D01*
X126119113Y-108605841D01*
X126119162Y-108608311D01*
X126119702Y-108628600D01*
X125671100Y-108628600D01*
X125671100Y-108876599D01*
X125621100Y-108876599D01*
X125621100Y-108628600D01*
X125172360Y-108628600D01*
X125172728Y-108609870D01*
X125172552Y-108607627D01*
X125173087Y-108601360D01*
X125173038Y-108598889D01*
X125172498Y-108578600D01*
X125621100Y-108578600D01*
X125621100Y-108330601D01*
X125671100Y-108330601D01*
X125671100Y-108578600D01*
X125671100Y-108578600D01*
G37*
X125671100Y-108578600D02*
X126119840Y-108578600D01*
X126119472Y-108597330D01*
X126119648Y-108599574D01*
X126119113Y-108605841D01*
X126119162Y-108608311D01*
X126119702Y-108628600D01*
X125671100Y-108628600D01*
X125671100Y-108876599D01*
X125621100Y-108876599D01*
X125621100Y-108628600D01*
X125172360Y-108628600D01*
X125172728Y-108609870D01*
X125172552Y-108607627D01*
X125173087Y-108601360D01*
X125173038Y-108598889D01*
X125172498Y-108578600D01*
X125621100Y-108578600D01*
X125621100Y-108330601D01*
X125671100Y-108330601D01*
X125671100Y-108578600D01*
G36*
X144424351Y-99201399D02*
X143947300Y-99201399D01*
X143947300Y-99084757D01*
X143917317Y-98934024D01*
X143858504Y-98792037D01*
X143773121Y-98664252D01*
X143664448Y-98555579D01*
X143536663Y-98470196D01*
X143394676Y-98411383D01*
X143243943Y-98381400D01*
X143090257Y-98381400D01*
X142939524Y-98411383D01*
X142797537Y-98470196D01*
X142669752Y-98555579D01*
X142593931Y-98631400D01*
X138913153Y-98631400D01*
X138345518Y-98063766D01*
X138345518Y-97956539D01*
X138315535Y-97805806D01*
X138268560Y-97692399D01*
X142915352Y-97692399D01*
X144424351Y-99201399D01*
X144424351Y-99201399D01*
G37*
X144424351Y-99201399D02*
X143947300Y-99201399D01*
X143947300Y-99084757D01*
X143917317Y-98934024D01*
X143858504Y-98792037D01*
X143773121Y-98664252D01*
X143664448Y-98555579D01*
X143536663Y-98470196D01*
X143394676Y-98411383D01*
X143243943Y-98381400D01*
X143090257Y-98381400D01*
X142939524Y-98411383D01*
X142797537Y-98470196D01*
X142669752Y-98555579D01*
X142593931Y-98631400D01*
X138913153Y-98631400D01*
X138345518Y-98063766D01*
X138345518Y-97956539D01*
X138315535Y-97805806D01*
X138268560Y-97692399D01*
X142915352Y-97692399D01*
X144424351Y-99201399D01*
G04 #@! TD*
M02*
